<?xml version="1.0" encoding="utf-8"?>
<!-- Generator: Adobe Illustrator 24.1.2, SVG Export Plug-In . SVG Version: 6.00 Build 0)  -->
<svg version="1.1" xmlns="http://www.w3.org/2000/svg" xmlns:xlink="http://www.w3.org/1999/xlink" x="0px" y="0px"
	 viewBox="0 0 333.8 333.8" style="enable-background:new 0 0 333.8 333.8;" xml:space="preserve">
<style type="text/css">
	.st0{fill:#DDDDDD;}
	.st1{fill:#2E2E2E;stroke:#DDDDDD;stroke-width:3;stroke-miterlimit:10;}
	.st2{font-family:'Pridi-Regular';}
	.st3{font-size:21px;}
</style>
<g id="Camada_1">
</g>
<g id="Camada_2">
	<g>
		<polygon class="st0" points="253.8,245.7 246.7,245.7 246.7,155.5 90.4,155.5 90.4,244.7 83.2,244.7 83.2,148.3 253.8,148.3 		"/>
		<path class="st0" d="M227.7,191.8c-0.4-0.9-0.9-1.7-1.5-2.4c-3.4-4.4-6.6-8.9-10-13.4c-0.6-0.8-1.2-1.4-2.2-1.7
			c-0.9-0.3-1.5-0.9-1.5-2.1c0-0.8-0.1-1.7-0.2-2.5c-0.3-1.4-0.9-2.2-2.2-2.4c-1.2-0.2-2.4,0.5-2.8,1.8c-0.1,0.4-0.4,0.3-0.6,0.3
			c-4.1-0.4-7.9,0.6-11.7,2c-4,1.5-7.4,3.9-10.9,6.2c-2.1,1.4-4.3,2.6-7,2.7c-0.4,0-0.5,0.2-0.5,0.5c-0.1,2.5,2,4.3,4.6,3.8
			c0.6-0.1,1.2-0.4,1.9-0.3c-1.1,1.6-2.2,3.2-3.2,4.8c-0.4,0.6-0.6,0.8-1.4,0.8c-4.7-0.1-9.4-0.1-14.1,0c-1.1,0-2.3,0.1-3.1,1
			c-0.4,0.5-0.8,0.4-1.3,0.3c-3.5-0.8-7-1.2-10.6-0.5c-5.1,1-9.6,3-13.1,6.9c-0.9,1-1.8,1.9-3,2.5c-1.8,1.1-3.8,1.6-5.9,1.6
			c-2.4,0-4.8,0-7.2,0.1c-1,0-1.8,0.7-2,1.5c-0.3,1,0,1.9,0.8,2.6c0.5,0.4,1.1,0.6,1.8,0.6c1.7,0,3.4,0,5.2,0
			c-0.7,1.7-1.5,3.2-2.6,4.6c-2,2.6-4.6,4.3-8,4.4c-1.6,0-3.2,0-4.8,0c-1.5,0-2.5,0.9-2.4,2.2c0.1,1.4,1.2,2.6,2.7,2.6
			c1.2,0,2.4,0,3.7,0c5.3,0,9.6-2.1,13-6.3c1.3-1.6,2.8-3,3.8-4.9c0.5-0.4-0.3,1.2-0.5,1.9c-0.5,2.1-0.8,4.1-1.4,6.2
			c-0.6,2.2-0.7,4.6-2.2,6.5c-1,1.3-1.4,2.7-1.6,4.3c-0.3,2.1-0.4,4.3-1.2,6.3c-1.2,3.1-2.5,6.2-3.8,9.2c-0.3,0.8-0.8,1-1.5,0.9
			c-1.4-0.1-53.6-0.1-55,0.1c-1.2,0.2-1.7,0.7-1.8,1.9c0,3.6,0,7.2,0,10.8c0,0.8,0.3,1.5,1.1,1.7c0.3-0.1,0.7,0,1,0
			c35.7,0,172,0,207.7,0c0.3,0,0.7,0,1,0c0.8-0.2,1.1-0.9,1.1-1.6c0-3.8,0-7.6,0-11.4c0-0.9-0.6-1.4-1.4-1.5c-0.7-0.1-1.4-0.1-2-0.1
			c-16.5,0-82.7,0-99.2,0c-10.4,0-20.9,0-31.3,0c-0.2,0-0.5,0.1-0.8-0.1c1.1-2.1,2-4.4,3.3-6.4c1.2-1.9,3-3,5.3-2.6
			c1.7,0.3,3.2,0.1,4.9-0.2c2.9-0.5,5.4-1.6,7.4-3.8c1.4-1.6,2.3-3.6,3-5.6c0.1-0.4,0.3-0.6,0.7-0.4c3,0.9,6.1,1.5,9.3,1.8
			c3.2,0.4,6.4,0.7,9.6,0.1c0.9-0.2,1.7-0.2,2.6,0.2c2.6,1,5.2,1.6,7.9,2.3c1.4,0.4,2.8,0.7,4.1,1.1c0.2,0.1,1,0.1,0.4,0.7
			c-0.7,0.7-1.5,1.4-2.4,2c-1.3,0.8-2.6,1.1-4.1,0.9c-1.3-0.1-2.6,0.1-3.8,0.7c-0.3,0.1-0.5,0.2-0.6,0.6c-0.1,1-0.5,2-0.9,2.9
			c-0.3,0.7-0.1,0.9,0.6,0.9c2.4,0,4.9-0.1,7.3,0c0.5,0,0.9-0.1,1.4-0.3c2.3-0.8,3.9-2.4,5.8-3.7c0.9-0.6,1.5-1.6,2.6-1.7
			c0.9-0.1,1.5-0.7,1.9-1.4c0.7-1.3,1.1-2.7,0.4-4.1c1.3-0.3,2.4,0,3.4,0.9c0.4,0.4,0.9,0.9,1.3,1.3c0.2,0.2,0.3,0.3,0.1,0.5
			c-1,1.9-2,3.8-3.1,5.7c-0.2,0.4-0.5,0.6-1,0.6c-1.1,0-2.3,0-3.4,0c-0.8,0-1.5,0.3-1.8,1c-0.7,1.4-0.8,3-0.9,4.6
			c2.8-0.4,5.6-0.9,8.3-1.2c1.6-0.2,2.8-1.2,3.7-2.6c0.8-1.2,1.4-2.5,2.2-3.8c1.2-2,2.5-4,3.6-6.1c1-1.9,0.3-4.7-1.4-6
			c-3.6-2.7-7.1-5.7-10.6-8.5c-0.5-0.4-0.3-0.6-0.1-1c1.3-1.8,2.3-3.6,2.7-5.9c0.3-2.2,0.2-4.3-0.2-6.4c-0.4-2.6-0.8-5.3-1.2-8
			c1.7,0.9,3.4,1.8,5.1,2.7c2.2,1.1,4.4,2.3,6.6,3.4c1.1,0.5,2.2,0.6,3.2-0.1c1.7-1.2,3.3-2.5,4.7-4.1
			C228.1,194.2,228.2,193.1,227.7,191.8z M165.3,194.7c3.5,0,7.1,0,10.6,0c0.6,0,0.7,0.2,0.7,0.8c0,4.6,0,9.3,0,13.9
			c0,0.6-0.1,0.8-0.8,0.8c-3.5,0-6.9,0-10.4,0c-0.5,0-0.7-0.1-0.7-0.7c0-2.4,0-4.8,0-7.2c0,0,0,0,0,0c0-2.4,0-4.7,0-7.1
			C164.8,194.8,164.9,194.7,165.3,194.7z M90.9,249c7.8,0,15.6,0,23.3,0c0,0,0,0,0,0c16.7,0,137.9,0,154.6,0c0.5,0,0.7,0.1,0.6,0.7
			c-0.1,1.2-0.1,2.3,0,3.5c0.1,0.8-0.2,1-0.9,0.9c-2.1,0-108.7,0-110.8,0c-30.8,0-57.8,0-88.5,0c-2,0-2,0-2-2c0-0.9,0-1.8,0-2.7
			c0-0.4,0-0.6,0.5-0.6C76.6,249,81.9,249,90.9,249z M142.8,230c-1.8,0.3-3,1.3-3.8,2.9c-1.6,3.6-3.2,7.2-4.8,10.8
			c-0.2,0.4-0.3,0.6-0.7,0.6c-2.4,0-4.9,0-7.3,0c1.3-3.5,2.9-6.9,4.3-10.3c0.7-1.6,1.9-2.6,3.6-2.9c3.1-0.7,6.1-1.5,8.9-3.2
			c0.7-0.4,1.4-0.8,2.1-1.3c0.4,1,0.7,2.2,1.4,3.2C145.2,230,144,229.8,142.8,230z M222.5,192.7c-0.3,0.6-0.7,1.2-1.3,1.7
			c-0.3,0.3-0.5,0-0.7,0c-2.6-1-5.1-2.5-7.6-3.7c-1.8-0.9-3.5-1.7-5.3-2.7c-0.5-0.3-0.7-0.5-0.7-1c0-0.6-0.1-1.2-0.3-1.8
			c-0.5-1.3-1.7-2.1-2.9-1.8c-1.4,0.2-2.2,1.2-2.2,2.7c-0.1,1.7,0.4,3.2,0.6,4.9c0.7,4.5,1.4,8.9,2,13.4c0.5,3.4-0.9,6-3.2,8.3
			c-1.8,1.8-3.8,3.2-6.3,3.9c-1.9,0.5-2.5,2-1.6,3.6c0.3,0.5,0.2,0.7,1.1,1.1c0.3,0.1,0.5,0,0.7,0.2c2.7,2,5.4,3.9,8.1,6
			c-1.7-0.4-3.4-0.9-5.1-1.3c-4.6-1.3-9.2-2.6-13.8-3.9c-0.5-0.1-1-0.2-1.5,0c-2.5,0.7-5,0.4-7.4,0.2c-5-0.5-9.8-1.7-14.6-3
			c-2.1-0.6-4.2-1.3-6.3-1.8c-2.6-0.7-4.8,0.1-7,1.6c-2.5,1.8-4.8,3.8-7.4,5.3c-1.6,0.9-3.2,1.5-5,1.8c-0.4,0.1-0.5,0-0.6-0.4
			c-0.4-2.7-0.1-5.3,0.5-7.9c0.5-2.6,1.1-5.2,1.9-7.7c1.4-3.9,3.1-7.6,6-10.5c2.5-2.5,5.5-3.8,8.9-4.3c2.5-0.3,4.9,0,7.3,0.6
			c0.4,0.1,0.6,0.3,0.6,0.8c0,4.9,0,9.9,0,14.8c0,2.2,1.2,3.5,3.5,3.4c5-0.1,10-0.2,15,0c2,0.1,4-0.9,3.9-3.8
			c-0.1-4.4,0-8.9-0.1-13.3c0-1.5,0.3-2.8,1.1-4c4.2-6.2,8.8-11.9,14.7-16.6c3-2.4,6.5-3.7,10.5-3.5c-0.8,1.3-0.9,2.5-0.2,3.7
			c0.8,1.2,1.9,1.4,3.2,1.2c0.8-0.1,1.2,0.1,1.7,0.7c3.1,3.9,5.8,8.1,8.9,11.9C222.1,191.8,222.6,192.4,222.5,192.7z"/>
	</g>
	<g>
		<line class="st0" x1="169" y1="95.3" x2="169" y2="148.5"/>
		<g>
			<rect x="75" y="150.4" class="st0" width="188.4" height="4.7"/>
			<path class="st0" d="M265.4,157H73.1v-8.6h192.3V157z M77,153.1h184.5v-0.8H77V153.1z"/>
		</g>
		<path class="st0" d="M262.7,152.2c-0.5-0.2-49.2-20.7-65-18.7c-7.3,0.9-22.3,12.9-27.5,17.4l-1.1,1l-1.3-0.8
			c-6.8-4.5-25.9-16.5-33.1-17.6c-6.4-1-18.6,1.9-35.2,8.4c-12.7,5-23.5,10.3-23.7,10.3l-1.7-3.5c1.8-0.9,44.2-21.7,61.2-19.1
			c8.4,1.3,28.2,14,33.4,17.4c4.3-3.7,19.7-16.3,28.5-17.4c16.8-2.1,64.9,18.2,67,19L262.7,152.2z"/>
		<path class="st0" d="M263.7,98.1c-0.5-0.2-49.7-21.8-65.7-19.8c-7.4,1-22.6,13.6-27.8,18.4l-1.2,1.1l-1.3-0.9
			c-6.8-4.8-26.2-17.4-33.4-18.6c-6.5-1.1-18.8,2-35.5,8.8C86,92.3,75.1,98,74.9,98l-1.8-3.5c1.8-0.9,44.7-22.9,61.9-20.1
			c8.5,1.4,28.5,14.7,33.8,18.3c4.4-3.9,20-17.2,28.8-18.3c17-2.2,65.7,19.2,67.7,20.1L263.7,98.1z"/>
		<path class="st0" d="M75.1,151.3l-0.4-1.2c1.7-0.7,43-16.2,59.1-14.2c9,1.1,32.4,13,33.4,13.5l-0.6,1.1
			c-0.2-0.1-24.2-12.4-33-13.4C117.8,135.2,75.6,151.1,75.1,151.3z"/>
		<path class="st0" d="M75.5,151.2l-0.2-1.2c0.4-0.1,42.9-8.2,59-7.2c9,0.5,32.3,6.6,33.3,6.8l-0.3,1.2c-0.2-0.1-24.3-6.3-33.1-6.8
			C118.3,143,75.9,151.1,75.5,151.2z"/>
		<path class="st0" d="M260.4,151.5c-0.4-0.2-42-16.1-57.6-14.2c-8.6,1-32.2,13.3-32.5,13.4l-0.6-1.1c1-0.5,24-12.5,32.9-13.5
			c15.9-1.9,56.4,13.6,58.2,14.2L260.4,151.5z"/>
		<path class="st0" d="M87.6,103.3l-0.4-1.2c1.4-0.7,35-16.2,48.1-14.2c7.3,1.1,26.4,13,27.2,13.5l-0.5,1.1
			c-0.2-0.1-19.7-12.4-26.9-13.4C122.3,87.2,87.9,103.1,87.6,103.3z"/>
		<path class="st0" d="M252,103.5c-0.3-0.2-34.2-16.1-46.9-14.2c-7,1-26.2,13.3-26.4,13.4l-0.5-1.1c0.8-0.5,19.5-12.5,26.8-13.5
			c12.9-1.9,45.9,13.6,47.3,14.2L252,103.5z"/>
		<path class="st0" d="M87.6,113.7l-0.4-1.2c1.4-0.7,35-16.2,48.1-14.2c7.3,1.1,26.4,13,27.2,13.5l-0.5,1.1
			c-0.2-0.1-19.7-12.4-26.9-13.4C122.3,97.7,87.9,113.6,87.6,113.7z"/>
		<path class="st0" d="M252,113.9c-0.3-0.2-34.2-16.1-46.9-14.2c-7,1-26.2,13.3-26.4,13.4l-0.5-1.1c0.8-0.5,19.5-12.5,26.8-13.5
			c12.9-1.9,45.9,13.6,47.3,14.2L252,113.9z"/>
		<path class="st0" d="M87.6,124.2l-0.4-1.2c1.4-0.7,35-16.2,48.1-14.2c7.3,1.1,26.4,13,27.2,13.5l-0.5,1.1
			c-0.2-0.1-19.7-12.4-26.9-13.4C122.3,108.1,87.9,124,87.6,124.2z"/>
		<path class="st0" d="M252,124.3c-0.3-0.2-34.2-16.1-46.9-14.2c-7,1-26.2,13.3-26.4,13.4l-0.5-1.1c0.8-0.5,19.5-12.5,26.8-13.5
			c12.9-1.9,45.9,13.6,47.3,14.2L252,124.3z"/>
		<path class="st0" d="M87.6,134.6l-0.4-1.2c1.4-0.7,35-16.2,48.1-14.2c7.3,1.1,26.4,13,27.2,13.5l-0.5,1.1
			c-0.2-0.1-19.7-12.4-26.9-13.4C122.3,118.5,87.9,134.4,87.6,134.6z"/>
		<path class="st0" d="M252,134.8c-0.3-0.2-34.2-16.1-46.9-14.2c-7,1-26.2,13.3-26.4,13.4l-0.5-1.1c0.8-0.5,19.5-12.5,26.8-13.5
			c12.9-1.9,45.9,13.6,47.3,14.2L252,134.8z"/>
		<path class="st0" d="M260.1,151.3c-0.4-0.1-42-8.1-57.7-7.2c-8.7,0.5-32.3,6.7-32.5,6.8l-0.3-1.2c1-0.3,24-6.3,32.8-6.8
			c15.8-1,57.6,7.1,58,7.2L260.1,151.3z"/>
		<polygon class="st0" points="265.4,152.5 73.1,152.5 73.1,94.6 77,94.6 77,148.6 261.5,148.6 261.5,94.6 265.4,94.6 		"/>
	</g>
	<rect x="104.7" y="131.9" class="st1" width="129.9" height="31.6"/>
	<text transform="matrix(1 0 0 1 123.3678 155.1278)" class="st0 st2 st3">LARGADA</text>
</g>
</svg>
