<?xml version="1.0" encoding="utf-8"?>
<!-- Generator: Adobe Illustrator 24.1.2, SVG Export Plug-In . SVG Version: 6.00 Build 0)  -->
<svg version="1.1" xmlns="http://www.w3.org/2000/svg" xmlns:xlink="http://www.w3.org/1999/xlink" x="0px" y="0px"
	 viewBox="0 0 333.8 333.8" style="enable-background:new 0 0 333.8 333.8;" xml:space="preserve">
<style type="text/css">
	.st0{fill:#ADADAD;}
	.st1{fill:#FFFFFF;}
	.st2{fill:none;stroke:#F3F3F3;stroke-width:8;stroke-miterlimit:10;}
	.st3{fill:#F3F3F3;}
</style>
<g id="Camada_1">
</g>
<g id="Camada_2">
	<g>
		<path class="st0" d="M252.8,220.1c0.1,2.1-1.3,1-2,0.9c-4.5-1.1-9.1-2.4-13.7-2.8c-0.3,0.2-0.6,0.3-0.9-0.1
			c-1.3-0.3-2.5-0.6-3.8-0.9c-0.3-0.6-0.6-0.1-0.9-0.1c-0.3,0-0.7,0-1,0c-1-0.5-2-0.2-3,0.2c-0.2,0.1-0.4,0-0.6-0.2
			c-3.1-1.2-6.4-0.7-9.7-1.1c-0.2-0.1-0.4-0.2-0.6-0.3c-2.7,0.2-5.4,0.2-8.1,0c-0.2,0.1-0.4,0.2-0.6,0.3c-3.8,0.3-7.6,0.2-11.3,1
			c-0.4,0.5-0.9,0.4-1.4,0.1c-0.3,0-0.7-0.1-1-0.1c-0.4-0.3-0.8-0.2-1.2-0.2c-0.3,0-0.6-0.1-0.2,0.3c-6.6,1.3-13.3,2.4-19.7,4.5
			c-0.5-1-0.3-2-0.3-2.9c0-35.6,0-71.2-0.1-106.8c0-2.2,0.7-3,2.7-3.5c5.9-1.6,11.9-2.5,17.8-3.8c0.3-0.4,0.6-0.3,0.9-0.1
			c0.9,0,1.8,0.1,2.7-0.4c0.3-0.4,0.6-0.3,0.9-0.1c8.9-0.7,17.8-1.4,26.7-0.9c4.9,0.3,9.8,0.4,14.6,1.4c0.3,0.6,0.6,0.2,0.9,0.1
			c0.5,0,1,0,1.5-0.1c0.3-0.2,0.6-0.3,0.8,0.1c2.7,0.5,5.3,1,7.9,1.5c0.9,0.2,2.2,0,2.4,1.4c-0.4,0.9-0.2,1.8-0.2,2.7
			c0,19.4,0,38.9,0,58.3c0,16.2,0,32.5,0,48.7C252.6,218.2,252.4,219.2,252.8,220.1z"/>
		<path class="st0" d="M118.9,215.9c-3.8,0.3-7.6,0.3-11.3,1c-0.3,0.4-0.6,0.3-0.9,0.1c-1.1-0.1-2.1-0.1-3.1,0.4
			c-0.3,0.4-0.6,0.3-0.9,0.1c-6,0.8-12,2-17.8,3.6c-0.1-0.1-0.2-0.2-0.4-0.3c-0.2-0.3-0.3-0.6-0.3-0.9c-0.1-7-0.1-13.9-0.1-20.9
			c0-28.5,0-57,0-85.5c0-1.5,0.1-3.1-0.2-4.6c-0.1-0.3-0.1-0.6-0.2-0.9c0-0.2,0-0.3-0.1-0.5c0.4-1.3,1.7-1.2,2.7-1.4
			c2.6-0.6,5.2-1,7.8-1.5c0.4-0.6,0.9-0.4,1.4-0.2c0.3,0,0.7,0.1,1,0.1c0.3,0.1,0.7,0.6,0.9-0.1c7.4-1.3,15-1.5,22.5-1.5
			c5.2,0,10.3,0.1,15.4,0.9c-0.1,0.2-0.2,0.3-0.3,0.3c-0.2,0-0.4,0-0.4,0c-0.1,0.3,0.1,0.5-0.1,0.2c0-0.1,0-0.2,0.1-0.2
			c0.5-0.1,1.1,0.2,1.6-0.2c0.8,0,1.7,0,2.5,0c0.3-0.3,0.6-0.3,0.9,0.1c0.8,0.5,1.8,0.4,2.7,0.4c0.3-0.2,0.6-0.3,0.9,0.1
			c0.8,0.5,1.7,0.5,2.7,0.4c0.3-0.2,0.6-0.3,0.8,0.1c5,1.2,10,2.3,15.1,3.5c1.3,0.3,2,0.7,2,2.3c-0.1,36.6-0.1,73.2-0.1,109.8
			c0,0.2-0.1,0.3-0.2,0.8c-6.5-1.9-13.2-3.2-19.9-4.4c0,0.3-0.1-0.5,0.1-0.2c0.2,0.3,0.5,0,0.1-0.1c-0.5-0.1-1.1-0.2-1.6,0.1
			c-0.3,0-0.7,0.1-1,0.1c-0.5,0.2-1,0.4-1.4-0.1c-3.6-0.7-7.2-0.7-10.8-1c-0.2-0.1-0.4-0.3-0.6-0.4c-3,0-6,0.3-9.1,0
			C119.3,215.7,119.1,215.8,118.9,215.9z"/>
		<path class="st0" d="M53.6,258.9c-11.9-4.8-3.2-144.1-3.1-144.3c0.3-0.3,10-7.6,24.2-7.5c1.5,0,4.1-9.3,5.7-9.6
			c60.5-10.7,67.7,2.5,88.1,2.9c17.7,0.3,25.2-10.4,87.8-2.3c5.8,0.7,2,8.5,6.8,9.4c15.5,2.6,24.9,10.2,24.9,10.6
			c-0.2,46.1,4.3,133.2-3.3,141.1c-6.6,6.8-38.5-10.2-83.5-10.1c-11.6,0-5.2,14.2-30.4,15.3c-22.3,1-22.9-13.9-34.6-15.1
			C93.9,245.1,68,264.8,53.6,258.9z"/>
	</g>
	<path class="st1" d="M104.8,194.7c-0.5,1.2-1.8,1.8-2.6,2.8c4.1-1,6.4-3.6,7.5-7.3c0.5-1.9,0.7-3.8,0.5-5.7c-0.2-0.5-0.2-1,0-1.4
		c0.1-0.3,0.2,0,0.4,0c0.7,1.4,0.5,3,0.7,4.5c1-1.4,1.2-2.9,1.3-4.5c0.2-3.5-0.6-6.9-1.6-10.2c-0.4-1.2-0.5-2.3-0.2-3.6
		c1.2,3.1,3.5,5.6,5.4,8.3c1.7,2.4,1.4,4.7,0.3,7c-0.5,1.1-0.2,2.1-0.1,3.2c0.3,2.3,1.7,4.2,2.4,6.3c0.5,1.6,0.7,3.2,0.3,4.8
		c-0.1,0.3-0.2,0.6-0.1,0.8c0.7,1.1,1.7,2.1,1.6,3.7c0,0.3,1,0.2,1.6,0.3c0.6,0,1.2-0.1,1.6,0.7c0.3,0.7,1.3,0.4,2,0.4
		c0.9,0,2.1,0.5,2.5-0.3c0.4-0.7-0.6-1.4-1.1-2.1c-1.7-2.5-3.4-5-4.7-7.7c-1.2-2.5-1-5.2-0.7-7.8c0.1-0.7,0.7-1.1,1.1-1.6
		c2.8-3.4,4.9-7,6.2-11.2c0.5-1.7,0.6-3.3-0.2-4.9c-0.9-1.8-0.7-3.3,1.1-4.6c0.5-0.4,0.9-0.9,1.3-1.4c2.3-1.7,5.5-6.4,6.3-7.8
		c1.6-2.3,2.7-4.7,3.7-7.2c0.4-0.9,0.9-1.6,1.8-2.1c0.6-0.3,1.2-0.7,1.7-1.2c1-0.8,1.9-0.6,2.2,0.7c0.4,1.6,0.8,3.2-0.6,4.6
		c-0.9,0.9,0.3,0.8,0.9,1.1c-1.6,0.3-3.4,0.3-2.9,2.4c0.2,0.9,1,0.9,1.7,0.9c0.5,0,1.1,0.1,1.6-0.1c2.7-1.4,3.4-4.3,5-6.4
		c0.6-0.9,0.8-1.7,0.4-2.7c-0.9-2.4-2.1-4.8-2.2-7.5c0-0.2-0.1-0.4-0.3-0.6c-0.8-0.8-3.2-1.1-4.2-0.4c-0.7,0.4-1.4,0.9-2.1,1.4
		c-0.7,0.5-1.4,0.9-2.1,1.5c-0.1-0.3-0.3-0.5-0.3-0.7c-0.3-2.5-2-3.7-4.3-4.7c-2.7-1.2-4.5-3.3-5.6-5.9c-0.4-1-0.6-2.1-1-3.2
		c2.6,0,5.1-0.4,7.4,1.2c1,0.7,2.9,0,3.5-1.2c0.5-1-0.1-2.8-1.3-3.3c-2.3-1-4.4-2.4-6.5-3.9c-0.4-0.3-0.9-0.5-1.2-1
		c0.3-0.3,0.5-0.8,1.1-0.6c1.5,0.3,2.9,0,4.3-0.7c-0.5-0.2-1-0.1-1.4,0c-1.3,0.2-2.6,0.2-3.8-0.3c-1-0.5-2.1-0.6-3.1-0.1
		c-0.4,0.2-0.7,0.1-1-0.2c-0.4-0.3-0.6-0.7-1.2-0.7c-0.3,0.5,0.1,1,0,1.6c-0.7-0.2-1-0.8-1.4-1.1c-0.3-0.2-0.5-0.6-1-0.4
		c-0.3,0.2-0.4,0.6-0.3,0.8c0.4,1.2-0.3,1.2-1.3,1.4c-1.2,0.2-2.5,0.4-3.4,1.5c-0.3,0.1,0.7,0.3-0.1,0.5c-1,0.3-2,0.9-2.4,2
		c-2.4,2.3-4.5,4.8-5.6,8.2c4.2-3.5,4.2-3.5,5.8-3.6c-1.9,1.7-3.9,3.3-4.2,5.9c0.6,0.1,0.6-0.4,0.9-0.6c-0.5,0.5-0.3,1.1-0.6,1.7
		c-0.3,1.1-0.6,2.3-0.9,3.4c-0.3,0.5,0,0.8,0.3,1.2c0.1,1.3,0,2.6-1,3.7c0,0.5,1,0.7,0.6,1.4c0.8,3.1-0.7,5.4-3.4,7.3
		c1.5,0,1.7-0.1,4.8-3.1c1.3-1.1,1.7-2.7,2-4.2c-0.1-0.4,0.1-0.8,0.1-1c-0.3,0.5,0.1,1.3-0.3,2c-0.3,1.2-0.8,2.3-1.6,3.3
		c0.3,0.6-0.3,0.8-0.6,1.1c-1,1.1-2.1,2.2-3.1,3.4c-0.9,1.1-1.4,2.3-0.8,3.6c0,0.2,0,0.5,0.3,0.5c0.4,0.1,0.4-0.2,0.5-0.5
		c0.1-1,0.7-1.6,1.7-1.8c0.8-0.2,1.6-0.5,2.4-0.8c0.8-0.2,1.6-0.5,2.5-1c-0.7,1.1-1.4,1.9-2.4,2.5c-0.4,0.3-1.1,0.5-0.8,1.2
		c0.3,0.2,0.7,0.2,1,0.2c3.4-1.1,5.5-3.4,6.3-6.6c-0.2,0,0.1,0.1,0-0.1c0-0.1,0-0.1,0,0.1c0,0.4-0.1,0.7-0.3,1
		c-0.4,1.4-1.1,2.6-1.9,3.8c-0.3,0.4-4.4,3-8.7,10.2c-0.6,1.1-0.7,2.1-2.1,2.5c-0.8,0.2-1.3,1-1.9,1.6c-1,1.1-2.2,1.8-3.6,2.3
		c-0.3,0.1-0.8-0.1-0.9,0.4c-0.1,0.7,0.7,0.2,1,0.6c-0.5,0.3-1.1,0.6-1.6,0.9c-0.1,0.5,0.4,0.3,0.6,0.4c0.2,0.1,0.3,0.1,0.1,0.4
		c-2.1,3.2-2.7,6.7-2.3,10.3c0.4,3.6,0.1,7-3,9.7c-0.2,0.2-0.3,0.4-0.1,0.7c1.2-0.5,2.1-1.4,3.1-2.2c1.2-0.8,1.8-1.6,2.7-4.2
		c-0.3,1.7-1.6,3-2.4,4.5c-0.8,0.9-1.7,1.8-2.5,2.7c-0.7,0.9-1.5,1.8-1.3,3c0.1,0.5,0.1,1,0.8,1.3c-0.4-1.4,0.5-1.9,1.6-2.3
		c1.7-0.6,3.6-1,5.2-1.8c0.2-0.2,0.5-0.2,0.7-0.2C104.9,194.3,105,194.5,104.8,194.7z"/>
	<g>
		<path class="st2" d="M288.2,187.1c0,20.7,0,41.4,0,62.1c0,3.2-0.7,6.1-2.9,8.4c-2.9,3.1-7.4,4-11.7,2.3
			c-11.4-4.6-23-8.1-35.1-10.1c-12.1-2.1-24.2-2.6-36.4-0.9c-2.1,0.3-3.6,1.3-5,2.8c-15,16.7-41.8,16.6-56.9-0.1
			c-1.3-1.4-2.8-2.4-4.8-2.7c-11-1.5-22-1.2-32.9,0.3c-13.4,1.9-26.3,5.7-38.9,10.7c-7,2.8-13.8-1.6-14.4-9.1c-0.1-0.8,0-1.7,0-2.5
			c0-40.6,0-81.2,0-121.9c0-8.7,2.9-12.8,11.2-15.7c4-1.4,8.2-2.2,12.4-2.7c1.5-0.2,2.2-0.5,2.4-2.1c0.8-5,3.8-8,8.8-9
			c9.2-1.8,18.4-2.9,27.7-3.3c18.8-0.8,37.2,1.3,55.3,6.4c1.2,0.3,2.3,0.3,3.5,0c14.9-4.4,30.2-6.4,45.6-6.6
			c12.6-0.2,25.2,0.9,37.6,3.7c4.7,1,7.6,4,8.4,8.7c0.3,1.7,1,2.1,2.6,2.3c4.5,0.4,8.9,1.4,13.1,3c7.4,2.7,10.4,7,10.4,14.8
			C288.2,146.2,288.2,166.7,288.2,187.1z"/>
		<path class="st2" d="M261.9,223.1c0.6-1.1,0.4-2.3,0.4-3.5c0-33.3,0-66.6,0-99.9c0-2.4,0.6-3.1,2.9-2.7c3.6,0.6,7.1,1.4,10.6,2.7
			c1.7,0.6,2.9,1.7,3.5,3.4c0.2,0.3,0.2,0.6,0.2,1c-0.1,40.7,0,81.5,0,122.2c0,1.4,0.1,2.7-0.1,4.1c0,0.2-0.1,0.3-0.1,0.5
			c-0.8,1.3-1.8,0.8-2.9,0.4c-13.6-5.5-27.7-9.4-42.3-11.3c-11-1.4-21.9-1.6-32.9-0.1c-4,0.5-7.5,2.1-10.1,5.3
			c-11,13.2-33.5,13.2-44.5-0.1c-2.4-2.9-5.7-4.6-9.4-5.1c-8.4-1.1-16.9-1.6-25.3-0.7c-1.4,0.5-2.9-0.1-4.2,0.4
			c-13.1,1-25.7,4.3-38,8.5c-2.9,1-5.7,2.1-8.6,3.2c-1,0.4-1.9,0.7-2.6-0.5c0-0.2-0.1-0.3-0.1-0.5c-0.2-1.4-0.1-2.7-0.1-4.1
			c0-40.7,0-81.5,0-122.2c0-0.3,0.1-0.7,0.2-1c0.5-1.4,1.3-2.5,2.8-3.1c4-1.7,8.2-2.7,12.5-3.1c1.3-0.1,1.7,0.3,1.6,1.5
			c-0.1,0.6,0,1.2,0,1.8c0,33.1,0,66.3,0,99.4c0,1.2-0.3,2.4,0.4,3.5c0.2,0,0.3,0.1,0.2,0.2c0,0.1-0.1,0.2-0.2,0.2
			c0.9,3.4,3.1,5.4,6.6,6.1c0.1-0.1,0.3-0.2,0.5-0.1c0.2,0.1,0.4,0.2,0.5,0.3c0.6,0.2,1.2,0.2,1.8,0c0.2-0.1,0.4-0.2,0.6-0.3
			c0.2-0.1,0.4-0.1,0.6,0.1c8.1-2.1,16.3-3.8,24.7-4.6c18.6-1.8,36.9,0,54.6,6c2,0.7,3.8,0.9,5.9,0.2c25.7-8.7,51.7-8.9,77.8-2
			c0.8,0.2,1.6,0.3,2.5,0.5c0.1,0,0.2,0.1,0.3,0.1c0.2,0.1,0.4,0.1,0.6,0.2c0.5,0,1,0.1,1.6-0.1c0.2-0.1,0.3-0.2,0.5-0.3
			c0.2-0.1,0.4,0,0.5,0.1c3.5-0.6,5.7-2.7,6.6-6.1c-0.2-0.1-0.2-0.2-0.1-0.3C261.7,223.2,261.8,223.1,261.9,223.1z"/>
		<path class="st2" d="M253.1,219.4c0.1,2.1-1.3,1-2,0.9c-4.5-1.1-9.1-2.4-13.7-2.8c-0.3,0.2-0.6,0.3-0.9-0.1
			c-1.3-0.3-2.5-0.6-3.8-0.9c-0.3-0.6-0.6-0.1-0.9-0.1c-0.3,0-0.7,0-1,0c-1-0.5-2-0.2-3,0.2c-0.2,0.1-0.4,0-0.6-0.2
			c-3.1-1.2-6.4-0.7-9.7-1.1c-0.2-0.1-0.4-0.2-0.6-0.3c-2.7,0.2-5.4,0.2-8.1,0c-0.2,0.1-0.4,0.2-0.6,0.3c-3.8,0.3-7.6,0.2-11.3,1
			c-0.4,0.5-0.9,0.4-1.4,0.1c-0.3,0-0.7-0.1-1-0.1c-0.4-0.3-0.8-0.2-1.2-0.2c-0.3,0-0.6-0.1-0.2,0.3c-6.6,1.3-13.3,2.4-19.7,4.5
			c-0.5-1-0.3-2-0.3-2.9c0-35.6,0-71.2-0.1-106.8c0-2.2,0.7-3,2.7-3.5c5.9-1.6,11.9-2.5,17.8-3.8c0.3-0.4,0.6-0.3,0.9-0.1
			c0.9,0,1.8,0.1,2.7-0.4c0.3-0.4,0.6-0.3,0.9-0.1c8.9-0.7,17.8-1.4,26.7-0.9c4.9,0.3,9.8,0.4,14.6,1.4c0.3,0.6,0.6,0.2,0.9,0.1
			c0.5,0,1,0,1.5-0.1c0.3-0.2,0.6-0.3,0.8,0.1c2.7,0.5,5.3,1,7.9,1.5c0.9,0.2,2.2,0,2.4,1.4c-0.4,0.9-0.2,1.8-0.2,2.7
			c0,19.4,0,38.9,0,58.3c0,16.2,0,32.5,0,48.7C252.9,217.6,252.7,218.5,253.1,219.4z"/>
		<path class="st2" d="M119.3,215.3c-3.8,0.3-7.6,0.3-11.3,1c-0.3,0.4-0.6,0.3-0.9,0.1c-1.1-0.1-2.1-0.1-3.1,0.4
			c-0.3,0.4-0.6,0.3-0.9,0.1c-6,0.8-12,2-17.8,3.6c-0.1-0.1-0.2-0.2-0.4-0.3c-0.2-0.3-0.3-0.6-0.3-0.9c-0.1-7-0.1-13.9-0.1-20.9
			c0-28.5,0-57,0-85.5c0-1.5,0.1-3.1-0.2-4.6c-0.1-0.3-0.1-0.6-0.2-0.9c0-0.2,0-0.3-0.1-0.5c0.4-1.3,1.7-1.2,2.7-1.4
			c2.6-0.6,5.2-1,7.8-1.5c0.4-0.6,0.9-0.4,1.4-0.2c0.3,0,0.7,0.1,1,0.1c0.3,0.1,0.7,0.6,0.9-0.1c7.4-1.3,15-1.5,22.5-1.5
			c5.2,0,10.3,0.1,15.4,0.9c-0.1,0.2-0.2,0.3-0.3,0.3c-0.2,0-0.4,0-0.4,0c-0.1,0.3,0.1,0.5-0.1,0.2c0-0.1,0-0.2,0.1-0.2
			c0.5-0.1,1.1,0.2,1.6-0.2c0.8,0,1.7,0,2.5,0c0.3-0.3,0.6-0.3,0.9,0.1c0.8,0.5,1.8,0.4,2.7,0.4c0.3-0.2,0.6-0.3,0.9,0.1
			c0.8,0.5,1.7,0.5,2.7,0.4c0.3-0.2,0.6-0.3,0.8,0.1c5,1.2,10,2.3,15.1,3.5c1.3,0.3,2,0.7,2,2.3c-0.1,36.6-0.1,73.2-0.1,109.8
			c0,0.2-0.1,0.3-0.2,0.8c-6.5-1.9-13.2-3.2-19.9-4.4c0,0.3-0.1-0.5,0.1-0.2c0.2,0.3,0.5,0,0.1-0.1c-0.5-0.1-1.1-0.2-1.6,0.1
			c-0.3,0-0.7,0.1-1,0.1c-0.5,0.2-1,0.4-1.4-0.1c-3.6-0.7-7.2-0.7-10.8-1c-0.2-0.1-0.4-0.3-0.6-0.4c-3,0-6,0.3-9.1,0
			C119.6,215,119.4,215.2,119.3,215.3z"/>
		<path class="st3" d="M229.2,152.3c2.5-0.1,4.9,0.7,7.3,1.1c0.7,0.4,1.4,0.4,2.1,0c1.5-0.4,2.6-1.1,3.1-2.7c-0.1-1,0.7-2,0.1-3
			c-0.4-1.9-1.9-2.7-3.7-3.1c-5-1.2-10.1-1.7-15.2-2.1c-0.5-0.2-1-0.4-1.6-0.4c-1.9,0.3-3.8,0.3-5.7,0c-0.6,0-1.1,0.2-1.6,0.4
			c-7.2,0.5-14.3,1.5-21.3,3.4c-1.9,0.5-3.3,1.4-4,3.3c0,0.1,0,0.2-0.1,0.3c-0.1,0.6-0.1,1.3,0,1.9c0,0.1,0,0.2,0.1,0.3
			c1.5,2.9,3.2,3.7,6.3,2.9c4.2-1.1,8.3-2.2,12.7-2.4c0.3,0.3,0.6,0.3,0.9-0.1c6.6-1,13.1-1,19.7,0
			C228.5,152.6,228.9,152.6,229.2,152.3z"/>
		<path class="st3" d="M188.8,201.7c0.6,1.6,1.4,2.8,3.3,3c0.9,0.6,1.7-0.1,2.6,0c4.5-1,9-2.2,13.7-2.4c0.1-0.1,0.2-0.1,0.2-0.2
			c1-0.4,2-0.1,2.9,0c0.3-0.1,0.7-0.1,1-0.3c0.2,0,0.3,0,0.5,0c3.7,0.3,7.3,0.3,11,0c0.5,0,1.1-0.1,1.6-0.1c1-0.4,1.9-0.1,2.7-0.2
			c-0.2-0.1-0.5-0.1-0.8,0.3c2.8,0.5,5.7,1,8.5,1.5c0.1,0,0.2,0,0.3,0.1c0.8,0.1,1.6,0.2,2.5,0c0.1,0,0.2,0,0.3-0.1
			c1.3-0.5,2.2-1.3,2.7-2.6c0-0.1,0-0.2,0.1-0.3c0.2-0.8,0.2-1.6,0-2.4c0-0.1,0-0.2-0.1-0.3c-1.1-3-4-3.1-6.6-3.5
			c-1.1-0.2-2.3-0.3-3.5-0.5c-0.3,0.3-0.8,0.2-1.2,0.3c0-0.2,0.1-0.3,0.3-0.4c-8.1-1.5-16.3-1.2-24.5-0.2c-4.7,0.5-9.3,1.5-13.8,2.8
			c-1.8,0.5-3.2,1.4-3.8,3.1c0,0.1,0,0.2-0.1,0.3c-0.2,0.6-0.2,1.3,0,1.9C188.7,201.5,188.7,201.6,188.8,201.7z"/>
		<path class="st3" d="M241.9,172.6c-0.5-1.7-1.8-2.6-3.5-3c-2-0.4-4-0.7-6-1c-0.5,0.1-1,0.6-1.4-0.2c-8.3-1.4-16.7-1.4-25,0
			c-0.3,0.5-0.3,0.5-1.4,0.2c-4.4,0.3-8.6,1.5-12.8,2.6c-1.5,0.4-2.5,1.4-3,2.9c0,0.1,0,0.2-0.1,0.3c-0.2,0.6-0.2,1.3,0,1.9
			c0,0.1,0,0.2,0.1,0.3c1.5,3,3.1,3.7,6.5,2.9c4.1-1,8.2-2.2,12.5-2.3c0.2,0.1,0.4,0.2,0.6,0.1c0.7-0.2,1.1-1,2-0.7
			c0.9,0,1.8,0.1,2.6,0.1c3.7,0.3,7.3,0.3,11,0c0.9,0,1.8-0.1,2.6-0.1c1-0.6,1.7,0.5,2.6,0.4c2.3,0.4,4.6,0.8,6.8,1.2
			c0.1,0,0.2,0,0.3,0.1c0.7,0.2,1.3,0.1,2,0.1c0.1,0,0.2,0,0.3,0c1.5-0.4,2.6-1.3,3.2-2.7c0-0.1,0.1-0.2,0.1-0.3
			c0.2-0.8,0.2-1.6,0-2.4C241.9,172.9,241.9,172.8,241.9,172.6z"/>
		<path class="st3" d="M188.8,126.8c1,2.5,2.9,3.5,5.6,3c3.5-0.7,6.9-1.6,10.3-2.4c0.2-0.7,0.6-0.2,0.9-0.1c8.3-0.9,16.6-1.2,24.9,0
			c2,0.3,3.9,0.8,5.9,1.1c2.4,0.4,4.3-0.2,5.2-2.6c0-1,0.7-2,0.1-3c-0.3-1.7-1.6-2.6-3.1-3c-1.9-0.5-3.8-1.1-5.8-1
			c-0.3,0.3-0.7,0.1-1.1,0.3c0-0.2,0.1-0.3,0.2-0.4c-1.7-0.3-3.3-0.6-5-0.9c-0.1-0.3-0.3-0.3-0.4,0c-1,0-2.1,0-3.1-0.1
			c-0.4-0.2-0.7-0.4-1.2-0.4c-2.5,0.3-5.1,0.3-7.6,0c-0.4,0-0.8,0.1-1.2,0.4c-0.9,0-1.7,0-2.6,0c-0.3-0.3-0.6-0.3-0.9,0.1
			c-1.7,0.3-3.3,0.6-5,0.9c0.1,0.1,0.2,0.3,0.2,0.4c-0.3-0.2-0.8,0-1.1-0.3c-4.2,0.3-8.3,1.4-12.4,2.6c-1.5,0.4-2.5,1.5-2.9,3
			c0,0.1,0,0.2-0.1,0.3c-0.1,0.6-0.1,1.3,0,1.9C188.7,126.6,188.8,126.7,188.8,126.8z"/>
	</g>
</g>
</svg>
