<?xml version="1.0" encoding="utf-8"?>
<!-- Generator: Adobe Illustrator 24.1.2, SVG Export Plug-In . SVG Version: 6.00 Build 0)  -->
<svg version="1.1" id="Camada_1" xmlns="http://www.w3.org/2000/svg" xmlns:xlink="http://www.w3.org/1999/xlink" x="0px" y="0px"
	 viewBox="0 0 1074.61 428.52" style="enable-background:new 0 0 1074.61 428.52;" xml:space="preserve">
<style type="text/css">
	.st0{fill:none;stroke:#90681D;stroke-width:5;stroke-miterlimit:10;}
	.st1{fill:#90681D;stroke:#90681D;stroke-width:2;stroke-miterlimit:10;}
	.st2{fill:#E0AA11;}
	.st3{fill:#E0AA11;stroke:#000000;stroke-width:4;stroke-miterlimit:10;}
	.st4{fill:#010202;stroke:#90681D;stroke-width:3;stroke-miterlimit:10;}
	.st5{stroke:#90681D;stroke-width:3;stroke-miterlimit:10;}
</style>
<g>
	<g>
		<path class="st0" d="M146.52,125.57c0,0-8.75,10.1-16.37,26.17c-7.37,15.55-9.92,26.78-9.92,26.78s-3.3-6.28-10.12-13.73
			c-3.5-3.83-11.48-9.47-11.48-9.47s-2.84,9.47-10.13,13.78c-5.52,3.27-17.42,1.25-17.42,1.25s-4.29,8.87-17.28,18.51
			c-3.29,2.44-2.47,3.72-4.04,4.66c-5.94,3.55-14.87,2.1-17.29-2.28c-1.28-2.32-1.79-3.4-2.83-6.77c-0.3-0.99-0.74-2.38-3.51-5.03
			c-2.16-2.07-2.79-2.56-3.03-3.63c-0.49-2.12,1.03-4.23,1.65-5.14c14.61-21.48,14.56-21.22,28.67-43.56
			c4.2-6.66-1.46-8.18,4.14-14.22c6.41-6.93,8.32-9.94,14.2-17.3c1.43-1.79-3.14-1.06-5.55-16.88c-0.71-4.63-0.74-8.79-0.74-8.79
			s0.34,0.55,2.48,4.03c0,0,0.6,0.91,2.57,3.4l0.14-10.36c0,0,11.32,15.63,11.82,15.73c6.96,1.44,17.82,1.74,33.81,12.33
			C133.11,106.18,146.52,125.57,146.52,125.57z"/>
		<path class="st0" d="M218.7,125.57c0,0,8.75,10.1,16.37,26.17c7.37,15.55,9.92,26.78,9.92,26.78s3.3-6.28,10.12-13.73
			c3.5-3.83,11.48-9.47,11.48-9.47s2.84,9.47,10.13,13.78c5.52,3.27,17.42,1.25,17.42,1.25s4.29,8.87,17.28,18.51
			c3.29,2.44,2.47,3.72,4.04,4.66c5.94,3.55,14.87,2.1,17.29-2.28c1.28-2.32,1.79-3.4,2.83-6.77c0.3-0.99,0.74-2.38,3.51-5.03
			c2.16-2.07,2.79-2.56,3.03-3.63c0.49-2.12-1.03-4.23-1.65-5.14c-14.61-21.48-14.56-21.22-28.67-43.56
			c-4.2-6.66,1.46-8.18-4.14-14.22c-6.41-6.93-8.32-9.94-14.2-17.3c-1.43-1.79,3.14-1.06,5.55-16.88c0.71-4.63,0.74-8.79,0.74-8.79
			s-0.34,0.55-2.48,4.03c0,0-0.6,0.91-2.57,3.4l-0.14-10.36c0,0-11.32,15.63-11.82,15.73c-6.96,1.44-17.82,1.74-33.81,12.33
			C232.1,106.18,218.7,125.57,218.7,125.57z"/>
		<g>
			<g>
				<path class="st1" d="M188.82,87.24h13.08l0.9-2.6h-13.92c-0.75,0.05-1.15,0.58-1.15,1.3l0,0
					C187.73,86.66,188.3,87.24,188.82,87.24z"/>
				<path class="st1" d="M166.7,71.73h-12.53l-0.86-2.6h13.33c0.72,0.05,1.1,0.58,1.1,1.3l0,0C167.75,71.15,167.2,71.73,166.7,71.73
					z"/>
				<path class="st1" d="M192.45,212.78h22.22l1.52-2.6h-23.65c-1.27,0.05-1.95,0.58-1.95,1.3l0,0
					C190.6,212.2,191.57,212.78,192.45,212.78z"/>
				<path class="st1" d="M166.69,236.26h-10.75l-0.79-2.6h11.48c0.73,0.05,1.11,0.58,1.11,1.3l0,0
					C167.75,235.68,167.19,236.26,166.69,236.26z"/>
				<path class="st1" d="M173.81,186.63h-19.89l0.7-2.6h19.11c1.07,0.05,1.64,0.58,1.64,1.3l0,0
					C175.36,186.05,174.55,186.63,173.81,186.63z"/>
				<path class="st1" d="M191.55,343.05h11.41l0.78-2.6H191.6c-0.65,0.05-1,0.58-1,1.3l0,0C190.6,342.47,191.1,343.05,191.55,343.05
					z"/>
				<path class="st1" d="M173.87,356.68h-19.52l0.28-2.6h19.16c1.03,0.05,1.58,0.58,1.58,1.3l0,0
					C175.36,356.1,174.58,356.68,173.87,356.68z"/>
			</g>
			<path class="st2" d="M123.05,30.41c3.08,5.86,6.08,35.44,15.42,53.25c6.46,12.31,22.88,33.04,22.88,33.04l6.04-7.03
				c0,0-12.12-12.27-23.71-30.43c-9.38-14.7-13.18-33.08-13.42-46.51c-0.05-2.6,1.81-3.63,1.85-7.02c0.04-3.1-1.48-6.31-4.15-6.26
				c-3.66,0.06-5.17,1.72-5.87,3.88C121.39,25.5,121.52,27.51,123.05,30.41z"/>
			<path class="st2" d="M145.61,59.68c2.82,3.23-0.32,1.83,12.48,22.97c6.82,11.25,15.51,19.71,15.51,19.71l3.6-4.16
				c0,0-7.27-7.31-16.08-19.53c-9-12.5-10.64-18.42-9.8-21.16c0.5-1.61,0.23-3.27-0.16-5.33c-0.56-2.97-2.09-4.48-4.72-4.53
				c-1.98-0.04-3.06,3.31-3.17,5.49C143.17,55.25,144.09,57.93,145.61,59.68z"/>
			<path class="st2" d="M201.71,131.75c0,0,10.46,12.52,13.11,15.82c5.48,6.81,7.34,9.62,7.34,9.62s-2.43-6.22-5.33-10.8
				c-4.42-6.99-12.12-17.9-12.12-17.9L201.71,131.75z"/>
			<path class="st2" d="M216.2,59.57c-0.54,4.07-6.68,12.24-11.41,19.14c-6.04,8.82-10.15,12.17-13.93,16.59
				c-5.04,5.89-7.33,8.54-14.28,15.83c-2.14,2.25-10.55,11.79-16.1,18.98c-11.39,14.74-14.92,24.64-14.92,24.64
				s6.44-9.1,18.33-22.34c7.53-8.38,10.58-11.55,20.53-21.98c10.92-11.45,18-19.16,21.58-24.68c7.41-11.45,11.59-19.33,13.85-24.25
				c1.74-3.8,3.34-4.58,3.82-7.46c0.66-3.96-1.65-6.55-3.82-6.36c-1.45,0.13-3.14,2.65-3.62,5.79
				C215.73,56.71,216.45,57.68,216.2,59.57z"/>
			<path class="st2" d="M235.79,32.61c-0.23,5.96-1.11,15.65-4.51,26.9c-3.92,12.98-10.72,23.01-18.52,33.01
				c-12.99,16.65-19.41,21.69-42.51,45.41c-14.15,14.53-19.26,23.96-24.01,36.23c-8.13,21.02-6.9,40.3-4.61,52.84
				c5.35,29.25,29.96,54.84,29.96,54.84l6.92-9.49c0,0-14.35-19.37-20.6-33.72c-8.34-19.12-6.58-39.38-3.69-51.51
				c3.97-16.64,13.85-30.14,24.88-41.85c16.49-17.5,42.61-48.41,49.12-62.52c9.66-20.96,11.4-44.56,14.01-51.87
				c0.49-1.37,2.05-3.31,1.61-6.46c-0.52-3.75-2.68-4.94-4.76-4.98c-2.17-0.04-4.53,1.85-4.79,5.67
				C234.12,27.73,235.88,30.33,235.79,32.61z"/>
			<path class="st2" d="M241.27,390.98c-1.45-4.54,0.34-9.87-9.18-34.23c-8.05-20.61-23.55-42.92-23.55-42.92l-5.35,4.5
				c0,0,13.45,15.66,22.46,35.1c9.33,20.12,11.51,29.78,10.74,37.72c-0.27,2.71-2.28,4.98-2.47,7.45c-0.36,4.8,2.5,6.4,4.94,6.43
				c2.13,0.02,3.67-1.97,4.51-4.4C244.06,398.61,242.28,394.14,241.27,390.98z"/>
			<path class="st2" d="M220.19,367.6c-2.19-2.72-2.89-10.95-8.42-20.09c-7.96-13.16-16.79-22.27-16.79-22.27l-5.64,4.63
				c0,0,11.16,10.02,16.39,17.12c5.53,7.51,9.55,13.86,10.93,20.55c0.43,2.11-1.93,3.41-1.71,7.13c0.13,2.17,1.31,6.2,4.1,6.29
				c1.86,0.06,4.38-0.87,4.24-6.85C223.24,372.32,222.37,370.31,220.19,367.6z"/>
			<path class="st2" d="M163.61,293c0,0-14.4-12.69-26.69-35.89c-14.09-26.59-5.64-63.03-5.64-63.03s-13.1,23.47-3.76,58.63
				c6.54,24.61,29.95,48.26,29.95,48.26L163.61,293z"/>
			<path class="st2" d="M149.85,368.91c0.54-4.07,2.15-7.8,9.23-18.05c6.17-8.93,16.43-18.05,25.01-26.2
				c9.45-8.97,24.16-20.67,31.99-29.34c10.31-11.41,16.29-20.94,21.47-36.56c11.59-34.93-2.74-64.71-2.74-64.71
				s4.87,24.75,1.77,42.7c-1.89,10.97-5.39,21.98-16.75,37.72c-10.63,14.73-22.19,25.47-38,41.04
				c-10.47,10.3-16.64,18.45-21.1,24.28c-11.76,15.37-11.15,23.99-14.98,27.83c-1.81,1.82-3.32,4.27-3.35,7.13
				c-0.03,1.98,0.94,6.26,4.24,6.26c2.86,0,3.91-3.1,4.21-4.89C151.43,372.89,149.6,370.81,149.85,368.91z"/>
			<path class="st2" d="M131.25,391.38c-0.69-4.49,2.37-21.19,4.05-26.14c3.73-10.97,7.92-21.11,17.82-33.57
				c17.13-21.56,23.25-28.02,42.39-49.9c13.9-15.89,21.58-28.98,25.46-41.6c5.05-16.42,6.15-30.69,4.46-43.34
				c-5.1-38.13-29.42-58.48-29.42-58.48l-7.81,8.64c0,0,12.64,13.71,22.52,34.93c6.23,21.13,4.36,42.47-1.5,55.19
				c-6.6,14.32-11.59,22.18-21.33,35.69c-13.86,19.24-18.87,25.38-38.46,53.88c-9.02,13.12-13.47,22.72-16.89,32.24
				c-2.57,7.14-4.62,24.81-7.23,32.12c-0.49,1.37-2.8,4.03-3.02,7.26c-0.27,3.94,2.97,6.69,5.05,6.69c2.14,0,4.77-2.28,5.55-6.69
				C133.34,395.71,131.6,393.63,131.25,391.38z"/>
			<path class="st2" d="M180.07,300.68"/>
			<path class="st2" d="M157.85,272.92"/>
		</g>
	</g>
	<g>
		<path class="st3" d="M407.08,128.17c0-9.01,0.37-15.49,1.11-19.42s1.98-7.35,3.73-10.24c3.06-5.08,7.57-8.81,13.52-11.18
			c5.95-2.38,13.82-3.56,23.6-3.56c6.83,0,13.6,0.77,20.32,2.29c6.72,1.53,13.36,3.82,19.91,6.88v33.1h-27.2v-0.66
			c0-5.57-1.08-9.71-3.24-12.41s-5.42-4.06-9.79-4.06c-4.7,0-8.09,1.42-10.16,4.26c-2.08,2.84-3.11,7.51-3.11,14.01v42.77
			c0,6.56,1.04,11.25,3.11,14.09c2.08,2.84,5.46,4.26,10.16,4.26c4.59,0,7.91-1.41,9.96-4.22s3.07-7.52,3.07-14.13v-4.34h-11.55
			v-19.99h38.76v56.05c-5.79,3.88-12.1,6.81-18.93,8.81c-6.83,1.99-13.93,2.99-21.3,2.99c-8.85,0-16.13-0.98-21.84-2.95
			s-10.2-5.03-13.48-9.18c-2.4-3.11-4.11-6.84-5.12-11.18s-1.52-11.4-1.52-21.18v-40.81H407.08z"/>
		<path class="st3" d="M533.6,178.4c0,5.46,0.86,9.37,2.58,11.72c1.72,2.35,4.55,3.52,8.48,3.52c3.66,0,6.42-1.09,8.28-3.28
			c1.86-2.18,2.79-5.46,2.79-9.83v-0.49h25.32v21.8c-5.24,3.44-10.98,6.06-17.21,7.87c-6.23,1.8-12.62,2.7-19.17,2.7
			c-12.95,0-22.34-2.55-28.19-7.66c-5.85-5.11-8.77-13.4-8.77-24.87v-29.5c0-11.53,2.94-19.87,8.81-25.03
			c5.87-5.16,15.25-7.74,28.15-7.74c12.67,0,21.91,2.61,27.7,7.83c5.79,5.22,8.69,13.53,8.69,24.95v20.08H533.6V178.4z
			 M533.6,151.69v2.54h22.12v-3.69c0-4.92-0.9-8.52-2.7-10.82s-4.59-3.44-8.36-3.44c-3.88,0-6.69,1.22-8.44,3.65
			C534.47,142.36,533.6,146.28,533.6,151.69z"/>
		<path class="st3" d="M626.85,179.88c0,4.64,0.41,7.73,1.23,9.26s2.32,2.6,4.51,3.2v18.6h-36.96v-18.6
			c2.13-0.33,3.62-1.43,4.47-3.32c0.85-1.88,1.27-5.42,1.27-10.61v-29.09c0-4.21-0.4-7.01-1.19-8.4s-2.31-2.5-4.55-3.32v-18.27
			h31.22v5.65c3.5-2.02,6.99-3.55,10.49-4.59s6.88-1.56,10.16-1.56c9.89,0,16.95,2.42,21.18,7.25s6.35,13.15,6.35,24.95v28.52
			c0,5.14,0.44,8.51,1.31,10.12s2.43,2.5,4.67,2.66l0.08,18.6H652c-0.93-2.62-1.6-5.84-2.01-9.67c-0.41-3.82-0.61-9.83-0.61-18.03
			v-28.68c0-6.17-0.9-10.54-2.7-13.11s-4.78-3.85-8.93-3.85c-1.75,0-3.54,0.37-5.37,1.11s-3.67,1.82-5.53,3.24V179.88z"/>
		<path class="st3" d="M720.83,178.4c0,5.46,0.86,9.37,2.58,11.72c1.72,2.35,4.55,3.52,8.48,3.52c3.66,0,6.42-1.09,8.28-3.28
			c1.86-2.18,2.79-5.46,2.79-9.83v-0.49h25.32v21.8c-5.24,3.44-10.98,6.06-17.21,7.87c-6.23,1.8-12.62,2.7-19.17,2.7
			c-12.95,0-22.34-2.55-28.19-7.66s-8.77-13.4-8.77-24.87v-29.5c0-11.53,2.94-19.87,8.81-25.03s15.25-7.74,28.15-7.74
			c12.67,0,21.91,2.61,27.7,7.83c5.79,5.22,8.69,13.53,8.69,24.95v20.08h-47.44v7.93H720.83z M720.83,151.69v2.54h22.12v-3.69
			c0-4.92-0.9-8.52-2.7-10.82c-1.8-2.29-4.59-3.44-8.36-3.44c-3.88,0-6.69,1.22-8.44,3.65C721.7,142.36,720.83,146.28,720.83,151.69
			z"/>
		<path class="st3" d="M812.44,94.5v24.83h10.9v20.16h-10.9v35.89c0,6.5,0.7,10.9,2.09,13.19c1.39,2.29,3.92,3.44,7.58,3.44h1.23
			v18.6c-2.24,0.66-4.38,1.15-6.43,1.47s-3.95,0.49-5.69,0.49c-8.8,0-15.08-2.5-18.85-7.5s-5.65-14.24-5.65-27.74v-37.86h-4.67
			v-20.16h4.67v-16.96L812.44,94.5z"/>
		<path class="st3" d="M870.13,179.88c0,4.81,0.4,7.95,1.19,9.42s2.25,2.49,4.38,3.03v18.6h-36.96v-18.6
			c2.13-0.33,3.62-1.43,4.47-3.32c0.85-1.88,1.27-5.42,1.27-10.61v-29.09c0-4.21-0.4-7.01-1.19-8.4s-2.31-2.5-4.55-3.32v-18.27
			h31.38v60.56H870.13z M841.45,100.15c0-3.99,1.41-7.42,4.22-10.28c2.81-2.87,6.21-4.3,10.2-4.3c4.04,0,7.48,1.43,10.32,4.3
			s4.26,6.3,4.26,10.28c0,3.99-1.45,7.39-4.34,10.2c-2.9,2.81-6.31,4.22-10.24,4.22c-3.88,0-7.25-1.43-10.12-4.3
			C842.88,107.4,841.45,104.03,841.45,100.15z"/>
		<path class="st3" d="M938.96,153.41v-2.87c0-4.92-0.9-8.52-2.7-10.82c-1.8-2.29-4.59-3.44-8.36-3.44c-3.88,0-6.69,1.22-8.44,3.65
			s-2.62,6.35-2.62,11.76v26.71c0,5.46,0.86,9.37,2.58,11.72c1.72,2.35,4.55,3.52,8.48,3.52s6.76-1.15,8.48-3.44
			c1.72-2.29,2.58-6.23,2.58-11.8V173h23.84v29.58c-4.81,3.11-10.24,5.53-16.31,7.25c-6.06,1.72-12.26,2.58-18.6,2.58
			c-12.95,0-22.34-2.55-28.19-7.66s-8.77-13.4-8.77-24.87v-29.5c0-11.25,2.88-19.53,8.64-24.83s14.76-7.95,27-7.95
			c6.17,0,12.3,0.83,18.4,2.5c6.09,1.67,12.03,4.14,17.82,7.42v25.89H938.96z"/>
		<path class="st3" d="M977.55,205.2v-24.66h25.48c0,4.48,0.75,7.73,2.25,9.75s3.89,3.03,7.17,3.03c2.73,0,4.89-0.76,6.47-2.29
			c1.58-1.53,2.38-3.61,2.38-6.23c0-2.57-0.85-4.66-2.54-6.27s-4.62-3.04-8.77-4.3c-1.31-0.44-3.22-1.01-5.74-1.72
			c-7.16-1.97-12.48-3.99-15.98-6.06c-3.88-2.24-6.69-4.97-8.44-8.19s-2.62-7.26-2.62-12.13c0-8.69,3.2-15.61,9.59-20.77
			s15-7.74,25.81-7.74c5.79,0,11.62,0.68,17.49,2.05s11.62,3.39,17.25,6.06v23.11h-23.84v-0.49c0-3.77-0.82-6.64-2.46-8.6
			s-4.07-2.95-7.29-2.95c-2.68,0-4.79,0.78-6.35,2.34s-2.34,3.67-2.34,6.35c0,4.54,5.24,8.28,15.73,11.23
			c4.15,1.15,7.4,2.1,9.75,2.87c7.21,2.4,12.26,5.48,15.16,9.22c2.89,3.74,4.34,9,4.34,15.77c0,9.01-2.84,15.91-8.52,20.69
			s-13.88,7.17-24.58,7.17c-6.77,0-13.4-0.59-19.87-1.76C990.62,209.47,984.1,207.66,977.55,205.2z"/>
		<path class="st4" d="M430.4,321.38c0,3.42,0.29,5.61,0.86,6.57c0.58,0.96,1.66,1.61,3.24,1.97v13.84h-27.35v-13.84
			c1.62-0.36,2.73-1.04,3.32-2.03s0.89-3.16,0.89-6.51v-38.05c0-3.35-0.3-5.52-0.89-6.51c-0.59-0.99-1.7-1.67-3.32-2.03v-13.3h32.32
			c9.48,0,16.37,1.89,20.67,5.67c4.31,3.78,6.46,9.8,6.46,18.05c0,5.08-1.06,9.24-3.19,12.48c-2.13,3.24-5.23,5.42-9.3,6.54
			c3.93,0.9,6.66,2.29,8.19,4.16s2.3,4.79,2.3,8.76v4.43c0,3.06,0.26,5.14,0.78,6.24c0.52,1.1,1.45,1.79,2.78,2.08v13.84H447.8
			c-0.58-1.26-1-2.69-1.27-4.3c-0.27-1.6-0.41-4.19-0.41-7.76v-10.54c0-4.07-0.68-6.78-2.03-8.13s-3.95-2.03-7.81-2.03h-5.89v10.4
			H430.4z M430.4,296.52h7.46c3.49,0,6.04-0.77,7.65-2.32c1.6-1.55,2.41-4,2.41-7.35c0-3.39-0.8-5.89-2.41-7.51
			c-1.6-1.62-4.08-2.43-7.43-2.43h-7.67L430.4,296.52L430.4,296.52z"/>
		<path class="st4" d="M512.6,337.43c-2.56,2.38-5.36,4.19-8.4,5.43s-6.15,1.86-9.32,1.86c-4.79,0-8.58-1.49-11.38-4.49
			c-2.79-2.99-4.19-7.06-4.19-12.21c0-5.3,2-9.58,6-12.86s12.88-7.06,26.64-11.35v-3.46c0-2.34-0.49-4.05-1.46-5.13
			c-0.97-1.08-2.52-1.62-4.65-1.62c-2.09,0-3.64,0.58-4.65,1.73c-1.01,1.15-1.51,2.9-1.51,5.24v1.89h-16.97v-13.94
			c4.04-2.05,8.09-3.62,12.16-4.7c4.07-1.08,8.03-1.62,11.89-1.62c7.85,0,13.5,1.59,16.94,4.76c3.44,3.17,5.16,8.38,5.16,15.62
			v20.16c0,3.42,0.28,5.67,0.84,6.73s1.61,1.74,3.16,2.03v12.27H512.6V337.43z M511.95,315.33c-6.05,2.41-10,4.39-11.84,5.92
			s-2.76,3.36-2.76,5.49c0,1.48,0.43,2.66,1.3,3.54c0.86,0.88,2.05,1.32,3.57,1.32c1.48,0,3.06-0.51,4.76-1.54
			c1.69-1.03,3.35-2.48,4.97-4.35V315.33z"/>
		<path class="st4" d="M562.21,323.27c0,3.06,0.27,5.1,0.81,6.11c0.54,1.01,1.53,1.71,2.97,2.11v12.27h-24.37v-12.27
			c1.41-0.22,2.39-0.95,2.95-2.19s0.84-3.58,0.84-7v-19.19c0-2.77-0.26-4.62-0.78-5.54s-1.52-1.65-3-2.19v-12.05h20.59v3.73
			c2.31-1.33,4.61-2.34,6.92-3.03c2.31-0.68,4.54-1.03,6.7-1.03c6.52,0,11.18,1.59,13.97,4.78s4.19,8.67,4.19,16.46v18.81
			c0,3.39,0.29,5.61,0.86,6.67c0.58,1.06,1.6,1.65,3.08,1.76l0.05,12.27H578.8c-0.61-1.73-1.05-3.85-1.32-6.38
			c-0.27-2.52-0.41-6.49-0.41-11.89v-18.92c0-4.07-0.59-6.95-1.78-8.65c-1.19-1.69-3.15-2.54-5.89-2.54c-1.15,0-2.33,0.24-3.54,0.73
			c-1.21,0.49-2.42,1.2-3.65,2.13L562.21,323.27L562.21,323.27z"/>
		<path class="st4" d="M638.8,305.82v-1.89c0-3.24-0.59-5.62-1.78-7.13s-3.03-2.27-5.51-2.27c-2.56,0-4.41,0.8-5.57,2.41
			c-1.15,1.6-1.73,4.19-1.73,7.76v17.62c0,3.6,0.57,6.18,1.7,7.73c1.14,1.55,3,2.32,5.59,2.32s4.46-0.76,5.59-2.27
			c1.13-1.51,1.7-4.11,1.7-7.78v-3.57h15.73v19.51c-3.17,2.05-6.76,3.65-10.76,4.78s-8.09,1.7-12.27,1.7
			c-8.54,0-14.74-1.68-18.59-5.05c-3.86-3.37-5.78-8.84-5.78-16.4v-19.46c0-7.42,1.9-12.88,5.7-16.38c3.8-3.49,9.74-5.24,17.81-5.24
			c4.07,0,8.12,0.55,12.13,1.65c4.02,1.1,7.94,2.73,11.75,4.89v17.08H638.8V305.82z"/>
		<path class="st4" d="M664.79,343.76v-12.27c1.41-0.22,2.39-0.95,2.95-2.19s0.84-3.58,0.84-7v-40.97c0-2.77-0.26-4.62-0.78-5.54
			s-1.52-1.65-3-2.19v-12.1h20.59v25.56c2.31-1.33,4.61-2.34,6.92-3.03c2.31-0.68,4.54-1.03,6.7-1.03c6.52,0,11.18,1.6,13.97,4.81
			s4.19,8.72,4.19,16.54v18.7c0,3.39,0.29,5.61,0.86,6.67c0.58,1.06,1.6,1.65,3.08,1.76l0.05,12.27h-19.19
			c-0.61-1.73-1.05-3.85-1.32-6.38c-0.27-2.52-0.41-6.49-0.41-11.89v-18.92c0-4.07-0.59-6.95-1.78-8.65
			c-1.19-1.69-3.15-2.54-5.89-2.54c-1.15,0-2.33,0.24-3.54,0.73c-1.21,0.49-2.42,1.2-3.65,2.13v25.02c0,3.06,0.27,5.1,0.81,6.11
			c0.54,1.01,1.53,1.71,2.97,2.11v12.27h-24.37V343.76z"/>
		<path class="st5" d="M763.97,343.76v-13.84c1.62-0.36,2.73-1.04,3.32-2.03s0.89-3.16,0.89-6.51v-38.05c0-3.35-0.3-5.52-0.89-6.51
			c-0.59-0.99-1.7-1.67-3.32-2.03v-13.3h31.67c9.62,0,16.62,1.78,21,5.35s6.57,9.24,6.57,17.02c0,4.58-0.99,8.4-2.97,11.48
			c-1.98,3.08-4.83,5.23-8.54,6.46c4.36,1.33,7.59,3.61,9.7,6.84s3.16,7.5,3.16,12.84c0,7.93-2.13,13.62-6.4,17.08
			s-11.43,5.19-21.48,5.19h-32.71V343.76z M787.2,294.03h7.35c3.6,0,6.16-0.62,7.67-1.86s2.27-3.27,2.27-6.08
			c0-3.14-0.76-5.38-2.27-6.73s-4.07-2.03-7.67-2.03h-7.35V294.03z M787.2,327.71h8.32c3.68,0,6.31-0.76,7.92-2.27
			c1.6-1.51,2.41-4,2.41-7.46s-0.85-5.96-2.54-7.51c-1.69-1.55-4.43-2.32-8.21-2.32h-7.89L787.2,327.71L787.2,327.71z"/>
		<path class="st5" d="M855.3,323.27c0,3.06,0.27,5.1,0.81,6.11c0.54,1.01,1.53,1.71,2.97,2.11v12.27h-24.37v-12.27
			c1.41-0.22,2.39-0.95,2.95-2.19s0.84-3.58,0.84-7v-19.19c0-2.77-0.26-4.62-0.78-5.54s-1.52-1.65-3-2.19v-12.05h19.83v4.97
			c1.22-1.73,2.66-3.03,4.3-3.89c1.64-0.86,3.45-1.3,5.43-1.3c0.54,0,1.3,0.05,2.27,0.16c0.11,0.04,0.2,0.05,0.27,0.05v17.67
			c-0.14,0-0.36-0.02-0.65-0.05c-1.01-0.11-1.71-0.16-2.11-0.16c-3.06,0-5.29,0.95-6.67,2.84c-1.39,1.89-2.08,4.91-2.08,9.05v10.6
			H855.3z"/>
		<path class="st5" d="M906,337.43c-2.56,2.38-5.36,4.19-8.4,5.43c-3.04,1.24-6.15,1.86-9.32,1.86c-4.79,0-8.58-1.49-11.38-4.49
			c-2.79-2.99-4.19-7.06-4.19-12.21c0-5.3,2-9.58,6-12.86s12.88-7.06,26.64-11.35v-3.46c0-2.34-0.49-4.05-1.46-5.13
			c-0.97-1.08-2.52-1.62-4.65-1.62c-2.09,0-3.64,0.58-4.65,1.73c-1.01,1.15-1.51,2.9-1.51,5.24v1.89h-16.97v-13.94
			c4.04-2.05,8.09-3.62,12.16-4.7c4.07-1.08,8.03-1.62,11.89-1.62c7.85,0,14.64,0.68,16.94,4.76c3.64,6.45,5.8,18.96,5.16,15.62
			v20.16c0,3.42,0.28,5.67,0.84,6.73s1.61,1.74,3.16,2.03v12.27H906V337.43z M905.35,315.33c-6.05,2.41-10,4.39-11.84,5.92
			s-2.76,3.36-2.76,5.49c0,1.48,0.43,2.66,1.3,3.54c0.86,0.88,2.05,1.32,3.57,1.32c1.48,0,3.06-0.51,4.76-1.54
			c1.69-1.03,3.35-2.48,4.97-4.35L905.35,315.33L905.35,315.33z"/>
		<path class="st5" d="M933.34,343.76v-11.94l28.59-36.64h-4.11c-4.29,0-7.03,0.53-8.21,1.59c-1.19,1.06-1.8,3.14-1.84,6.24h-14.43
			v-19.67h49.51v10.7l-29.24,37.78h5.08c3.85,0,6.47-0.63,7.84-1.89c1.37-1.26,2.05-3.62,2.05-7.08h14.27v20.92L933.34,343.76
			L933.34,343.76z"/>
		<path class="st5" d="M1012.25,323.27c0,3.17,0.26,5.24,0.78,6.22c0.52,0.97,1.49,1.64,2.89,2v12.27h-24.37v-12.27
			c1.41-0.22,2.39-0.95,2.95-2.19s0.84-3.58,0.84-7v-19.19c0-2.77-0.26-4.62-0.78-5.54s-1.52-1.65-3-2.19v-12.05h20.7v39.94H1012.25
			z M993.34,270.69c0-2.63,0.93-4.89,2.78-6.78c1.86-1.89,4.1-2.84,6.73-2.84c2.67,0,4.94,0.95,6.81,2.84
			c1.87,1.89,2.81,4.15,2.81,6.78s-0.96,4.87-2.86,6.73c-1.91,1.86-4.16,2.78-6.76,2.78c-2.56,0-4.78-0.95-6.67-2.84
			C994.28,275.47,993.34,273.24,993.34,270.69z"/>
		<path class="st5" d="M1029.55,281.66c0-2.77-0.26-4.62-0.78-5.54s-1.52-1.65-3-2.19v-12.11h20.7v61.45c0,3.17,0.26,5.24,0.78,6.22
			c0.52,0.97,1.49,1.64,2.89,2v12.27h-24.37v-12.27c1.41-0.22,2.39-0.95,2.95-2.19c0.56-1.24,0.84-3.58,0.84-7L1029.55,281.66
			L1029.55,281.66z"/>
	</g>
</g>
</svg>
