<?xml version="1.0" encoding="utf-8"?>
<!-- Generator: Adobe Illustrator 24.1.2, SVG Export Plug-In . SVG Version: 6.00 Build 0)  -->
<svg version="1.1" id="Camada_1" xmlns="http://www.w3.org/2000/svg" xmlns:xlink="http://www.w3.org/1999/xlink" x="0px" y="0px"
	 viewBox="0 0 1074.6 428.5" style="enable-background:new 0 0 1074.6 428.5;" xml:space="preserve">
<style type="text/css">
	.st0{fill:none;stroke:#FFFFFF;stroke-width:5;stroke-miterlimit:10;}
	.st1{fill:#FFFFFF;}
	.st2{fill:#B2A574;}
	.st3{fill:#B2A574;stroke:#2E2E2E;stroke-width:3;stroke-miterlimit:10;}
	.st4{fill:#FFFFFF;stroke:#FFFFFF;stroke-width:3;stroke-miterlimit:10;}
</style>
<g>
	<g>
		<path class="st0" d="M146.5,125.6c0,0-8.8,10.1-16.4,26.2c-7.4,15.6-9.9,26.8-9.9,26.8s-3.3-6.3-10.1-13.7
			c-3.5-3.8-11.5-9.5-11.5-9.5s-2.8,9.5-10.1,13.8c-5.5,3.3-17.4,1.3-17.4,1.3s-4.3,8.9-17.3,18.5c-3.3,2.4-2.5,3.7-4,4.7
			c-5.9,3.6-14.9,2.1-17.3-2.3c-1.3-2.3-1.8-3.4-2.8-6.8c-0.3-1-0.7-2.4-3.5-5c-2.2-2.1-2.8-2.6-3-3.6c-0.5-2.1,1-4.2,1.6-5.1
			c14.6-21.5,14.6-21.2,28.7-43.6c4.2-6.7-1.5-8.2,4.1-14.2c6.4-6.9,8.3-9.9,14.2-17.3c1.4-1.8-3.1-1.1-5.6-16.9
			c-0.7-4.6-0.7-8.8-0.7-8.8s0.3,0.6,2.5,4c0,0,0.6,0.9,2.6,3.4L70.7,67c0,0,11.3,15.6,11.8,15.7c7,1.4,17.8,1.7,33.8,12.3
			C133.1,106.2,146.5,125.6,146.5,125.6z"/>
		<path class="st0" d="M218.7,125.6c0,0,8.8,10.1,16.4,26.2c7.4,15.6,9.9,26.8,9.9,26.8s3.3-6.3,10.1-13.7
			c3.5-3.8,11.5-9.5,11.5-9.5s2.8,9.5,10.1,13.8c5.5,3.3,17.4,1.3,17.4,1.3s4.3,8.9,17.3,18.5c3.3,2.4,2.5,3.7,4,4.7
			c5.9,3.6,14.9,2.1,17.3-2.3c1.3-2.3,1.8-3.4,2.8-6.8c0.3-1,0.7-2.4,3.5-5c2.2-2.1,2.8-2.6,3-3.6c0.5-2.1-1-4.2-1.6-5.1
			c-14.6-21.5-14.6-21.2-28.7-43.6c-4.2-6.7,1.5-8.2-4.1-14.2c-6.4-6.9-8.3-9.9-14.2-17.3c-1.4-1.8,3.1-1.1,5.5-16.9
			c0.7-4.6,0.7-8.8,0.7-8.8s-0.3,0.6-2.5,4c0,0-0.6,0.9-2.6,3.4L294.6,67c0,0-11.3,15.6-11.8,15.7c-7,1.4-17.8,1.7-33.8,12.3
			C232.1,106.2,218.7,125.6,218.7,125.6z"/>
		<g>
			<g>
				<path class="st1" d="M188.8,87.2h13.1l0.9-2.6h-13.9c-0.8,0.1-1.1,0.6-1.1,1.3l0,0C187.7,86.7,188.3,87.2,188.8,87.2z"/>
				<path class="st1" d="M166.7,71.7h-12.5l-0.9-2.6h13.3c0.7,0.1,1.1,0.6,1.1,1.3l0,0C167.8,71.2,167.2,71.7,166.7,71.7z"/>
				<path class="st1" d="M192.4,212.8h22.2l1.5-2.6h-23.6c-1.3,0.1-1.9,0.6-1.9,1.3l0,0C190.6,212.2,191.6,212.8,192.4,212.8z"/>
				<path class="st1" d="M166.7,236.3h-10.8l-0.8-2.6h11.5c0.7,0.1,1.1,0.6,1.1,1.3l0,0C167.8,235.7,167.2,236.3,166.7,236.3z"/>
				<path class="st1" d="M173.8,186.6h-19.9l0.7-2.6h19.1c1.1,0.1,1.6,0.6,1.6,1.3l0,0C175.4,186.1,174.6,186.6,173.8,186.6z"/>
				<path class="st1" d="M191.6,343H203l0.8-2.6h-12.1c-0.6,0-1,0.6-1,1.3l0,0C190.6,342.5,191.1,343,191.6,343z"/>
				<path class="st1" d="M173.9,356.7h-19.5l0.3-2.6h19.2c1,0,1.6,0.6,1.6,1.3l0,0C175.4,356.1,174.6,356.7,173.9,356.7z"/>
			</g>
			<path class="st2" d="M123.1,30.4c3.1,5.9,6.1,35.4,15.4,53.3c6.5,12.3,22.9,33,22.9,33l6-7c0,0-12.1-12.3-23.7-30.4
				c-9.4-14.7-13.2-33.1-13.4-46.5c-0.1-2.6,1.8-3.6,1.9-7c0-3.1-1.5-6.3-4.2-6.3c-3.7,0.1-5.2,1.7-5.9,3.9
				C121.4,25.5,121.5,27.5,123.1,30.4z"/>
			<path class="st2" d="M145.6,59.7c2.8,3.2-0.3,1.8,12.5,23c6.8,11.3,15.5,19.7,15.5,19.7l3.6-4.2c0,0-7.3-7.3-16.1-19.5
				c-9-12.5-10.6-18.4-9.8-21.2c0.5-1.6,0.2-3.3-0.2-5.3c-0.6-3-2.1-4.5-4.7-4.5c-2,0-3.1,3.3-3.2,5.5
				C143.2,55.3,144.1,57.9,145.6,59.7z"/>
			<path class="st2" d="M201.7,131.8c0,0,10.5,12.5,13.1,15.8c5.5,6.8,7.3,9.6,7.3,9.6s-2.4-6.2-5.3-10.8
				c-4.4-7-12.1-17.9-12.1-17.9L201.7,131.8z"/>
			<path class="st2" d="M216.2,59.6c-0.5,4.1-6.7,12.2-11.4,19.1c-6,8.8-10.1,12.2-13.9,16.6c-5,5.9-7.3,8.5-14.3,15.8
				c-2.1,2.3-10.6,11.8-16.1,19c-11.4,14.7-14.9,24.6-14.9,24.6s6.4-9.1,18.3-22.3c7.5-8.4,10.6-11.6,20.5-22
				c10.9-11.4,18-19.2,21.6-24.7c7.4-11.4,11.6-19.3,13.9-24.3c1.7-3.8,3.3-4.6,3.8-7.5c0.7-4-1.6-6.5-3.8-6.4
				c-1.4,0.1-3.1,2.7-3.6,5.8C215.7,56.7,216.4,57.7,216.2,59.6z"/>
			<path class="st2" d="M235.8,32.6c-0.2,6-1.1,15.7-4.5,26.9c-3.9,13-10.7,23-18.5,33c-13,16.7-19.4,21.7-42.5,45.4
				c-14.1,14.5-19.3,24-24,36.2c-8.1,21-6.9,40.3-4.6,52.8c5.4,29.3,30,54.8,30,54.8l6.9-9.5c0,0-14.4-19.4-20.6-33.7
				c-8.3-19.1-6.6-39.4-3.7-51.5c4-16.6,13.9-30.1,24.9-41.8c16.5-17.5,42.6-48.4,49.1-62.5c9.7-21,11.4-44.6,14-51.9
				c0.5-1.4,2.1-3.3,1.6-6.5c-0.5-3.8-2.7-4.9-4.8-5c-2.2,0-4.5,1.9-4.8,5.7C234.1,27.7,235.9,30.3,235.8,32.6z"/>
			<path class="st2" d="M241.3,391c-1.4-4.5,0.3-9.9-9.2-34.2c-8.1-20.6-23.6-42.9-23.6-42.9l-5.4,4.5c0,0,13.4,15.7,22.5,35.1
				c9.3,20.1,11.5,29.8,10.7,37.7c-0.3,2.7-2.3,5-2.5,7.5c-0.4,4.8,2.5,6.4,4.9,6.4c2.1,0,3.7-2,4.5-4.4
				C244.1,398.6,242.3,394.1,241.3,391z"/>
			<path class="st2" d="M220.2,367.6c-2.2-2.7-2.9-11-8.4-20.1c-8-13.2-16.8-22.3-16.8-22.3l-5.6,4.6c0,0,11.2,10,16.4,17.1
				c5.5,7.5,9.6,13.9,10.9,20.5c0.4,2.1-1.9,3.4-1.7,7.1c0.1,2.2,1.3,6.2,4.1,6.3c1.9,0.1,4.4-0.9,4.2-6.9
				C223.2,372.3,222.4,370.3,220.2,367.6z"/>
			<path class="st2" d="M163.6,293c0,0-14.4-12.7-26.7-35.9c-14.1-26.6-5.6-63-5.6-63s-13.1,23.5-3.8,58.6c6.5,24.6,30,48.3,30,48.3
				L163.6,293z"/>
			<path class="st2" d="M149.9,368.9c0.5-4.1,2.1-7.8,9.2-18c6.2-8.9,16.4-18,25-26.2c9.4-9,24.2-20.7,32-29.3
				c10.3-11.4,16.3-20.9,21.5-36.6c11.6-34.9-2.7-64.7-2.7-64.7s4.9,24.8,1.8,42.7c-1.9,11-5.4,22-16.8,37.7
				c-10.6,14.7-22.2,25.5-38,41c-10.5,10.3-16.6,18.5-21.1,24.3c-11.8,15.4-11.1,24-15,27.8c-1.8,1.8-3.3,4.3-3.4,7.1
				c0,2,0.9,6.3,4.2,6.3c2.9,0,3.9-3.1,4.2-4.9C151.4,372.9,149.6,370.8,149.9,368.9z"/>
			<path class="st2" d="M131.3,391.4c-0.7-4.5,2.4-21.2,4.1-26.1c3.7-11,7.9-21.1,17.8-33.6c17.1-21.6,23.3-28,42.4-49.9
				c13.9-15.9,21.6-29,25.5-41.6c5.1-16.4,6.1-30.7,4.5-43.3c-5.1-38.1-29.4-58.5-29.4-58.5l-7.8,8.6c0,0,12.6,13.7,22.5,34.9
				c6.2,21.1,4.4,42.5-1.5,55.2c-6.6,14.3-11.6,22.2-21.3,35.7C174,292,169,298.2,149.4,326.7c-9,13.1-13.5,22.7-16.9,32.2
				c-2.6,7.1-4.6,24.8-7.2,32.1c-0.5,1.4-2.8,4-3,7.3c-0.3,3.9,3,6.7,5.1,6.7c2.1,0,4.8-2.3,5.6-6.7
				C133.3,395.7,131.6,393.6,131.3,391.4z"/>
			<path class="st2" d="M180.1,300.7"/>
			<path class="st2" d="M157.9,272.9"/>
		</g>
	</g>
	<g>
		<path class="st3" d="M407.1,128.2c0-9,0.4-15.5,1.1-19.4s2-7.3,3.7-10.2c3.1-5.1,7.6-8.8,13.5-11.2c6-2.4,13.8-3.6,23.6-3.6
			c6.8,0,13.6,0.8,20.3,2.3c6.7,1.5,13.4,3.8,19.9,6.9V126h-27.2v-0.7c0-5.6-1.1-9.7-3.2-12.4s-5.4-4.1-9.8-4.1
			c-4.7,0-8.1,1.4-10.2,4.3c-2.1,2.8-3.1,7.5-3.1,14V170c0,6.6,1,11.3,3.1,14.1c2.1,2.8,5.5,4.3,10.2,4.3c4.6,0,7.9-1.4,10-4.2
			s3.1-7.5,3.1-14.1v-4.3h-11.5v-20h38.8v56.1c-5.8,3.9-12.1,6.8-18.9,8.8c-6.8,2-13.9,3-21.3,3c-8.9,0-16.1-1-21.8-2.9
			s-10.2-5-13.5-9.2c-2.4-3.1-4.1-6.8-5.1-11.2s-1.5-11.4-1.5-21.2L407.1,128.2L407.1,128.2L407.1,128.2z"/>
		<path class="st3" d="M533.6,178.4c0,5.5,0.9,9.4,2.6,11.7c1.7,2.4,4.5,3.5,8.5,3.5c3.7,0,6.4-1.1,8.3-3.3c1.9-2.2,2.8-5.5,2.8-9.8
			V180H581v21.8c-5.2,3.4-11,6.1-17.2,7.9c-6.2,1.8-12.6,2.7-19.2,2.7c-13,0-22.3-2.6-28.2-7.7c-5.9-5.1-8.8-13.4-8.8-24.9v-29.5
			c0-11.5,2.9-19.9,8.8-25c5.9-5.2,15.3-7.7,28.2-7.7c12.7,0,21.9,2.6,27.7,7.8c5.8,5.2,8.7,13.5,8.7,25v20.1h-47.5V178.4z
			 M533.6,151.7v2.5h22.1v-3.7c0-4.9-0.9-8.5-2.7-10.8s-4.6-3.4-8.4-3.4c-3.9,0-6.7,1.2-8.4,3.6
			C534.5,142.4,533.6,146.3,533.6,151.7z"/>
		<path class="st3" d="M626.8,179.9c0,4.6,0.4,7.7,1.2,9.3s2.3,2.6,4.5,3.2v18.6h-37v-18.6c2.1-0.3,3.6-1.4,4.5-3.3
			c0.8-1.9,1.3-5.4,1.3-10.6v-29.1c0-4.2-0.4-7-1.2-8.4s-2.3-2.5-4.5-3.3v-18.3h31.2v5.7c3.5-2,7-3.6,10.5-4.6s6.9-1.6,10.2-1.6
			c9.9,0,17,2.4,21.2,7.3s6.3,13.1,6.3,24.9v28.5c0,5.1,0.4,8.5,1.3,10.1s2.4,2.5,4.7,2.7l0.1,18.6H652c-0.9-2.6-1.6-5.8-2-9.7
			c-0.4-3.8-0.6-9.8-0.6-18v-28.7c0-6.2-0.9-10.5-2.7-13.1s-4.8-3.9-8.9-3.9c-1.8,0-3.5,0.4-5.4,1.1s-3.7,1.8-5.5,3.2V179.9z"/>
		<path class="st3" d="M720.8,178.4c0,5.5,0.9,9.4,2.6,11.7c1.7,2.4,4.5,3.5,8.5,3.5c3.7,0,6.4-1.1,8.3-3.3c1.9-2.2,2.8-5.5,2.8-9.8
			V180h25.3v21.8c-5.2,3.4-11,6.1-17.2,7.9c-6.2,1.8-12.6,2.7-19.2,2.7c-13,0-22.3-2.6-28.2-7.7s-8.8-13.4-8.8-24.9v-29.5
			c0-11.5,2.9-19.9,8.8-25s15.3-7.7,28.2-7.7c12.7,0,21.9,2.6,27.7,7.8c5.8,5.2,8.7,13.5,8.7,25v20.1h-47.4L720.8,178.4L720.8,178.4
			z M720.8,151.7v2.5H743v-3.7c0-4.9-0.9-8.5-2.7-10.8c-1.8-2.3-4.6-3.4-8.4-3.4c-3.9,0-6.7,1.2-8.4,3.6
			C721.7,142.4,720.8,146.3,720.8,151.7z"/>
		<path class="st3" d="M812.4,94.5v24.8h10.9v20.2h-10.9v35.9c0,6.5,0.7,10.9,2.1,13.2c1.4,2.3,3.9,3.4,7.6,3.4h1.2v18.6
			c-2.2,0.7-4.4,1.1-6.4,1.5s-4,0.5-5.7,0.5c-8.8,0-15.1-2.5-18.8-7.5s-5.7-14.2-5.7-27.7v-37.9h-4.7v-20.2h4.7v-17L812.4,94.5z"/>
		<path class="st3" d="M870.1,179.9c0,4.8,0.4,7.9,1.2,9.4s2.3,2.5,4.4,3v18.6h-37v-18.6c2.1-0.3,3.6-1.4,4.5-3.3
			c0.8-1.9,1.3-5.4,1.3-10.6v-29.1c0-4.2-0.4-7-1.2-8.4s-2.3-2.5-4.5-3.3v-18.3h31.4L870.1,179.9L870.1,179.9L870.1,179.9z
			 M841.5,100.2c0-4,1.4-7.4,4.2-10.3c2.8-2.9,6.2-4.3,10.2-4.3c4,0,7.5,1.4,10.3,4.3s4.3,6.3,4.3,10.3c0,4-1.5,7.4-4.3,10.2
			c-2.9,2.8-6.3,4.2-10.2,4.2c-3.9,0-7.3-1.4-10.1-4.3C842.9,107.4,841.5,104,841.5,100.2z"/>
		<path class="st3" d="M939,153.4v-2.9c0-4.9-0.9-8.5-2.7-10.8c-1.8-2.3-4.6-3.4-8.4-3.4c-3.9,0-6.7,1.2-8.4,3.6s-2.6,6.4-2.6,11.8
			v26.7c0,5.5,0.9,9.4,2.6,11.7c1.7,2.4,4.5,3.5,8.5,3.5s6.8-1.1,8.5-3.4c1.7-2.3,2.6-6.2,2.6-11.8V173h23.8v29.6
			c-4.8,3.1-10.2,5.5-16.3,7.3c-6.1,1.7-12.3,2.6-18.6,2.6c-13,0-22.3-2.6-28.2-7.7s-8.8-13.4-8.8-24.9v-29.5
			c0-11.3,2.9-19.5,8.6-24.8s14.8-7.9,27-7.9c6.2,0,12.3,0.8,18.4,2.5c6.1,1.7,12,4.1,17.8,7.4v25.9H939z"/>
		<path class="st3" d="M977.5,205.2v-24.7h25.5c0,4.5,0.8,7.7,2.3,9.8s3.9,3,7.2,3c2.7,0,4.9-0.8,6.5-2.3c1.6-1.5,2.4-3.6,2.4-6.2
			c0-2.6-0.8-4.7-2.5-6.3s-4.6-3-8.8-4.3c-1.3-0.4-3.2-1-5.7-1.7c-7.2-2-12.5-4-16-6.1c-3.9-2.2-6.7-5-8.4-8.2s-2.6-7.3-2.6-12.1
			c0-8.7,3.2-15.6,9.6-20.8s15-7.7,25.8-7.7c5.8,0,11.6,0.7,17.5,2.1s11.6,3.4,17.3,6.1v23.1h-23.8v-0.5c0-3.8-0.8-6.6-2.5-8.6
			s-4.1-2.9-7.3-2.9c-2.7,0-4.8,0.8-6.3,2.3s-2.3,3.7-2.3,6.4c0,4.5,5.2,8.3,15.7,11.2c4.2,1.1,7.4,2.1,9.8,2.9
			c7.2,2.4,12.3,5.5,15.2,9.2c2.9,3.7,4.3,9,4.3,15.8c0,9-2.8,15.9-8.5,20.7s-13.9,7.2-24.6,7.2c-6.8,0-13.4-0.6-19.9-1.8
			C990.6,209.5,984.1,207.7,977.5,205.2z"/>
		<path class="st4" d="M430.4,321.4c0,3.4,0.3,5.6,0.9,6.6c0.6,1,1.7,1.6,3.2,2v13.8h-27.4v-13.8c1.6-0.4,2.7-1,3.3-2
			s0.9-3.2,0.9-6.5v-38c0-3.4-0.3-5.5-0.9-6.5c-0.6-1-1.7-1.7-3.3-2v-13.3h32.3c9.5,0,16.4,1.9,20.7,5.7c4.3,3.8,6.5,9.8,6.5,18
			c0,5.1-1.1,9.2-3.2,12.5c-2.1,3.2-5.2,5.4-9.3,6.5c3.9,0.9,6.7,2.3,8.2,4.2s2.3,4.8,2.3,8.8v4.4c0,3.1,0.3,5.1,0.8,6.2
			c0.5,1.1,1.5,1.8,2.8,2.1v13.8h-20.4c-0.6-1.3-1-2.7-1.3-4.3c-0.3-1.6-0.4-4.2-0.4-7.8v-10.5c0-4.1-0.7-6.8-2-8.1s-4-2-7.8-2h-5.9
			L430.4,321.4L430.4,321.4z M430.4,296.5h7.5c3.5,0,6-0.8,7.6-2.3c1.6-1.5,2.4-4,2.4-7.4c0-3.4-0.8-5.9-2.4-7.5
			c-1.6-1.6-4.1-2.4-7.4-2.4h-7.7L430.4,296.5L430.4,296.5z"/>
		<path class="st4" d="M512.6,337.4c-2.6,2.4-5.4,4.2-8.4,5.4s-6.1,1.9-9.3,1.9c-4.8,0-8.6-1.5-11.4-4.5c-2.8-3-4.2-7.1-4.2-12.2
			c0-5.3,2-9.6,6-12.9s12.9-7.1,26.6-11.4v-3.5c0-2.3-0.5-4-1.5-5.1c-1-1.1-2.5-1.6-4.6-1.6c-2.1,0-3.6,0.6-4.6,1.7
			c-1,1.1-1.5,2.9-1.5,5.2v1.9h-17v-13.9c4-2,8.1-3.6,12.2-4.7c4.1-1.1,8-1.6,11.9-1.6c7.9,0,13.5,1.6,16.9,4.8
			c3.4,3.2,5.2,8.4,5.2,15.6v20.2c0,3.4,0.3,5.7,0.8,6.7s1.6,1.7,3.2,2v12.3h-20.3V337.4z M512,315.3c-6,2.4-10,4.4-11.8,5.9
			s-2.8,3.4-2.8,5.5c0,1.5,0.4,2.7,1.3,3.5c0.9,0.9,2,1.3,3.6,1.3c1.5,0,3.1-0.5,4.8-1.5c1.7-1,3.4-2.5,5-4.4V315.3z"/>
		<path class="st4" d="M562.2,323.3c0,3.1,0.3,5.1,0.8,6.1c0.5,1,1.5,1.7,3,2.1v12.3h-24.4v-12.3c1.4-0.2,2.4-1,3-2.2s0.8-3.6,0.8-7
			v-19.2c0-2.8-0.3-4.6-0.8-5.5s-1.5-1.6-3-2.2v-12h20.6v3.7c2.3-1.3,4.6-2.3,6.9-3c2.3-0.7,4.5-1,6.7-1c6.5,0,11.2,1.6,14,4.8
			s4.2,8.7,4.2,16.5V323c0,3.4,0.3,5.6,0.9,6.7c0.6,1.1,1.6,1.6,3.1,1.8l0,12.3h-19.2c-0.6-1.7-1-3.9-1.3-6.4
			c-0.3-2.5-0.4-6.5-0.4-11.9v-18.9c0-4.1-0.6-7-1.8-8.6c-1.2-1.7-3.2-2.5-5.9-2.5c-1.2,0-2.3,0.2-3.5,0.7c-1.2,0.5-2.4,1.2-3.7,2.1
			L562.2,323.3L562.2,323.3z"/>
		<path class="st4" d="M638.8,305.8v-1.9c0-3.2-0.6-5.6-1.8-7.1s-3-2.3-5.5-2.3c-2.6,0-4.4,0.8-5.6,2.4c-1.2,1.6-1.7,4.2-1.7,7.8
			v17.6c0,3.6,0.6,6.2,1.7,7.7c1.1,1.5,3,2.3,5.6,2.3s4.5-0.8,5.6-2.3c1.1-1.5,1.7-4.1,1.7-7.8v-3.6h15.7v19.5
			c-3.2,2-6.8,3.6-10.8,4.8s-8.1,1.7-12.3,1.7c-8.5,0-14.7-1.7-18.6-5c-3.9-3.4-5.8-8.8-5.8-16.4v-19.5c0-7.4,1.9-12.9,5.7-16.4
			c3.8-3.5,9.7-5.2,17.8-5.2c4.1,0,8.1,0.5,12.1,1.6c4,1.1,7.9,2.7,11.8,4.9v17.1L638.8,305.8L638.8,305.8z"/>
		<path class="st4" d="M664.8,343.8v-12.3c1.4-0.2,2.4-1,3-2.2s0.8-3.6,0.8-7v-41c0-2.8-0.3-4.6-0.8-5.5s-1.5-1.6-3-2.2v-12.1h20.6
			v25.6c2.3-1.3,4.6-2.3,6.9-3c2.3-0.7,4.5-1,6.7-1c6.5,0,11.2,1.6,14,4.8s4.2,8.7,4.2,16.5v18.7c0,3.4,0.3,5.6,0.9,6.7
			c0.6,1.1,1.6,1.6,3.1,1.8l0,12.3H702c-0.6-1.7-1-3.9-1.3-6.4c-0.3-2.5-0.4-6.5-0.4-11.9v-18.9c0-4.1-0.6-7-1.8-8.6
			c-1.2-1.7-3.2-2.5-5.9-2.5c-1.2,0-2.3,0.2-3.5,0.7c-1.2,0.5-2.4,1.2-3.7,2.1v25c0,3.1,0.3,5.1,0.8,6.1c0.5,1,1.5,1.7,3,2.1v12.3
			L664.8,343.8L664.8,343.8L664.8,343.8z"/>
		<path class="st4" d="M764,343.8v-13.8c1.6-0.4,2.7-1,3.3-2s0.9-3.2,0.9-6.5v-38c0-3.4-0.3-5.5-0.9-6.5c-0.6-1-1.7-1.7-3.3-2v-13.3
			h31.7c9.6,0,16.6,1.8,21,5.4s6.6,9.2,6.6,17c0,4.6-1,8.4-3,11.5c-2,3.1-4.8,5.2-8.5,6.5c4.4,1.3,7.6,3.6,9.7,6.8s3.2,7.5,3.2,12.8
			c0,7.9-2.1,13.6-6.4,17.1s-11.4,5.2-21.5,5.2L764,343.8L764,343.8z M787.2,294h7.3c3.6,0,6.2-0.6,7.7-1.9s2.3-3.3,2.3-6.1
			c0-3.1-0.8-5.4-2.3-6.7s-4.1-2-7.7-2h-7.3V294z M787.2,327.7h8.3c3.7,0,6.3-0.8,7.9-2.3c1.6-1.5,2.4-4,2.4-7.5s-0.8-6-2.5-7.5
			c-1.7-1.5-4.4-2.3-8.2-2.3h-7.9L787.2,327.7L787.2,327.7z"/>
		<path class="st4" d="M855.3,323.3c0,3.1,0.3,5.1,0.8,6.1c0.5,1,1.5,1.7,3,2.1v12.3h-24.4v-12.3c1.4-0.2,2.4-1,3-2.2s0.8-3.6,0.8-7
			v-19.2c0-2.8-0.3-4.6-0.8-5.5s-1.5-1.6-3-2.2v-12h19.8v5c1.2-1.7,2.7-3,4.3-3.9c1.6-0.9,3.5-1.3,5.4-1.3c0.5,0,1.3,0,2.3,0.2
			c0.1,0,0.2,0,0.3,0V301c-0.1,0-0.4,0-0.7,0c-1-0.1-1.7-0.2-2.1-0.2c-3.1,0-5.3,1-6.7,2.8c-1.4,1.9-2.1,4.9-2.1,9L855.3,323.3
			L855.3,323.3L855.3,323.3z"/>
		<path class="st4" d="M906,337.4c-2.6,2.4-5.4,4.2-8.4,5.4c-3,1.2-6.2,1.9-9.3,1.9c-4.8,0-8.6-1.5-11.4-4.5
			c-2.8-3-4.2-7.1-4.2-12.2c0-5.3,2-9.6,6-12.9s12.9-7.1,26.6-11.4v-3.5c0-2.3-0.5-4-1.5-5.1c-1-1.1-2.5-1.6-4.7-1.6
			c-2.1,0-3.6,0.6-4.7,1.7c-1,1.1-1.5,2.9-1.5,5.2v1.9h-17v-13.9c4-2,8.1-3.6,12.2-4.7c4.1-1.1,8-1.6,11.9-1.6
			c7.8,0,14.6,0.7,16.9,4.8c3.6,6.5,5.8,19,5.2,15.6v20.2c0,3.4,0.3,5.7,0.8,6.7s1.6,1.7,3.2,2v12.3H906V337.4z M905.3,315.3
			c-6,2.4-10,4.4-11.8,5.9s-2.8,3.4-2.8,5.5c0,1.5,0.4,2.7,1.3,3.5c0.9,0.9,2,1.3,3.6,1.3c1.5,0,3.1-0.5,4.8-1.5
			c1.7-1,3.3-2.5,5-4.4L905.3,315.3L905.3,315.3z"/>
		<path class="st4" d="M933.3,343.8v-11.9l28.6-36.6h-4.1c-4.3,0-7,0.5-8.2,1.6c-1.2,1.1-1.8,3.1-1.8,6.2h-14.4v-19.7h49.5V294
			l-29.2,37.8h5.1c3.8,0,6.5-0.6,7.8-1.9c1.4-1.3,2-3.6,2-7.1h14.3v20.9L933.3,343.8L933.3,343.8z"/>
		<path class="st4" d="M1012.3,323.3c0,3.2,0.3,5.2,0.8,6.2c0.5,1,1.5,1.6,2.9,2v12.3h-24.4v-12.3c1.4-0.2,2.4-1,3-2.2
			s0.8-3.6,0.8-7v-19.2c0-2.8-0.3-4.6-0.8-5.5s-1.5-1.6-3-2.2v-12h20.7L1012.3,323.3L1012.3,323.3z M993.3,270.7
			c0-2.6,0.9-4.9,2.8-6.8c1.9-1.9,4.1-2.8,6.7-2.8c2.7,0,4.9,1,6.8,2.8c1.9,1.9,2.8,4.1,2.8,6.8s-1,4.9-2.9,6.7
			c-1.9,1.9-4.2,2.8-6.8,2.8c-2.6,0-4.8-1-6.7-2.8C994.3,275.5,993.3,273.2,993.3,270.7z"/>
		<path class="st4" d="M1029.6,281.7c0-2.8-0.3-4.6-0.8-5.5s-1.5-1.6-3-2.2v-12.1h20.7v61.5c0,3.2,0.3,5.2,0.8,6.2
			c0.5,1,1.5,1.6,2.9,2v12.3h-24.4v-12.3c1.4-0.2,2.4-1,2.9-2.2c0.6-1.2,0.8-3.6,0.8-7L1029.6,281.7L1029.6,281.7z"/>
	</g>
</g>
</svg>
