<?xml version="1.0" encoding="utf-8"?>
<!-- Generator: Adobe Illustrator 24.1.2, SVG Export Plug-In . SVG Version: 6.00 Build 0)  -->
<svg version="1.1" id="Camada_1" xmlns="http://www.w3.org/2000/svg" xmlns:xlink="http://www.w3.org/1999/xlink" x="0px" y="0px"
	 viewBox="0 0 153.74 153.74" style="enable-background:new 0 0 153.74 153.74;" xml:space="preserve">
<style type="text/css">
	.st0{fill:#B2A572;}
	.st1{fill:#2E2E2F;}
</style>
<g>
	<path class="st0" d="M70.22,89.91c-0.18-0.08-0.37-0.17-0.56-0.24c-0.72-0.25-0.95-0.61-0.73-1.45c0.82-3.07,1.5-6.17,1.88-9.32
		c0.98-8.17-0.23-15.96-4.65-22.99c-5.98-9.51-15-13.55-24.73-13.82c-6.95,0.03-12.4,1.16-17.36,4.09
		C14.5,51.82,10.1,60.58,9.14,71.36c-0.49,5.49,0.7,10.77,1.99,16.03c0.44,1.79,0.45,1.78-1.28,2.57c-1.16,0.53-1.35,0.96-0.82,2.1
		c2.41,5.16,4.83,10.31,7.24,15.47c0.45,0.96,1.06,1.22,2.06,0.78c3.65-1.6,7.32-3.16,10.97-4.76c1.19-0.52,1.34-1.03,0.72-2.2
		c-1.77-3.35-3.29-6.81-4.63-10.36c-2.02-5.35-3.45-10.76-2.36-16.57c1.17-6.27,4.3-10.86,10.66-12.68
		c4.15-1.19,8.38-1.18,12.55-0.06c5.01,1.34,8.4,4.52,10.02,9.46c1.43,4.34,1.68,8.77,0.56,13.23c-1.48,5.91-3.84,11.48-6.64,16.88
		c-0.68,1.31-0.55,1.74,0.78,2.39c3.14,1.53,6.31,3.03,9.43,4.59c1.07,0.54,1.75,0.3,2.28-0.74c0.63-1.23,1.31-2.44,1.98-3.65
		c2.11-3.85,4.23-7.7,6.33-11.56C71.71,90.98,71.54,90.51,70.22,89.91z M67.69,91.27c0.82,0.33,0.91,0.65,0.47,1.4
		c-1.97,3.37-3.64,6.89-5.73,10.19c-0.49,0.78-0.84,1.65-1.23,2.49c-0.2,0.44-0.44,0.47-0.86,0.27c-2.37-1.17-4.74-2.34-7.14-3.45
		c-0.78-0.36-0.48-0.74-0.24-1.23c2.54-5.15,4.74-10.44,6.12-16.03c1.16-4.7,0.96-9.38-0.44-13.98c-1.9-6.25-6.1-10.17-12.46-11.64
		c-4.35-1.01-8.74-0.99-13.05,0.22c-7.18,2.01-10.88,7.08-12.31,14.17c-1.26,6.3,0.18,12.19,2.36,18.02
		c1.17,3.13,2.47,6.2,3.99,9.16c0.36,0.69,0.33,1.01-0.46,1.33c-2.63,1.08-5.24,2.23-7.84,3.39c-0.61,0.27-0.9,0.18-1.18-0.45
		c-1.91-4.14-3.84-8.26-5.8-12.37c-0.36-0.75-0.32-1.08,0.52-1.41c1.94-0.78,1.9-0.83,1.38-2.91c-1.28-5.13-2.69-10.25-2.43-15.61
		c0.41-8.36,2.99-15.81,9.38-21.54c4.69-4.21,10.31-6.24,16.53-6.74c0.93-0.08,1.87-0.1,2.4-0.12c7.1,0.03,13.29,1.69,18.62,5.92
		c6.07,4.81,9.09,11.3,10.2,18.83c0.99,6.69-0.39,13.12-2.04,19.53C66.01,90.41,66.05,90.6,67.69,91.27z"/>
	<path class="st0" d="M40.08,47.48c-2.35,0.03-4.26,1.93-4.27,4.27c-0.01,2.32,1.92,4.24,4.28,4.25c2.35,0.01,4.25-1.9,4.24-4.26
		C44.33,49.38,42.4,47.46,40.08,47.48z M42.04,51.9c-0.09,1.03-1.08,1.88-2.1,1.79c-1.05-0.09-1.85-1.03-1.78-2.09
		c0.07-1.07,0.98-1.85,2.08-1.77C41.3,49.91,42.13,50.86,42.04,51.9z"/>
	<path class="st0" d="M51.59,49.81c-2.4-0.01-4.3,1.84-4.32,4.21c-0.02,2.35,1.89,4.24,4.28,4.25c2.38,0.01,4.24-1.87,4.24-4.27
		C55.79,51.69,53.91,49.82,51.59,49.81z M51.5,55.99c-1.05-0.02-1.92-0.93-1.89-1.99c0.03-1.06,0.93-1.94,1.98-1.9
		c1.04,0.03,1.94,0.96,1.91,1.99C53.47,55.12,52.54,56.01,51.5,55.99z"/>
	<path class="st0" d="M28.74,49.8c-2.37-0.05-4.33,1.81-4.37,4.16c-0.04,2.36,1.84,4.29,4.22,4.31c2.41,0.02,4.27-1.81,4.28-4.22
		C32.88,51.71,31.08,49.85,28.74,49.8z M28.56,55.99c-1.05-0.03-1.89-0.94-1.86-2.02c0.03-1.06,0.93-1.91,2-1.88
		c1.05,0.03,1.93,0.96,1.89,2.01C30.54,55.15,29.61,56.02,28.56,55.99z"/>
	<path class="st0" d="M20.55,57.26c-2.02,0.05-3.63,1.72-3.59,3.72c0.04,2.01,1.73,3.63,3.72,3.58c2.02-0.05,3.63-1.71,3.6-3.71
		C24.24,58.87,22.52,57.21,20.55,57.26z M20.61,62.23c-0.78,0.01-1.24-0.49-1.3-1.31c0.02-0.81,0.48-1.29,1.26-1.31
		c0.78-0.03,1.31,0.42,1.35,1.23C21.96,61.7,21.44,62.22,20.61,62.23z"/>
	<path class="st0" d="M59.68,57.26c-2-0.06-3.71,1.55-3.77,3.54c-0.06,2.02,1.53,3.71,3.53,3.76c2.04,0.06,3.68-1.49,3.74-3.53
		C63.25,58.98,61.7,57.32,59.68,57.26z M59.62,62.22c-0.83,0.02-1.39-0.44-1.38-1.33c0.01-0.82,0.53-1.21,1.28-1.3
		c0.84,0.06,1.35,0.48,1.36,1.29C60.89,61.68,60.4,62.2,59.62,62.22z"/>
	<path class="st0" d="M59.73,95.19c-1.75,0.04-3.18,1.48-3.18,3.2c-0.01,1.8,1.43,3.26,3.23,3.28c1.77,0.02,3.27-1.49,3.25-3.26
		C63.02,96.62,61.5,95.14,59.73,95.19z M59.78,99.32c-0.53,0-0.84-0.31-0.87-0.82c-0.04-0.57,0.25-0.92,0.86-0.99
		c0.56,0.03,0.91,0.32,0.92,0.9C60.7,98.98,60.37,99.32,59.78,99.32z"/>
	<path class="st0" d="M63.56,66.46c-1.83-0.03-3.29,1.37-3.3,3.17c-0.01,1.79,1.44,3.25,3.25,3.25c1.74,0,3.19-1.4,3.24-3.14
		C66.81,67.96,65.38,66.49,63.56,66.46z M63.52,70.58c-0.53,0.01-0.92-0.31-0.92-0.9c0-0.56,0.33-0.92,0.89-0.94
		c0.58-0.02,0.85,0.36,0.92,0.9C64.39,70.23,64.06,70.58,63.52,70.58z"/>
	<path class="st0" d="M20.5,95.2c-1.74-0.06-3.24,1.3-3.33,3.03c-0.1,1.82,1.25,3.34,3.04,3.43c1.82,0.09,3.3-1.26,3.38-3.08
		C23.66,96.74,22.31,95.26,20.5,95.2z M20.32,99.32c-0.58-0.03-0.9-0.4-0.86-0.95c0.04-0.55,0.4-0.86,0.96-0.86
		c0.58,0.08,0.91,0.42,0.88,0.97C21.27,99.04,20.89,99.35,20.32,99.32z"/>
	<path class="st0" d="M16.76,66.45c-1.87-0.02-3.28,1.34-3.29,3.16c-0.02,1.84,1.37,3.27,3.19,3.27c1.82,0.01,3.26-1.43,3.25-3.23
		C19.89,67.89,18.5,66.47,16.76,66.45z M16.71,70.62c-0.52-0.07-0.92-0.33-0.97-0.88c-0.05-0.56,0.28-0.94,0.82-1
		c0.62-0.07,1,0.31,1.04,0.9C17.63,70.2,17.23,70.49,16.71,70.62z"/>
</g>
<g>
	<path class="st1" d="M84.92,60.57c0.18,0.08,0.37,0.17,0.56,0.24c0.72,0.25,0.95,0.61,0.73,1.45c-0.82,3.07-1.5,6.17-1.88,9.32
		c-0.98,8.17,0.23,15.96,4.65,22.99c5.98,9.51,15,13.55,24.73,13.82c6.95-0.03,12.4-1.16,17.36-4.09
		c9.57-5.65,13.96-14.41,14.92-25.18c0.49-5.49-0.7-10.77-1.99-16.03c-0.44-1.79-0.45-1.78,1.28-2.57c1.16-0.53,1.35-0.96,0.82-2.1
		c-2.41-5.16-4.83-10.31-7.24-15.47c-0.45-0.96-1.06-1.22-2.06-0.78c-3.65,1.6-7.32,3.16-10.97,4.76c-1.19,0.52-1.34,1.03-0.72,2.2
		c1.77,3.35,3.29,6.81,4.63,10.36c2.02,5.35,3.45,10.76,2.36,16.57c-1.17,6.27-4.3,10.86-10.66,12.68
		c-4.15,1.19-8.38,1.18-12.55,0.06c-5.01-1.34-8.4-4.52-10.02-9.46c-1.43-4.34-1.68-8.77-0.56-13.23
		c1.48-5.91,3.84-11.48,6.64-16.88c0.68-1.31,0.55-1.74-0.78-2.39c-3.14-1.53-6.31-3.03-9.43-4.59c-1.07-0.54-1.75-0.3-2.28,0.74
		c-0.63,1.23-1.31,2.44-1.98,3.65c-2.11,3.85-4.23,7.7-6.33,11.56C83.43,59.5,83.6,59.97,84.92,60.57z M87.45,59.21
		c-0.82-0.33-0.91-0.65-0.47-1.4c1.97-3.37,3.64-6.89,5.73-10.19c0.49-0.78,0.84-1.65,1.23-2.49c0.2-0.44,0.44-0.47,0.86-0.27
		c2.37,1.17,4.74,2.34,7.14,3.45c0.78,0.36,0.48,0.74,0.24,1.23c-2.54,5.15-4.74,10.44-6.12,16.03c-1.16,4.7-0.96,9.38,0.44,13.98
		c1.9,6.25,6.1,10.17,12.46,11.64c4.35,1.01,8.74,0.99,13.05-0.22c7.18-2.01,10.88-7.08,12.31-14.17c1.26-6.3-0.18-12.19-2.36-18.02
		c-1.17-3.13-2.47-6.2-3.99-9.16c-0.36-0.69-0.33-1.01,0.46-1.33c2.63-1.08,5.24-2.23,7.84-3.39c0.61-0.27,0.9-0.18,1.18,0.45
		c1.91,4.14,3.84,8.26,5.8,12.37c0.36,0.75,0.32,1.08-0.52,1.41c-1.94,0.78-1.9,0.83-1.38,2.91c1.28,5.13,2.69,10.25,2.43,15.61
		c-0.41,8.36-2.99,15.81-9.38,21.54c-4.69,4.21-10.31,6.24-16.53,6.74c-0.93,0.08-1.87,0.1-2.4,0.12
		c-7.1-0.03-13.29-1.69-18.62-5.92c-6.07-4.81-9.09-11.3-10.2-18.83c-0.99-6.69,0.39-13.12,2.04-19.53
		C89.13,60.07,89.09,59.88,87.45,59.21z"/>
	<path class="st1" d="M115.06,102.99c2.35-0.03,4.26-1.93,4.27-4.27c0.01-2.32-1.92-4.24-4.28-4.25c-2.35-0.01-4.25,1.9-4.24,4.26
		C110.81,101.09,112.73,103.02,115.06,102.99z M113.1,98.57c0.09-1.03,1.08-1.88,2.1-1.79c1.05,0.09,1.85,1.03,1.78,2.09
		c-0.07,1.07-0.98,1.85-2.08,1.77C113.84,100.57,113.01,99.62,113.1,98.57z"/>
	<path class="st1" d="M103.55,100.67c2.4,0.01,4.3-1.84,4.32-4.21c0.02-2.35-1.89-4.24-4.28-4.25c-2.38-0.01-4.24,1.87-4.24,4.27
		C99.35,98.79,101.23,100.66,103.55,100.67z M103.64,94.49c1.05,0.02,1.92,0.93,1.89,1.99c-0.03,1.06-0.93,1.94-1.98,1.9
		c-1.04-0.03-1.94-0.96-1.91-1.99C101.67,95.35,102.6,94.47,103.64,94.49z"/>
	<path class="st1" d="M126.4,100.68c2.37,0.05,4.33-1.81,4.37-4.16c0.04-2.36-1.84-4.29-4.22-4.31c-2.41-0.02-4.27,1.81-4.28,4.22
		C122.25,98.77,124.06,100.62,126.4,100.68z M126.58,94.48c1.05,0.03,1.89,0.94,1.86,2.02c-0.03,1.06-0.93,1.91-2,1.88
		c-1.05-0.03-1.93-0.96-1.89-2.01C124.6,95.32,125.53,94.46,126.58,94.48z"/>
	<path class="st1" d="M134.59,93.21c2.02-0.05,3.63-1.72,3.59-3.72c-0.04-2.01-1.73-3.63-3.72-3.58c-2.02,0.05-3.63,1.71-3.6,3.71
		C130.9,91.61,132.62,93.27,134.59,93.21z M134.53,88.25c0.78-0.01,1.24,0.49,1.3,1.31c-0.02,0.81-0.48,1.29-1.26,1.31
		c-0.78,0.03-1.31-0.42-1.35-1.23C133.18,88.77,133.7,88.26,134.53,88.25z"/>
	<path class="st1" d="M95.46,93.22c2,0.06,3.71-1.55,3.77-3.54c0.06-2.02-1.53-3.71-3.53-3.76c-2.04-0.06-3.68,1.49-3.74,3.53
		C91.89,91.49,93.44,93.16,95.46,93.22z M95.52,88.25c0.83-0.02,1.39,0.44,1.38,1.33c-0.01,0.82-0.53,1.21-1.28,1.3
		c-0.84-0.06-1.35-0.48-1.36-1.29C94.24,88.8,94.73,88.27,95.52,88.25z"/>
	<path class="st1" d="M95.4,55.29c1.75-0.04,3.18-1.48,3.18-3.2c0.01-1.8-1.43-3.26-3.23-3.28c-1.77-0.02-3.27,1.49-3.25,3.26
		C92.12,53.85,93.64,55.33,95.4,55.29z M95.36,51.15c0.53,0,0.84,0.31,0.87,0.82c0.04,0.57-0.25,0.92-0.86,0.99
		c-0.56-0.03-0.91-0.32-0.92-0.9C94.44,51.5,94.77,51.15,95.36,51.15z"/>
	<path class="st1" d="M91.58,84.01c1.83,0.03,3.29-1.37,3.3-3.17c0.01-1.79-1.44-3.25-3.25-3.25c-1.74,0-3.19,1.4-3.24,3.14
		C88.33,82.51,89.76,83.98,91.58,84.01z M91.62,79.89c0.53-0.01,0.92,0.31,0.92,0.9c0,0.56-0.33,0.92-0.89,0.94
		c-0.58,0.02-0.85-0.36-0.92-0.9C90.75,80.25,91.08,79.9,91.62,79.89z"/>
	<path class="st1" d="M134.64,55.28c1.74,0.06,3.24-1.3,3.33-3.03c0.1-1.82-1.25-3.34-3.04-3.43c-1.82-0.09-3.3,1.26-3.38,3.08
		C131.48,53.74,132.83,55.21,134.64,55.28z M134.82,51.15c0.58,0.03,0.9,0.4,0.86,0.95c-0.04,0.55-0.4,0.86-0.96,0.86
		c-0.58-0.08-0.91-0.42-0.88-0.97C133.87,51.44,134.25,51.12,134.82,51.15z"/>
	<path class="st1" d="M138.38,84.03c1.87,0.02,3.28-1.34,3.29-3.16c0.02-1.84-1.37-3.27-3.19-3.27c-1.82-0.01-3.26,1.43-3.25,3.23
		C135.25,82.59,136.64,84.01,138.38,84.03z M138.43,79.86c0.52,0.07,0.92,0.33,0.97,0.88c0.05,0.56-0.28,0.94-0.82,1
		c-0.62,0.07-1-0.31-1.04-0.9C137.51,80.28,137.9,79.99,138.43,79.86z"/>
</g>
</svg>
