<?xml version="1.0" encoding="utf-8"?>
<!-- Generator: Adobe Illustrator 24.1.2, SVG Export Plug-In . SVG Version: 6.00 Build 0)  -->
<svg version="1.1" xmlns="http://www.w3.org/2000/svg" xmlns:xlink="http://www.w3.org/1999/xlink" x="0px" y="0px"
	 viewBox="0 0 333.8 333.8" style="enable-background:new 0 0 333.8 333.8;" xml:space="preserve">
<style type="text/css">
	.st0{fill:#2E2E2F;stroke:#B2A571;stroke-miterlimit:10;}
	.st1{fill:#B2A571;stroke:#2E2E2F;stroke-width:3;stroke-miterlimit:10;}
</style>
<g id="Camada_1">
</g>
<g id="Camada_2">
	<g>
		<g>
			<path class="st0" d="M72.1,291c2.3,5.6,8.7,8.3,14.2,6.1c5.5-2.2,8.1-8.8,5.8-14.4c-2.3-5.7-8.9-8.5-14.4-6.1
				C72.3,278.9,69.8,285.4,72.1,291z"/>
			<path class="st0" d="M277.1,194.2c-5-22.3-13.9-40.8-26.3-55c15.4-22.3,31.1-45.3,29.6-66.6c-0.7-10.9-6.4-19.1-14.9-21.9
				c-3.3-1.1-6.6-1-10-1c-0.5,0-1,0.3-1.3-0.5c-0.6-1.7-1.9-2.4-3.3-3c-5.8-2.6-11.9-3.1-18-2.8c-3.2,0.2-5.5,3.3-5.6,7.2
				c-0.1,2.3-0.1,4.7,0.1,7c0.2,3.7,2.4,6.7,5.2,6.9c6.5,0.4,12.9-0.2,19.1-3.2c0.7-0.3,1.5-0.7,1.8-1.5c0.7-2,2-1.8,3.4-1.7
				c1,0,2,0,3.1,0c8.2,0.4,13.2,6.4,13.8,16.5c0.7,11.4-16.1,36.2-21.3,45.7c-2.2,4.2-4.8,8.4-7.4,12.7
				c-11.6-11.2-25.8-19.2-42.4-23.6c-29.5-8-55.7-5.4-77.9,7.8c-13.7,8.1-24.2,19.2-32.1,30.5C74.2,127.1,53,103.7,53.4,73.3
				c0-0.9,0.1-1.7,0.2-2.6c0.7-6.7,4.1-11.6,9.4-13.5c2.9-1,5.9-0.8,8.9-0.9c0.3,0,0.6,0,0.7,0.4c1,2.5,3.1,3,5,3.8
				c5.4,2.1,11,2.4,16.6,2.1c3-0.2,5.3-3.4,5.4-7.3c0-2.2,0-4.5,0-6.7c-0.1-3.8-2.2-6.6-5.2-7.2c-1.4-0.2-2.8-0.2-4.2-0.1
				c-5.2,0.2-10.4,1-15.3,3.5c-0.9,0.5-1.7,1.1-2.1,2.1c-0.3,0.9-0.8,0.9-1.4,0.9c-2.6,0-5.1-0.1-7.7,0.4C55,50,48.8,57.1,47,67.5
				c-0.6,3.5-0.6,7.1-0.7,10.6c-0.5,18.7,3.8,24.6,12.2,40.1c3.9,7.1,17.9,21.6,29.8,36.1c-10.2,16.4-15.2,31.9-16.8,37.8l0,0
				c-8.2,23-5.6,57-2.8,68.8c0.2,1,0,1.5-0.8,2.1c-9.7,6.4-14.4,15.6-13.1,27.3c1.3,11.6,7.7,19.8,18.5,23.8c10.7,4,20.6,2,28.8-5.8
				c8.2-7.8,10.7-17.7,7.5-28.8c-3.8-13.1-16-21.5-29.4-20.5c-1.3,0.1-1.7-0.3-2-1.5c-1.4-6.4-1.2-12.5-1.4-19
				c-0.4-15.8,0.4-31,4.8-45.7l0,0c1.8-5.9,6-17.7,13.4-30.3c8.7,10.8,16,20.8,17.9,26.6c0.2,0.7,0.3,1.2-0.1,1.9
				c-2.4,3.6-2.7,7.6-1.5,11.9c1.4,4.8,3.1,9.3,5.2,13.7c8.6,17.8,20.5,30.4,37,35.9c1,0.3,1.2,0.9,1.2,2c0.1,7.1,2.6,12.3,7.8,15.4
				c0,0,0.1,0,0.1,0.1c0.6,2.8,3.2,14.8,10.3,27.1c10.7,18.8,26.5,29.2,45.6,30.1c0.9,0,1.7,0.1,2.6,0.1c20.7,0,37.6-11.7,48.9-34
				c8.5-16.9,10.9-33.8,11-34.5C281,257.4,284.6,227.6,277.1,194.2z M99.1,280.2c4,9.2-0.2,20.1-9.3,24.1
				c-8.9,3.9-19.8-0.6-23.8-9.9c-4-9.2,0.3-20.1,9.4-24C84.4,266.7,95.1,271.1,99.1,280.2z M143,220c-6.7-7-11.3-15.8-14.6-25.7
				c-1.4-4.1-3.9-6.7-7.5-7.3c-1-0.2-1.4-0.7-1.7-1.8c-2.9-8.9-10.7-19.1-19.8-29.8c7.4-11,17.4-22,30.4-29.7
				c19.8-11.8,43.5-14,70.3-6.8c15.8,4.3,29,11.8,39.7,22.6c-8.8,14-17.9,28.5-22.8,43.2c-0.3,1-0.8,1.5-1.7,1.6
				c-3.6,0.7-6,3.2-7.4,7.2c-0.5,1.6-1.1,3.2-1.7,4.7c-4.6,11.9-11,21.7-20.5,28c-5.8,3.8-11.9,6.3-18.5,5.8
				C157.9,231.6,150,227.2,143,220z M271,257.4c0,0.2-2.2,16.2-10.1,31.6c-10,19.6-24.2,29.2-42.1,28.4
				c-15.7-0.7-28.3-9.1-37.4-24.9c-5-8.7-7.6-17.5-8.7-21.9c0.1-0.3,0.3-0.5,0.7-0.7c5.1-3.2,7.7-8.3,7.6-15.4c0-1,0.2-1.5,1.1-1.7
				c11.1-3.5,20.5-10.4,28.3-20.8c6.5-8.7,11.4-18.6,14.5-29.8c0.9-3.3,1.3-6.9-0.5-9.7c-1.7-2.7-1.1-4.8-0.3-7.4
				c3.7-11.8,11.8-24.4,20.8-37.5c10.4,12.6,17.9,28.8,22.4,48.6C274.6,227.8,271.1,257.1,271,257.4z"/>
		</g>
	</g>
	<path class="st1" d="M207.5,61.4c-0.9-2.1-0.6-4.3-0.7-6.4c0-3.5,0.2-6.9,0.1-10.4c-0.3-8.7-6.9-14.8-16.7-14.5
		c-5.4,0.1-9.6-0.8-13.9-3.9c-2.9-2.1-4.6-3.6-4.3-7.1c0.2-3.2-1.3-6.2-4.5-8.1c-2.9-1.7-6-1.9-9-0.5c-3.7,1.7-5.7,4.5-5.4,8.2
		c0.3,3.1-0.9,4.4-4.2,4.5c-0.5,0-0.9,0.2-1.4,0.3c-22.7,4.8-27.5,24.9-20.8,38.3c4.8,9.5,12.5,15.5,23.7,17.9
		c3.7,0.8,4.9,2.2,4.9,5.6c0.1,12.5,0.7,25,1.2,37.6c0.1,2.1-0.5,3.4-2.6,4.5c-2.5,1.2-4.2,3.2-5.6,5.4c-7.6,12.5-6.1,25.9,4.2,36.7
		c1.2,1.2,2.3,2.5,3.5,3.7c1.5,1.4,2.1,3,2.2,4.9c0.4,14.1,1,28.3,1.3,42.4c0.1,2,0.6,2.8,3.1,2.8c2.5,0.1,2.7-1,2.8-2.7
		c0.1-1.1-0.9-2.5,1.1-3.3c12.3-5.1,19.9-17.5,18-29.4c-1.4-9-6.7-16.6-12.3-23.9c-3.5-4.5-5.1-8.9-4.7-14.4c0.3-3.6,1.5-5.8,5-7.4
		c9.1-4.4,15.6-11.2,20.7-19.1c8.9-13.8,7.7-29.8-3.1-41.5c-4.7-5.1-10.7-8.8-16.9-12.2c-1.7-0.9-2.6-1.8-2.6-3.8
		c0.2-8.7,0.1-17.5,0.1-26.9c5.7,2,8.3,4.4,9.2,8.8c1.7,8.4,9,14.1,14.3,20.7c0.1,0.1,0.2,0.1,0.3,0.2c0.7,0.5,1.6,0.9,2.3,0.4
		c0.7-0.5,0.1-1.2-0.1-1.8c-0.6-2-1.4-3.9-2-5.9c-0.4-1.3-0.3-2.6,1.3-3.4c1.7-0.9,3.1-0.3,4.2,0.8c1.4,1.4,2.6,2.8,4,4.2
		c0.8,0.8,1.4,2.1,2.9,1.4C208.5,63.6,208,62.4,207.5,61.4z M152,61.4c-10.4-3.5-12.3-9.4-4.8-21c1.2-1.9,3.4-4.4,5.8-3.8
		c1.9,0.4,0.7,3.4,0.9,5.3c0.2,2.5,0,4.9,0,7.4c0.2,0,0.4,0,0.6,0c0,3.6-0.1,7.1,0,10.7C154.5,61.8,154,62.1,152,61.4z M166,207.3
		c-0.1-0.4-0.2-0.6-0.2-0.9c0-6.4,0-12.9,0-20C170.1,190.4,169.9,201.3,166,207.3z M169.7,118.1c0-9.9,0-19.7,0-30
		C184.4,99,182.8,109.7,169.7,118.1z M203.1,51.6c-1.7,0.1-2.4-1.6-2.4-3c0-1.4,0.2-3.2,2-3.3c2-0.2,2.1,1.6,2.2,2.4
		C205.1,49.7,204.9,51.5,203.1,51.6z"/>
</g>
</svg>
