<?xml version="1.0" encoding="utf-8"?>
<!-- Generator: Adobe Illustrator 24.1.2, SVG Export Plug-In . SVG Version: 6.00 Build 0)  -->
<svg version="1.1" id="Camada_1" xmlns="http://www.w3.org/2000/svg" xmlns:xlink="http://www.w3.org/1999/xlink" x="0px" y="0px"
	 viewBox="0 0 153.74 153.74" style="enable-background:new 0 0 153.74 153.74;" xml:space="preserve">
<style type="text/css">
	.st0{fill:#2E2E2F;}
	.st1{fill:#B2A571;}
	.st2{fill:none;stroke:#2E2E2F;stroke-width:6;stroke-miterlimit:10;}
	.st3{fill:none;stroke:#B2A571;stroke-width:4;stroke-miterlimit:10;}
</style>
<g>
	<g>
		<path class="st0" d="M83.03,97.01c-0.15-0.17-0.3-0.34-0.45-0.51l0,0c0,0,0,0,0,0c-0.59-0.3-1.17-0.6-1.76-0.9
			c-0.59-0.31-1.07-0.71-1.3-1.36c-0.14-0.4-0.45-0.59-0.86-0.65c-0.52-0.07-1.05-0.13-1.57-0.2c-0.22-0.02-0.44-0.04-0.62-0.18
			c-0.3-0.1-0.63-0.16-0.79-0.49c-0.23,0.02-0.33-0.16-0.45-0.31c0,0,0,0,0,0l-0.04-0.01l-0.01-0.04c-0.41-0.42-0.84-0.82-1.38-1.07
			c-0.06,0.01-0.1,0-0.11-0.06c-0.65-0.22-1.3-0.44-1.99-0.54c-0.22-0.05-0.45-0.02-0.65-0.16c0,0,0,0,0,0
			c-0.73-0.05-1.45-0.2-2.15-0.41c-0.36-0.03-0.69-0.13-1.01-0.29c-0.2-0.01-0.37-0.09-0.53-0.19c-0.46-0.13-0.9-0.34-1.3-0.6v0
			c-1.01-0.53-1.96-1.17-3.04-1.53c-0.38-0.12-0.76-0.24-1.14-0.36h0c-0.59-0.1-1.18-0.2-1.75-0.39c-0.01,0-0.03-0.01-0.04-0.01
			c-0.46-0.02-0.91-0.08-1.36-0.21c-0.51,0-1.01-0.07-1.5-0.2c-0.7-0.08-1.4-0.15-2.1-0.23c0,0,0,0,0,0
			c-0.26-0.03-0.53-0.03-0.78-0.09c-0.61-0.15-1.27-0.05-1.83-0.38c-0.13-0.02-0.26,0.06-0.39-0.03c-0.14,0.01-0.28,0.01-0.39-0.08
			c-0.25-0.01-0.49-0.06-0.71-0.19c-0.45-0.11-0.89-0.26-1.3-0.48c0,0,0,0,0,0l0,0c-0.6-0.21-1.19-0.42-1.79-0.63
			c-0.35-0.1-0.73-0.12-1.02-0.38h0c-0.3-0.14-0.39-0.39-0.39-0.7c-0.21-0.1-0.16-0.31-0.15-0.47c0.01-0.66-0.13-1.29-0.35-1.91
			c-0.12-0.24-0.25-0.48-0.37-0.72c-0.14-0.22-0.29-0.43-0.43-0.65c0,0,0,0,0,0c0,0,0,0,0,0c-0.03-0.04-0.06-0.08-0.09-0.12v0
			c-0.06-0.08-0.12-0.15-0.18-0.23l0,0c-0.07-0.09-0.14-0.19-0.22-0.28c-0.26-0.28-0.54-0.55-0.68-0.92
			c-0.16-0.18-0.35-0.33-0.42-0.57c-0.21-0.21-0.36-0.46-0.48-0.72v0c-0.32-0.52-0.65-1.03-0.95-1.57
			c-0.32-0.59-0.69-1.16-0.86-1.82c-0.36-0.47-0.56-1.02-0.72-1.58c-0.12-0.18-0.17-0.39-0.19-0.6c-0.09-0.16-0.1-0.33-0.09-0.51v0
			c-0.13-0.58-0.21-1.16-0.22-1.76c-0.13-0.44-0.14-0.89-0.16-1.34c-0.03-0.3-0.07-0.59-0.08-0.89c-0.02-1.33-0.19-2.68,0.18-3.99
			c0.03-0.2,0.09-0.39,0.28-0.5c0.23-0.23,0.45-0.1,0.66,0.04c0.35,0.22,0.69,0.45,1.03,0.67c0.13,0.01,0.25,0.07,0.34,0.16
			c0.71,0.25,1.42,0.47,2.15,0.64c0.2,0.07,0.43,0.03,0.61,0.17v0c1.12,0.18,2.16,0.54,3.11,1.17c0,0,0,0,0,0
			c0.44,0.22,0.85,0.47,1.18,0.84c0.23,0.15,0.39,0.35,0.5,0.6c0.12,0.11,0.16,0.25,0.18,0.41c0.02,0.2,0.06,0.39-0.04,0.58
			c-0.41,0.76,0,1.07,0.67,1.22c1.2,0.27,2.39,0.16,3.57-0.16c0.45-0.19,0.91-0.33,1.4-0.36c0,0,0,0,0,0s0,0,0,0
			c0.83-0.2,1.38-0.68,1.64-1.52c0.11-0.34,0.32-0.65,0.48-0.97c0.26-0.58,0.36-1.16,0.07-1.76c-0.23-0.47-0.46-0.95-0.7-1.42
			c-0.01-0.01-0.02-0.03-0.02-0.04c-0.19-0.32-0.38-0.65-0.57-0.97c-0.32-0.49-0.66-0.96-0.9-1.5c0,0,0,0,0,0s0,0,0,0
			c-0.15-0.13-0.23-0.3-0.3-0.48c0.05-0.02,0.09-0.03,0.12-0.06c-0.03-0.02-0.06-0.01-0.12,0.06c-0.19-0.31-0.38-0.62-0.57-0.93l0,0
			h0c-0.29-0.32-0.52-0.69-0.73-1.07c-0.13-0.12-0.22-0.26-0.27-0.42l0,0h0c-0.71-1.02-1.41-2.05-2.12-3.07
			c-0.24-0.24-0.44-0.51-0.6-0.81v0c-0.19-0.21-0.37-0.43-0.5-0.69c-0.35-0.4-0.76-0.76-0.89-1.31v0c-0.09-0.08-0.1-0.19-0.1-0.3
			c-0.09-0.37-0.19-0.73-0.28-1.1c-0.2-0.65-0.67-1.13-1.02-1.68c-0.06-0.07-0.12-0.14-0.19-0.22c-0.3-0.31-0.58-0.63-0.9-0.92
			c-0.63-0.58-0.9-1.31-0.91-2.15v0c-0.16-0.24-0.35-0.3-0.61-0.13c-0.14,0.09-0.29,0.21-0.48,0.2c-0.53,0.17-1.06,0.18-1.59-0.01
			c-0.57-0.13-1-0.49-1.43-0.87c-0.21-0.17-0.42-0.33-0.63-0.5c0,0,0,0,0,0c-0.25-0.17-0.51-0.33-0.76-0.5
			c-0.5-0.26-1.07-0.43-1.2-1.09c0,0,0,0,0,0l0,0c-0.33-0.4-0.33-1-0.78-1.33c-0.11-0.07-0.2-0.03-0.29,0.04
			c-0.03,0.24-0.06,0.49-0.1,0.73c0,0,0,0,0,0c0.12,0.37,0.06,0.76,0.09,1.14l0.02,0.03l-0.01,0.03c0.1,0.17,0.07,0.36,0.07,0.54h0
			c0,0,0,0,0,0c0.17,0.7,0.33,1.4,0.5,2.09c0.04,0.27,0.04,0.54-0.1,0.79v0c-0.01,0.11-0.08,0.18-0.17,0.23
			c-0.44,0.42-1.04,0.54-1.57,0.79c-0.33,0.19-0.66,0.38-1.04,0.48c-0.95,0.51-1.9,1.01-2.85,1.52c-0.31,0.19-0.63,0.37-0.94,0.56
			c-0.23,0.14-0.46,0.28-0.69,0.42c-0.4,0.38-0.92,0.59-1.36,0.91c0,0,0,0,0,0c0,0,0,0,0,0c-0.08,0.06-0.16,0.12-0.24,0.18
			c-0.32,0.29-0.63,0.58-1,0.8c-0.27,0.23-0.54,0.46-0.81,0.69c-0.33,0.33-0.66,0.67-0.99,1c-0.17,0.2-0.34,0.4-0.51,0.6
			c-0.18,0.34-0.42,0.64-0.67,0.93c-0.06,0.22-0.2,0.39-0.32,0.57c-0.03,0.12-0.07,0.25-0.18,0.33c-0.05,0.12-0.09,0.24-0.14,0.37
			c-0.08,0.21-0.17,0.43-0.25,0.64c-0.08,0.52-0.17,1.05-0.33,1.55c-0.06,0.45-0.19,0.88-0.39,1.29c-0.07,0.36-0.25,0.68-0.42,1
			c-0.08,0.14-0.15,0.28-0.23,0.41c-0.63,1.19-1.47,2.19-2.63,2.89c0,0,0,0,0,0c-0.17,0.18-0.39,0.28-0.62,0.37
			c-0.24,0.21-0.61,0.38-0.5,0.77c0.1,0.37,0.47,0.47,0.8,0.57c0.02,0.01,0.03,0.01,0.05,0.01c0.28-0.01,0.29,0.15,0.22,0.35
			c-0.05,0.14-0.12,0.27-0.18,0.4c-0.35,0.81-0.75,1.59-1.28,2.3c-0.3,0.61-0.7,1.16-1.12,1.69c-0.02,0.1-0.08,0.18-0.17,0.23v0
			c-0.26,0.46-0.65,0.8-1.01,1.17c-0.2,0.37-0.4,0.74-0.59,1.1c0,0,0,0,0,0c0.03,0.13-0.06,0.2-0.12,0.29
			c-0.22,0.55-0.44,1.09-0.66,1.64c-0.24,0.7-0.49,1.41-0.81,2.08l0,0c-0.03,0.32-0.22,0.58-0.33,0.87
			c-0.04,0.11-0.05,0.25-0.16,0.33c-0.04,0.12-0.09,0.25-0.13,0.37c-0.08,0.19-0.11,0.39-0.26,0.55v0c-0.43,1.17-1,2.27-1.63,3.35
			c-0.09,0.26-0.22,0.49-0.39,0.7c-0.14,0.23-0.27,0.46-0.41,0.7c-0.25,0.47-0.54,0.91-0.87,1.32c-0.07,0.09-0.13,0.19-0.2,0.28
			c-0.07,0.14-0.04,0.25-0.22,0.46c0,0,0.32,5.18,2.75,9.57c0.74,1.34,3.68,5.01,5.14,6.07c4.75,3.45,6.18,6.17,6.18,6.17
			c0.13-0.08,0.27-0.16,0.4-0.24c0.12-0.13,0.25-0.24,0.43-0.27c1.13-0.77,2.25-1.54,3.38-2.32c0.1-0.15,0.25-0.22,0.4-0.3
			c0.36-0.27,0.72-0.53,1.09-0.8c0,0,0,0,0,0c0.2-0.16,0.41-0.32,0.61-0.48c0.22-0.17,0.45-0.35,0.67-0.52
			c0.28-0.22,0.55-0.45,0.83-0.67c0.13-0.11,0.26-0.21,0.39-0.32c0.2-0.24,0.45-0.42,0.71-0.59c0.13-0.1,0.25-0.21,0.38-0.31
			c0.21-0.16,0.41-0.33,0.62-0.49c0-0.13,0.11-0.15,0.19-0.2c0.4-0.4,0.82-0.77,1.27-1.11l0,0c0,0,0,0,0,0
			c0.41-0.43,0.85-0.82,1.32-1.19c0.07-0.13,0.17-0.24,0.31-0.29c0.19-0.18,0.39-0.37,0.58-0.55c0,0,0,0,0,0l0,0
			c0.24-0.25,0.46-0.54,0.81-0.65v0c0.66-0.41,1.36-0.43,2.09-0.28c0.38,0.05,0.76,0.11,1.14,0.16c0,0,0,0,0,0
			c0.25,0.01,0.51,0.02,0.76,0.03c0.7,0,1.4,0,2.1,0c0,0,0,0,0,0c0,0,0,0,0,0c0.87-0.09,1.74-0.2,2.59-0.39
			c0.17,0.08,0.24-0.17,0.4-0.11c0.58-0.21,1.18-0.27,1.79-0.2c0.41,0.1,0.81,0.23,1.01,0.66v0c0.31,0.52,0.38,1.08,0.21,1.66
			c0,0,0,0,0,0c0.02,0.37-0.1,0.71-0.23,1.05c-0.08,0.44-0.24,0.85-0.48,1.23c-0.19,0.54-0.48,1.02-0.81,1.47v0
			c-0.36,0.65-0.8,1.25-1.29,1.8c-0.31,0.44-0.66,0.84-1.06,1.21c-0.14,0.16-0.29,0.32-0.43,0.48c-0.35,0.36-0.73,0.68-1,1.1
			c-0.06,0.16-0.14,0.31-0.09,0.49c0.11,0.1,0.14,0.23,0.15,0.39c-0.22-0.03-0.41-0.06-0.57-0.17c0,0,0,0,0,0v0c0,0,0,0,0,0
			c-0.53-0.15-1.04-0.35-1.59-0.43c-0.47-0.05-0.94-0.02-1.39,0.14c-0.41,0.23-0.69,0.58-0.9,0.99c-0.1,0.41-0.2,0.82-0.29,1.23
			c0,0,0,0,0,0c0.02,1.19-0.16,2.37-0.1,3.57c0.02,0.39,0.11,0.72,0.49,0.9c0.31,0,0.61,0.04,0.89-0.15
			c0.31-0.21,0.65-0.36,1.02-0.47c0.26-0.28,0.58-0.48,0.94-0.61c0,0,0,0,0,0c0,0,0,0,0,0c1.08-0.54,1.95-1.36,2.89-2.1
			c0.69-0.54,1.42-1.03,2.32-1.19c0.11-0.06,0.21-0.12,0.32-0.18c0.14-0.14,0.27-0.27,0.41-0.41v0c0.16-0.24,0.32-0.48,0.48-0.71
			c0.02-0.16,0.12-0.27,0.21-0.39c0.09-0.29,0.2-0.57,0.39-0.82c0.24-0.62,0.49-1.24,0.73-1.87c0.12-0.24,0.06-0.56,0.36-0.71l0,0
			c0,0,0,0,0,0c0.01-0.28,0.04-0.56,0.21-0.79c0.04-0.29,0.16-0.55,0.3-0.8c0.26-0.81,0.6-1.58,0.99-2.33c0,0,0,0,0,0
			c0.19-0.48,0.44-0.92,0.79-1.3c0.16-0.3,0.45-0.47,0.7-0.68c0.13-0.26,0.26-0.52,0.38-0.79c0,0,0,0,0,0v0
			c0.04-0.4,0.09-0.79,0.13-1.19l0,0h0c-0.1-0.53-0.21-1.05-0.31-1.58c-0.26-0.63-0.52-1.26-0.88-1.84
			c-0.1-0.17-0.15-0.36-0.09-0.56c0.04-0.22,0.17-0.35,0.38-0.4c0.47-0.18,0.96-0.22,1.45-0.22c0.03-0.01,0.07-0.02,0.1-0.02
			c0.46-0.1,0.92-0.1,1.37,0.02v0c0.8-0.03,1.51,0.34,2.26,0.52c0.45,0.03,0.88-0.05,1.3-0.19l0,0c0.53-0.28,1.09-0.39,1.69-0.29
			c0.19,0.02,0.38,0.04,0.53,0.16c0.14-0.02,0.26,0.05,0.37,0.12c0.15,0.03,0.3,0.08,0.42,0.18c0.61,0.24,1.22,0.47,1.78,0.79
			c0.42,0.13,0.8,0.33,1.19,0.53c0.53,0.21,1.06,0.43,1.54,0.76c0.18,0.02,0.31,0.14,0.45,0.25c0.36,0.19,0.72,0.38,1.02,0.67
			c0.38,0.23,0.76,0.45,1.19,0.55c0.43,0.1,0.86,0.17,1.29,0.25c0.32,0.03,0.59,0.14,0.71,0.47c0.21,0.24,0.29,0.53,0.36,0.83v0
			c0.18,0.61,0.43,1.18,0.83,1.68h0c0.06,0.07,0.13,0.14,0.19,0.21c0.41,0.38,0.88,0.67,1.4,0.89c0,0,0,0,0,0
			c0.47,0.06,0.94,0.01,1.4-0.08l0,0v0c0.57-0.12,1.09-0.42,1.69-0.42c0.1-0.21,0.32-0.2,0.5-0.27c0.57-0.18,1.07-0.56,1.68-0.64
			c0.01-0.12,0.06-0.19,0.19-0.19c0.14-0.09,0.28-0.19,0.43-0.28l0,0v0C82.78,97.57,83.12,97.42,83.03,97.01z"/>
	</g>
</g>
<g>
	<g>
		<path class="st1" d="M68.38,103.64c-0.1-0.12-0.21-0.23-0.31-0.35l0,0c0,0,0,0,0,0c-0.4-0.2-0.8-0.41-1.19-0.61
			c-0.4-0.21-0.73-0.48-0.88-0.92c-0.1-0.27-0.31-0.4-0.58-0.44c-0.36-0.05-0.71-0.09-1.07-0.14c-0.15-0.01-0.3-0.03-0.42-0.12
			c-0.21-0.07-0.43-0.11-0.54-0.33c-0.16,0.01-0.22-0.11-0.3-0.21c0,0,0,0,0,0l-0.03-0.01l-0.01-0.03
			c-0.28-0.29-0.57-0.56-0.94-0.73c-0.04,0.01-0.07,0-0.08-0.04c-0.44-0.15-0.89-0.3-1.35-0.37c-0.15-0.04-0.31-0.01-0.44-0.11
			c0,0,0,0,0,0c-0.5-0.03-0.98-0.13-1.46-0.28c-0.24-0.02-0.47-0.09-0.68-0.2c-0.13-0.01-0.25-0.06-0.36-0.13
			c-0.32-0.09-0.61-0.23-0.88-0.41l0,0c-0.68-0.36-1.33-0.79-2.07-1.04c-0.26-0.08-0.52-0.16-0.78-0.24h0
			c-0.4-0.07-0.8-0.14-1.19-0.26c-0.01,0-0.02,0-0.03-0.01c-0.31-0.01-0.62-0.05-0.92-0.14c-0.35,0-0.68-0.05-1.02-0.14
			c-0.47-0.05-0.95-0.1-1.42-0.15c0,0,0,0,0,0c-0.18-0.02-0.36-0.02-0.53-0.06c-0.41-0.1-0.86-0.04-1.25-0.26
			c-0.09-0.02-0.18,0.04-0.26-0.02c-0.09,0-0.19,0.01-0.27-0.06c-0.17,0-0.33-0.04-0.48-0.13c-0.31-0.07-0.6-0.18-0.88-0.33
			c0,0,0,0,0,0l0,0c-0.4-0.14-0.81-0.29-1.21-0.43c-0.24-0.07-0.5-0.08-0.69-0.26h0c-0.2-0.09-0.27-0.27-0.27-0.48
			c-0.14-0.07-0.11-0.21-0.1-0.32c0.01-0.45-0.09-0.88-0.24-1.3c-0.08-0.16-0.17-0.33-0.25-0.49c-0.1-0.15-0.2-0.3-0.29-0.44
			c0,0,0,0,0,0c0,0,0,0,0,0c-0.02-0.03-0.04-0.05-0.06-0.08v0c-0.04-0.05-0.08-0.1-0.12-0.15v0c-0.05-0.06-0.1-0.13-0.15-0.19
			c-0.18-0.19-0.36-0.37-0.46-0.62c-0.11-0.12-0.24-0.23-0.29-0.39c-0.14-0.14-0.24-0.31-0.32-0.49v0c-0.22-0.35-0.44-0.7-0.64-1.07
			c-0.22-0.4-0.47-0.79-0.58-1.24c-0.24-0.32-0.38-0.69-0.49-1.08c-0.08-0.13-0.12-0.26-0.13-0.41c-0.06-0.11-0.07-0.23-0.06-0.34v0
			c-0.09-0.39-0.15-0.79-0.15-1.2c-0.09-0.3-0.09-0.6-0.11-0.91c-0.02-0.2-0.05-0.4-0.05-0.6c-0.02-0.91-0.13-1.82,0.12-2.71
			c0.02-0.14,0.06-0.26,0.19-0.34c0.16-0.15,0.31-0.07,0.45,0.02c0.24,0.15,0.47,0.3,0.7,0.46c0.09,0.01,0.17,0.04,0.23,0.11
			c0.48,0.17,0.97,0.32,1.46,0.43c0.13,0.05,0.29,0.02,0.41,0.11l0,0c0.76,0.12,1.47,0.37,2.11,0.79c0,0,0,0,0,0
			c0.3,0.15,0.58,0.32,0.8,0.57c0.15,0.1,0.26,0.24,0.34,0.41c0.08,0.07,0.11,0.17,0.12,0.28c0.01,0.13,0.04,0.27-0.03,0.39
			c-0.28,0.52,0,0.72,0.45,0.83c0.82,0.18,1.63,0.11,2.43-0.11c0.31-0.13,0.62-0.22,0.95-0.24c0,0,0,0,0,0s0,0,0,0
			c0.57-0.13,0.94-0.46,1.11-1.03c0.07-0.23,0.22-0.44,0.33-0.66c0.18-0.39,0.24-0.79,0.05-1.19c-0.15-0.32-0.32-0.64-0.47-0.96
			c-0.01-0.01-0.01-0.02-0.02-0.03c-0.13-0.22-0.26-0.44-0.39-0.66c-0.22-0.33-0.45-0.66-0.61-1.02c0,0,0,0,0,0s0,0,0,0
			c-0.1-0.09-0.16-0.2-0.21-0.32c0.03-0.01,0.06-0.02,0.08-0.04c-0.02-0.01-0.04-0.01-0.08,0.04c-0.13-0.21-0.26-0.42-0.39-0.63h0h0
			c-0.2-0.22-0.35-0.47-0.49-0.73c-0.09-0.08-0.15-0.18-0.19-0.29h0h0c-0.48-0.7-0.96-1.39-1.44-2.09c-0.16-0.16-0.3-0.35-0.41-0.55
			v0c-0.13-0.14-0.25-0.29-0.34-0.47c-0.24-0.27-0.52-0.52-0.6-0.89l0,0c-0.06-0.06-0.07-0.13-0.07-0.21
			c-0.06-0.25-0.13-0.5-0.19-0.75c-0.13-0.44-0.45-0.77-0.7-1.14c-0.04-0.05-0.08-0.1-0.13-0.15c-0.2-0.21-0.4-0.43-0.61-0.63
			c-0.43-0.4-0.61-0.89-0.62-1.46v0c-0.11-0.17-0.24-0.2-0.41-0.09c-0.1,0.06-0.2,0.14-0.33,0.14c-0.36,0.12-0.72,0.12-1.08-0.01
			c-0.39-0.09-0.68-0.34-0.97-0.59c-0.14-0.11-0.29-0.23-0.43-0.34c0,0,0,0,0,0c-0.17-0.11-0.34-0.23-0.52-0.34
			c-0.34-0.17-0.73-0.29-0.81-0.74c0,0,0,0,0,0l0,0c-0.23-0.27-0.22-0.68-0.53-0.9c-0.07-0.04-0.14-0.02-0.2,0.03
			c-0.02,0.16-0.04,0.33-0.07,0.49c0,0,0,0,0,0c0.08,0.25,0.04,0.52,0.06,0.78l0.02,0.02l-0.01,0.02c0.07,0.12,0.04,0.24,0.05,0.37
			h0c0,0,0,0,0,0c0.11,0.47,0.22,0.95,0.34,1.42c0.02,0.19,0.03,0.37-0.07,0.54l0,0c-0.01,0.07-0.05,0.12-0.11,0.16
			c-0.3,0.29-0.71,0.37-1.07,0.54c-0.22,0.13-0.45,0.26-0.7,0.32c-0.65,0.34-1.29,0.69-1.94,1.03c-0.21,0.13-0.43,0.25-0.64,0.38
			c-0.16,0.1-0.31,0.19-0.47,0.29c-0.27,0.26-0.62,0.4-0.92,0.62c0,0,0,0,0,0c0,0,0,0,0,0c-0.05,0.04-0.11,0.08-0.16,0.12
			c-0.21,0.2-0.43,0.4-0.68,0.55c-0.18,0.16-0.37,0.31-0.55,0.47c-0.22,0.23-0.45,0.45-0.67,0.68c-0.12,0.13-0.23,0.27-0.35,0.4
			c-0.12,0.23-0.29,0.43-0.45,0.63c-0.04,0.15-0.13,0.26-0.22,0.39c-0.02,0.08-0.05,0.17-0.12,0.22c-0.03,0.08-0.06,0.17-0.09,0.25
			c-0.06,0.15-0.11,0.29-0.17,0.44c-0.05,0.36-0.11,0.71-0.23,1.06c-0.04,0.31-0.13,0.6-0.27,0.88c-0.05,0.24-0.17,0.46-0.28,0.68
			c-0.05,0.09-0.1,0.19-0.15,0.28c-0.43,0.81-1,1.49-1.79,1.97c0,0,0,0,0,0c-0.12,0.13-0.27,0.19-0.42,0.25
			c-0.16,0.14-0.41,0.26-0.34,0.53c0.07,0.25,0.32,0.32,0.55,0.39c0.01,0,0.02,0.01,0.03,0.01c0.19-0.01,0.2,0.1,0.15,0.24
			c-0.03,0.09-0.08,0.18-0.12,0.27c-0.24,0.55-0.51,1.08-0.87,1.56c-0.21,0.41-0.47,0.79-0.76,1.15c-0.02,0.07-0.05,0.12-0.12,0.16
			v0c-0.18,0.31-0.44,0.55-0.69,0.79c-0.13,0.25-0.27,0.5-0.4,0.75c0,0,0,0,0,0c0.02,0.09-0.04,0.14-0.08,0.2
			c-0.15,0.37-0.3,0.74-0.45,1.11c-0.16,0.48-0.33,0.96-0.55,1.41l0,0c-0.02,0.22-0.15,0.4-0.22,0.59
			c-0.03,0.08-0.03,0.17-0.11,0.22c-0.03,0.08-0.06,0.17-0.09,0.25c-0.05,0.13-0.08,0.27-0.18,0.37v0
			c-0.29,0.79-0.68,1.54-1.11,2.27c-0.06,0.17-0.15,0.33-0.26,0.48c-0.09,0.16-0.19,0.32-0.28,0.47c-0.17,0.32-0.37,0.62-0.59,0.9
			c-0.05,0.06-0.09,0.13-0.14,0.19c-0.05,0.1-2.8,2.75-2.92,2.89c0,0,5.13,3.81,7.17,7.15c2.16,3.55,3.06,4.51,4.6,5.76
			c0.1-0.36,1-0.99,1.12-1.01c0.77-0.52,1.53-1.05,2.3-1.57c0.07-0.1,0.17-0.15,0.27-0.21c0.25-0.18,0.49-0.36,0.74-0.54
			c0,0,0,0,0,0c0.14-0.11,0.28-0.22,0.42-0.33c0.15-0.12,0.3-0.24,0.46-0.36c0.19-0.15,0.37-0.3,0.56-0.45
			c0.09-0.07,0.18-0.14,0.27-0.22c0.14-0.16,0.31-0.28,0.48-0.4c0.09-0.07,0.17-0.14,0.26-0.21c0.14-0.11,0.28-0.22,0.42-0.33
			c0-0.09,0.07-0.11,0.13-0.14c0.27-0.27,0.56-0.53,0.87-0.75l0,0c0,0,0,0,0,0c0.28-0.29,0.58-0.56,0.89-0.81
			c0.05-0.09,0.11-0.16,0.21-0.2c0.13-0.12,0.26-0.25,0.4-0.37c0,0,0,0,0,0h0c0.17-0.17,0.31-0.37,0.55-0.44l0,0
			c0.45-0.28,0.93-0.29,1.42-0.19c0.26,0.04,0.52,0.07,0.77,0.11c0,0,0,0,0,0c0.17,0.01,0.35,0.02,0.52,0.02c0.47,0,0.95,0,1.42,0
			c0,0,0,0,0,0c0,0,0,0,0,0c0.59-0.06,1.18-0.14,1.76-0.26c0.11,0.06,0.17-0.11,0.27-0.07c0.4-0.14,0.8-0.19,1.22-0.13
			c0.28,0.07,0.55,0.15,0.69,0.45l0,0c0.21,0.36,0.26,0.73,0.14,1.13c0,0,0,0,0,0c0.01,0.25-0.06,0.48-0.15,0.71
			c-0.05,0.3-0.16,0.57-0.32,0.83c-0.13,0.36-0.33,0.69-0.55,1v0c-0.24,0.44-0.54,0.85-0.88,1.22c-0.21,0.3-0.45,0.57-0.72,0.82
			c-0.1,0.11-0.19,0.22-0.29,0.33c-0.24,0.24-0.49,0.46-0.68,0.75c-0.04,0.11-0.1,0.21-0.06,0.33c0.07,0.07,0.09,0.16,0.1,0.26
			c-0.15-0.02-0.28-0.04-0.39-0.12c0,0,0,0,0,0v0c0,0,0,0,0,0c-0.36-0.1-0.71-0.24-1.08-0.29c-0.32-0.03-0.64-0.01-0.94,0.09
			c-0.28,0.16-0.47,0.39-0.61,0.67c-0.07,0.28-0.13,0.56-0.2,0.84c0,0,0,0,0,0c0.01,0.81-0.11,1.61-0.07,2.42
			c0.01,0.26,0.07,0.49,0.33,0.61c0.21,0,0.42,0.03,0.61-0.1c0.21-0.14,0.44-0.25,0.69-0.32c0.18-0.19,0.4-0.33,0.64-0.42
			c0,0,0,0,0,0c0,0,0,0,0,0c0.73-0.37,1.33-0.93,1.96-1.43c0.47-0.37,0.97-0.7,1.58-0.81c0.07-0.04,0.15-0.08,0.22-0.12
			c0.09-0.09,0.19-0.18,0.28-0.28l0,0c0.11-0.16,0.22-0.32,0.33-0.48c0.01-0.11,0.08-0.18,0.14-0.26c0.06-0.2,0.14-0.39,0.26-0.56
			c0.17-0.42,0.33-0.85,0.5-1.27c0.08-0.16,0.04-0.38,0.25-0.48l0,0c0,0,0,0,0,0c0-0.19,0.03-0.38,0.14-0.54
			c0.03-0.2,0.11-0.38,0.2-0.55c0.18-0.55,0.41-1.07,0.67-1.58c0,0,0,0,0,0c0.13-0.33,0.3-0.62,0.54-0.88
			c0.11-0.2,0.31-0.32,0.48-0.46c0.09-0.18,0.17-0.36,0.26-0.53c0,0,0,0,0,0v0c0.03-0.27,0.06-0.54,0.09-0.81l0,0h0
			c-0.07-0.36-0.14-0.71-0.21-1.07c-0.18-0.43-0.36-0.86-0.6-1.25c-0.07-0.12-0.1-0.25-0.06-0.38c0.02-0.15,0.11-0.24,0.26-0.27
			c0.32-0.12,0.65-0.15,0.99-0.15c0.02-0.01,0.05-0.01,0.07-0.01c0.31-0.07,0.62-0.07,0.93,0.01v0c0.54-0.02,1.02,0.23,1.53,0.35
			c0.3,0.02,0.6-0.03,0.88-0.13h0c0.36-0.19,0.74-0.26,1.15-0.2c0.13,0.01,0.26,0.02,0.36,0.11c0.1-0.01,0.17,0.04,0.25,0.08
			c0.1,0.02,0.2,0.05,0.29,0.12c0.41,0.16,0.83,0.32,1.21,0.54c0.28,0.09,0.55,0.22,0.81,0.36c0.36,0.14,0.72,0.29,1.05,0.52
			c0.12,0.02,0.21,0.1,0.31,0.17c0.25,0.13,0.49,0.26,0.69,0.46c0.26,0.15,0.52,0.3,0.81,0.38c0.29,0.07,0.58,0.12,0.88,0.17
			c0.22,0.02,0.4,0.1,0.48,0.32c0.14,0.16,0.19,0.36,0.25,0.56l0,0c0.12,0.41,0.29,0.8,0.56,1.14h0c0.04,0.05,0.09,0.09,0.13,0.14
			c0.28,0.26,0.6,0.46,0.95,0.61c0,0,0,0,0,0c0.32,0.04,0.64,0.01,0.95-0.06h0l0,0c0.39-0.08,0.74-0.28,1.15-0.29
			c0.07-0.15,0.22-0.14,0.34-0.18c0.39-0.12,0.72-0.38,1.14-0.43c0.01-0.08,0.04-0.13,0.13-0.13c0.1-0.06,0.19-0.13,0.29-0.19h0l0,0
			C68.22,104.02,68.45,103.92,68.38,103.64z"/>
	</g>
</g>
<path class="st2" d="M78.91,47.63c-7.38-7.06-17.39-11.41-28.41-11.41c-22.7,0-41.11,18.41-41.11,41.11s18.41,41.11,41.11,41.11
	c15.26,0,28.57-8.32,35.66-20.67"/>
<path class="st3" d="M144.26,48.38c0,0-13.53-2.27-17.9-3.58c-4.13-1.23-17.02-6.9-17.08-6.88c-0.06-0.02-12.94,5.64-17.08,6.88
	c-4.37,1.31-17.9,3.58-17.9,3.58s-1.73,24.57,6.05,40.13c11.01,22.02,28.87,29.62,28.93,29.6c0.06,0.02,17.92-7.59,28.93-29.6
	C145.98,72.95,144.26,48.38,144.26,48.38z"/>
<path class="st1" d="M136.65,55.46c0,0-10.49-1.76-13.88-2.78c-3.2-0.96-13.2-5.35-13.24-5.33c-0.04-0.02-0.04,62.18,0,62.16
	c0.04,0.02,13.89-5.88,22.43-22.95C137.99,74.51,136.65,55.46,136.65,55.46z"/>
</svg>
