<?xml version="1.0" encoding="utf-8"?>
<!-- Generator: Adobe Illustrator 24.1.2, SVG Export Plug-In . SVG Version: 6.00 Build 0)  -->
<svg version="1.1" id="Camada_1" xmlns="http://www.w3.org/2000/svg" xmlns:xlink="http://www.w3.org/1999/xlink" x="0px" y="0px"
	 viewBox="0 0 333.8 333.8" style="enable-background:new 0 0 333.8 333.8;" xml:space="preserve">
<style type="text/css">
	.st0{fill:#F3F3F3;}
	.st1{fill:none;stroke:#F3F3F3;stroke-width:12;stroke-miterlimit:10;}
	.st2{fill:none;stroke:#B2A572;stroke-width:9;stroke-miterlimit:10;}
</style>
<g>
	<path class="st0" d="M245.5,259.7c-2.9,0.2-5.9,0.1-8.8,0c-1.3-0.1-2.7-0.1-4-0.3c-1.3,0-2.6-0.2-3.8-0.5l0,0l0,0
		c-0.8,0-1.6-0.2-2.3-0.4l0,0c-0.9-0.2-1.9-0.3-2.8-0.5l0,0l0,0c-1.7-0.3-3.5-0.8-5.2-1.3l0,0l0,0c-1.5-0.3-2.9-0.8-4.3-1.3l0,0l0,0
		c-0.8-0.2-1.6-0.4-2.3-0.8c-1-0.2-1.9-0.7-2.8-1.1c-0.2-0.1-0.5-0.1-0.7-0.3c-1.1-0.4-2.2-0.8-3.3-1.4c-0.8-0.2-1.4-0.6-2.1-1l0,0
		l0,0c-0.5-0.2-0.9-0.5-1.4-0.7l0,0l0,0c-0.3-0.1-0.5-0.1-0.6-0.4c-0.2,0-0.3,0-0.4-0.2c-0.7-0.3-1.3-0.6-1.8-1l0,0
		c-0.5-0.3-0.9-0.6-1.4-0.9l0,0c-0.5-0.3-1.1-0.5-1.5-1c-2.3-1.3-4.4-2.9-6.5-4.6l0,0l0,0c-0.3-0.1-0.5-0.3-0.6-0.5
		c-0.7-0.6-1.4-1.1-2.1-1.7l0,0c-0.7-0.3-1.1-0.9-1.6-1.4l0,0c-0.6-0.4-1.2-0.9-1.6-1.5l0,0l0,0c-0.6-0.4-1.2-1-1.6-1.6
		c-0.5-0.4-1-0.9-1.4-1.4l0,0l0,0c-0.5-0.4-0.9-0.8-1.2-1.2c-0.8-0.9-1.5-1.8-2.3-2.7l0,0l0,0c-0.2-0.2-0.4-0.4-0.6-0.7
		c-0.9-1.1-1.9-2.2-2.7-3.5l0,0l0,0c-0.7-0.9-1.5-1.8-2-2.9c-0.9-1.1-1.6-2.3-2.3-3.5c-0.4-0.3-0.6-0.8-0.8-1.3
		c-0.4-0.5-0.7-1-0.9-1.6c-0.6-0.8-1-1.7-1.4-2.6c-0.4-0.7-0.8-1.4-1.1-2.2l0,0c-0.9-1.7-1.6-3.4-2.3-5.2c-0.5-0.7-0.7-1.5-1-2.3
		c0-0.1,0-0.1,0-0.2c-0.4-0.7-0.7-1.4-0.6-2.2c-0.6-0.6-0.6-1.5-0.9-2.3c-0.3-0.8-0.5-1.6-0.7-2.4c-0.3-0.9-0.6-1.9-0.7-2.8l0,0
		c-0.7-2.4-1.1-4.9-1.4-7.4c-0.2-1.7-0.5-3.3-0.5-5l0,0c-0.2-0.4-0.2-0.9-0.1-1.3c-0.3-4.4-0.2-8.8,0.2-13.1
		c0.2-1.9,0.4-3.9,0.8-5.8c0-0.4,0-0.8,0.2-1.1c0.1-1.4,0.4-2.7,0.8-4c0.1-1,0.4-1.9,0.7-2.8c0.1-0.6,0.2-1.2,0.5-1.7l0,0
		c0.4-1.8,0.9-3.5,1.7-5.1c0.2-0.9,0.6-1.6,0.9-2.4c0.1-0.3,0.3-0.7,0.4-1c0.1-0.2,0.2-0.4,0.3-0.6c0.9-2.3,2-4.6,3.2-6.8l0,0l0,0
		c0.3-0.8,0.8-1.5,1.2-2.3c0.1-0.1,0.1-0.2,0.1-0.2c0.1-0.4,0.3-0.8,0.6-1c0-0.3,0.2-0.6,0.4-0.8c0.2-0.5,0.5-0.9,0.8-1.3
		c0.4-0.8,0.9-1.6,1.4-2.2l0,0c0.2-0.3,0.3-0.7,0.6-0.8c2.4-3.5,5-6.8,8-9.8c0.9-1,1.8-2,2.9-2.9c0.1-0.3,0.4-0.5,0.6-0.6l0,0l0,0
		c3-2.9,6.2-5.5,9.6-7.8l0,0l0,0c0.2-0.3,0.5-0.4,0.9-0.6l0,0c0.7-0.6,1.4-1.1,2.2-1.4c0.4-0.3,0.8-0.6,1.3-0.8l0,0
		c0.2-0.2,0.5-0.4,0.8-0.4c0.3-0.3,0.6-0.5,1-0.7c0.1-0.1,0.2-0.1,0.2-0.1l0,0l0,0c0.6-0.4,1.3-0.8,2-1.1l0,0l0,0
		c2.2-1.3,4.6-2.4,7-3.4l0,0l0,0c0.2-0.1,0.4-0.2,0.6-0.3l0,0c0.3-0.1,0.7-0.3,1-0.4c0.8-0.3,1.5-0.7,2.4-0.9
		c1.6-0.7,3.4-1.2,5.1-1.7c0.5-0.3,1.1-0.3,1.7-0.5c0.9-0.3,1.9-0.6,2.8-0.7c1.3-0.4,2.7-0.7,4-0.8l0,0c0.4-0.2,0.8-0.2,1.1-0.2l0,0
		l0,0c2-0.4,4-0.6,6-0.8c0.4,0,0.9,0,1.4-0.1l0,0c0.4-0.2,0.9-0.2,1.3-0.1c0.9,0,1.7-0.1,2.6-0.1l0,0c1.7-0.2,3.4-0.2,5.1,0
		c0.9,0,1.7,0.1,2.6,0.1c0.4,0,0.9-0.1,1.3,0.1c1.6,0,3.2,0.2,4.8,0.5c0.6,0.1,1.3,0.2,1.9,0.3c0.1,0,0.3,0,0.4,0.1
		c1.8,0.2,3.6,0.5,5.3,1.1c1,0.1,1.9,0.4,2.8,0.7c0.4,0.1,0.8,0.1,1.1,0.3l0,0c1,0.2,2,0.5,3,0.9l0,0l0,0c1,0.3,1.9,0.7,2.9,1
		c0.1,0,0.1,0,0.2,0l0,0l0,0c1,0.3,2,0.7,2.9,1.2l0,0c1.6,0.6,3.1,1.2,4.6,2l0,0c0.8,0.3,1.5,0.6,2.2,1.1l0,0l0,0
		c0.9,0.4,1.8,0.8,2.6,1.4c0.4,0.1,0.8,0.4,1.1,0.7c0.6,0.3,1.2,0.6,1.7,1l0,0c1.1,0.7,2.4,1.2,3.3,2.3c1.5,0.6,2.7,1.7,3.9,2.7
		c1,0.5,1.8,1.3,2.6,2.1l0,0l0,0c0.3,0.1,0.5,0.3,0.7,0.6l0,0l0,0c0.7,0.6,1.5,1.3,2.2,1.9l0,0l0,0c0.6,0.5,1.2,1,1.7,1.6l0,0l0,0
		c0.5,0.4,1,0.9,1.4,1.4c0.4,0.4,0.8,0.8,1.2,1.2c0.2,0.1,0.4,0.2,0.4,0.4l0,0l0,0c0.7,0.7,1.5,1.3,1.9,2.3c1,0.8,1.9,1.9,2.6,2.9
		c0.2,0.2,0.4,0.3,0.4,0.6l0,0l0,0c1.9,2.2,3.5,4.5,5,7l0,0l0,0c0.3,0.4,0.5,0.8,0.8,1.3c0.4,0.6,0.7,1.2,1.1,1.8
		c0.4,0.4,0.6,0.9,0.8,1.5c0.2,0.2,0.3,0.5,0.4,0.8c0.1,0.2,0.2,0.4,0.4,0.7c0.2,0.3,0.5,0.6,0.5,1l0,0l0,0c0.5,0.6,0.8,1.3,1.1,2
		c0.6,1,1,2.1,1.4,3.2c0.2,0.4,0.3,0.8,0.5,1.1l0,0c0.2,0.6,0.5,1.2,0.7,1.8c0.4,0.9,0.9,1.8,0.8,2.8c0.4,0,0.4,0.4,0.5,0.7
		c0.4,1.2,0.9,2.4,1,3.6c0.6,1.4,1,2.9,1,4.5c0.6,1,0.7,2.1,0.8,3.2l0,0c0.2,0.4,0.1,0.7,0.2,1.1l0,0l0,0c0.2,1.1,0.4,2.3,0.5,3.4
		c0.1,0.8,0.1,1.7,0.1,2.5c0.4,0.4,0.2,0.9,0.2,1.4l0,0c0.2,0.4,0.1,0.9,0.1,1.3c0.3,3.4,0.2,6.8,0,10.3c0,0.4,0.1,0.8-0.1,1.1
		c0,1.6-0.2,3.2-0.5,4.8l0,0l0,0c0,0.3,0,0.6-0.1,0.9c0,0.1,0,0.2,0,0.3c0,0.3,0,0.6-0.2,0.9c0,1.3-0.4,2.4-0.7,3.6l0,0l0,0
		c0.1,0.6-0.3,1.1-0.2,1.9c-0.6-0.7-1.1-1.3-1.5-1.9c-0.1-0.2-0.3-0.4-0.4-0.6c-0.7-0.9-1.3-1.8-1.8-2.7c-0.3-0.5-0.6-0.9-0.9-1.4
		c-0.3-0.4-0.6-0.9-0.8-1.4c-1.3-2.2-2.5-4.5-3.4-6.9l0,0l0,0c-0.3-0.3-0.4-0.7-0.5-1.1c-0.1-0.3-0.2-0.5-0.3-0.8
		c-0.2-0.2-0.3-0.4-0.3-0.7c-0.2-0.6-0.6-1.1-0.7-1.8l0,0c-0.7-1.4-1.2-2.8-1.7-4.3c-0.5-1.1-0.9-2.3-1.4-3.4
		c-0.1-0.2-0.3-0.3-0.2-0.6l0,0c-0.4-0.8-0.8-1.5-1.2-2.3c-0.8-0.8-1.5-1.5-2.1-2.4l0,0l0,0c-0.2-0.1-0.3-0.3-0.4-0.5
		c-0.9-1.1-1.7-2.2-2.3-3.5c-1.1-1.5-1.9-3.1-2.6-4.7c-0.1-0.3-0.3-0.5-0.4-0.8c-0.1-0.4-0.1-0.7,0.5-0.7c0,0,0.1,0,0.1,0
		c0.7-0.2,1.4-0.4,1.6-1.2c0.2-0.8-0.5-1.1-1-1.6c-0.5-0.2-0.9-0.4-1.3-0.8l0,0c-2.4-1.4-4.1-3.5-5.4-6c-0.2-0.3-0.3-0.6-0.5-0.9
		c-0.4-0.7-0.7-1.3-0.9-2.1c-0.4-0.9-0.7-1.7-0.8-2.7c-0.3-1-0.5-2.1-0.7-3.2c-0.2-0.4-0.3-0.9-0.5-1.3c-0.1-0.3-0.2-0.5-0.3-0.8
		c-0.2-0.2-0.3-0.4-0.4-0.7c-0.3-0.4-0.5-0.7-0.7-1.2c-0.5-0.6-1-1.2-1.4-1.9c-0.4-0.4-0.7-0.8-1.1-1.2l0,0l0,0
		c-0.7-0.7-1.4-1.4-2-2.1c-0.6-0.5-1.1-0.9-1.7-1.4c-0.8-0.4-1.4-1.1-2.1-1.7c-0.2-0.1-0.3-0.3-0.5-0.4l0,0l0,0
		c-0.9-0.7-2-1.1-2.8-1.9c-0.5-0.3-0.9-0.6-1.4-0.9l0,0c-0.6-0.4-1.3-0.8-1.9-1.2c-2-1-3.9-2.1-5.9-3.1c-0.8-0.2-1.5-0.6-2.1-1
		c-1.1-0.5-2.3-0.8-3.2-1.6c-0.2-0.1-0.3-0.3-0.4-0.5l0,0c-0.3-0.5-0.3-1.1-0.2-1.6c0.3-1.4,0.7-2.9,1-4.3l0,0l0,0
		c0-0.4-0.1-0.8,0.1-1.1l0-0.1l0-0.1c0.1-0.8-0.1-1.6,0.2-2.3l0,0c-0.1-0.5-0.1-1-0.2-1.5c-0.2-0.2-0.4-0.2-0.6-0.1
		c-0.9,0.7-0.9,1.9-1.6,2.7l0,0l0,0c-0.3,1.4-1.4,1.7-2.5,2.3c-0.5,0.3-1,0.7-1.6,1l0,0c-0.4,0.3-0.9,0.7-1.3,1
		c-0.9,0.8-1.8,1.5-2.9,1.8c-1.1,0.4-2.2,0.4-3.3,0c-0.4,0-0.7-0.2-1-0.4c-0.5-0.3-0.9-0.2-1.3,0.3l0,0c0,1.7-0.6,3.2-1.9,4.4
		c-0.6,0.6-1.2,1.3-1.9,1.9l0,0c-0.1,0.2-0.3,0.3-0.4,0.4c-0.7,1.1-1.7,2.1-2.1,3.4c-0.2,0.8-0.4,1.5-0.6,2.3l0,0l0,0
		c0,0.2,0,0.4-0.2,0.6l0,0l0,0c-0.3,1.1-1.1,1.9-1.8,2.7l0,0c-0.3,0.5-0.6,1-1,1.4l0,0c-0.3,0.6-0.8,1.2-1.2,1.7
		c-1.4,2.1-2.9,4.2-4.4,6.3l0,0l0,0c-0.1,0.3-0.3,0.6-0.6,0.9c-0.4,0.8-0.9,1.5-1.5,2.2l0,0l0,0c-0.4,0.6-0.8,1.3-1.2,1.9
		c-0.1-0.1-0.2-0.1-0.2-0.1c0.1,0.1,0.1,0.1,0.2,0.1c-0.1,0.4-0.3,0.7-0.6,1l0,0l0,0c-0.5,1.1-1.2,2.1-1.9,3.1
		c-0.4,0.7-0.8,1.3-1.2,2c0,0,0,0.1-0.1,0.1c-0.5,1-1,1.9-1.4,2.9c-0.6,1.2-0.4,2.4,0.1,3.6c0.3,0.7,0.8,1.3,1,2
		c0.5,1.7,1.7,2.7,3.4,3.1l0,0l0,0c1,0.1,2,0.4,2.9,0.7c2.4,0.6,4.9,0.9,7.4,0.3c1.4-0.3,2.2-0.9,1.4-2.5c-0.2-0.4-0.1-0.8-0.1-1.2
		c0-0.3,0.1-0.6,0.4-0.8c0.2-0.5,0.6-0.9,1-1.2c0.7-0.8,1.5-1.3,2.4-1.7l0,0l0,0c1.9-1.3,4.1-2,6.4-2.4l0,0l0,0
		c0.4-0.3,0.8-0.2,1.3-0.4c1.5-0.4,3-0.8,4.4-1.3c0.2-0.2,0.4-0.3,0.7-0.3l0,0c0.7-0.5,1.4-0.9,2.1-1.4c0.4-0.3,0.9-0.5,1.4-0.1l0,0
		l0,0c0.4,0.2,0.5,0.6,0.6,1c0.8,2.7,0.4,5.5,0.4,8.2c0,0.6-0.1,1.2-0.2,1.8c0,0.9-0.1,1.9-0.3,2.8c0,1.2-0.2,2.4-0.5,3.6l0,0l0,0
		c0,0.4,0,0.7-0.2,1c0,0.4-0.1,0.9-0.4,1.2c-0.3,1.2-0.8,2.3-1.5,3.3c-0.4,1.4-1.1,2.5-1.8,3.7c-0.6,1.1-1.3,2.1-1.9,3.2l0,0l0,0
		c-0.3,0.6-0.6,1.1-1,1.5c-0.2,0.5-0.6,0.8-0.9,1.2c-0.3,0.8-0.9,1.3-1.4,1.9c-0.1,0.2-0.3,0.4-0.4,0.6l0,0
		c-0.1,0.2-0.3,0.3-0.4,0.5l0,0c-0.1,0.1-0.1,0.2-0.2,0.2l0,0l0,0c-0.3,0.4-0.6,0.9-0.9,1.3c-0.3,0.5-0.5,1-0.8,1.5l0,0
		c-0.4,1.3-0.7,2.6-0.7,3.9c0,0.3,0.1,0.8-0.3,1c0,0.6-0.2,1.1-0.8,1.4l0,0c-0.6,0.5-1.4,0.6-2.1,0.8c-1.2,0.4-2.4,0.9-3.7,1.3l0,0
		l0,0c-0.9,0.4-1.7,0.8-2.7,1l0,0c-0.4,0.3-0.9,0.4-1.4,0.4c-0.2,0.2-0.5,0.2-0.8,0.2c-0.3,0.2-0.5,0-0.8,0.1
		c-1.2,0.7-2.5,0.5-3.8,0.8c-0.5,0.1-1.1,0.1-1.6,0.2l0,0c-1.4,0.2-2.9,0.3-4.3,0.5c-1,0.3-2,0.4-3.1,0.4c-0.9,0.3-1.8,0.4-2.8,0.4
		c0,0-0.1,0-0.1,0c-1.2,0.4-2.4,0.6-3.6,0.8l0,0c-0.8,0.3-1.6,0.5-2.4,0.7c-2.2,0.8-4.2,2.1-6.3,3.2l0,0c-0.8,0.5-1.7,1-2.7,1.2
		c-0.3,0.2-0.7,0.4-1.1,0.4c-0.6,0.3-1.3,0.5-2.1,0.6c-1.4,0.4-2.9,0.7-4.4,0.9l0,0c-0.4,0.3-0.9,0.2-1.3,0.3
		c-1.4,0.2-2.8,0.7-4.1,1.1c0,0.1-0.1,0.2-0.2,0.1c-1.1,0.5-2,1.3-2.8,2.2l0,0.1l-0.1,0l0,0c-0.2,0.3-0.4,0.7-0.9,0.6
		c-0.3,0.7-1,0.8-1.6,1c-0.4,0.3-0.8,0.3-1.3,0.4c-1.1,0.1-2.2,0.3-3.2,0.4c-0.8,0.1-1.5,0.5-1.8,1.3c-0.5,1.3-1.5,2.2-2.7,2.8
		c-1.2,0.6-2.4,1.2-3.6,1.9l0,0l0,0c-0.3,0.4-0.6,0.7-0.9,1.1c-0.2,0.8,0.5,1.2,0.9,1.6l0,0l0,0c0.3,0.2,0.6,0.4,0.9,0.6
		c0.3,0,0.4,0.1,0.4,0.4c1.3,0.1,2.3,0.9,3.4,1.3c0.4,0.1,0.8,0.1,1,0.6c1.2,0,2.3,0.6,3.5,0.9l0,0l0,0c0.9,0.2,1.9,0.3,2.9,0.2l0,0
		c1.1-0.4,2-1,2.9-1.8c0.1-0.1,0.3-0.3,0.4-0.4l0,0c0.8-1,1.3-2.2,1.7-3.5l0,0l0,0c0.2-0.6,0.3-1.2,0.8-1.7l0,0l0,0
		c0.3-0.7,0.8-0.9,1.5-1c0.9-0.2,1.8-0.3,2.6-0.5c0.9-0.2,1.7-0.7,2.5-1.1c0.6-0.6,1.3-1,2.1-1.4c0.3-0.2,0.6-0.5,0.9-0.5
		c1-0.7,2.1-1.1,3.2-1.6c0.8-0.4,1.6-0.8,2.4-1.1c1.2-0.7,2.4-1.1,3.7-1.6c0.3-0.2,0.6-0.3,0.9-0.4c0.2-0.1,0.5-0.3,0.8-0.3
		c0.3-0.3,0.7-0.3,1.1-0.3c1.2-0.2,2.4,0,3.5,0.6l0,0c0.9,0.3,1.8,0.4,2.7,0.4c1.6-0.4,3-1.1,4.6-1.1l0,0l0,0c0.9-0.3,1.9-0.2,2.8,0
		c0.1,0,0.1,0,0.2,0.1c1,0,2,0.1,3,0.5l0,0c0.4,0.1,0.7,0.4,0.8,0.8c0.1,0.4,0,0.8-0.2,1.2c-0.7,1.2-1.3,2.5-1.8,3.8
		c-0.2,1.1-0.4,2.2-0.6,3.2l0,0l0,0c0.1,0.8,0.2,1.6,0.3,2.4l0,0l0,0c0.3,0.5,0.5,1.1,0.8,1.6l0,0l0,0c0.5,0.4,1.1,0.8,1.4,1.4
		c0.7,0.8,1.3,1.7,1.6,2.7l0,0c0.8,1.6,1.5,3.1,2,4.8c0.3,0.5,0.5,1.1,0.6,1.7c0.4,0.5,0.4,1.1,0.4,1.6l0,0l0,0
		c0.6,0.3,0.5,1,0.7,1.5c0.5,1.3,1,2.6,1.5,3.8c0.4,0.5,0.6,1.1,0.8,1.7l0,0c0.2,0.2,0.4,0.5,0.4,0.8c0.3,0.5,0.7,1,1,1.5l0,0
		c0.3,0.3,0.6,0.6,0.9,0.8c0.2,0.1,0.4,0.3,0.7,0.4c1.8,0.3,3.4,1.3,4.8,2.4c1.9,1.5,3.7,3.2,5.9,4.3l0,0l0,0
		c0.7,0.3,1.4,0.7,1.9,1.3c0.7,0.2,1.5,0.5,2.1,1c0.6,0.4,1.2,0.3,1.8,0.3c0.8-0.4,1-1.1,1-1.9c0.1-2.4-0.3-4.9-0.2-7.3l0,0
		c-0.2-0.9-0.4-1.7-0.6-2.5c-0.4-0.8-1-1.6-1.9-2c-0.9-0.3-1.9-0.4-2.9-0.3c-1.1,0.2-2.2,0.6-3.3,0.9l0,0l0,0l0,0l0,0
		c-0.3,0.2-0.7,0.3-1.2,0.4c0-0.3,0.1-0.6,0.3-0.8c0.1-0.4-0.1-0.7-0.2-1l0,0c-0.6-0.9-1.4-1.5-2.1-2.3c-0.3-0.3-0.6-0.7-0.9-1
		c-0.8-0.8-1.6-1.6-2.2-2.5c-1-1.1-1.9-2.4-2.7-3.7l0,0c-0.7-0.9-1.3-1.9-1.7-3c-0.5-0.8-0.8-1.6-1-2.5c-0.3-0.7-0.5-1.4-0.5-2.2
		l0,0c-0.4-1.2-0.2-2.3,0.4-3.4l0,0c0.4-0.9,1.2-1.1,2.1-1.4c1.3-0.2,2.5,0,3.7,0.4c0.3-0.1,0.5,0.4,0.8,0.2
		c1.8,0.4,3.5,0.6,5.3,0.8l0,0l0,0c1.4,0,2.9,0,4.3,0c0.5,0,1.1-0.1,1.6-0.1l0,0c0.8-0.1,1.6-0.2,2.3-0.3c1.5-0.3,3-0.3,4.3,0.6l0,0
		c0.7,0.2,1.2,0.8,1.7,1.3l0,0l0,0c0.4,0.4,0.8,0.8,1.2,1.1c0.3,0.1,0.5,0.3,0.6,0.6c1,0.8,1.9,1.6,2.7,2.4l0,0l0,0
		c0.9,0.7,1.8,1.4,2.6,2.3c0.2,0.1,0.4,0.2,0.4,0.4c0.4,0.3,0.9,0.7,1.3,1c0.3,0.2,0.5,0.4,0.8,0.6c0.5,0.4,1,0.7,1.5,1.2
		c0.3,0.2,0.5,0.4,0.8,0.6c0.6,0.5,1.1,0.9,1.7,1.4l0,0c0.5,0.4,0.9,0.7,1.4,1.1c0.4,0.3,0.8,0.7,1.3,1l0,0c0.7,0.6,1.5,1.1,2.2,1.6
		l0,0c0.3,0.2,0.6,0.3,0.8,0.6c2.3,1.6,4.6,3.2,7,4.8l0,0l0,0c0.4,0.1,0.6,0.3,0.9,0.6c0.8,0.5,1.6,1,2.4,1.5
		c0.3,0.2,1.2,0.3,0.2,0.8c-0.5,0.6-1.1,1-1.8,1.5l0,0c-0.5,0.6-1.2,1-1.9,1.4l0,0c-0.7,0.5-1.3,1-2,1.4c-1.4,1.2-3,2.1-4.6,3.1
		c-1,0.7-2.1,1.4-3.2,1.9l0,0l0,0c-1.8,1.1-3.6,2.1-5.6,2.9l0,0c-2.1,1.1-4.3,1.9-6.6,2.7c0,0-0.1,0-0.1,0.1
		c-0.8,0.4-1.6,0.7-2.5,0.9c-1.1,0.5-2.2,0.7-3.3,1c-0.1,0-0.2,0.1-0.2,0.1c-1.2,0.3-2.4,0.7-3.6,0.9c-0.6,0.2-1.2,0.5-1.9,0.4
		c-1.1,0.4-2.3,0.6-3.4,0.7l0,0l0,0c-0.8,0.2-1.7,0.3-2.5,0.4c-1.7,0.3-3.3,0.5-5,0.5l0,0C246.5,259.8,246,259.7,245.5,259.7z"/>
	<g>
		<g>
			<path class="st0" d="M165.9,216.1c-0.3-0.4-0.6-0.7-0.9-1.1l0,0l0,0c-1.2-0.6-2.4-1.2-3.6-1.9c-1.2-0.6-2.2-1.5-2.7-2.8
				c-0.3-0.8-0.9-1.2-1.8-1.3c-1.1-0.1-2.1-0.3-3.2-0.4c-0.4,0-0.9-0.1-1.3-0.4c-0.6-0.2-1.3-0.3-1.6-1c-0.5,0-0.7-0.3-0.9-0.6l0,0
				l-0.1,0l0-0.1c-0.8-0.9-1.7-1.7-2.8-2.2c-0.1,0-0.2,0-0.2-0.1c-1.3-0.4-2.7-0.9-4.1-1.1c-0.4-0.1-0.9,0-1.3-0.3l0,0
				c-1.5-0.1-3-0.4-4.4-0.9c-0.7-0.1-1.4-0.3-2.1-0.6c-0.4,0-0.8-0.2-1.1-0.4c-0.9-0.3-1.8-0.7-2.7-1.2l0,0c-2.1-1.1-4-2.4-6.3-3.2
				c-0.8-0.3-1.6-0.5-2.4-0.7l0,0c-1.2-0.2-2.4-0.4-3.6-0.8c0,0-0.1,0-0.1,0c-0.9,0-1.9-0.2-2.8-0.4c-1,0-2.1-0.1-3.1-0.4
				c-1.4-0.2-2.9-0.3-4.3-0.5l0,0c-0.5-0.1-1.1-0.1-1.6-0.2c-1.3-0.3-2.6-0.1-3.8-0.8c-0.3-0.1-0.5,0.1-0.8-0.1
				c-0.3,0-0.6,0-0.8-0.2c-0.5,0-1-0.1-1.4-0.4c-0.9-0.2-1.8-0.5-2.7-1l0,0l0,0c-1.2-0.4-2.4-0.9-3.7-1.3c-0.7-0.2-1.5-0.2-2.1-0.8
				l0,0c-0.6-0.3-0.8-0.8-0.8-1.4c-0.4-0.2-0.3-0.6-0.3-1c0-1.4-0.3-2.7-0.7-3.9c-0.3-0.5-0.5-1-0.8-1.5c-0.3-0.4-0.6-0.9-0.9-1.3
				l0,0l0,0c-0.1-0.1-0.1-0.2-0.2-0.2l0,0c-0.1-0.2-0.3-0.3-0.4-0.5l0,0c-0.2-0.2-0.3-0.4-0.4-0.6c-0.5-0.6-1.1-1.1-1.4-1.9
				c-0.3-0.4-0.7-0.7-0.9-1.2c-0.4-0.4-0.7-0.9-1-1.5l0,0c-0.7-1.1-1.3-2.1-1.9-3.2c-0.7-1.2-1.4-2.4-1.8-3.7
				c-0.7-1-1.2-2.1-1.5-3.3c-0.2-0.4-0.4-0.8-0.4-1.2c-0.2-0.3-0.2-0.7-0.2-1l0,0c-0.3-1.2-0.4-2.4-0.5-3.6
				c-0.3-0.9-0.3-1.8-0.3-2.8c-0.1-0.6-0.2-1.2-0.2-1.8c-0.1-2.8-0.4-5.5,0.4-8.2c0.1-0.4,0.2-0.8,0.6-1c0.5-0.5,0.9-0.2,1.4,0.1
				c0.7,0.4,1.4,0.9,2.1,1.4c0.3,0,0.5,0.1,0.7,0.3c1.5,0.5,2.9,1,4.4,1.3c0.4,0.1,0.9,0.1,1.3,0.4l0,0c2.3,0.4,4.4,1.1,6.4,2.4l0,0
				c0.9,0.5,1.8,1,2.4,1.7c0.5,0.3,0.8,0.7,1,1.2c0.3,0.2,0.3,0.5,0.4,0.8c0,0.4,0.1,0.8-0.1,1.2c-0.8,1.6,0,2.2,1.4,2.5
				c2.5,0.6,4.9,0.3,7.3-0.3c0.9-0.4,1.9-0.7,2.9-0.7l0,0l0,0c1.7-0.4,2.8-1.4,3.4-3.1c0.2-0.7,0.7-1.3,1-2c0.5-1.2,0.7-2.4,0.2-3.6
				c-0.5-1-1-1.9-1.4-2.9c0,0,0-0.1-0.1-0.1c-0.4-0.7-0.8-1.3-1.2-2c-0.7-1-1.3-2-1.9-3.1l0,0l0,0c-0.3-0.3-0.5-0.6-0.6-1
				c0.1,0,0.2-0.1,0.2-0.1c-0.1,0-0.1,0-0.2,0.1c-0.4-0.6-0.8-1.3-1.2-1.9l0,0l0,0c-0.6-0.7-1.1-1.4-1.5-2.2
				c-0.3-0.2-0.4-0.5-0.6-0.9l0,0l0,0c-1.4-2.1-2.9-4.2-4.4-6.3c-0.5-0.5-0.9-1.1-1.2-1.7l0,0c-0.4-0.4-0.8-0.9-1-1.4
				c-0.7-0.8-1.6-1.6-1.8-2.7l0,0c-0.2-0.2-0.2-0.4-0.2-0.6c-0.2-0.8-0.4-1.5-0.6-2.3c-0.4-1.3-1.4-2.3-2.1-3.4
				c-0.1-0.2-0.3-0.3-0.4-0.4c-0.6-0.6-1.2-1.3-1.8-1.9c-1.3-1.2-1.9-2.7-1.9-4.4l0,0c-0.3-0.5-0.7-0.6-1.3-0.3
				c-0.3,0.2-0.6,0.4-1,0.4c-1.1,0.3-2.2,0.4-3.3,0c-1.2-0.3-2.1-1-2.9-1.8c-0.4-0.3-0.9-0.7-1.3-1l0,0c-0.5-0.3-1-0.7-1.6-1
				c-1-0.5-2.2-0.9-2.5-2.3l0,0l0,0c-0.7-0.8-0.7-2.1-1.6-2.7c-0.2-0.1-0.4-0.1-0.6,0.1c-0.1,0.5-0.1,1-0.2,1.5l0,0
				c0.3,0.8,0.1,1.6,0.2,2.3l0.1,0.1l0,0.1c0.2,0.3,0.1,0.7,0.2,1.1l0,0l0,0c0.3,1.4,0.7,2.9,1,4.3c0.1,0.6,0.1,1.1-0.2,1.6l0,0
				c0,0.2-0.2,0.4-0.3,0.5c-0.9,0.9-2.1,1.1-3.2,1.6c-0.7,0.4-1.4,0.8-2.1,1c-2,1-3.9,2.1-5.9,3.1c-0.7,0.4-1.3,0.8-1.9,1.2
				c-0.5,0.3-0.9,0.6-1.4,0.9c-0.8,0.8-1.9,1.2-2.8,1.9l0,0l0,0c-0.2,0.1-0.3,0.3-0.5,0.4c-0.7,0.6-1.3,1.2-2.1,1.7
				c-0.6,0.5-1.1,0.9-1.7,1.4c-0.7,0.7-1.4,1.4-2,2.1c-0.3,0.4-0.7,0.8-1.1,1.2c-0.4,0.7-0.9,1.3-1.4,1.9c-0.1,0.4-0.4,0.8-0.7,1.2
				c-0.1,0.3-0.1,0.5-0.4,0.7c-0.1,0.3-0.2,0.5-0.3,0.8c-0.2,0.4-0.3,0.9-0.5,1.3c-0.2,1.1-0.3,2.2-0.7,3.2
				c-0.1,0.9-0.4,1.8-0.8,2.7c-0.2,0.7-0.5,1.4-0.9,2.1c-0.2,0.3-0.3,0.6-0.5,0.9c-1.3,2.4-3,4.5-5.4,6l0,0
				c-0.3,0.4-0.8,0.6-1.3,0.8c-0.5,0.4-1.3,0.8-1,1.6c0.2,0.8,1,1,1.7,1.2c0,0,0.1,0,0.1,0c0.6,0,0.6,0.3,0.5,0.7
				c-0.1,0.3-0.3,0.6-0.4,0.8c-0.7,1.7-1.5,3.3-2.6,4.7c-0.6,1.3-1.4,2.4-2.3,3.5c0,0.2-0.2,0.4-0.4,0.5l0,0
				c-0.5,0.9-1.3,1.7-2.1,2.4c-0.4,0.8-0.8,1.5-1.2,2.3l0,0c0.1,0.3-0.1,0.4-0.2,0.6c-0.5,1.1-0.9,2.3-1.4,3.4
				c-0.5,1.4-1,2.9-1.7,4.3l0,0c-0.1,0.7-0.4,1.2-0.7,1.8c-0.1,0.2-0.1,0.5-0.3,0.7c-0.1,0.3-0.2,0.5-0.3,0.8
				c-0.2,0.4-0.2,0.8-0.5,1.1l0,0c-0.9,2.4-2.1,4.7-3.4,6.9c-0.2,0.5-0.5,1-0.8,1.4c-0.3,0.5-0.6,0.9-0.9,1.4
				c-0.5,1-1.1,1.9-1.8,2.7c-0.1,0.2-0.3,0.4-0.4,0.6c-0.1,0.3-0.1,0.5-0.5,0.9c0,0,4.8,15.6,10.5,24.2
				C38.2,233.6,46,238.2,46,238.2c0.3-0.2,0.5-0.3,0.8-0.5c0.2-0.3,0.5-0.5,0.9-0.6c2.3-1.6,4.6-3.2,7-4.8c0.2-0.3,0.5-0.5,0.8-0.6
				c0.7-0.6,1.5-1.1,2.2-1.6l0,0c0.4-0.3,0.8-0.7,1.3-1c0.5-0.4,0.9-0.7,1.4-1.1c0.6-0.5,1.1-0.9,1.7-1.4c0.3-0.2,0.5-0.4,0.8-0.6
				c0.4-0.5,0.9-0.9,1.5-1.2c0.3-0.2,0.5-0.4,0.8-0.6c0.4-0.3,0.8-0.7,1.3-1c0-0.3,0.2-0.3,0.4-0.4c0.8-0.8,1.7-1.6,2.6-2.3l0,0l0,0
				c0.8-0.9,1.8-1.7,2.7-2.4c0.2-0.3,0.3-0.5,0.6-0.6c0.4-0.4,0.8-0.8,1.2-1.1l0,0l0,0c0.5-0.5,0.9-1.1,1.7-1.3l0,0
				c1.3-0.9,2.8-0.9,4.3-0.6c0.8,0.1,1.6,0.2,2.3,0.3l0,0c0.5,0,1.1,0.1,1.6,0.1c1.4,0,2.9,0,4.3,0l0,0l0,0c1.8-0.2,3.6-0.4,5.3-0.8
				c0.3,0.2,0.5-0.4,0.8-0.2c1.2-0.4,2.4-0.6,3.7-0.4c0.8,0.2,1.7,0.5,2.1,1.4l0,0c0.6,1.1,0.8,2.2,0.4,3.4l0,0
				c0,0.8-0.2,1.5-0.5,2.2c-0.2,0.9-0.5,1.7-1,2.5c-0.4,1.1-1,2.1-1.7,3l0,0c-0.7,1.4-1.7,2.6-2.7,3.7c-0.6,0.9-1.4,1.7-2.2,2.5
				c-0.3,0.3-0.6,0.7-0.9,1c-0.7,0.7-1.5,1.4-2.1,2.3c-0.1,0.3-0.3,0.6-0.2,1c0.2,0.2,0.3,0.5,0.3,0.8c-0.4-0.1-0.8-0.1-1.2-0.4l0,0
				l0,0l0,0c-1.1-0.3-2.1-0.7-3.3-0.9c-1-0.1-1.9,0-2.9,0.3c-0.8,0.5-1.4,1.2-1.8,2c-0.2,0.9-0.4,1.7-0.6,2.5l0,0
				c0,2.4-0.3,4.9-0.2,7.3c0,0.8,0.2,1.5,1,1.9c0.6,0,1.3,0.1,1.8-0.3c0.6-0.4,1.3-0.8,2.1-1c0.5-0.6,1.2-1,1.9-1.3l0,0l0,0
				c2.2-1.1,4-2.8,5.9-4.3c1.4-1.1,2.9-2.1,4.8-2.4c0.2-0.1,0.4-0.3,0.7-0.4c0.3-0.3,0.6-0.6,0.8-0.8l0,0c0.3-0.5,0.7-1,1-1.5
				c0-0.3,0.2-0.6,0.4-0.8c0.2-0.6,0.4-1.2,0.8-1.7c0.5-1.3,1-2.6,1.5-3.8c0.2-0.5,0.1-1.2,0.7-1.5l0,0l0,0c0-0.6,0.1-1.1,0.4-1.6
				c0.1-0.6,0.3-1.1,0.6-1.7c0.5-1.7,1.2-3.3,2-4.8l0,0c0.4-1,0.9-1.9,1.6-2.7c0.3-0.6,0.9-1,1.4-1.4c0.3-0.5,0.5-1.1,0.8-1.6l0,0
				l0,0c0.1-0.8,0.2-1.6,0.3-2.4l0,0l0,0c-0.2-1.1-0.4-2.2-0.6-3.2c-0.5-1.3-1.1-2.6-1.8-3.8c-0.2-0.4-0.3-0.8-0.2-1.2
				c0.1-0.5,0.3-0.7,0.8-0.8c1-0.4,2-0.4,3-0.5c0.1,0,0.1,0,0.2-0.1c0.9-0.2,1.9-0.2,2.8,0l0,0c1.7-0.1,3.1,0.7,4.7,1.1
				c0.9,0.1,1.8-0.1,2.7-0.4l0,0c1.1-0.6,2.3-0.8,3.5-0.6c0.4,0,0.8,0.1,1.1,0.3c0.3,0,0.5,0.1,0.8,0.3c0.3,0.1,0.6,0.2,0.9,0.4
				c1.3,0.5,2.5,1,3.7,1.6c0.9,0.3,1.6,0.7,2.4,1.1c1.1,0.4,2.2,0.9,3.2,1.6c0.4,0.1,0.6,0.3,0.9,0.5c0.8,0.4,1.5,0.8,2.1,1.4
				c0.8,0.5,1.6,0.9,2.5,1.1c0.9,0.2,1.8,0.4,2.6,0.5c0.7,0.1,1.2,0.3,1.5,1c0.4,0.5,0.6,1.1,0.8,1.7l0,0c0.4,1.3,0.9,2.4,1.7,3.5
				l0,0c0.1,0.1,0.3,0.3,0.4,0.4c0.9,0.8,1.8,1.4,2.9,1.8l0,0c1,0.1,1.9,0,2.9-0.2l0,0l0,0c1.2-0.3,2.3-0.9,3.5-0.9
				c0.2-0.4,0.7-0.4,1-0.6c1.2-0.4,2.2-1.2,3.4-1.3c0-0.2,0.1-0.4,0.4-0.4c0.3-0.2,0.6-0.4,0.9-0.6l0,0l0,0
				C165.4,217.3,166.1,217,165.9,216.1z"/>
		</g>
	</g>
	<circle class="st1" cx="99.3" cy="172.5" r="84.6"/>
</g>
<line class="st2" x1="175.8" y1="159.7" x2="175.8" y2="91.6"/>
<line class="st2" x1="141.1" y1="125.7" x2="209.3" y2="125.7"/>
</svg>
