<?xml version="1.0" encoding="utf-8"?>
<!-- Generator: Adobe Illustrator 24.1.2, SVG Export Plug-In . SVG Version: 6.00 Build 0)  -->
<svg version="1.1" id="Camada_1" xmlns="http://www.w3.org/2000/svg" xmlns:xlink="http://www.w3.org/1999/xlink" x="0px" y="0px"
	 viewBox="0 0 333.83 333.83" style="enable-background:new 0 0 333.83 333.83;" xml:space="preserve">
<style type="text/css">
	.st0{fill:#2E2E2F;}
	.st1{fill:none;stroke:#2E2E2F;stroke-width:12;stroke-miterlimit:10;}
	.st2{fill:none;stroke:#B2A572;stroke-width:9;stroke-miterlimit:10;}
</style>
<g>
	<path class="st0" d="M245.5,259.71c-2.94,0.16-5.88,0.15-8.83,0c-1.33-0.06-2.66-0.09-3.97-0.34c-1.29-0.02-2.56-0.22-3.83-0.46
		l0,0h0c-0.8-0.01-1.57-0.16-2.34-0.36l0,0c-0.93-0.16-1.87-0.33-2.8-0.49h0l0,0c-1.74-0.34-3.47-0.77-5.16-1.33c0,0,0,0,0,0
		s0,0,0,0c-1.46-0.34-2.89-0.76-4.29-1.3c0,0,0,0,0,0v0c-0.8-0.17-1.57-0.41-2.28-0.81c-0.99-0.24-1.91-0.68-2.84-1.09
		c-0.23-0.11-0.51-0.09-0.67-0.33c-1.14-0.36-2.22-0.84-3.26-1.42c-0.75-0.2-1.4-0.61-2.06-1.01l0,0h0
		c-0.47-0.24-0.93-0.48-1.4-0.73c0,0,0,0,0,0c0,0,0,0,0,0c-0.26-0.05-0.49-0.14-0.65-0.35c-0.16,0-0.31-0.04-0.39-0.21
		c-0.66-0.27-1.29-0.59-1.84-1.04v0c-0.48-0.28-0.95-0.57-1.43-0.85h0c-0.53-0.27-1.08-0.52-1.5-0.97
		c-2.32-1.31-4.43-2.91-6.51-4.55l0,0h0c-0.26-0.12-0.5-0.27-0.64-0.54c-0.68-0.55-1.37-1.1-2.05-1.66l0,0
		c-0.69-0.32-1.15-0.89-1.63-1.45h0c-0.59-0.44-1.16-0.91-1.63-1.47v0l0,0c-0.63-0.45-1.17-1-1.65-1.61
		c-0.54-0.42-1.01-0.91-1.44-1.45v0l0,0c-0.46-0.36-0.89-0.75-1.23-1.22c-0.76-0.89-1.52-1.77-2.27-2.66l0,0c0,0,0,0,0,0
		c-0.2-0.22-0.4-0.44-0.6-0.66c-0.92-1.14-1.91-2.24-2.7-3.48h0c0,0,0,0,0,0c-0.74-0.91-1.46-1.83-2.03-2.85
		c-0.91-1.06-1.58-2.28-2.26-3.49c-0.39-0.34-0.57-0.82-0.79-1.27c-0.36-0.48-0.67-0.99-0.88-1.55c-0.56-0.8-1-1.66-1.37-2.56
		c-0.44-0.68-0.82-1.39-1.08-2.16l0,0c-0.9-1.66-1.65-3.39-2.26-5.17c-0.46-0.72-0.7-1.52-0.96-2.32c-0.01-0.07-0.02-0.14-0.03-0.21
		c-0.36-0.7-0.73-1.4-0.63-2.22c-0.63-0.64-0.63-1.53-0.9-2.31c-0.28-0.79-0.46-1.62-0.69-2.43c-0.25-0.94-0.6-1.86-0.68-2.84
		c0,0,0,0,0,0c-0.72-2.43-1.06-4.93-1.39-7.43c-0.21-1.67-0.49-3.34-0.48-5.04c0,0,0,0,0,0c-0.22-0.42-0.16-0.88-0.14-1.33
		c-0.33-4.38-0.19-8.76,0.21-13.13c0.16-1.93,0.4-3.85,0.78-5.75c0.03-0.38-0.04-0.78,0.18-1.13c0.15-1.37,0.42-2.72,0.84-4.03
		c0.07-0.98,0.43-1.89,0.67-2.83c0.14-0.59,0.24-1.19,0.53-1.73l0,0c0.43-1.75,0.92-3.48,1.66-5.13c0.16-0.85,0.55-1.61,0.88-2.39
		c0.14-0.34,0.28-0.68,0.42-1.02c0.09-0.21,0.18-0.43,0.27-0.64c0.92-2.32,1.96-4.59,3.22-6.75c0,0,0,0,0,0l0,0
		c0.3-0.8,0.75-1.53,1.21-2.25c0.05-0.08,0.1-0.16,0.15-0.24c0.13-0.4,0.34-0.75,0.65-1.04c0.03-0.32,0.24-0.55,0.44-0.79
		c0.2-0.46,0.46-0.88,0.8-1.25c0.39-0.8,0.88-1.55,1.45-2.24l0,0c0.16-0.31,0.28-0.65,0.6-0.85c2.36-3.53,5.03-6.81,8.02-9.84
		c0.87-1.04,1.83-1.99,2.85-2.88c0.15-0.27,0.36-0.48,0.64-0.61l0,0v0c2.97-2.89,6.18-5.5,9.63-7.81l0,0v0
		c0.2-0.32,0.54-0.44,0.85-0.6c0,0,0,0,0,0c0.7-0.56,1.44-1.05,2.24-1.44c0.37-0.35,0.79-0.6,1.25-0.8h0
		c0.23-0.2,0.46-0.4,0.78-0.44c0.28-0.31,0.65-0.5,1.04-0.66c0.08-0.05,0.16-0.09,0.24-0.14c0,0,0,0,0,0v0
		c0.64-0.39,1.26-0.82,1.99-1.05c0,0,0,0,0,0v0c2.24-1.33,4.61-2.4,7.02-3.37v0c0,0,0,0,0,0c0.21-0.09,0.43-0.18,0.64-0.27l0,0
		c0.34-0.14,0.68-0.28,1.02-0.42c0.78-0.33,1.54-0.73,2.39-0.89c1.65-0.74,3.38-1.22,5.13-1.66c0.53-0.33,1.15-0.35,1.73-0.53
		c0.94-0.26,1.85-0.59,2.83-0.68c1.32-0.42,2.66-0.69,4.03-0.84c0,0,0,0,0,0c0.35-0.22,0.75-0.15,1.14-0.18v0c0,0,0,0,0,0
		c1.97-0.41,3.96-0.6,5.96-0.78c0.45-0.02,0.9-0.04,1.35-0.07c0,0,0,0,0,0c0.42-0.22,0.88-0.16,1.32-0.14
		c0.86-0.02,1.72-0.05,2.58-0.07c0,0,0,0,0,0c1.7-0.22,3.41-0.22,5.11,0c0.86,0.02,1.72,0.05,2.57,0.07
		c0.45-0.02,0.9-0.08,1.33,0.14c1.63-0.01,3.23,0.24,4.83,0.46c0.65,0.1,1.3,0.2,1.94,0.3c0.14,0.01,0.28,0.04,0.42,0.06
		c1.79,0.2,3.55,0.51,5.27,1.05c0.98,0.06,1.89,0.43,2.83,0.67c0.36,0.12,0.77,0.07,1.08,0.35l0,0c1.04,0.18,2.04,0.51,3.03,0.88v0
		l0,0c0.96,0.33,1.92,0.66,2.89,0.99c0.07,0.01,0.13,0.02,0.2,0.03c0,0,0,0,0,0c0,0,0,0,0,0c0.99,0.33,1.98,0.68,2.9,1.19l0,0
		c1.58,0.56,3.13,1.2,4.59,2.03h0c0.77,0.25,1.48,0.64,2.16,1.08l0,0h0c0.89,0.39,1.78,0.78,2.56,1.37
		c0.44,0.11,0.81,0.36,1.15,0.66c0.61,0.26,1.18,0.56,1.67,1.01l0,0c1.14,0.68,2.39,1.2,3.27,2.26c1.52,0.58,2.68,1.67,3.9,2.68
		c1,0.54,1.8,1.34,2.65,2.08v0v0c0.28,0.12,0.51,0.31,0.68,0.57v0v0c0.73,0.64,1.46,1.28,2.19,1.92v0v0
		c0.62,0.46,1.21,0.97,1.69,1.58l0,0c0,0,0,0,0,0c0.54,0.43,1.03,0.9,1.44,1.44c0.4,0.41,0.81,0.81,1.21,1.22
		c0.19,0.09,0.35,0.22,0.41,0.43l0,0c0,0,0,0,0,0c0.67,0.7,1.49,1.29,1.86,2.25c1.04,0.83,1.85,1.86,2.64,2.93
		c0.2,0.15,0.42,0.29,0.4,0.59c0,0,0,0,0,0v0c1.88,2.16,3.52,4.49,4.96,6.96l0,0h0c0.27,0.42,0.53,0.83,0.8,1.25
		c0.36,0.6,0.71,1.2,1.07,1.79c0.37,0.44,0.62,0.94,0.81,1.48c0.24,0.2,0.34,0.48,0.42,0.77c0.12,0.23,0.24,0.45,0.36,0.68
		c0.2,0.32,0.49,0.6,0.47,1.02v0l0,0c0.51,0.59,0.8,1.3,1.07,2.03c0.56,1.04,1.03,2.12,1.41,3.24c0.17,0.37,0.34,0.75,0.52,1.12
		c0,0,0,0,0,0c0.23,0.61,0.45,1.21,0.68,1.82c0.43,0.9,0.92,1.78,0.84,2.84c0.44,0.04,0.37,0.43,0.45,0.7c0.37,1.2,0.87,2.37,1,3.63
		c0.6,1.45,1.02,2.94,1.01,4.53c0.64,0.98,0.68,2.11,0.84,3.21c0,0,0,0,0,0c0.22,0.35,0.15,0.74,0.18,1.12c0,0,0,0,0,0s0,0,0,0
		c0.18,1.13,0.36,2.27,0.54,3.4c0.13,0.84,0.15,1.69,0.08,2.54c0.37,0.4,0.16,0.91,0.22,1.36c0,0,0,0,0,0
		c0.22,0.42,0.14,0.88,0.14,1.32c0.25,3.42,0.24,6.84-0.01,10.26c0.03,0.38,0.07,0.77-0.13,1.12c0.01,1.63-0.22,3.23-0.47,4.83h0
		c0,0,0,0,0,0c0.01,0.31,0.03,0.62-0.15,0.9c-0.01,0.11-0.02,0.23-0.03,0.34c0,0.31,0.01,0.62-0.18,0.89
		c0.01,1.25-0.37,2.43-0.67,3.62l0,0v0c0.15,0.61-0.25,1.13-0.2,1.94c-0.63-0.74-1.11-1.28-1.45-1.93
		c-0.14-0.19-0.28-0.38-0.41-0.58c-0.68-0.86-1.28-1.76-1.8-2.72c-0.28-0.48-0.57-0.95-0.85-1.43c-0.34-0.44-0.62-0.92-0.8-1.44
		c-1.29-2.21-2.46-4.48-3.35-6.89v0h0c-0.3-0.32-0.38-0.74-0.53-1.12c-0.09-0.25-0.18-0.5-0.27-0.76c-0.24-0.16-0.25-0.44-0.34-0.68
		c-0.23-0.6-0.61-1.14-0.68-1.8c0,0,0,0,0,0c-0.67-1.38-1.18-2.82-1.67-4.27c-0.45-1.12-0.91-2.25-1.36-3.37
		c-0.11-0.19-0.3-0.34-0.24-0.6c0,0,0,0,0,0c-0.41-0.76-0.82-1.51-1.22-2.27c-0.76-0.75-1.55-1.47-2.09-2.41l0,0l0,0
		c-0.19-0.1-0.31-0.26-0.36-0.47c-0.86-1.1-1.68-2.22-2.3-3.48c-1.07-1.47-1.91-3.06-2.63-4.73c-0.12-0.28-0.27-0.54-0.37-0.83
		c-0.15-0.41-0.12-0.74,0.45-0.72c0.03,0,0.07-0.01,0.1-0.02c0.68-0.22,1.44-0.43,1.65-1.18c0.23-0.81-0.53-1.15-1.02-1.59
		c-0.47-0.18-0.93-0.39-1.28-0.76c0,0,0,0,0,0c-2.39-1.45-4.12-3.51-5.41-5.96c-0.16-0.28-0.31-0.57-0.47-0.85
		c-0.35-0.66-0.7-1.32-0.86-2.05c-0.41-0.85-0.69-1.73-0.81-2.67c-0.34-1.04-0.52-2.12-0.68-3.2c-0.17-0.44-0.34-0.88-0.52-1.33
		c-0.1-0.25-0.19-0.5-0.29-0.75c-0.23-0.17-0.3-0.42-0.37-0.67c-0.25-0.37-0.54-0.72-0.66-1.17c-0.5-0.61-1.01-1.21-1.37-1.92
		c-0.35-0.41-0.71-0.82-1.06-1.23c0,0,0,0,0,0s0,0,0,0c-0.68-0.69-1.36-1.37-2.04-2.06c-0.56-0.47-1.11-0.94-1.67-1.41
		c-0.77-0.45-1.41-1.06-2.06-1.65c-0.16-0.13-0.33-0.25-0.49-0.38c0,0,0,0,0,0c0,0,0,0,0,0c-0.91-0.66-1.97-1.1-2.8-1.88
		c-0.47-0.29-0.94-0.58-1.41-0.86l0,0c-0.65-0.38-1.29-0.77-1.94-1.15c-1.96-1.04-3.91-2.08-5.87-3.12
		c-0.77-0.19-1.45-0.59-2.13-0.98c-1.09-0.53-2.32-0.76-3.23-1.63c-0.19-0.1-0.32-0.25-0.35-0.48v0c-0.3-0.52-0.28-1.07-0.21-1.63
		c0.34-1.44,0.68-2.87,1.02-4.31c0,0,0,0,0,0l0,0c0.01-0.38-0.06-0.76,0.15-1.12l-0.02-0.07l0.05-0.05
		c0.06-0.78-0.08-1.58,0.18-2.35c0,0,0,0,0,0c-0.07-0.5-0.13-1-0.2-1.5c-0.18-0.15-0.38-0.21-0.6-0.08
		c-0.92,0.68-0.91,1.91-1.6,2.73l0,0c0,0,0,0,0,0c-0.26,1.36-1.44,1.72-2.46,2.25c-0.52,0.34-1.04,0.69-1.56,1.03c0,0,0,0,0,0
		c-0.43,0.34-0.87,0.69-1.3,1.03c-0.88,0.77-1.76,1.51-2.94,1.78c-1.09,0.39-2.18,0.37-3.27,0.02c-0.39,0.01-0.69-0.22-0.99-0.41
		c-0.54-0.35-0.92-0.24-1.25,0.27v0c-0.03,1.73-0.58,3.22-1.88,4.42c-0.65,0.6-1.23,1.26-1.85,1.9l0,0
		c-0.13,0.15-0.26,0.3-0.38,0.44c-0.73,1.13-1.7,2.12-2.11,3.45c-0.19,0.75-0.39,1.51-0.58,2.26v0l0,0
		c-0.01,0.23-0.03,0.45-0.21,0.62h0l0,0c-0.26,1.14-1.1,1.88-1.82,2.71h0c-0.27,0.53-0.62,0.98-1.03,1.41v0
		c-0.33,0.61-0.75,1.17-1.24,1.67c-1.45,2.11-2.9,4.22-4.36,6.33l0,0l0,0c-0.12,0.34-0.29,0.63-0.56,0.87
		c-0.42,0.79-0.9,1.54-1.5,2.21h0l0,0c-0.39,0.64-0.78,1.27-1.17,1.91c-0.11-0.14-0.18-0.15-0.24-0.12
		c0.06,0.05,0.14,0.09,0.24,0.12c-0.15,0.37-0.32,0.72-0.63,0.98c0,0,0,0,0,0c0,0,0,0,0,0c-0.51,1.09-1.2,2.07-1.86,3.08
		c-0.39,0.67-0.78,1.33-1.17,2c-0.01,0.03-0.02,0.05-0.05,0.08c-0.48,0.97-0.97,1.94-1.43,2.92c-0.59,1.23-0.4,2.43,0.15,3.62
		c0.34,0.66,0.77,1.29,0.99,1.99c0.53,1.71,1.66,2.72,3.37,3.12c0,0,0,0,0,0c0,0,0,0,0,0c1.01,0.06,1.96,0.35,2.89,0.74
		c2.43,0.65,4.88,0.88,7.35,0.33c1.38-0.31,2.23-0.94,1.38-2.5c-0.21-0.39-0.12-0.79-0.09-1.2c0.03-0.32,0.12-0.61,0.37-0.83
		c0.23-0.51,0.56-0.93,1.02-1.23c0.69-0.75,1.54-1.27,2.43-1.73l0,0c0,0,0,0,0,0c1.95-1.29,4.1-2.04,6.4-2.4l0,0c0,0,0,0,0,0
		c0.37-0.28,0.84-0.2,1.25-0.35c1.5-0.35,2.98-0.81,4.43-1.32c0.19-0.2,0.43-0.31,0.7-0.33l0,0c0.7-0.46,1.4-0.94,2.12-1.39
		c0.43-0.27,0.88-0.54,1.36-0.07l0,0l0,0c0.39,0.23,0.51,0.61,0.58,1.03c0.77,2.71,0.42,5.47,0.38,8.22
		c-0.01,0.61-0.11,1.22-0.16,1.83c-0.05,0.92-0.08,1.85-0.34,2.75c-0.02,1.22-0.19,2.43-0.46,3.62c0,0,0,0,0,0s0,0,0,0
		c0.02,0.36-0.01,0.72-0.18,1.04c-0.03,0.45-0.15,0.86-0.39,1.24c-0.33,1.16-0.75,2.28-1.48,3.26c-0.35,1.36-1.1,2.54-1.77,3.74
		c-0.61,1.1-1.29,2.15-1.95,3.23l0,0l0,0c-0.25,0.55-0.55,1.06-0.98,1.49c-0.16,0.49-0.55,0.81-0.87,1.18
		c-0.29,0.76-0.86,1.31-1.39,1.89c-0.15,0.19-0.3,0.38-0.44,0.57l0,0c-0.12,0.16-0.25,0.31-0.37,0.47v0
		c-0.06,0.08-0.13,0.16-0.19,0.24c0,0,0,0,0,0c0,0,0,0,0,0c-0.3,0.45-0.59,0.9-0.89,1.34c-0.26,0.49-0.51,0.99-0.77,1.48l0,0
		c-0.45,1.27-0.74,2.57-0.71,3.94c0.01,0.33,0.12,0.76-0.31,0.97c0,0.63-0.19,1.15-0.81,1.44h0c-0.59,0.54-1.38,0.58-2.1,0.78
		c-1.23,0.43-2.45,0.86-3.68,1.3l0,0c0,0,0,0,0,0c-0.85,0.45-1.74,0.78-2.67,1l0,0c-0.45,0.26-0.94,0.38-1.45,0.39
		c-0.24,0.2-0.53,0.18-0.81,0.17c-0.25,0.18-0.53,0-0.8,0.05c-1.17,0.68-2.52,0.48-3.77,0.79c-0.52,0.13-1.06,0.12-1.6,0.18
		c0,0,0,0,0,0c-1.44,0.16-2.88,0.31-4.31,0.47c-1.01,0.26-2.03,0.41-3.08,0.41c-0.91,0.27-1.84,0.4-2.79,0.44
		c-0.03,0.01-0.06,0.02-0.09,0.03c-1.18,0.39-2.39,0.58-3.61,0.8v0c-0.79,0.25-1.57,0.49-2.36,0.74c-2.24,0.75-4.2,2.07-6.27,3.16
		c0,0,0,0,0,0c-0.83,0.54-1.72,0.96-2.67,1.24c-0.34,0.21-0.69,0.38-1.09,0.4c-0.65,0.32-1.34,0.54-2.07,0.6
		c-1.44,0.44-2.92,0.74-4.43,0.85c0,0,0,0,0,0c-0.4,0.29-0.89,0.22-1.33,0.33c-1.41,0.21-2.75,0.66-4.09,1.11
		c-0.03,0.12-0.11,0.16-0.23,0.13c-1.12,0.51-2,1.34-2.84,2.21l-0.02,0.09l-0.09,0.02l0,0c-0.24,0.3-0.44,0.67-0.92,0.63
		c-0.32,0.69-1,0.81-1.62,1.01c-0.38,0.28-0.83,0.32-1.28,0.36c-1.08,0.14-2.16,0.27-3.23,0.41c-0.84,0.11-1.48,0.51-1.77,1.33
		c-0.48,1.34-1.47,2.17-2.68,2.8c-1.2,0.62-2.41,1.23-3.61,1.85c0,0,0,0,0,0v0c-0.31,0.35-0.62,0.7-0.93,1.05
		c-0.2,0.83,0.51,1.16,0.93,1.64v0l0,0c0.29,0.19,0.58,0.39,0.88,0.58c0.27,0,0.38,0.15,0.39,0.4c1.26,0.15,2.28,0.94,3.45,1.31
		c0.37,0.14,0.83,0.11,1.04,0.55c1.23,0.01,2.31,0.61,3.48,0.87v0l0,0c0.95,0.2,1.91,0.29,2.88,0.17c0,0,0,0,0,0
		c1.06-0.45,2.03-1.04,2.88-1.84c0.13-0.14,0.27-0.28,0.4-0.43h0c0.81-1.03,1.32-2.21,1.7-3.46l0,0v0c0.16-0.61,0.32-1.21,0.75-1.71
		h0l0,0c0.25-0.68,0.8-0.91,1.46-0.97c0.89-0.17,1.78-0.31,2.65-0.52c0.89-0.21,1.68-0.67,2.46-1.14c0.6-0.6,1.34-0.99,2.09-1.38
		c0.29-0.21,0.55-0.46,0.93-0.51c0.98-0.68,2.07-1.13,3.17-1.57c0.79-0.42,1.59-0.82,2.44-1.09c1.17-0.66,2.42-1.14,3.67-1.63
		c0.25-0.21,0.55-0.32,0.86-0.38c0.24-0.14,0.47-0.29,0.77-0.25c0.32-0.27,0.7-0.31,1.09-0.34c1.23-0.2,2.38,0.03,3.48,0.6l0,0
		c0.87,0.29,1.76,0.45,2.68,0.39c1.55-0.38,3-1.14,4.65-1.07l0,0v0c0.94-0.25,1.89-0.24,2.83-0.04c0.07,0.01,0.14,0.02,0.21,0.05
		c1.02,0.01,2.02,0.1,2.98,0.46l0,0c0.44,0.1,0.72,0.36,0.79,0.81c0.11,0.42,0.02,0.81-0.19,1.16c-0.73,1.2-1.26,2.5-1.81,3.79
		c-0.21,1.08-0.43,2.16-0.64,3.24h0l0,0c0.09,0.81,0.18,1.63,0.27,2.44l0,0c0,0,0,0,0,0c0.26,0.54,0.53,1.08,0.79,1.62v0l0,0
		c0.52,0.43,1.11,0.78,1.45,1.4c0.72,0.78,1.25,1.68,1.63,2.67l0,0c0.79,1.55,1.5,3.14,2.03,4.8c0.3,0.52,0.53,1.06,0.62,1.66
		c0.35,0.49,0.42,1.05,0.43,1.63c0,0,0,0,0,0v0c0.62,0.3,0.5,0.97,0.74,1.46c0.5,1.28,1.01,2.56,1.51,3.84
		c0.38,0.51,0.61,1.09,0.8,1.69l0,0c0.18,0.24,0.38,0.48,0.42,0.8c0.33,0.49,0.66,0.98,0.98,1.47v0c0.28,0.28,0.57,0.56,0.85,0.84
		c0.22,0.12,0.44,0.25,0.66,0.37c1.84,0.32,3.35,1.32,4.77,2.44c1.93,1.51,3.73,3.2,5.95,4.32c0,0,0,0,0,0c0,0,0,0,0,0
		c0.74,0.28,1.4,0.68,1.94,1.26c0.74,0.22,1.45,0.53,2.09,0.97c0.58,0.39,1.21,0.3,1.84,0.3c0.78-0.38,0.96-1.06,1-1.85
		c0.12-2.45-0.26-4.89-0.22-7.34c0,0,0,0,0,0c-0.2-0.85-0.4-1.69-0.6-2.54c-0.43-0.84-1.01-1.56-1.85-2.03
		c-0.93-0.32-1.89-0.38-2.86-0.28c-1.13,0.16-2.18,0.57-3.27,0.88c0,0,0,0,0,0v0v0c0,0,0,0,0,0c-0.34,0.22-0.73,0.3-1.18,0.36
		c0.03-0.33,0.09-0.59,0.31-0.8c0.11-0.37-0.08-0.68-0.19-1h0c-0.57-0.86-1.35-1.53-2.07-2.26c-0.3-0.33-0.59-0.66-0.89-0.99
		c-0.81-0.75-1.55-1.57-2.18-2.49c-1.02-1.14-1.93-2.36-2.66-3.71v0c-0.68-0.94-1.28-1.93-1.67-3.04c-0.48-0.78-0.81-1.62-0.98-2.52
		c-0.27-0.7-0.5-1.4-0.47-2.16c0,0,0,0,0,0c-0.35-1.2-0.22-2.34,0.42-3.42l0,0c0.41-0.89,1.23-1.15,2.08-1.35
		c1.26-0.16,2.49-0.02,3.69,0.4c0.33-0.12,0.49,0.4,0.83,0.23c1.76,0.39,3.54,0.61,5.33,0.8c0,0,0,0,0,0c0,0,0,0,0,0
		c1.44,0,2.88,0,4.31,0c0.52-0.02,1.05-0.05,1.57-0.07c0,0,0,0,0,0c0.78-0.11,1.56-0.22,2.34-0.33c1.5-0.32,2.96-0.28,4.31,0.57v0
		c0.73,0.24,1.17,0.83,1.67,1.34l0,0c0,0,0,0,0,0c0.4,0.38,0.8,0.75,1.2,1.13c0.29,0.12,0.49,0.34,0.64,0.61
		c0.95,0.77,1.87,1.56,2.71,2.45c0,0,0,0,0,0h0c0.94,0.68,1.81,1.45,2.62,2.27c0.17,0.1,0.39,0.16,0.39,0.42
		c0.42,0.34,0.85,0.67,1.27,1.01c0.26,0.21,0.52,0.43,0.78,0.64c0.52,0.36,1.03,0.73,1.45,1.22c0.27,0.22,0.54,0.44,0.8,0.65
		c0.57,0.46,1.14,0.92,1.7,1.38l0,0c0.46,0.36,0.92,0.72,1.38,1.08c0.42,0.33,0.84,0.66,1.26,0.99c0,0,0,0,0,0
		c0.74,0.55,1.49,1.1,2.23,1.65l0,0c0.31,0.17,0.62,0.32,0.83,0.62c2.32,1.59,4.64,3.18,6.96,4.77v0v0
		c0.37,0.06,0.65,0.27,0.89,0.55c0.8,0.49,1.61,0.98,2.41,1.47c0.32,0.2,1.2,0.26,0.2,0.8c-0.55,0.56-1.15,1.04-1.81,1.47l0,0
		c-0.53,0.6-1.19,1.04-1.86,1.45v0c-0.66,0.48-1.32,0.96-1.98,1.43c-1.44,1.16-3.01,2.13-4.62,3.05c-1.03,0.7-2.07,1.4-3.24,1.87
		c0,0,0,0,0,0v0c-1.81,1.05-3.62,2.11-5.59,2.85h0c-2.12,1.05-4.31,1.95-6.56,2.67c-0.03,0.02-0.06,0.04-0.1,0.05
		c-0.8,0.42-1.65,0.7-2.54,0.85c-1.07,0.46-2.18,0.73-3.31,1c-0.08,0.03-0.16,0.06-0.24,0.1c-1.21,0.33-2.4,0.73-3.65,0.88
		c-0.61,0.22-1.21,0.5-1.89,0.37c-1.1,0.43-2.25,0.56-3.41,0.68h0h0c-0.83,0.21-1.68,0.33-2.54,0.35c-1.67,0.26-3.34,0.48-5.04,0.46
		c0,0,0,0,0,0C246.53,259.79,246.01,259.73,245.5,259.71z"/>
	<g>
		<g>
			<path class="st0" d="M165.9,216.15c-0.31-0.35-0.62-0.7-0.93-1.05l0,0c0,0,0,0,0,0c-1.2-0.62-2.41-1.23-3.61-1.85
				c-1.21-0.63-2.2-1.46-2.68-2.8c-0.29-0.82-0.93-1.22-1.77-1.33c-1.08-0.14-2.15-0.28-3.23-0.41c-0.45-0.04-0.9-0.08-1.28-0.36
				c-0.63-0.2-1.3-0.32-1.62-1.01c-0.47,0.04-0.67-0.33-0.92-0.63c0,0,0,0,0,0l-0.09-0.02l-0.02-0.09c-0.84-0.87-1.72-1.7-2.84-2.21
				c-0.12,0.03-0.2,0-0.23-0.13c-1.34-0.44-2.68-0.9-4.09-1.11c-0.44-0.11-0.93-0.04-1.33-0.33c0,0,0,0,0,0
				c-1.51-0.1-2.98-0.4-4.43-0.85c-0.73-0.06-1.42-0.27-2.07-0.6c-0.41-0.02-0.76-0.19-1.09-0.4c-0.95-0.28-1.84-0.7-2.67-1.24v0
				c-2.07-1.09-4.03-2.4-6.27-3.16c-0.79-0.25-1.57-0.49-2.36-0.74l0,0c-1.21-0.21-2.43-0.41-3.61-0.8
				c-0.03-0.01-0.06-0.01-0.09-0.03c-0.95-0.03-1.88-0.17-2.79-0.44c-1.04,0-2.07-0.15-3.08-0.41c-1.44-0.16-2.88-0.31-4.31-0.47
				c0,0,0,0,0,0c-0.53-0.06-1.08-0.05-1.6-0.18c-1.25-0.31-2.61-0.11-3.77-0.79c-0.26-0.05-0.54,0.12-0.8-0.05
				c-0.28,0.01-0.57,0.03-0.81-0.17c-0.52-0.01-1-0.12-1.45-0.39c-0.93-0.22-1.83-0.54-2.67-1c0,0,0,0,0,0l0,0
				c-1.23-0.43-2.45-0.86-3.68-1.3c-0.72-0.2-1.5-0.24-2.1-0.78h0c-0.61-0.29-0.81-0.81-0.81-1.44c-0.43-0.21-0.32-0.64-0.31-0.97
				c0.03-1.36-0.27-2.66-0.71-3.94c-0.26-0.49-0.51-0.99-0.77-1.48c-0.3-0.45-0.59-0.9-0.89-1.34c0,0,0,0,0,0c0,0,0,0,0,0
				c-0.06-0.08-0.13-0.16-0.19-0.24v0c-0.12-0.16-0.25-0.31-0.37-0.47v0c-0.15-0.19-0.3-0.38-0.44-0.57
				c-0.53-0.58-1.1-1.13-1.39-1.89c-0.33-0.37-0.72-0.69-0.87-1.18c-0.43-0.43-0.73-0.94-0.98-1.49v0
				c-0.65-1.07-1.34-2.13-1.95-3.23c-0.67-1.21-1.42-2.38-1.77-3.74c-0.73-0.98-1.15-2.1-1.48-3.26c-0.24-0.38-0.36-0.8-0.39-1.24
				c-0.18-0.33-0.21-0.68-0.18-1.04v0c-0.27-1.19-0.44-2.4-0.46-3.62c-0.26-0.9-0.28-1.83-0.34-2.75c-0.06-0.61-0.15-1.22-0.16-1.83
				c-0.05-2.75-0.39-5.51,0.38-8.22c0.07-0.41,0.19-0.8,0.58-1.03c0.48-0.47,0.93-0.2,1.36,0.07c0.71,0.45,1.41,0.92,2.12,1.39
				c0.28,0.02,0.51,0.13,0.7,0.33c1.46,0.51,2.93,0.96,4.43,1.32c0.41,0.14,0.88,0.07,1.25,0.35v0c2.3,0.36,4.45,1.11,6.4,2.4
				c0,0,0,0,0,0c0.9,0.46,1.75,0.98,2.43,1.73c0.46,0.31,0.79,0.73,1.02,1.23c0.25,0.22,0.34,0.52,0.37,0.83
				c0.04,0.4,0.12,0.81-0.09,1.2c-0.85,1.57,0,2.19,1.38,2.5c2.47,0.56,4.93,0.32,7.35-0.33c0.93-0.39,1.88-0.68,2.89-0.74
				c0,0,0,0,0,0s0,0,0,0c1.71-0.4,2.84-1.4,3.37-3.12c0.22-0.7,0.65-1.33,0.99-1.99c0.54-1.19,0.73-2.39,0.15-3.62
				c-0.47-0.98-0.96-1.95-1.43-2.92c-0.02-0.03-0.04-0.06-0.05-0.08c-0.39-0.67-0.78-1.33-1.17-2c-0.66-1-1.35-1.98-1.86-3.08
				c0,0,0,0,0,0s0,0,0,0c-0.31-0.27-0.48-0.61-0.63-0.98c0.11-0.03,0.18-0.07,0.24-0.12c-0.06-0.03-0.13-0.02-0.24,0.12
				c-0.39-0.64-0.78-1.27-1.17-1.91h0h0c-0.6-0.67-1.07-1.42-1.5-2.21c-0.27-0.24-0.45-0.54-0.56-0.87l0,0h0
				c-1.45-2.11-2.9-4.22-4.36-6.33c-0.49-0.5-0.9-1.05-1.24-1.67v0c-0.4-0.43-0.76-0.89-1.03-1.41c-0.72-0.83-1.56-1.57-1.82-2.71v0
				c-0.18-0.17-0.2-0.4-0.21-0.62c-0.19-0.75-0.39-1.51-0.58-2.26c-0.4-1.33-1.38-2.32-2.11-3.45c-0.13-0.15-0.26-0.3-0.38-0.44
				c-0.61-0.64-1.2-1.3-1.85-1.9c-1.31-1.2-1.86-2.69-1.88-4.42v0c-0.33-0.5-0.72-0.62-1.25-0.27c-0.29,0.19-0.6,0.43-0.99,0.41
				c-1.09,0.35-2.19,0.37-3.27-0.02c-1.17-0.27-2.06-1.02-2.94-1.78c-0.43-0.34-0.87-0.69-1.3-1.03c0,0,0,0,0,0
				c-0.52-0.34-1.04-0.69-1.56-1.03c-1.02-0.53-2.2-0.89-2.46-2.25c0,0,0,0,0,0l0,0c-0.69-0.82-0.67-2.05-1.6-2.73
				c-0.22-0.13-0.41-0.06-0.6,0.08c-0.07,0.5-0.13,1-0.2,1.5c0,0,0,0,0,0c0.25,0.77,0.11,1.57,0.18,2.35l0.05,0.05l-0.02,0.07
				c0.21,0.35,0.14,0.74,0.15,1.12h0c0,0,0,0,0,0c0.34,1.44,0.68,2.87,1.02,4.31c0.07,0.56,0.09,1.12-0.21,1.63v0
				c-0.03,0.22-0.16,0.37-0.35,0.48c-0.91,0.87-2.14,1.11-3.23,1.63c-0.68,0.4-1.36,0.79-2.13,0.98c-1.96,1.04-3.91,2.08-5.87,3.12
				c-0.65,0.38-1.29,0.77-1.94,1.15c-0.47,0.29-0.94,0.58-1.41,0.86c-0.83,0.78-1.89,1.22-2.8,1.88c0,0,0,0,0,0c0,0,0,0,0,0
				c-0.16,0.13-0.33,0.25-0.49,0.38c-0.65,0.6-1.29,1.2-2.06,1.65c-0.56,0.47-1.11,0.94-1.67,1.41c-0.68,0.69-1.36,1.37-2.04,2.06
				c-0.35,0.41-0.71,0.82-1.06,1.23c-0.36,0.71-0.87,1.31-1.37,1.92c-0.12,0.45-0.41,0.8-0.66,1.17c-0.07,0.25-0.14,0.5-0.37,0.67
				c-0.1,0.25-0.19,0.5-0.29,0.75c-0.17,0.44-0.34,0.88-0.52,1.33c-0.16,1.08-0.35,2.16-0.68,3.2c-0.11,0.94-0.4,1.82-0.81,2.67
				c-0.15,0.74-0.51,1.4-0.86,2.05c-0.16,0.28-0.31,0.57-0.47,0.85c-1.29,2.45-3.02,4.51-5.41,5.96c0,0,0,0,0,0
				c-0.35,0.38-0.81,0.59-1.28,0.76c-0.49,0.44-1.25,0.78-1.02,1.59c0.21,0.76,0.97,0.96,1.65,1.18c0.03,0.01,0.07,0.02,0.1,0.02
				c0.57-0.02,0.6,0.31,0.45,0.72c-0.1,0.28-0.25,0.55-0.37,0.83c-0.71,1.67-1.55,3.26-2.63,4.73c-0.62,1.25-1.44,2.38-2.3,3.48
				c-0.05,0.21-0.16,0.37-0.36,0.47v0c-0.54,0.94-1.33,1.66-2.09,2.41c-0.41,0.76-0.82,1.51-1.22,2.27c0,0,0,0,0,0
				c0.06,0.26-0.13,0.41-0.24,0.6c-0.45,1.12-0.91,2.25-1.36,3.37c-0.49,1.45-1,2.89-1.67,4.27l0,0c-0.07,0.66-0.44,1.2-0.68,1.8
				c-0.09,0.24-0.1,0.52-0.34,0.68c-0.09,0.25-0.18,0.5-0.27,0.76c-0.16,0.38-0.23,0.81-0.53,1.12l0,0
				c-0.89,2.41-2.06,4.68-3.35,6.89c-0.18,0.53-0.45,1.01-0.8,1.44c-0.28,0.48-0.57,0.95-0.85,1.43c-0.52,0.96-1.12,1.87-1.8,2.72
				c-0.14,0.19-0.28,0.38-0.41,0.58c-0.15,0.29-0.08,0.51-0.46,0.94c0,0,4.75,15.6,10.46,24.21C38.22,233.59,46,238.17,46,238.17
				c0.27-0.17,0.55-0.33,0.82-0.5c0.24-0.27,0.52-0.49,0.89-0.55c2.32-1.59,4.64-3.18,6.96-4.77c0.2-0.3,0.52-0.46,0.83-0.62
				c0.74-0.55,1.49-1.1,2.23-1.65c0,0,0,0,0,0c0.42-0.33,0.84-0.66,1.26-0.99c0.46-0.36,0.92-0.72,1.38-1.08
				c0.57-0.46,1.14-0.92,1.7-1.38c0.27-0.22,0.54-0.44,0.8-0.65c0.42-0.49,0.93-0.86,1.45-1.22c0.26-0.21,0.52-0.43,0.78-0.64
				c0.42-0.34,0.85-0.67,1.27-1.01c0-0.26,0.22-0.32,0.39-0.42c0.82-0.82,1.68-1.59,2.62-2.27l0,0c0,0,0,0,0,0
				c0.84-0.89,1.76-1.69,2.71-2.45c0.15-0.26,0.35-0.49,0.64-0.61c0.4-0.38,0.8-0.75,1.2-1.13c0,0,0,0,0,0l0,0
				c0.5-0.52,0.94-1.11,1.67-1.34v0c1.35-0.85,2.8-0.89,4.31-0.57c0.78,0.11,1.56,0.22,2.34,0.33c0,0,0,0,0,0
				c0.52,0.02,1.05,0.05,1.57,0.07c1.44,0,2.88,0,4.31,0c0,0,0,0,0,0c0,0,0,0,0,0c1.79-0.19,3.57-0.41,5.33-0.8
				c0.34,0.17,0.5-0.35,0.83-0.23c1.2-0.42,2.43-0.56,3.69-0.4c0.85,0.21,1.67,0.46,2.08,1.35l0,0c0.64,1.08,0.77,2.22,0.42,3.42
				c0,0,0,0,0,0c0.04,0.76-0.2,1.47-0.47,2.16c-0.16,0.9-0.5,1.74-0.98,2.52c-0.39,1.1-0.99,2.09-1.67,3.04v0
				c-0.74,1.35-1.65,2.57-2.66,3.71c-0.63,0.91-1.36,1.73-2.18,2.48c-0.3,0.33-0.59,0.66-0.89,0.99c-0.71,0.73-1.5,1.4-2.07,2.26
				c-0.11,0.33-0.3,0.64-0.19,1c0.22,0.21,0.28,0.47,0.31,0.8c-0.45-0.05-0.84-0.13-1.18-0.36c0,0,0,0,0,0v0c0,0,0,0,0,0
				c-1.08-0.32-2.14-0.72-3.27-0.88c-0.97-0.1-1.93-0.04-2.86,0.28c-0.84,0.47-1.42,1.18-1.85,2.03c-0.2,0.85-0.4,1.69-0.6,2.54
				c0,0,0,0,0,0c0.04,2.45-0.34,4.89-0.22,7.34c0.04,0.79,0.22,1.48,1,1.85c0.63,0,1.27,0.09,1.84-0.3
				c0.64-0.44,1.35-0.75,2.09-0.97c0.54-0.58,1.2-0.99,1.94-1.26c0,0,0,0,0,0c0,0,0,0,0,0c2.22-1.12,4.02-2.81,5.95-4.32
				c1.42-1.12,2.93-2.12,4.77-2.44c0.22-0.12,0.44-0.25,0.66-0.37c0.28-0.28,0.57-0.56,0.85-0.84v0c0.33-0.49,0.66-0.98,0.98-1.47
				c0.04-0.32,0.24-0.56,0.42-0.8c0.18-0.6,0.42-1.18,0.8-1.69c0.5-1.28,1.01-2.56,1.51-3.84c0.24-0.49,0.13-1.16,0.74-1.46l0,0
				c0,0,0,0,0,0c0.01-0.58,0.08-1.14,0.43-1.63c0.08-0.6,0.32-1.14,0.62-1.66c0.54-1.66,1.24-3.25,2.03-4.8c0,0,0,0,0,0
				c0.39-0.99,0.91-1.89,1.63-2.67c0.34-0.62,0.93-0.97,1.45-1.4c0.26-0.54,0.53-1.08,0.79-1.62c0,0,0,0,0,0v0
				c0.09-0.81,0.18-1.63,0.27-2.44l0,0h0c-0.21-1.08-0.43-2.16-0.64-3.24c-0.54-1.29-1.08-2.59-1.81-3.79
				c-0.22-0.35-0.3-0.75-0.19-1.16c0.07-0.46,0.35-0.72,0.79-0.81c0.96-0.36,1.97-0.45,2.98-0.46c0.07-0.02,0.14-0.03,0.21-0.05
				c0.94-0.2,1.88-0.21,2.83,0.04v0c1.65-0.07,3.1,0.7,4.65,1.07c0.92,0.06,1.81-0.1,2.68-0.39l0,0c1.1-0.57,2.25-0.8,3.48-0.6
				c0.39,0.03,0.77,0.07,1.09,0.34c0.29-0.04,0.53,0.11,0.77,0.25c0.32,0.06,0.61,0.17,0.86,0.38c1.25,0.49,2.5,0.96,3.67,1.63
				c0.86,0.27,1.65,0.67,2.44,1.09c1.1,0.43,2.19,0.89,3.17,1.57c0.37,0.05,0.64,0.3,0.93,0.51c0.75,0.39,1.49,0.78,2.09,1.38
				c0.78,0.46,1.57,0.92,2.46,1.14c0.88,0.21,1.77,0.35,2.65,0.52c0.66,0.06,1.21,0.29,1.46,0.97c0.43,0.49,0.59,1.1,0.75,1.71l0,0
				c0.38,1.25,0.89,2.43,1.7,3.46h0c0.13,0.14,0.27,0.28,0.4,0.43c0.85,0.79,1.82,1.38,2.88,1.84c0,0,0,0,0,0
				c0.97,0.12,1.93,0.03,2.88-0.17h0l0,0c1.17-0.26,2.25-0.86,3.48-0.87c0.21-0.44,0.67-0.41,1.04-0.55
				c1.18-0.37,2.19-1.16,3.45-1.31c0.02-0.24,0.12-0.4,0.39-0.4c0.29-0.19,0.58-0.39,0.88-0.58l0,0v0
				C165.4,217.31,166.1,216.98,165.9,216.15z"/>
		</g>
	</g>
	<circle class="st1" cx="99.35" cy="172.51" r="84.61"/>
</g>
<line class="st2" x1="175.79" y1="159.73" x2="175.79" y2="91.58"/>
<line class="st2" x1="141.15" y1="125.66" x2="209.3" y2="125.66"/>
</svg>
