<?xml version="1.0" encoding="utf-8"?>
<!-- Generator: Adobe Illustrator 24.1.2, SVG Export Plug-In . SVG Version: 6.00 Build 0)  -->
<svg version="1.1" xmlns="http://www.w3.org/2000/svg" xmlns:xlink="http://www.w3.org/1999/xlink" x="0px" y="0px"
	 viewBox="0 0 333.8 333.8" style="enable-background:new 0 0 333.8 333.8;" xml:space="preserve">
<style type="text/css">
	.st0{fill:#B2A574;stroke:#2E2E2E;stroke-width:7;stroke-miterlimit:10;}
	.st1{fill:#2E2E2F;}
	.st2{fill:#2E2E2E;stroke:#B2A574;stroke-width:4;stroke-miterlimit:10;}
	.st3{fill:#B2A574;stroke:#2E2E2E;stroke-width:4;stroke-miterlimit:10;}
</style>
<g id="Camada_1">
</g>
<g id="Camada_2">
	<g>
		<circle class="st0" cx="76.8" cy="271.7" r="44.9"/>
		<circle class="st0" cx="50.4" cy="183" r="44.9"/>
		<circle class="st0" cx="81.1" cy="95" r="44.9"/>
		<circle class="st0" cx="167" cy="60.1" r="44.9"/>
		<circle class="st0" cx="255.4" cy="90" r="44.9"/>
		<circle class="st0" cx="283.8" cy="179" r="44.9"/>
		<circle class="st0" cx="262.3" cy="271.2" r="44.9"/>
		<g>
			<g>
				<path class="st1" d="M112.1,294.9c-0.2-0.2-0.3-0.4-0.5-0.6l0,0l0,0c-0.6-0.3-1.3-0.7-1.9-1c-0.6-0.3-1.2-0.8-1.4-1.5
					c-0.2-0.4-0.5-0.6-0.9-0.7c-0.6-0.1-1.1-0.1-1.7-0.2c-0.2,0-0.5,0-0.7-0.2c-0.3-0.1-0.7-0.2-0.9-0.5c-0.2,0-0.4-0.2-0.5-0.3l0,0
					l0,0l0,0c-0.4-0.5-0.9-0.9-1.5-1.2c-0.1,0-0.1,0-0.1-0.1c-0.7-0.2-1.4-0.5-2.2-0.6c-0.2-0.1-0.5,0-0.7-0.2l0,0
					c-0.8-0.1-1.6-0.2-2.3-0.5c-0.4,0-0.8-0.1-1.1-0.3c-0.2,0-0.4-0.1-0.6-0.2c-0.5-0.1-1-0.4-1.4-0.7l0,0c-1.1-0.6-2.1-1.3-3.3-1.7
					c-0.4-0.1-0.8-0.3-1.3-0.4l0,0c-0.6-0.1-1.3-0.2-1.9-0.4c0,0,0,0,0,0c-0.5,0-1-0.1-1.5-0.2c-0.6,0-1.1-0.1-1.6-0.2
					c-0.8-0.1-1.5-0.2-2.3-0.2l0,0c-0.3,0-0.6,0-0.8-0.1c-0.7-0.2-1.4-0.1-2-0.4c-0.1,0-0.3,0.1-0.4,0c-0.1,0-0.3,0-0.4-0.1
					c-0.3,0-0.5-0.1-0.8-0.2c-0.5-0.1-1-0.3-1.4-0.5l0,0l0,0c-0.7-0.2-1.3-0.5-2-0.7c-0.4-0.1-0.8-0.1-1.1-0.4l0,0
					c-0.3-0.2-0.4-0.4-0.4-0.8c-0.2-0.1-0.2-0.3-0.2-0.5c0-0.7-0.1-1.4-0.4-2.1c-0.1-0.3-0.3-0.5-0.4-0.8c-0.2-0.2-0.3-0.5-0.5-0.7
					l0,0l0,0c0,0-0.1-0.1-0.1-0.1l0,0c-0.1-0.1-0.1-0.2-0.2-0.2l0,0c-0.1-0.1-0.2-0.2-0.2-0.3c-0.3-0.3-0.6-0.6-0.7-1
					c-0.2-0.2-0.4-0.4-0.5-0.6c-0.2-0.2-0.4-0.5-0.5-0.8l0,0c-0.3-0.6-0.7-1.1-1-1.7c-0.4-0.6-0.8-1.3-0.9-2
					c-0.4-0.5-0.6-1.1-0.8-1.7c-0.1-0.2-0.2-0.4-0.2-0.7c-0.1-0.2-0.1-0.4-0.1-0.6l0,0c-0.1-0.6-0.2-1.3-0.2-1.9
					c-0.1-0.5-0.1-1-0.2-1.5c0-0.3-0.1-0.6-0.1-1c0-1.5-0.2-2.9,0.2-4.4c0-0.2,0.1-0.4,0.3-0.5c0.3-0.2,0.5-0.1,0.7,0
					c0.4,0.2,0.7,0.5,1.1,0.7c0.1,0,0.3,0.1,0.4,0.2c0.8,0.3,1.6,0.5,2.3,0.7c0.2,0.1,0.5,0,0.7,0.2l0,0c1.2,0.2,2.4,0.6,3.4,1.3
					l0,0c0.5,0.2,0.9,0.5,1.3,0.9c0.2,0.2,0.4,0.4,0.5,0.7c0.1,0.1,0.2,0.3,0.2,0.4c0,0.2,0.1,0.4,0,0.6c-0.5,0.8,0,1.2,0.7,1.3
					c1.3,0.3,2.6,0.2,3.9-0.2c0.5-0.2,1-0.4,1.5-0.4l0,0l0,0c0.9-0.2,1.5-0.7,1.8-1.7c0.1-0.4,0.3-0.7,0.5-1.1
					c0.3-0.6,0.4-1.3,0.1-1.9c-0.2-0.5-0.5-1-0.8-1.5c0,0,0,0,0,0c-0.2-0.4-0.4-0.7-0.6-1.1c-0.4-0.5-0.7-1.1-1-1.6l0,0l0,0
					c-0.2-0.1-0.3-0.3-0.3-0.5c0.1,0,0.1,0,0.1-0.1c0,0-0.1,0-0.1,0.1c-0.2-0.3-0.4-0.7-0.6-1l0,0l0,0c-0.3-0.4-0.6-0.8-0.8-1.2
					c-0.1-0.1-0.2-0.3-0.3-0.5l0,0l0,0c-0.8-1.1-1.5-2.2-2.3-3.4c-0.3-0.3-0.5-0.6-0.7-0.9l0,0c-0.2-0.2-0.4-0.5-0.5-0.7
					c-0.4-0.4-0.8-0.8-1-1.4l0,0c-0.1-0.1-0.1-0.2-0.1-0.3c-0.1-0.4-0.2-0.8-0.3-1.2c-0.2-0.7-0.7-1.2-1.1-1.8
					c-0.1-0.1-0.1-0.2-0.2-0.2c-0.3-0.3-0.6-0.7-1-1c-0.7-0.6-1-1.4-1-2.3l0,0c-0.2-0.3-0.4-0.3-0.7-0.1c-0.2,0.1-0.3,0.2-0.5,0.2
					c-0.6,0.2-1.2,0.2-1.7,0c-0.6-0.1-1.1-0.5-1.6-0.9c-0.2-0.2-0.5-0.4-0.7-0.5l0,0c-0.3-0.2-0.6-0.4-0.8-0.5
					c-0.5-0.3-1.2-0.5-1.3-1.2l0,0l0,0c-0.4-0.4-0.4-1.1-0.8-1.4c-0.1-0.1-0.2,0-0.3,0c0,0.3-0.1,0.5-0.1,0.8l0,0
					c0.1,0.4,0.1,0.8,0.1,1.2l0,0l0,0c0.1,0.2,0.1,0.4,0.1,0.6l0,0l0,0c0.2,0.8,0.4,1.5,0.5,2.3c0,0.3,0,0.6-0.1,0.9l0,0
					c0,0.1-0.1,0.2-0.2,0.3c-0.5,0.5-1.1,0.6-1.7,0.9c-0.4,0.2-0.7,0.4-1.1,0.5c-1,0.6-2.1,1.1-3.1,1.7c-0.3,0.2-0.7,0.4-1,0.6
					c-0.2,0.2-0.5,0.3-0.7,0.5c-0.4,0.4-1,0.6-1.5,1l0,0l0,0c-0.1,0.1-0.2,0.1-0.3,0.2c-0.3,0.3-0.7,0.6-1.1,0.9
					c-0.3,0.2-0.6,0.5-0.9,0.7c-0.4,0.4-0.7,0.7-1.1,1.1c-0.2,0.2-0.4,0.4-0.6,0.7c-0.2,0.4-0.5,0.7-0.7,1c-0.1,0.2-0.2,0.4-0.4,0.6
					c0,0.1-0.1,0.3-0.2,0.4c-0.1,0.1-0.1,0.3-0.2,0.4c-0.1,0.2-0.2,0.5-0.3,0.7c-0.1,0.6-0.2,1.1-0.4,1.7c-0.1,0.5-0.2,1-0.4,1.4
					c-0.1,0.4-0.3,0.7-0.5,1.1c-0.1,0.1-0.2,0.3-0.2,0.5c-0.7,1.3-1.6,2.4-2.9,3.2l0,0c-0.2,0.2-0.4,0.3-0.7,0.4
					c-0.3,0.2-0.7,0.4-0.5,0.8c0.1,0.4,0.5,0.5,0.9,0.6c0,0,0,0,0.1,0c0.3,0,0.3,0.2,0.2,0.4c-0.1,0.1-0.1,0.3-0.2,0.4
					c-0.4,0.9-0.8,1.7-1.4,2.5c-0.3,0.7-0.8,1.3-1.2,1.8c0,0.1-0.1,0.2-0.2,0.2l0,0c-0.3,0.5-0.7,0.9-1.1,1.3
					c-0.2,0.4-0.4,0.8-0.6,1.2l0,0c0,0.1-0.1,0.2-0.1,0.3c-0.2,0.6-0.5,1.2-0.7,1.8c-0.3,0.8-0.5,1.5-0.9,2.3l0,0
					c0,0.4-0.2,0.6-0.4,1c0,0.1-0.1,0.3-0.2,0.4c0,0.1-0.1,0.3-0.1,0.4c-0.1,0.2-0.1,0.4-0.3,0.6l0,0c-0.5,1.3-1.1,2.5-1.8,3.7
					c-0.1,0.3-0.2,0.5-0.4,0.8c-0.1,0.3-0.3,0.5-0.5,0.8c-0.3,0.5-0.6,1-1,1.4c-0.1,0.1-0.1,0.2-0.2,0.3c-0.1,0.2,0,0.3-0.2,0.5
					c0,0,2.5,8.3,5.5,12.8c5.7,8.6,9.8,11,9.8,11c0.1-0.1,0.3-0.2,0.4-0.3c0.1-0.1,0.3-0.3,0.5-0.3c1.2-0.8,2.5-1.7,3.7-2.5
					c0.1-0.2,0.3-0.2,0.4-0.3c0.4-0.3,0.8-0.6,1.2-0.9l0,0c0.2-0.2,0.4-0.4,0.7-0.5c0.2-0.2,0.5-0.4,0.7-0.6
					c0.3-0.2,0.6-0.5,0.9-0.7c0.1-0.1,0.3-0.2,0.4-0.3c0.2-0.3,0.5-0.5,0.8-0.6c0.1-0.1,0.3-0.2,0.4-0.3c0.2-0.2,0.5-0.4,0.7-0.5
					c0-0.1,0.1-0.2,0.2-0.2c0.4-0.4,0.9-0.8,1.4-1.2l0,0l0,0c0.4-0.5,0.9-0.9,1.4-1.3c0.1-0.1,0.2-0.3,0.3-0.3
					c0.2-0.2,0.4-0.4,0.6-0.6l0,0l0,0c0.3-0.3,0.5-0.6,0.9-0.7l0,0c0.7-0.5,1.5-0.5,2.3-0.3c0.4,0.1,0.8,0.1,1.2,0.2l0,0
					c0.3,0,0.6,0,0.8,0c0.8,0,1.5,0,2.3,0l0,0l0,0c0.9-0.1,1.9-0.2,2.8-0.4c0.2,0.1,0.3-0.2,0.4-0.1c0.6-0.2,1.3-0.3,2-0.2
					c0.5,0.1,0.9,0.2,1.1,0.7l0,0c0.3,0.6,0.4,1.2,0.2,1.8l0,0c0,0.4-0.1,0.8-0.2,1.1c-0.1,0.5-0.3,0.9-0.5,1.3
					c-0.2,0.6-0.5,1.1-0.9,1.6l0,0c-0.4,0.7-0.9,1.4-1.4,2c-0.3,0.5-0.7,0.9-1.2,1.3c-0.2,0.2-0.3,0.4-0.5,0.5
					c-0.4,0.4-0.8,0.7-1.1,1.2c-0.1,0.2-0.2,0.3-0.1,0.5c0.1,0.1,0.1,0.2,0.2,0.4c-0.2,0-0.4-0.1-0.6-0.2l0,0l0,0l0,0
					c-0.6-0.2-1.1-0.4-1.7-0.5c-0.5-0.1-1,0-1.5,0.1c-0.4,0.2-0.8,0.6-1,1.1c-0.1,0.5-0.2,0.9-0.3,1.3l0,0c0,1.3-0.2,2.6-0.1,3.9
					c0,0.4,0.1,0.8,0.5,1c0.3,0,0.7,0,1-0.2c0.3-0.2,0.7-0.4,1.1-0.5c0.3-0.3,0.6-0.5,1-0.7l0,0l0,0c1.2-0.6,2.1-1.5,3.2-2.3
					c0.8-0.6,1.6-1.1,2.5-1.3c0.1-0.1,0.2-0.1,0.4-0.2c0.1-0.1,0.3-0.3,0.5-0.4l0,0c0.2-0.3,0.4-0.5,0.5-0.8c0-0.2,0.1-0.3,0.2-0.4
					c0.1-0.3,0.2-0.6,0.4-0.9c0.3-0.7,0.5-1.4,0.8-2c0.1-0.3,0.1-0.6,0.4-0.8l0,0l0,0c0-0.3,0-0.6,0.2-0.9c0-0.3,0.2-0.6,0.3-0.9
					c0.3-0.9,0.7-1.7,1.1-2.5l0,0c0.2-0.5,0.5-1,0.9-1.4c0.2-0.3,0.5-0.5,0.8-0.7c0.1-0.3,0.3-0.6,0.4-0.9l0,0l0,0
					c0-0.4,0.1-0.9,0.1-1.3l0,0l0,0c-0.1-0.6-0.2-1.1-0.3-1.7c-0.3-0.7-0.6-1.4-1-2c-0.1-0.2-0.2-0.4-0.1-0.6c0-0.2,0.2-0.4,0.4-0.4
					c0.5-0.2,1-0.2,1.6-0.2c0,0,0.1,0,0.1,0c0.5-0.1,1-0.1,1.5,0l0,0c0.9,0,1.6,0.4,2.5,0.6c0.5,0,1-0.1,1.4-0.2l0,0
					c0.6-0.3,1.2-0.4,1.8-0.3c0.2,0,0.4,0,0.6,0.2c0.2,0,0.3,0.1,0.4,0.1c0.2,0,0.3,0.1,0.5,0.2c0.7,0.3,1.3,0.5,1.9,0.9
					c0.5,0.1,0.9,0.4,1.3,0.6c0.6,0.2,1.2,0.5,1.7,0.8c0.2,0,0.3,0.2,0.5,0.3c0.4,0.2,0.8,0.4,1.1,0.7c0.4,0.2,0.8,0.5,1.3,0.6
					c0.5,0.1,0.9,0.2,1.4,0.3c0.4,0,0.6,0.2,0.8,0.5c0.2,0.3,0.3,0.6,0.4,0.9l0,0c0.2,0.7,0.5,1.3,0.9,1.8l0,0
					c0.1,0.1,0.1,0.1,0.2,0.2c0.5,0.4,1,0.7,1.5,1l0,0c0.5,0.1,1,0,1.5-0.1l0,0l0,0c0.6-0.1,1.2-0.5,1.8-0.5
					c0.1-0.2,0.4-0.2,0.6-0.3c0.6-0.2,1.2-0.6,1.8-0.7c0-0.1,0.1-0.2,0.2-0.2c0.2-0.1,0.3-0.2,0.5-0.3l0,0l0,0
					C111.8,295.5,112.2,295.3,112.1,294.9z"/>
			</g>
		</g>
		<g>
			<g>
				<path class="st1" d="M85.7,206.1c-0.2-0.2-0.3-0.4-0.5-0.6l0,0l0,0c-0.6-0.3-1.3-0.7-1.9-1c-0.6-0.3-1.2-0.8-1.4-1.5
					c-0.2-0.4-0.5-0.6-0.9-0.7c-0.6-0.1-1.1-0.1-1.7-0.2c-0.2,0-0.5,0-0.7-0.2c-0.3-0.1-0.7-0.2-0.9-0.5c-0.2,0-0.4-0.2-0.5-0.3l0,0
					l0,0l0,0c-0.4-0.5-0.9-0.9-1.5-1.2c-0.1,0-0.1,0-0.1-0.1c-0.7-0.2-1.4-0.5-2.2-0.6c-0.2-0.1-0.5,0-0.7-0.2l0,0
					c-0.8-0.1-1.6-0.2-2.3-0.5c-0.4,0-0.8-0.1-1.1-0.3c-0.2,0-0.4-0.1-0.6-0.2c-0.5-0.1-1-0.4-1.4-0.7l0,0c-1.1-0.6-2.1-1.3-3.3-1.7
					c-0.4-0.1-0.8-0.3-1.3-0.4l0,0c-0.6-0.1-1.3-0.2-1.9-0.4c0,0,0,0,0,0c-0.5,0-1-0.1-1.5-0.2c-0.6,0-1.1-0.1-1.6-0.2
					c-0.8-0.1-1.5-0.2-2.3-0.2l0,0c-0.3,0-0.6,0-0.8-0.1c-0.7-0.2-1.4-0.1-2-0.4c-0.1,0-0.3,0.1-0.4,0c-0.1,0-0.3,0-0.4-0.1
					c-0.3,0-0.5-0.1-0.8-0.2c-0.5-0.1-1-0.3-1.4-0.5l0,0l0,0c-0.7-0.2-1.3-0.5-2-0.7c-0.4-0.1-0.8-0.1-1.1-0.4l0,0
					c-0.3-0.2-0.4-0.4-0.4-0.8c-0.2-0.1-0.2-0.3-0.2-0.5c0-0.7-0.1-1.4-0.4-2.1c-0.1-0.3-0.3-0.5-0.4-0.8c-0.2-0.2-0.3-0.5-0.5-0.7
					l0,0l0,0c0,0-0.1-0.1-0.1-0.1l0,0c-0.1-0.1-0.1-0.2-0.2-0.2l0,0c-0.1-0.1-0.2-0.2-0.2-0.3c-0.3-0.3-0.6-0.6-0.7-1
					c-0.2-0.2-0.4-0.4-0.5-0.6c-0.2-0.2-0.4-0.5-0.5-0.8l0,0c-0.3-0.6-0.7-1.1-1-1.7c-0.4-0.6-0.8-1.3-0.9-2
					c-0.4-0.5-0.6-1.1-0.8-1.7c-0.1-0.2-0.2-0.4-0.2-0.7c-0.1-0.2-0.1-0.4-0.1-0.6l0,0c-0.1-0.6-0.2-1.3-0.2-1.9
					c-0.1-0.5-0.1-1-0.2-1.5c0-0.3-0.1-0.6-0.1-1c0-1.5-0.2-2.9,0.2-4.4c0-0.2,0.1-0.4,0.3-0.5c0.3-0.2,0.5-0.1,0.7,0
					c0.4,0.2,0.7,0.5,1.1,0.7c0.1,0,0.3,0.1,0.4,0.2c0.8,0.3,1.6,0.5,2.3,0.7c0.2,0.1,0.5,0,0.7,0.2l0,0c1.2,0.2,2.4,0.6,3.4,1.3
					l0,0c0.5,0.2,0.9,0.5,1.3,0.9c0.2,0.2,0.4,0.4,0.5,0.7c0.1,0.1,0.2,0.3,0.2,0.4c0,0.2,0.1,0.4,0,0.6c-0.5,0.8,0,1.2,0.7,1.3
					c1.3,0.3,2.6,0.2,3.9-0.2c0.5-0.2,1-0.4,1.5-0.4l0,0l0,0c0.9-0.2,1.5-0.7,1.8-1.7c0.1-0.4,0.3-0.7,0.5-1.1
					c0.3-0.6,0.4-1.3,0.1-1.9c-0.2-0.5-0.5-1-0.8-1.5c0,0,0,0,0,0c-0.2-0.4-0.4-0.7-0.6-1.1c-0.4-0.5-0.7-1.1-1-1.6l0,0l0,0
					c-0.2-0.1-0.3-0.3-0.3-0.5c0.1,0,0.1,0,0.1-0.1c0,0-0.1,0-0.1,0.1c-0.2-0.3-0.4-0.7-0.6-1l0,0l0,0c-0.3-0.4-0.6-0.8-0.8-1.2
					c-0.1-0.1-0.2-0.3-0.3-0.5l0,0l0,0c-0.8-1.1-1.5-2.2-2.3-3.4c-0.3-0.3-0.5-0.6-0.7-0.9l0,0c-0.2-0.2-0.4-0.5-0.5-0.7
					c-0.4-0.4-0.8-0.8-1-1.4l0,0c-0.1-0.1-0.1-0.2-0.1-0.3c-0.1-0.4-0.2-0.8-0.3-1.2c-0.2-0.7-0.7-1.2-1.1-1.8
					c-0.1-0.1-0.1-0.2-0.2-0.2c-0.3-0.3-0.6-0.7-1-1c-0.7-0.6-1-1.4-1-2.3l0,0c-0.2-0.3-0.4-0.3-0.7-0.1c-0.2,0.1-0.3,0.2-0.5,0.2
					c-0.6,0.2-1.2,0.2-1.7,0c-0.6-0.1-1.1-0.5-1.6-0.9c-0.2-0.2-0.5-0.4-0.7-0.5l0,0c-0.3-0.2-0.6-0.4-0.8-0.5
					c-0.5-0.3-1.2-0.5-1.3-1.2l0,0l0,0c-0.4-0.4-0.4-1.1-0.8-1.4c-0.1-0.1-0.2,0-0.3,0c0,0.3-0.1,0.5-0.1,0.8l0,0
					c0.1,0.4,0.1,0.8,0.1,1.2l0,0l0,0c0.1,0.2,0.1,0.4,0.1,0.6l0,0l0,0c0.2,0.8,0.4,1.5,0.5,2.3c0,0.3,0,0.6-0.1,0.9l0,0
					c0,0.1-0.1,0.2-0.2,0.3c-0.5,0.5-1.1,0.6-1.7,0.9c-0.4,0.2-0.7,0.4-1.1,0.5c-1,0.6-2.1,1.1-3.1,1.7c-0.3,0.2-0.7,0.4-1,0.6
					c-0.2,0.2-0.5,0.3-0.7,0.5c-0.4,0.4-1,0.6-1.5,1l0,0l0,0c-0.1,0.1-0.2,0.1-0.3,0.2c-0.3,0.3-0.7,0.6-1.1,0.9
					c-0.3,0.2-0.6,0.5-0.9,0.7c-0.4,0.4-0.7,0.7-1.1,1.1c-0.2,0.2-0.4,0.4-0.6,0.7c-0.2,0.4-0.5,0.7-0.7,1c-0.1,0.2-0.2,0.4-0.4,0.6
					c0,0.1-0.1,0.3-0.2,0.4c-0.1,0.1-0.1,0.3-0.2,0.4c-0.1,0.2-0.2,0.5-0.3,0.7c-0.1,0.6-0.2,1.1-0.4,1.7c-0.1,0.5-0.2,1-0.4,1.4
					c-0.1,0.4-0.3,0.7-0.5,1.1c-0.1,0.1-0.2,0.3-0.2,0.5c-0.7,1.3-1.6,2.4-2.9,3.2l0,0c-0.2,0.2-0.4,0.3-0.7,0.4
					c-0.3,0.2-0.7,0.4-0.5,0.8c0.1,0.4,0.5,0.5,0.9,0.6c0,0,0,0,0.1,0c0.3,0,0.3,0.2,0.2,0.4c-0.1,0.1-0.1,0.3-0.2,0.4
					c-0.4,0.9-0.8,1.7-1.4,2.5c-0.3,0.7-0.8,1.3-1.2,1.8c0,0.1-0.1,0.2-0.2,0.2l0,0c-0.3,0.5-0.7,0.9-1.1,1.3
					c-0.2,0.4-0.4,0.8-0.6,1.2l0,0c0,0.1-0.1,0.2-0.1,0.3c-0.2,0.6-0.5,1.2-0.7,1.8c-0.3,0.8-0.5,1.5-0.9,2.3l0,0
					c0,0.4-0.2,0.6-0.4,1c0,0.1-0.1,0.3-0.2,0.4c0,0.1-0.1,0.3-0.1,0.4c-0.1,0.2-0.1,0.4-0.3,0.6l0,0c-0.5,1.3-1.1,2.5-1.8,3.7
					c-0.1,0.3-0.2,0.5-0.4,0.8c-0.1,0.3-0.3,0.5-0.5,0.8c-0.3,0.5-0.6,1-1,1.4c-0.1,0.1-0.1,0.2-0.2,0.3c-0.1,0.2,0,0.3-0.2,0.5
					c0,0,2.5,8.3,5.5,12.8c5.7,8.6,9.8,11,9.8,11c0.1-0.1,0.3-0.2,0.4-0.3c0.1-0.1,0.3-0.3,0.5-0.3c1.2-0.8,2.5-1.7,3.7-2.5
					c0.1-0.2,0.3-0.2,0.4-0.3c0.4-0.3,0.8-0.6,1.2-0.9l0,0c0.2-0.2,0.4-0.4,0.7-0.5c0.2-0.2,0.5-0.4,0.7-0.6
					c0.3-0.2,0.6-0.5,0.9-0.7c0.1-0.1,0.3-0.2,0.4-0.3c0.2-0.3,0.5-0.5,0.8-0.6c0.1-0.1,0.3-0.2,0.4-0.3c0.2-0.2,0.5-0.4,0.7-0.5
					c0-0.1,0.1-0.2,0.2-0.2c0.4-0.4,0.9-0.8,1.4-1.2l0,0l0,0c0.4-0.5,0.9-0.9,1.4-1.3c0.1-0.1,0.2-0.3,0.3-0.3
					c0.2-0.2,0.4-0.4,0.6-0.6l0,0l0,0c0.3-0.3,0.5-0.6,0.9-0.7l0,0c0.7-0.5,1.5-0.5,2.3-0.3c0.4,0.1,0.8,0.1,1.2,0.2l0,0
					c0.3,0,0.6,0,0.8,0c0.8,0,1.5,0,2.3,0l0,0l0,0c0.9-0.1,1.9-0.2,2.8-0.4c0.2,0.1,0.3-0.2,0.4-0.1c0.6-0.2,1.3-0.3,2-0.2
					c0.5,0.1,0.9,0.2,1.1,0.7l0,0c0.3,0.6,0.4,1.2,0.2,1.8l0,0c0,0.4-0.1,0.8-0.2,1.1c-0.1,0.5-0.3,0.9-0.5,1.3
					c-0.2,0.6-0.5,1.1-0.9,1.6l0,0c-0.4,0.7-0.9,1.4-1.4,2c-0.3,0.5-0.7,0.9-1.2,1.3c-0.2,0.2-0.3,0.4-0.5,0.5
					c-0.4,0.4-0.8,0.7-1.1,1.2c-0.1,0.2-0.2,0.3-0.1,0.5c0.1,0.1,0.1,0.2,0.2,0.4c-0.2,0-0.4-0.1-0.6-0.2l0,0l0,0l0,0
					c-0.6-0.2-1.1-0.4-1.7-0.5c-0.5-0.1-1,0-1.5,0.1c-0.4,0.2-0.8,0.6-1,1.1c-0.1,0.5-0.2,0.9-0.3,1.3l0,0c0,1.3-0.2,2.6-0.1,3.9
					c0,0.4,0.1,0.8,0.5,1c0.3,0,0.7,0,1-0.2c0.3-0.2,0.7-0.4,1.1-0.5c0.3-0.3,0.6-0.5,1-0.7l0,0l0,0c1.2-0.6,2.1-1.5,3.2-2.3
					c0.8-0.6,1.6-1.1,2.5-1.3c0.1-0.1,0.2-0.1,0.4-0.2c0.1-0.1,0.3-0.3,0.5-0.4l0,0c0.2-0.3,0.4-0.5,0.5-0.8c0-0.2,0.1-0.3,0.2-0.4
					c0.1-0.3,0.2-0.6,0.4-0.9c0.3-0.7,0.5-1.4,0.8-2c0.1-0.3,0.1-0.6,0.4-0.8l0,0l0,0c0-0.3,0-0.6,0.2-0.9c0-0.3,0.2-0.6,0.3-0.9
					c0.3-0.9,0.7-1.7,1.1-2.5l0,0c0.2-0.5,0.5-1,0.9-1.4c0.2-0.3,0.5-0.5,0.8-0.7c0.1-0.3,0.3-0.6,0.4-0.9l0,0l0,0
					c0-0.4,0.1-0.9,0.1-1.3l0,0l0,0c-0.1-0.6-0.2-1.1-0.3-1.7c-0.3-0.7-0.6-1.4-1-2c-0.1-0.2-0.2-0.4-0.1-0.6c0-0.2,0.2-0.4,0.4-0.4
					c0.5-0.2,1-0.2,1.6-0.2c0,0,0.1,0,0.1,0c0.5-0.1,1-0.1,1.5,0l0,0c0.9,0,1.6,0.4,2.5,0.6c0.5,0,1-0.1,1.4-0.2l0,0
					c0.6-0.3,1.2-0.4,1.8-0.3c0.2,0,0.4,0,0.6,0.2c0.2,0,0.3,0.1,0.4,0.1c0.2,0,0.3,0.1,0.5,0.2c0.7,0.3,1.3,0.5,1.9,0.9
					c0.5,0.1,0.9,0.4,1.3,0.6c0.6,0.2,1.2,0.5,1.7,0.8c0.2,0,0.3,0.2,0.5,0.3c0.4,0.2,0.8,0.4,1.1,0.7c0.4,0.2,0.8,0.5,1.3,0.6
					c0.5,0.1,0.9,0.2,1.4,0.3c0.4,0,0.6,0.2,0.8,0.5c0.2,0.3,0.3,0.6,0.4,0.9l0,0c0.2,0.7,0.5,1.3,0.9,1.8l0,0
					c0.1,0.1,0.1,0.1,0.2,0.2c0.5,0.4,1,0.7,1.5,1l0,0c0.5,0.1,1,0,1.5-0.1l0,0l0,0c0.6-0.1,1.2-0.5,1.8-0.5
					c0.1-0.2,0.4-0.2,0.6-0.3c0.6-0.2,1.2-0.6,1.8-0.7c0-0.1,0.1-0.2,0.2-0.2c0.2-0.1,0.3-0.2,0.5-0.3l0,0l0,0
					C85.4,206.7,85.8,206.6,85.7,206.1z"/>
			</g>
		</g>
		<g>
			<g>
				<path class="st1" d="M116.4,118.1c-0.2-0.2-0.3-0.4-0.5-0.6l0,0l0,0c-0.6-0.3-1.3-0.7-1.9-1c-0.6-0.3-1.2-0.8-1.4-1.5
					c-0.2-0.4-0.5-0.6-0.9-0.7c-0.6-0.1-1.1-0.1-1.7-0.2c-0.2,0-0.5,0-0.7-0.2c-0.3-0.1-0.7-0.2-0.9-0.5c-0.2,0-0.4-0.2-0.5-0.3l0,0
					l0,0l0,0c-0.4-0.5-0.9-0.9-1.5-1.2c-0.1,0-0.1,0-0.1-0.1c-0.7-0.2-1.4-0.5-2.2-0.6c-0.2-0.1-0.5,0-0.7-0.2l0,0
					c-0.8-0.1-1.6-0.2-2.3-0.5c-0.4,0-0.8-0.1-1.1-0.3c-0.2,0-0.4-0.1-0.6-0.2c-0.5-0.1-1-0.4-1.4-0.7l0,0c-1.1-0.6-2.1-1.3-3.3-1.7
					c-0.4-0.1-0.8-0.3-1.3-0.4l0,0c-0.6-0.1-1.3-0.2-1.9-0.4c0,0,0,0,0,0c-0.5,0-1-0.1-1.5-0.2c-0.6,0-1.1-0.1-1.6-0.2
					c-0.8-0.1-1.5-0.2-2.3-0.2l0,0c-0.3,0-0.6,0-0.8-0.1c-0.7-0.2-1.4-0.1-2-0.4c-0.1,0-0.3,0.1-0.4,0c-0.1,0-0.3,0-0.4-0.1
					c-0.3,0-0.5-0.1-0.8-0.2c-0.5-0.1-1-0.3-1.4-0.5l0,0l0,0c-0.7-0.2-1.3-0.5-2-0.7c-0.4-0.1-0.8-0.1-1.1-0.4l0,0
					c-0.3-0.2-0.4-0.4-0.4-0.8c-0.2-0.1-0.2-0.3-0.2-0.5c0-0.7-0.1-1.4-0.4-2.1c-0.1-0.3-0.3-0.5-0.4-0.8c-0.2-0.2-0.3-0.5-0.5-0.7
					l0,0l0,0c0,0-0.1-0.1-0.1-0.1l0,0c-0.1-0.1-0.1-0.2-0.2-0.2l0,0c-0.1-0.1-0.2-0.2-0.2-0.3c-0.3-0.3-0.6-0.6-0.7-1
					c-0.2-0.2-0.4-0.4-0.5-0.6c-0.2-0.2-0.4-0.5-0.5-0.8l0,0c-0.3-0.6-0.7-1.1-1-1.7c-0.4-0.6-0.8-1.3-0.9-2
					c-0.4-0.5-0.6-1.1-0.8-1.7c-0.1-0.2-0.2-0.4-0.2-0.7c-0.1-0.2-0.1-0.4-0.1-0.6l0,0c-0.1-0.6-0.2-1.3-0.2-1.9
					c-0.1-0.5-0.1-1-0.2-1.5c0-0.3-0.1-0.6-0.1-1c0-1.5-0.2-2.9,0.2-4.4c0-0.2,0.1-0.4,0.3-0.5c0.3-0.2,0.5-0.1,0.7,0
					c0.4,0.2,0.7,0.5,1.1,0.7c0.1,0,0.3,0.1,0.4,0.2c0.8,0.3,1.6,0.5,2.3,0.7c0.2,0.1,0.5,0,0.7,0.2l0,0c1.2,0.2,2.4,0.6,3.4,1.3
					l0,0c0.5,0.2,0.9,0.5,1.3,0.9c0.2,0.2,0.4,0.4,0.5,0.7c0.1,0.1,0.2,0.3,0.2,0.4c0,0.2,0.1,0.4,0,0.6c-0.5,0.8,0,1.2,0.7,1.3
					c1.3,0.3,2.6,0.2,3.9-0.2c0.5-0.2,1-0.4,1.5-0.4l0,0l0,0c0.9-0.2,1.5-0.7,1.8-1.7c0.1-0.4,0.3-0.7,0.5-1.1
					c0.3-0.6,0.4-1.3,0.1-1.9c-0.2-0.5-0.5-1-0.8-1.5c0,0,0,0,0,0c-0.2-0.4-0.4-0.7-0.6-1.1c-0.4-0.5-0.7-1.1-1-1.6l0,0l0,0
					c-0.2-0.1-0.3-0.3-0.3-0.5c0.1,0,0.1,0,0.1-0.1c0,0-0.1,0-0.1,0.1c-0.2-0.3-0.4-0.7-0.6-1l0,0l0,0c-0.3-0.4-0.6-0.8-0.8-1.2
					c-0.1-0.1-0.2-0.3-0.3-0.5l0,0l0,0c-0.8-1.1-1.5-2.2-2.3-3.4c-0.3-0.3-0.5-0.6-0.7-0.9l0,0c-0.2-0.2-0.4-0.5-0.5-0.7
					c-0.4-0.4-0.8-0.8-1-1.4l0,0c-0.1-0.1-0.1-0.2-0.1-0.3c-0.1-0.4-0.2-0.8-0.3-1.2c-0.2-0.7-0.7-1.2-1.1-1.8
					c-0.1-0.1-0.1-0.2-0.2-0.2c-0.3-0.3-0.6-0.7-1-1c-0.7-0.6-1-1.4-1-2.3l0,0c-0.2-0.3-0.4-0.3-0.7-0.1c-0.2,0.1-0.3,0.2-0.5,0.2
					c-0.6,0.2-1.2,0.2-1.7,0c-0.6-0.1-1.1-0.5-1.6-0.9c-0.2-0.2-0.5-0.4-0.7-0.5l0,0c-0.3-0.2-0.6-0.4-0.8-0.5
					c-0.5-0.3-1.2-0.5-1.3-1.2l0,0l0,0c-0.4-0.4-0.4-1.1-0.8-1.4c-0.1-0.1-0.2,0-0.3,0c0,0.3-0.1,0.5-0.1,0.8l0,0
					c0.1,0.4,0.1,0.8,0.1,1.2l0,0l0,0c0.1,0.2,0.1,0.4,0.1,0.6l0,0l0,0c0.2,0.8,0.4,1.5,0.5,2.3c0,0.3,0,0.6-0.1,0.9l0,0
					c0,0.1-0.1,0.2-0.2,0.3c-0.5,0.5-1.1,0.6-1.7,0.9c-0.4,0.2-0.7,0.4-1.1,0.5c-1,0.6-2.1,1.1-3.1,1.7c-0.3,0.2-0.7,0.4-1,0.6
					c-0.2,0.2-0.5,0.3-0.7,0.5c-0.4,0.4-1,0.6-1.5,1l0,0l0,0c-0.1,0.1-0.2,0.1-0.3,0.2c-0.3,0.3-0.7,0.6-1.1,0.9
					c-0.3,0.2-0.6,0.5-0.9,0.7c-0.4,0.4-0.7,0.7-1.1,1.1c-0.2,0.2-0.4,0.4-0.6,0.7c-0.2,0.4-0.5,0.7-0.7,1c-0.1,0.2-0.2,0.4-0.4,0.6
					c0,0.1-0.1,0.3-0.2,0.4c-0.1,0.1-0.1,0.3-0.2,0.4c-0.1,0.2-0.2,0.5-0.3,0.7c-0.1,0.6-0.2,1.1-0.4,1.7c-0.1,0.5-0.2,1-0.4,1.4
					c-0.1,0.4-0.3,0.7-0.5,1.1c-0.1,0.1-0.2,0.3-0.2,0.5c-0.7,1.3-1.6,2.4-2.9,3.2l0,0c-0.2,0.2-0.4,0.3-0.7,0.4
					c-0.3,0.2-0.7,0.4-0.5,0.8c0.1,0.4,0.5,0.5,0.9,0.6c0,0,0,0,0.1,0c0.3,0,0.3,0.2,0.2,0.4c-0.1,0.1-0.1,0.3-0.2,0.4
					c-0.4,0.9-0.8,1.7-1.4,2.5c-0.3,0.7-0.8,1.3-1.2,1.8c0,0.1-0.1,0.2-0.2,0.2l0,0c-0.3,0.5-0.7,0.9-1.1,1.3
					c-0.2,0.4-0.4,0.8-0.6,1.2l0,0c0,0.1-0.1,0.2-0.1,0.3c-0.2,0.6-0.5,1.2-0.7,1.8c-0.3,0.8-0.5,1.5-0.9,2.3l0,0
					c0,0.4-0.2,0.6-0.4,1c0,0.1-0.1,0.3-0.2,0.4c0,0.1-0.1,0.3-0.1,0.4c-0.1,0.2-0.1,0.4-0.3,0.6l0,0c-0.5,1.3-1.1,2.5-1.8,3.7
					c-0.1,0.3-0.2,0.5-0.4,0.8c-0.1,0.3-0.3,0.5-0.5,0.8c-0.3,0.5-0.6,1-1,1.4c-0.1,0.1-0.1,0.2-0.2,0.3c-0.1,0.2,0,0.3-0.2,0.5
					c0,0,2.5,8.3,5.5,12.8c5.7,8.6,9.8,11,9.8,11c0.1-0.1,0.3-0.2,0.4-0.3c0.1-0.1,0.3-0.3,0.5-0.3c1.2-0.8,2.5-1.7,3.7-2.5
					c0.1-0.2,0.3-0.2,0.4-0.3c0.4-0.3,0.8-0.6,1.2-0.9l0,0c0.2-0.2,0.4-0.4,0.7-0.5c0.2-0.2,0.5-0.4,0.7-0.6
					c0.3-0.2,0.6-0.5,0.9-0.7c0.1-0.1,0.3-0.2,0.4-0.3c0.2-0.3,0.5-0.5,0.8-0.6c0.1-0.1,0.3-0.2,0.4-0.3c0.2-0.2,0.5-0.4,0.7-0.5
					c0-0.1,0.1-0.2,0.2-0.2c0.4-0.4,0.9-0.8,1.4-1.2l0,0l0,0c0.4-0.5,0.9-0.9,1.4-1.3c0.1-0.1,0.2-0.3,0.3-0.3
					c0.2-0.2,0.4-0.4,0.6-0.6l0,0l0,0c0.3-0.3,0.5-0.6,0.9-0.7l0,0c0.7-0.5,1.5-0.5,2.3-0.3c0.4,0.1,0.8,0.1,1.2,0.2l0,0
					c0.3,0,0.6,0,0.8,0c0.8,0,1.5,0,2.3,0l0,0l0,0c0.9-0.1,1.9-0.2,2.8-0.4c0.2,0.1,0.3-0.2,0.4-0.1c0.6-0.2,1.3-0.3,2-0.2
					c0.5,0.1,0.9,0.2,1.1,0.7l0,0c0.3,0.6,0.4,1.2,0.2,1.8l0,0c0,0.4-0.1,0.8-0.2,1.1c-0.1,0.5-0.3,0.9-0.5,1.3
					c-0.2,0.6-0.5,1.1-0.9,1.6l0,0c-0.4,0.7-0.9,1.4-1.4,2c-0.3,0.5-0.7,0.9-1.2,1.3c-0.2,0.2-0.3,0.4-0.5,0.5
					c-0.4,0.4-0.8,0.7-1.1,1.2c-0.1,0.2-0.2,0.3-0.1,0.5c0.1,0.1,0.1,0.2,0.2,0.4c-0.2,0-0.4-0.1-0.6-0.2l0,0l0,0l0,0
					c-0.6-0.2-1.1-0.4-1.7-0.5c-0.5-0.1-1,0-1.5,0.1c-0.4,0.2-0.8,0.6-1,1.1c-0.1,0.5-0.2,0.9-0.3,1.3l0,0c0,1.3-0.2,2.6-0.1,3.9
					c0,0.4,0.1,0.8,0.5,1c0.3,0,0.7,0,1-0.2c0.3-0.2,0.7-0.4,1.1-0.5c0.3-0.3,0.6-0.5,1-0.7l0,0l0,0c1.2-0.6,2.1-1.5,3.2-2.3
					c0.8-0.6,1.6-1.1,2.5-1.3c0.1-0.1,0.2-0.1,0.4-0.2c0.1-0.1,0.3-0.3,0.5-0.4l0,0c0.2-0.3,0.4-0.5,0.5-0.8c0-0.2,0.1-0.3,0.2-0.4
					c0.1-0.3,0.2-0.6,0.4-0.9c0.3-0.7,0.5-1.4,0.8-2c0.1-0.3,0.1-0.6,0.4-0.8l0,0l0,0c0-0.3,0-0.6,0.2-0.9c0-0.3,0.2-0.6,0.3-0.9
					c0.3-0.9,0.7-1.7,1.1-2.5l0,0c0.2-0.5,0.5-1,0.9-1.4c0.2-0.3,0.5-0.5,0.8-0.7c0.1-0.3,0.3-0.6,0.4-0.9l0,0l0,0
					c0-0.4,0.1-0.9,0.1-1.3l0,0l0,0c-0.1-0.6-0.2-1.1-0.3-1.7c-0.3-0.7-0.6-1.4-1-2c-0.1-0.2-0.2-0.4-0.1-0.6c0-0.2,0.2-0.4,0.4-0.4
					c0.5-0.2,1-0.2,1.6-0.2c0,0,0.1,0,0.1,0c0.5-0.1,1-0.1,1.5,0l0,0c0.9,0,1.6,0.4,2.5,0.6c0.5,0,1-0.1,1.4-0.2l0,0
					c0.6-0.3,1.2-0.4,1.8-0.3c0.2,0,0.4,0,0.6,0.2c0.2,0,0.3,0.1,0.4,0.1c0.2,0,0.3,0.1,0.5,0.2c0.7,0.3,1.3,0.5,1.9,0.9
					c0.5,0.1,0.9,0.4,1.3,0.6c0.6,0.2,1.2,0.5,1.7,0.8c0.2,0,0.3,0.2,0.5,0.3c0.4,0.2,0.8,0.4,1.1,0.7c0.4,0.2,0.8,0.5,1.3,0.6
					c0.5,0.1,0.9,0.2,1.4,0.3c0.4,0,0.6,0.2,0.8,0.5c0.2,0.3,0.3,0.6,0.4,0.9l0,0c0.2,0.7,0.5,1.3,0.9,1.8l0,0
					c0.1,0.1,0.1,0.1,0.2,0.2c0.5,0.4,1,0.7,1.5,1l0,0c0.5,0.1,1,0,1.5-0.1l0,0l0,0c0.6-0.1,1.2-0.5,1.8-0.5
					c0.1-0.2,0.4-0.2,0.6-0.3c0.6-0.2,1.2-0.6,1.8-0.7c0-0.1,0.1-0.2,0.2-0.2c0.2-0.1,0.3-0.2,0.5-0.3l0,0l0,0
					C116.1,118.7,116.5,118.6,116.4,118.1z"/>
			</g>
		</g>
		<g>
			<g>
				<path class="st1" d="M202.3,83.3c-0.2-0.2-0.3-0.4-0.5-0.6l0,0l0,0c-0.6-0.3-1.3-0.7-1.9-1c-0.6-0.3-1.2-0.8-1.4-1.5
					c-0.2-0.4-0.5-0.6-0.9-0.7c-0.6-0.1-1.1-0.1-1.7-0.2c-0.2,0-0.5,0-0.7-0.2c-0.3-0.1-0.7-0.2-0.9-0.5c-0.2,0-0.4-0.2-0.5-0.3l0,0
					l0,0l0,0c-0.4-0.5-0.9-0.9-1.5-1.2c-0.1,0-0.1,0-0.1-0.1c-0.7-0.2-1.4-0.5-2.2-0.6c-0.2-0.1-0.5,0-0.7-0.2l0,0
					c-0.8-0.1-1.6-0.2-2.3-0.5c-0.4,0-0.8-0.1-1.1-0.3c-0.2,0-0.4-0.1-0.6-0.2c-0.5-0.1-1-0.4-1.4-0.7l0,0c-1.1-0.6-2.1-1.3-3.3-1.7
					c-0.4-0.1-0.8-0.3-1.3-0.4l0,0c-0.6-0.1-1.3-0.2-1.9-0.4c0,0,0,0,0,0c-0.5,0-1-0.1-1.5-0.2c-0.6,0-1.1-0.1-1.6-0.2
					c-0.8-0.1-1.5-0.2-2.3-0.2l0,0c-0.3,0-0.6,0-0.8-0.1c-0.7-0.2-1.4-0.1-2-0.4c-0.1,0-0.3,0.1-0.4,0c-0.1,0-0.3,0-0.4-0.1
					c-0.3,0-0.5-0.1-0.8-0.2c-0.5-0.1-1-0.3-1.4-0.5l0,0l0,0c-0.7-0.2-1.3-0.5-2-0.7c-0.4-0.1-0.8-0.1-1.1-0.4l0,0
					c-0.3-0.2-0.4-0.4-0.4-0.8c-0.2-0.1-0.2-0.3-0.2-0.5c0-0.7-0.1-1.4-0.4-2.1c-0.1-0.3-0.3-0.5-0.4-0.8c-0.2-0.2-0.3-0.5-0.5-0.7
					l0,0l0,0c0,0-0.1-0.1-0.1-0.1l0,0c-0.1-0.1-0.1-0.2-0.2-0.2l0,0c-0.1-0.1-0.2-0.2-0.2-0.3c-0.3-0.3-0.6-0.6-0.7-1
					c-0.2-0.2-0.4-0.4-0.5-0.6c-0.2-0.2-0.4-0.5-0.5-0.8l0,0c-0.3-0.6-0.7-1.1-1-1.7c-0.4-0.6-0.8-1.3-0.9-2
					c-0.4-0.5-0.6-1.1-0.8-1.7c-0.1-0.2-0.2-0.4-0.2-0.7c-0.1-0.2-0.1-0.4-0.1-0.6l0,0c-0.1-0.6-0.2-1.3-0.2-1.9
					c-0.1-0.5-0.1-1-0.2-1.5c0-0.3-0.1-0.6-0.1-1c0-1.5-0.2-2.9,0.2-4.4c0-0.2,0.1-0.4,0.3-0.5c0.3-0.2,0.5-0.1,0.7,0
					c0.4,0.2,0.7,0.5,1.1,0.7c0.1,0,0.3,0.1,0.4,0.2c0.8,0.3,1.6,0.5,2.3,0.7c0.2,0.1,0.5,0,0.7,0.2l0,0c1.2,0.2,2.4,0.6,3.4,1.3
					l0,0c0.5,0.2,0.9,0.5,1.3,0.9c0.2,0.2,0.4,0.4,0.5,0.7c0.1,0.1,0.2,0.3,0.2,0.4c0,0.2,0.1,0.4,0,0.6c-0.5,0.8,0,1.2,0.7,1.3
					c1.3,0.3,2.6,0.2,3.9-0.2c0.5-0.2,1-0.4,1.5-0.4l0,0l0,0c0.9-0.2,1.5-0.7,1.8-1.7c0.1-0.4,0.3-0.7,0.5-1.1
					c0.3-0.6,0.4-1.3,0.1-1.9c-0.2-0.5-0.5-1-0.8-1.5c0,0,0,0,0,0c-0.2-0.4-0.4-0.7-0.6-1.1c-0.4-0.5-0.7-1.1-1-1.6l0,0l0,0
					c-0.2-0.1-0.3-0.3-0.3-0.5c0.1,0,0.1,0,0.1-0.1c0,0-0.1,0-0.1,0.1c-0.2-0.3-0.4-0.7-0.6-1l0,0l0,0c-0.3-0.4-0.6-0.8-0.8-1.2
					c-0.1-0.1-0.2-0.3-0.3-0.5l0,0l0,0c-0.8-1.1-1.5-2.2-2.3-3.4c-0.3-0.3-0.5-0.6-0.7-0.9l0,0c-0.2-0.2-0.4-0.5-0.5-0.7
					c-0.4-0.4-0.8-0.8-1-1.4l0,0c-0.1-0.1-0.1-0.2-0.1-0.3c-0.1-0.4-0.2-0.8-0.3-1.2c-0.2-0.7-0.7-1.2-1.1-1.8
					c-0.1-0.1-0.1-0.2-0.2-0.2c-0.3-0.3-0.6-0.7-1-1c-0.7-0.6-1-1.4-1-2.3l0,0c-0.2-0.3-0.4-0.3-0.7-0.1c-0.2,0.1-0.3,0.2-0.5,0.2
					c-0.6,0.2-1.2,0.2-1.7,0c-0.6-0.1-1.1-0.5-1.6-0.9c-0.2-0.2-0.5-0.4-0.7-0.5l0,0c-0.3-0.2-0.6-0.4-0.8-0.5
					c-0.5-0.3-1.2-0.5-1.3-1.2l0,0l0,0c-0.4-0.4-0.4-1.1-0.8-1.4c-0.1-0.1-0.2,0-0.3,0c0,0.3-0.1,0.5-0.1,0.8l0,0
					c0.1,0.4,0.1,0.8,0.1,1.2l0,0l0,0c0.1,0.2,0.1,0.4,0.1,0.6l0,0l0,0c0.2,0.8,0.4,1.5,0.5,2.3c0,0.3,0,0.6-0.1,0.9l0,0
					c0,0.1-0.1,0.2-0.2,0.3c-0.5,0.5-1.1,0.6-1.7,0.9c-0.4,0.2-0.7,0.4-1.1,0.5c-1,0.6-2.1,1.1-3.1,1.7c-0.3,0.2-0.7,0.4-1,0.6
					c-0.2,0.2-0.5,0.3-0.7,0.5c-0.4,0.4-1,0.6-1.5,1l0,0l0,0c-0.1,0.1-0.2,0.1-0.3,0.2c-0.3,0.3-0.7,0.6-1.1,0.9
					c-0.3,0.2-0.6,0.5-0.9,0.7c-0.4,0.4-0.7,0.7-1.1,1.1c-0.2,0.2-0.4,0.4-0.6,0.7c-0.2,0.4-0.5,0.7-0.7,1c-0.1,0.2-0.2,0.4-0.4,0.6
					c0,0.1-0.1,0.3-0.2,0.4c-0.1,0.1-0.1,0.3-0.2,0.4c-0.1,0.2-0.2,0.5-0.3,0.7c-0.1,0.6-0.2,1.1-0.4,1.7c-0.1,0.5-0.2,1-0.4,1.4
					c-0.1,0.4-0.3,0.7-0.5,1.1c-0.1,0.1-0.2,0.3-0.2,0.5c-0.7,1.3-1.6,2.4-2.9,3.2l0,0c-0.2,0.2-0.4,0.3-0.7,0.4
					c-0.3,0.2-0.7,0.4-0.5,0.8c0.1,0.4,0.5,0.5,0.9,0.6c0,0,0,0,0.1,0c0.3,0,0.3,0.2,0.2,0.4c-0.1,0.1-0.1,0.3-0.2,0.4
					c-0.4,0.9-0.8,1.7-1.4,2.5c-0.3,0.7-0.8,1.3-1.2,1.8c0,0.1-0.1,0.2-0.2,0.2l0,0c-0.3,0.5-0.7,0.9-1.1,1.3
					c-0.2,0.4-0.4,0.8-0.6,1.2l0,0c0,0.1-0.1,0.2-0.1,0.3c-0.2,0.6-0.5,1.2-0.7,1.8c-0.3,0.8-0.5,1.5-0.9,2.3l0,0
					c0,0.4-0.2,0.6-0.4,1c0,0.1-0.1,0.3-0.2,0.4c0,0.1-0.1,0.3-0.1,0.4c-0.1,0.2-0.1,0.4-0.3,0.6l0,0c-0.5,1.3-1.1,2.5-1.8,3.7
					c-0.1,0.3-0.2,0.5-0.4,0.8c-0.1,0.3-0.3,0.5-0.5,0.8c-0.3,0.5-0.6,1-1,1.4c-0.1,0.1-0.1,0.2-0.2,0.3c-0.1,0.2,0,0.3-0.2,0.5
					c0,0,2.5,8.3,5.5,12.8c5.7,8.6,9.8,11,9.8,11c0.1-0.1,0.3-0.2,0.4-0.3c0.1-0.1,0.3-0.3,0.5-0.3c1.2-0.8,2.5-1.7,3.7-2.5
					c0.1-0.2,0.3-0.2,0.4-0.3c0.4-0.3,0.8-0.6,1.2-0.9l0,0c0.2-0.2,0.4-0.4,0.7-0.5c0.2-0.2,0.5-0.4,0.7-0.6
					c0.3-0.2,0.6-0.5,0.9-0.7c0.1-0.1,0.3-0.2,0.4-0.3c0.2-0.3,0.5-0.5,0.8-0.6c0.1-0.1,0.3-0.2,0.4-0.3c0.2-0.2,0.5-0.4,0.7-0.5
					c0-0.1,0.1-0.2,0.2-0.2c0.4-0.4,0.9-0.8,1.4-1.2l0,0l0,0c0.4-0.5,0.9-0.9,1.4-1.3c0.1-0.1,0.2-0.3,0.3-0.3
					c0.2-0.2,0.4-0.4,0.6-0.6l0,0l0,0c0.3-0.3,0.5-0.6,0.9-0.7l0,0c0.7-0.5,1.5-0.5,2.3-0.3c0.4,0.1,0.8,0.1,1.2,0.2l0,0
					c0.3,0,0.6,0,0.8,0c0.8,0,1.5,0,2.3,0l0,0l0,0c0.9-0.1,1.9-0.2,2.8-0.4c0.2,0.1,0.3-0.2,0.4-0.1c0.6-0.2,1.3-0.3,2-0.2
					c0.5,0.1,0.9,0.2,1.1,0.7l0,0c0.3,0.6,0.4,1.2,0.2,1.8l0,0c0,0.4-0.1,0.8-0.2,1.1c-0.1,0.5-0.3,0.9-0.5,1.3
					c-0.2,0.6-0.5,1.1-0.9,1.6l0,0c-0.4,0.7-0.9,1.4-1.4,2c-0.3,0.5-0.7,0.9-1.2,1.3c-0.2,0.2-0.3,0.4-0.5,0.5
					c-0.4,0.4-0.8,0.7-1.1,1.2c-0.1,0.2-0.2,0.3-0.1,0.5c0.1,0.1,0.1,0.2,0.2,0.4c-0.2,0-0.4-0.1-0.6-0.2l0,0l0,0l0,0
					c-0.6-0.2-1.1-0.4-1.7-0.5c-0.5-0.1-1,0-1.5,0.1c-0.4,0.2-0.8,0.6-1,1.1c-0.1,0.5-0.2,0.9-0.3,1.3l0,0c0,1.3-0.2,2.6-0.1,3.9
					c0,0.4,0.1,0.8,0.5,1c0.3,0,0.7,0,1-0.2c0.3-0.2,0.7-0.4,1.1-0.5c0.3-0.3,0.6-0.5,1-0.7l0,0l0,0c1.2-0.6,2.1-1.5,3.2-2.3
					c0.8-0.6,1.6-1.1,2.5-1.3c0.1-0.1,0.2-0.1,0.4-0.2c0.1-0.1,0.3-0.3,0.5-0.4l0,0c0.2-0.3,0.4-0.5,0.5-0.8c0-0.2,0.1-0.3,0.2-0.4
					c0.1-0.3,0.2-0.6,0.4-0.9c0.3-0.7,0.5-1.4,0.8-2c0.1-0.3,0.1-0.6,0.4-0.8l0,0l0,0c0-0.3,0-0.6,0.2-0.9c0-0.3,0.2-0.6,0.3-0.9
					c0.3-0.9,0.7-1.7,1.1-2.5l0,0c0.2-0.5,0.5-1,0.9-1.4c0.2-0.3,0.5-0.5,0.8-0.7c0.1-0.3,0.3-0.6,0.4-0.9l0,0l0,0
					c0-0.4,0.1-0.9,0.1-1.3l0,0l0,0c-0.1-0.6-0.2-1.1-0.3-1.7c-0.3-0.7-0.6-1.4-1-2c-0.1-0.2-0.2-0.4-0.1-0.6c0-0.2,0.2-0.4,0.4-0.4
					c0.5-0.2,1-0.2,1.6-0.2c0,0,0.1,0,0.1,0c0.5-0.1,1-0.1,1.5,0l0,0c0.9,0,1.6,0.4,2.5,0.6c0.5,0,1-0.1,1.4-0.2l0,0
					c0.6-0.3,1.2-0.4,1.8-0.3c0.2,0,0.4,0,0.6,0.2c0.2,0,0.3,0.1,0.4,0.1c0.2,0,0.3,0.1,0.5,0.2c0.7,0.3,1.3,0.5,1.9,0.9
					c0.5,0.1,0.9,0.4,1.3,0.6c0.6,0.2,1.2,0.5,1.7,0.8c0.2,0,0.3,0.2,0.5,0.3c0.4,0.2,0.8,0.4,1.1,0.7c0.4,0.2,0.8,0.5,1.3,0.6
					c0.5,0.1,0.9,0.2,1.4,0.3c0.4,0,0.6,0.2,0.8,0.5c0.2,0.3,0.3,0.6,0.4,0.9l0,0c0.2,0.7,0.5,1.3,0.9,1.8l0,0
					c0.1,0.1,0.1,0.1,0.2,0.2c0.5,0.4,1,0.7,1.5,1l0,0c0.5,0.1,1,0,1.5-0.1l0,0l0,0c0.6-0.1,1.2-0.5,1.8-0.5
					c0.1-0.2,0.4-0.2,0.6-0.3c0.6-0.2,1.2-0.6,1.8-0.7c0-0.1,0.1-0.2,0.2-0.2c0.2-0.1,0.3-0.2,0.5-0.3l0,0l0,0
					C202,83.9,202.4,83.7,202.3,83.3z"/>
			</g>
		</g>
		<g>
			<g>
				<path class="st1" d="M290.7,113.1c-0.2-0.2-0.3-0.4-0.5-0.6l0,0l0,0c-0.6-0.3-1.3-0.7-1.9-1c-0.6-0.3-1.2-0.8-1.4-1.5
					c-0.2-0.4-0.5-0.6-0.9-0.7c-0.6-0.1-1.1-0.1-1.7-0.2c-0.2,0-0.5,0-0.7-0.2c-0.3-0.1-0.7-0.2-0.9-0.5c-0.2,0-0.4-0.2-0.5-0.3l0,0
					l0,0l0,0c-0.4-0.5-0.9-0.9-1.5-1.2c-0.1,0-0.1,0-0.1-0.1c-0.7-0.2-1.4-0.5-2.2-0.6c-0.2-0.1-0.5,0-0.7-0.2l0,0
					c-0.8-0.1-1.6-0.2-2.3-0.5c-0.4,0-0.8-0.1-1.1-0.3c-0.2,0-0.4-0.1-0.6-0.2c-0.5-0.1-1-0.4-1.4-0.7l0,0c-1.1-0.6-2.1-1.3-3.3-1.7
					c-0.4-0.1-0.8-0.3-1.3-0.4l0,0c-0.6-0.1-1.3-0.2-1.9-0.4c0,0,0,0,0,0c-0.5,0-1-0.1-1.5-0.2c-0.6,0-1.1-0.1-1.6-0.2
					c-0.8-0.1-1.5-0.2-2.3-0.2l0,0c-0.3,0-0.6,0-0.8-0.1c-0.7-0.2-1.4-0.1-2-0.4c-0.1,0-0.3,0.1-0.4,0c-0.1,0-0.3,0-0.4-0.1
					c-0.3,0-0.5-0.1-0.8-0.2c-0.5-0.1-1-0.3-1.4-0.5l0,0l0,0c-0.7-0.2-1.3-0.5-2-0.7c-0.4-0.1-0.8-0.1-1.1-0.4l0,0
					c-0.3-0.2-0.4-0.4-0.4-0.8c-0.2-0.1-0.2-0.3-0.2-0.5c0-0.7-0.1-1.4-0.4-2.1c-0.1-0.3-0.3-0.5-0.4-0.8c-0.2-0.2-0.3-0.5-0.5-0.7
					l0,0l0,0c0,0-0.1-0.1-0.1-0.1l0,0c-0.1-0.1-0.1-0.2-0.2-0.2l0,0c-0.1-0.1-0.2-0.2-0.2-0.3c-0.3-0.3-0.6-0.6-0.7-1
					c-0.2-0.2-0.4-0.4-0.5-0.6c-0.2-0.2-0.4-0.5-0.5-0.8l0,0c-0.3-0.6-0.7-1.1-1-1.7c-0.4-0.6-0.8-1.3-0.9-2
					c-0.4-0.5-0.6-1.1-0.8-1.7c-0.1-0.2-0.2-0.4-0.2-0.7c-0.1-0.2-0.1-0.4-0.1-0.6l0,0c-0.1-0.6-0.2-1.3-0.2-1.9
					c-0.1-0.5-0.1-1-0.2-1.5c0-0.3-0.1-0.6-0.1-1c0-1.5-0.2-2.9,0.2-4.4c0-0.2,0.1-0.4,0.3-0.5c0.3-0.2,0.5-0.1,0.7,0
					c0.4,0.2,0.7,0.5,1.1,0.7c0.1,0,0.3,0.1,0.4,0.2c0.8,0.3,1.6,0.5,2.3,0.7c0.2,0.1,0.5,0,0.7,0.2l0,0c1.2,0.2,2.4,0.6,3.4,1.3
					l0,0c0.5,0.2,0.9,0.5,1.3,0.9c0.2,0.2,0.4,0.4,0.5,0.7c0.1,0.1,0.2,0.3,0.2,0.4c0,0.2,0.1,0.4,0,0.6c-0.5,0.8,0,1.2,0.7,1.3
					c1.3,0.3,2.6,0.2,3.9-0.2c0.5-0.2,1-0.4,1.5-0.4l0,0l0,0c0.9-0.2,1.5-0.7,1.8-1.7c0.1-0.4,0.3-0.7,0.5-1.1
					c0.3-0.6,0.4-1.3,0.1-1.9c-0.2-0.5-0.5-1-0.8-1.5c0,0,0,0,0,0c-0.2-0.4-0.4-0.7-0.6-1.1c-0.4-0.5-0.7-1.1-1-1.6l0,0l0,0
					c-0.2-0.1-0.3-0.3-0.3-0.5c0.1,0,0.1,0,0.1-0.1c0,0-0.1,0-0.1,0.1c-0.2-0.3-0.4-0.7-0.6-1l0,0l0,0c-0.3-0.4-0.6-0.8-0.8-1.2
					c-0.1-0.1-0.2-0.3-0.3-0.5l0,0l0,0c-0.8-1.1-1.5-2.2-2.3-3.4c-0.3-0.3-0.5-0.6-0.7-0.9l0,0c-0.2-0.2-0.4-0.5-0.5-0.7
					c-0.4-0.4-0.8-0.8-1-1.4l0,0c-0.1-0.1-0.1-0.2-0.1-0.3c-0.1-0.4-0.2-0.8-0.3-1.2c-0.2-0.7-0.7-1.2-1.1-1.8
					c-0.1-0.1-0.1-0.2-0.2-0.2c-0.3-0.3-0.6-0.7-1-1c-0.7-0.6-1-1.4-1-2.3l0,0c-0.2-0.3-0.4-0.3-0.7-0.1c-0.2,0.1-0.3,0.2-0.5,0.2
					c-0.6,0.2-1.2,0.2-1.7,0c-0.6-0.1-1.1-0.5-1.6-0.9c-0.2-0.2-0.5-0.4-0.7-0.5l0,0c-0.3-0.2-0.6-0.4-0.8-0.5
					c-0.5-0.3-1.2-0.5-1.3-1.2l0,0l0,0c-0.4-0.4-0.4-1.1-0.8-1.4c-0.1-0.1-0.2,0-0.3,0c0,0.3-0.1,0.5-0.1,0.8l0,0
					c0.1,0.4,0.1,0.8,0.1,1.2l0,0l0,0c0.1,0.2,0.1,0.4,0.1,0.6l0,0l0,0c0.2,0.8,0.4,1.5,0.5,2.3c0,0.3,0,0.6-0.1,0.9l0,0
					c0,0.1-0.1,0.2-0.2,0.3c-0.5,0.5-1.1,0.6-1.7,0.9c-0.4,0.2-0.7,0.4-1.1,0.5c-1,0.6-2.1,1.1-3.1,1.7c-0.3,0.2-0.7,0.4-1,0.6
					c-0.2,0.2-0.5,0.3-0.7,0.5c-0.4,0.4-1,0.6-1.5,1l0,0l0,0c-0.1,0.1-0.2,0.1-0.3,0.2c-0.3,0.3-0.7,0.6-1.1,0.9
					c-0.3,0.2-0.6,0.5-0.9,0.7c-0.4,0.4-0.7,0.7-1.1,1.1c-0.2,0.2-0.4,0.4-0.6,0.7c-0.2,0.4-0.5,0.7-0.7,1c-0.1,0.2-0.2,0.4-0.4,0.6
					c0,0.1-0.1,0.3-0.2,0.4c-0.1,0.1-0.1,0.3-0.2,0.4c-0.1,0.2-0.2,0.5-0.3,0.7c-0.1,0.6-0.2,1.1-0.4,1.7c-0.1,0.5-0.2,1-0.4,1.4
					c-0.1,0.4-0.3,0.7-0.5,1.1c-0.1,0.1-0.2,0.3-0.2,0.5c-0.7,1.3-1.6,2.4-2.9,3.2l0,0c-0.2,0.2-0.4,0.3-0.7,0.4
					c-0.3,0.2-0.7,0.4-0.5,0.8c0.1,0.4,0.5,0.5,0.9,0.6c0,0,0,0,0.1,0c0.3,0,0.3,0.2,0.2,0.4c-0.1,0.1-0.1,0.3-0.2,0.4
					c-0.4,0.9-0.8,1.7-1.4,2.5c-0.3,0.7-0.8,1.3-1.2,1.8c0,0.1-0.1,0.2-0.2,0.2l0,0c-0.3,0.5-0.7,0.9-1.1,1.3
					c-0.2,0.4-0.4,0.8-0.6,1.2l0,0c0,0.1-0.1,0.2-0.1,0.3c-0.2,0.6-0.5,1.2-0.7,1.8c-0.3,0.8-0.5,1.5-0.9,2.3l0,0
					c0,0.4-0.2,0.6-0.4,1c0,0.1-0.1,0.3-0.2,0.4c0,0.1-0.1,0.3-0.1,0.4c-0.1,0.2-0.1,0.4-0.3,0.6l0,0c-0.5,1.3-1.1,2.5-1.8,3.7
					c-0.1,0.3-0.2,0.5-0.4,0.8c-0.1,0.3-0.3,0.5-0.5,0.8c-0.3,0.5-0.6,1-1,1.4c-0.1,0.1-0.1,0.2-0.2,0.3c-0.1,0.2,0,0.3-0.2,0.5
					c0,0,2.5,8.3,5.5,12.8c5.7,8.6,9.8,11,9.8,11c0.1-0.1,0.3-0.2,0.4-0.3c0.1-0.1,0.3-0.3,0.5-0.3c1.2-0.8,2.5-1.7,3.7-2.5
					c0.1-0.2,0.3-0.2,0.4-0.3c0.4-0.3,0.8-0.6,1.2-0.9l0,0c0.2-0.2,0.4-0.4,0.7-0.5c0.2-0.2,0.5-0.4,0.7-0.6
					c0.3-0.2,0.6-0.5,0.9-0.7c0.1-0.1,0.3-0.2,0.4-0.3c0.2-0.3,0.5-0.5,0.8-0.6c0.1-0.1,0.3-0.2,0.4-0.3c0.2-0.2,0.5-0.4,0.7-0.5
					c0-0.1,0.1-0.2,0.2-0.2c0.4-0.4,0.9-0.8,1.4-1.2l0,0l0,0c0.4-0.5,0.9-0.9,1.4-1.3c0.1-0.1,0.2-0.3,0.3-0.3
					c0.2-0.2,0.4-0.4,0.6-0.6l0,0l0,0c0.3-0.3,0.5-0.6,0.9-0.7l0,0c0.7-0.5,1.5-0.5,2.3-0.3c0.4,0.1,0.8,0.1,1.2,0.2l0,0
					c0.3,0,0.6,0,0.8,0c0.8,0,1.5,0,2.3,0l0,0l0,0c0.9-0.1,1.9-0.2,2.8-0.4c0.2,0.1,0.3-0.2,0.4-0.1c0.6-0.2,1.3-0.3,2-0.2
					c0.5,0.1,0.9,0.2,1.1,0.7l0,0c0.3,0.6,0.4,1.2,0.2,1.8l0,0c0,0.4-0.1,0.8-0.2,1.1c-0.1,0.5-0.3,0.9-0.5,1.3
					c-0.2,0.6-0.5,1.1-0.9,1.6l0,0c-0.4,0.7-0.9,1.4-1.4,2c-0.3,0.5-0.7,0.9-1.2,1.3c-0.2,0.2-0.3,0.4-0.5,0.5
					c-0.4,0.4-0.8,0.7-1.1,1.2c-0.1,0.2-0.2,0.3-0.1,0.5c0.1,0.1,0.1,0.2,0.2,0.4c-0.2,0-0.4-0.1-0.6-0.2l0,0l0,0l0,0
					c-0.6-0.2-1.1-0.4-1.7-0.5c-0.5-0.1-1,0-1.5,0.1c-0.4,0.2-0.8,0.6-1,1.1c-0.1,0.5-0.2,0.9-0.3,1.3l0,0c0,1.3-0.2,2.6-0.1,3.9
					c0,0.4,0.1,0.8,0.5,1c0.3,0,0.7,0,1-0.2c0.3-0.2,0.7-0.4,1.1-0.5c0.3-0.3,0.6-0.5,1-0.7l0,0l0,0c1.2-0.6,2.1-1.5,3.2-2.3
					c0.8-0.6,1.6-1.1,2.5-1.3c0.1-0.1,0.2-0.1,0.4-0.2c0.1-0.1,0.3-0.3,0.5-0.4l0,0c0.2-0.3,0.4-0.5,0.5-0.8c0-0.2,0.1-0.3,0.2-0.4
					c0.1-0.3,0.2-0.6,0.4-0.9c0.3-0.7,0.5-1.4,0.8-2c0.1-0.3,0.1-0.6,0.4-0.8l0,0l0,0c0-0.3,0-0.6,0.2-0.9c0-0.3,0.2-0.6,0.3-0.9
					c0.3-0.9,0.7-1.7,1.1-2.5l0,0c0.2-0.5,0.5-1,0.9-1.4c0.2-0.3,0.5-0.5,0.8-0.7c0.1-0.3,0.3-0.6,0.4-0.9l0,0l0,0
					c0-0.4,0.1-0.9,0.1-1.3l0,0l0,0c-0.1-0.6-0.2-1.1-0.3-1.7c-0.3-0.7-0.6-1.4-1-2c-0.1-0.2-0.2-0.4-0.1-0.6c0-0.2,0.2-0.4,0.4-0.4
					c0.5-0.2,1-0.2,1.6-0.2c0,0,0.1,0,0.1,0c0.5-0.1,1-0.1,1.5,0l0,0c0.9,0,1.6,0.4,2.5,0.6c0.5,0,1-0.1,1.4-0.2l0,0
					c0.6-0.3,1.2-0.4,1.8-0.3c0.2,0,0.4,0,0.6,0.2c0.2,0,0.3,0.1,0.4,0.1c0.2,0,0.3,0.1,0.5,0.2c0.7,0.3,1.3,0.5,1.9,0.9
					c0.5,0.1,0.9,0.4,1.3,0.6c0.6,0.2,1.2,0.5,1.7,0.8c0.2,0,0.3,0.2,0.5,0.3c0.4,0.2,0.8,0.4,1.1,0.7c0.4,0.2,0.8,0.5,1.3,0.6
					c0.5,0.1,0.9,0.2,1.4,0.3c0.4,0,0.6,0.2,0.8,0.5c0.2,0.3,0.3,0.6,0.4,0.9l0,0c0.2,0.7,0.5,1.3,0.9,1.8l0,0
					c0.1,0.1,0.1,0.1,0.2,0.2c0.5,0.4,1,0.7,1.5,1l0,0c0.5,0.1,1,0,1.5-0.1l0,0l0,0c0.6-0.1,1.2-0.5,1.8-0.5
					c0.1-0.2,0.4-0.2,0.6-0.3c0.6-0.2,1.2-0.6,1.8-0.7c0-0.1,0.1-0.2,0.2-0.2c0.2-0.1,0.3-0.2,0.5-0.3l0,0l0,0
					C290.5,113.8,290.8,113.6,290.7,113.1z"/>
			</g>
		</g>
		<g>
			<g>
				<path class="st1" d="M319.1,202.2c-0.2-0.2-0.3-0.4-0.5-0.6l0,0l0,0c-0.6-0.3-1.3-0.7-1.9-1c-0.6-0.3-1.2-0.8-1.4-1.5
					c-0.2-0.4-0.5-0.6-0.9-0.7c-0.6-0.1-1.1-0.1-1.7-0.2c-0.2,0-0.5,0-0.7-0.2c-0.3-0.1-0.7-0.2-0.9-0.5c-0.2,0-0.4-0.2-0.5-0.3l0,0
					l0,0l0,0c-0.4-0.5-0.9-0.9-1.5-1.2c-0.1,0-0.1,0-0.1-0.1c-0.7-0.2-1.4-0.5-2.2-0.6c-0.2-0.1-0.5,0-0.7-0.2l0,0
					c-0.8-0.1-1.6-0.2-2.3-0.5c-0.4,0-0.8-0.1-1.1-0.3c-0.2,0-0.4-0.1-0.6-0.2c-0.5-0.1-1-0.4-1.4-0.7l0,0c-1.1-0.6-2.1-1.3-3.3-1.7
					c-0.4-0.1-0.8-0.3-1.3-0.4l0,0c-0.6-0.1-1.3-0.2-1.9-0.4c0,0,0,0,0,0c-0.5,0-1-0.1-1.5-0.2c-0.6,0-1.1-0.1-1.6-0.2
					c-0.8-0.1-1.5-0.2-2.3-0.2l0,0c-0.3,0-0.6,0-0.8-0.1c-0.7-0.2-1.4-0.1-2-0.4c-0.1,0-0.3,0.1-0.4,0c-0.1,0-0.3,0-0.4-0.1
					c-0.3,0-0.5-0.1-0.8-0.2c-0.5-0.1-1-0.3-1.4-0.5l0,0l0,0c-0.7-0.2-1.3-0.5-2-0.7c-0.4-0.1-0.8-0.1-1.1-0.4l0,0
					c-0.3-0.2-0.4-0.4-0.4-0.8c-0.2-0.1-0.2-0.3-0.2-0.5c0-0.7-0.1-1.4-0.4-2.1c-0.1-0.3-0.3-0.5-0.4-0.8c-0.2-0.2-0.3-0.5-0.5-0.7
					l0,0l0,0c0,0-0.1-0.1-0.1-0.1l0,0c-0.1-0.1-0.1-0.2-0.2-0.2l0,0c-0.1-0.1-0.2-0.2-0.2-0.3c-0.3-0.3-0.6-0.6-0.7-1
					c-0.2-0.2-0.4-0.4-0.5-0.6c-0.2-0.2-0.4-0.5-0.5-0.8l0,0c-0.3-0.6-0.7-1.1-1-1.7c-0.4-0.6-0.8-1.3-0.9-2
					c-0.4-0.5-0.6-1.1-0.8-1.7c-0.1-0.2-0.2-0.4-0.2-0.7c-0.1-0.2-0.1-0.4-0.1-0.6l0,0c-0.1-0.6-0.2-1.3-0.2-1.9
					c-0.1-0.5-0.1-1-0.2-1.5c0-0.3-0.1-0.6-0.1-1c0-1.5-0.2-2.9,0.2-4.4c0-0.2,0.1-0.4,0.3-0.5c0.3-0.2,0.5-0.1,0.7,0
					c0.4,0.2,0.7,0.5,1.1,0.7c0.1,0,0.3,0.1,0.4,0.2c0.8,0.3,1.6,0.5,2.3,0.7c0.2,0.1,0.5,0,0.7,0.2l0,0c1.2,0.2,2.4,0.6,3.4,1.3
					l0,0c0.5,0.2,0.9,0.5,1.3,0.9c0.2,0.2,0.4,0.4,0.5,0.7c0.1,0.1,0.2,0.3,0.2,0.4c0,0.2,0.1,0.4,0,0.6c-0.5,0.8,0,1.2,0.7,1.3
					c1.3,0.3,2.6,0.2,3.9-0.2c0.5-0.2,1-0.4,1.5-0.4l0,0l0,0c0.9-0.2,1.5-0.7,1.8-1.7c0.1-0.4,0.3-0.7,0.5-1.1
					c0.3-0.6,0.4-1.3,0.1-1.9c-0.2-0.5-0.5-1-0.8-1.5c0,0,0,0,0,0c-0.2-0.4-0.4-0.7-0.6-1.1c-0.4-0.5-0.7-1.1-1-1.6l0,0l0,0
					c-0.2-0.1-0.3-0.3-0.3-0.5c0.1,0,0.1,0,0.1-0.1c0,0-0.1,0-0.1,0.1c-0.2-0.3-0.4-0.7-0.6-1l0,0l0,0c-0.3-0.4-0.6-0.8-0.8-1.2
					c-0.1-0.1-0.2-0.3-0.3-0.5l0,0l0,0c-0.8-1.1-1.5-2.2-2.3-3.4c-0.3-0.3-0.5-0.6-0.7-0.9l0,0c-0.2-0.2-0.4-0.5-0.5-0.7
					c-0.4-0.4-0.8-0.8-1-1.4l0,0c-0.1-0.1-0.1-0.2-0.1-0.3c-0.1-0.4-0.2-0.8-0.3-1.2c-0.2-0.7-0.7-1.2-1.1-1.8
					c-0.1-0.1-0.1-0.2-0.2-0.2c-0.3-0.3-0.6-0.7-1-1c-0.7-0.6-1-1.4-1-2.3l0,0c-0.2-0.3-0.4-0.3-0.7-0.1c-0.2,0.1-0.3,0.2-0.5,0.2
					c-0.6,0.2-1.2,0.2-1.7,0c-0.6-0.1-1.1-0.5-1.6-0.9c-0.2-0.2-0.5-0.4-0.7-0.5l0,0c-0.3-0.2-0.6-0.4-0.8-0.5
					c-0.5-0.3-1.2-0.5-1.3-1.2l0,0l0,0c-0.4-0.4-0.4-1.1-0.8-1.4c-0.1-0.1-0.2,0-0.3,0c0,0.3-0.1,0.5-0.1,0.8l0,0
					c0.1,0.4,0.1,0.8,0.1,1.2l0,0l0,0c0.1,0.2,0.1,0.4,0.1,0.6l0,0l0,0c0.2,0.8,0.4,1.5,0.5,2.3c0,0.3,0,0.6-0.1,0.9l0,0
					c0,0.1-0.1,0.2-0.2,0.3c-0.5,0.5-1.1,0.6-1.7,0.9c-0.4,0.2-0.7,0.4-1.1,0.5c-1,0.6-2.1,1.1-3.1,1.7c-0.3,0.2-0.7,0.4-1,0.6
					c-0.2,0.2-0.5,0.3-0.7,0.5c-0.4,0.4-1,0.6-1.5,1l0,0l0,0c-0.1,0.1-0.2,0.1-0.3,0.2c-0.3,0.3-0.7,0.6-1.1,0.9
					c-0.3,0.2-0.6,0.5-0.9,0.7c-0.4,0.4-0.7,0.7-1.1,1.1c-0.2,0.2-0.4,0.4-0.6,0.7c-0.2,0.4-0.5,0.7-0.7,1c-0.1,0.2-0.2,0.4-0.4,0.6
					c0,0.1-0.1,0.3-0.2,0.4c-0.1,0.1-0.1,0.3-0.2,0.4c-0.1,0.2-0.2,0.5-0.3,0.7c-0.1,0.6-0.2,1.1-0.4,1.7c-0.1,0.5-0.2,1-0.4,1.4
					c-0.1,0.4-0.3,0.7-0.5,1.1c-0.1,0.1-0.2,0.3-0.2,0.5c-0.7,1.3-1.6,2.4-2.9,3.2l0,0c-0.2,0.2-0.4,0.3-0.7,0.4
					c-0.3,0.2-0.7,0.4-0.5,0.8c0.1,0.4,0.5,0.5,0.9,0.6c0,0,0,0,0.1,0c0.3,0,0.3,0.2,0.2,0.4c-0.1,0.1-0.1,0.3-0.2,0.4
					c-0.4,0.9-0.8,1.7-1.4,2.5c-0.3,0.7-0.8,1.3-1.2,1.8c0,0.1-0.1,0.2-0.2,0.2l0,0c-0.3,0.5-0.7,0.9-1.1,1.3
					c-0.2,0.4-0.4,0.8-0.6,1.2l0,0c0,0.1-0.1,0.2-0.1,0.3c-0.2,0.6-0.5,1.2-0.7,1.8c-0.3,0.8-0.5,1.5-0.9,2.3l0,0
					c0,0.4-0.2,0.6-0.4,1c0,0.1-0.1,0.3-0.2,0.4c0,0.1-0.1,0.3-0.1,0.4c-0.1,0.2-0.1,0.4-0.3,0.6l0,0c-0.5,1.3-1.1,2.5-1.8,3.7
					c-0.1,0.3-0.2,0.5-0.4,0.8c-0.1,0.3-0.3,0.5-0.5,0.8c-0.3,0.5-0.6,1-1,1.4c-0.1,0.1-0.1,0.2-0.2,0.3c-0.1,0.2,0,0.3-0.2,0.5
					c0,0,2.5,8.3,5.5,12.8c5.7,8.6,9.8,11,9.8,11c0.1-0.1,0.3-0.2,0.4-0.3c0.1-0.1,0.3-0.3,0.5-0.3c1.2-0.8,2.5-1.7,3.7-2.5
					c0.1-0.2,0.3-0.2,0.4-0.3c0.4-0.3,0.8-0.6,1.2-0.9l0,0c0.2-0.2,0.4-0.4,0.7-0.5c0.2-0.2,0.5-0.4,0.7-0.6
					c0.3-0.2,0.6-0.5,0.9-0.7c0.1-0.1,0.3-0.2,0.4-0.3c0.2-0.3,0.5-0.5,0.8-0.6c0.1-0.1,0.3-0.2,0.4-0.3c0.2-0.2,0.5-0.4,0.7-0.5
					c0-0.1,0.1-0.2,0.2-0.2c0.4-0.4,0.9-0.8,1.4-1.2l0,0l0,0c0.4-0.5,0.9-0.9,1.4-1.3c0.1-0.1,0.2-0.3,0.3-0.3
					c0.2-0.2,0.4-0.4,0.6-0.6l0,0l0,0c0.3-0.3,0.5-0.6,0.9-0.7l0,0c0.7-0.5,1.5-0.5,2.3-0.3c0.4,0.1,0.8,0.1,1.2,0.2l0,0
					c0.3,0,0.6,0,0.8,0c0.8,0,1.5,0,2.3,0l0,0l0,0c0.9-0.1,1.9-0.2,2.8-0.4c0.2,0.1,0.3-0.2,0.4-0.1c0.6-0.2,1.3-0.3,2-0.2
					c0.5,0.1,0.9,0.2,1.1,0.7l0,0c0.3,0.6,0.4,1.2,0.2,1.8l0,0c0,0.4-0.1,0.8-0.2,1.1c-0.1,0.5-0.3,0.9-0.5,1.3
					c-0.2,0.6-0.5,1.1-0.9,1.6l0,0c-0.4,0.7-0.9,1.4-1.4,2c-0.3,0.5-0.7,0.9-1.2,1.3c-0.2,0.2-0.3,0.4-0.5,0.5
					c-0.4,0.4-0.8,0.7-1.1,1.2c-0.1,0.2-0.2,0.3-0.1,0.5c0.1,0.1,0.1,0.2,0.2,0.4c-0.2,0-0.4-0.1-0.6-0.2l0,0l0,0l0,0
					c-0.6-0.2-1.1-0.4-1.7-0.5c-0.5-0.1-1,0-1.5,0.1c-0.4,0.2-0.8,0.6-1,1.1c-0.1,0.5-0.2,0.9-0.3,1.3l0,0c0,1.3-0.2,2.6-0.1,3.9
					c0,0.4,0.1,0.8,0.5,1c0.3,0,0.7,0,1-0.2c0.3-0.2,0.7-0.4,1.1-0.5c0.3-0.3,0.6-0.5,1-0.7l0,0l0,0c1.2-0.6,2.1-1.5,3.2-2.3
					c0.8-0.6,1.6-1.1,2.5-1.3c0.1-0.1,0.2-0.1,0.4-0.2c0.1-0.1,0.3-0.3,0.5-0.4l0,0c0.2-0.3,0.4-0.5,0.5-0.8c0-0.2,0.1-0.3,0.2-0.4
					c0.1-0.3,0.2-0.6,0.4-0.9c0.3-0.7,0.5-1.4,0.8-2c0.1-0.3,0.1-0.6,0.4-0.8l0,0l0,0c0-0.3,0-0.6,0.2-0.9c0-0.3,0.2-0.6,0.3-0.9
					c0.3-0.9,0.7-1.7,1.1-2.5l0,0c0.2-0.5,0.5-1,0.9-1.4c0.2-0.3,0.5-0.5,0.8-0.7c0.1-0.3,0.3-0.6,0.4-0.9l0,0l0,0
					c0-0.4,0.1-0.9,0.1-1.3l0,0l0,0c-0.1-0.6-0.2-1.1-0.3-1.7c-0.3-0.7-0.6-1.4-1-2c-0.1-0.2-0.2-0.4-0.1-0.6c0-0.2,0.2-0.4,0.4-0.4
					c0.5-0.2,1-0.2,1.6-0.2c0,0,0.1,0,0.1,0c0.5-0.1,1-0.1,1.5,0l0,0c0.9,0,1.6,0.4,2.5,0.6c0.5,0,1-0.1,1.4-0.2l0,0
					c0.6-0.3,1.2-0.4,1.8-0.3c0.2,0,0.4,0,0.6,0.2c0.2,0,0.3,0.1,0.4,0.1c0.2,0,0.3,0.1,0.5,0.2c0.7,0.3,1.3,0.5,1.9,0.9
					c0.5,0.1,0.9,0.4,1.3,0.6c0.6,0.2,1.2,0.5,1.7,0.8c0.2,0,0.3,0.2,0.5,0.3c0.4,0.2,0.8,0.4,1.1,0.7c0.4,0.2,0.8,0.5,1.3,0.6
					c0.5,0.1,0.9,0.2,1.4,0.3c0.4,0,0.6,0.2,0.8,0.5c0.2,0.3,0.3,0.6,0.4,0.9l0,0c0.2,0.7,0.5,1.3,0.9,1.8l0,0
					c0.1,0.1,0.1,0.1,0.2,0.2c0.5,0.4,1,0.7,1.5,1l0,0c0.5,0.1,1,0,1.5-0.1l0,0l0,0c0.6-0.1,1.2-0.5,1.8-0.5
					c0.1-0.2,0.4-0.2,0.6-0.3c0.6-0.2,1.2-0.6,1.8-0.7c0-0.1,0.1-0.2,0.2-0.2c0.2-0.1,0.3-0.2,0.5-0.3l0,0l0,0
					C318.8,202.8,319.2,202.6,319.1,202.2z"/>
			</g>
		</g>
		<g>
			<g>
				<path class="st1" d="M297.6,294.3c-0.2-0.2-0.3-0.4-0.5-0.6l0,0l0,0c-0.6-0.3-1.3-0.7-1.9-1c-0.6-0.3-1.2-0.8-1.4-1.5
					c-0.2-0.4-0.5-0.6-0.9-0.7c-0.6-0.1-1.1-0.1-1.7-0.2c-0.2,0-0.5,0-0.7-0.2c-0.3-0.1-0.7-0.2-0.9-0.5c-0.2,0-0.4-0.2-0.5-0.3l0,0
					l0,0l0,0c-0.4-0.5-0.9-0.9-1.5-1.2c-0.1,0-0.1,0-0.1-0.1c-0.7-0.2-1.4-0.5-2.2-0.6c-0.2-0.1-0.5,0-0.7-0.2l0,0
					c-0.8-0.1-1.6-0.2-2.3-0.5c-0.4,0-0.8-0.1-1.1-0.3c-0.2,0-0.4-0.1-0.6-0.2c-0.5-0.1-1-0.4-1.4-0.7l0,0c-1.1-0.6-2.1-1.3-3.3-1.7
					c-0.4-0.1-0.8-0.3-1.3-0.4l0,0c-0.6-0.1-1.3-0.2-1.9-0.4c0,0,0,0,0,0c-0.5,0-1-0.1-1.5-0.2c-0.6,0-1.1-0.1-1.6-0.2
					c-0.8-0.1-1.5-0.2-2.3-0.2l0,0c-0.3,0-0.6,0-0.8-0.1c-0.7-0.2-1.4-0.1-2-0.4c-0.1,0-0.3,0.1-0.4,0c-0.1,0-0.3,0-0.4-0.1
					c-0.3,0-0.5-0.1-0.8-0.2c-0.5-0.1-1-0.3-1.4-0.5l0,0l0,0c-0.7-0.2-1.3-0.5-2-0.7c-0.4-0.1-0.8-0.1-1.1-0.4l0,0
					c-0.3-0.2-0.4-0.4-0.4-0.8c-0.2-0.1-0.2-0.3-0.2-0.5c0-0.7-0.1-1.4-0.4-2.1c-0.1-0.3-0.3-0.5-0.4-0.8c-0.2-0.2-0.3-0.5-0.5-0.7
					l0,0l0,0c0,0-0.1-0.1-0.1-0.1l0,0c-0.1-0.1-0.1-0.2-0.2-0.2l0,0c-0.1-0.1-0.2-0.2-0.2-0.3c-0.3-0.3-0.6-0.6-0.7-1
					c-0.2-0.2-0.4-0.4-0.5-0.6c-0.2-0.2-0.4-0.5-0.5-0.8l0,0c-0.3-0.6-0.7-1.1-1-1.7c-0.4-0.6-0.8-1.3-0.9-2
					c-0.4-0.5-0.6-1.1-0.8-1.7c-0.1-0.2-0.2-0.4-0.2-0.7c-0.1-0.2-0.1-0.4-0.1-0.6l0,0c-0.1-0.6-0.2-1.3-0.2-1.9
					c-0.1-0.5-0.1-1-0.2-1.5c0-0.3-0.1-0.6-0.1-1c0-1.5-0.2-2.9,0.2-4.4c0-0.2,0.1-0.4,0.3-0.5c0.3-0.2,0.5-0.1,0.7,0
					c0.4,0.2,0.7,0.5,1.1,0.7c0.1,0,0.3,0.1,0.4,0.2c0.8,0.3,1.6,0.5,2.3,0.7c0.2,0.1,0.5,0,0.7,0.2l0,0c1.2,0.2,2.4,0.6,3.4,1.3
					l0,0c0.5,0.2,0.9,0.5,1.3,0.9c0.2,0.2,0.4,0.4,0.5,0.7c0.1,0.1,0.2,0.3,0.2,0.4c0,0.2,0.1,0.4,0,0.6c-0.5,0.8,0,1.2,0.7,1.3
					c1.3,0.3,2.6,0.2,3.9-0.2c0.5-0.2,1-0.4,1.5-0.4l0,0l0,0c0.9-0.2,1.5-0.7,1.8-1.7c0.1-0.4,0.3-0.7,0.5-1.1
					c0.3-0.6,0.4-1.3,0.1-1.9c-0.2-0.5-0.5-1-0.8-1.5c0,0,0,0,0,0c-0.2-0.4-0.4-0.7-0.6-1.1c-0.4-0.5-0.7-1.1-1-1.6l0,0l0,0
					c-0.2-0.1-0.3-0.3-0.3-0.5c0.1,0,0.1,0,0.1-0.1c0,0-0.1,0-0.1,0.1c-0.2-0.3-0.4-0.7-0.6-1l0,0l0,0c-0.3-0.4-0.6-0.8-0.8-1.2
					c-0.1-0.1-0.2-0.3-0.3-0.5l0,0l0,0c-0.8-1.1-1.5-2.2-2.3-3.4c-0.3-0.3-0.5-0.6-0.7-0.9l0,0c-0.2-0.2-0.4-0.5-0.5-0.7
					c-0.4-0.4-0.8-0.8-1-1.4l0,0c-0.1-0.1-0.1-0.2-0.1-0.3c-0.1-0.4-0.2-0.8-0.3-1.2c-0.2-0.7-0.7-1.2-1.1-1.8
					c-0.1-0.1-0.1-0.2-0.2-0.2c-0.3-0.3-0.6-0.7-1-1c-0.7-0.6-1-1.4-1-2.3l0,0c-0.2-0.3-0.4-0.3-0.7-0.1c-0.2,0.1-0.3,0.2-0.5,0.2
					c-0.6,0.2-1.2,0.2-1.7,0c-0.6-0.1-1.1-0.5-1.6-0.9c-0.2-0.2-0.5-0.4-0.7-0.5l0,0c-0.3-0.2-0.6-0.4-0.8-0.5
					c-0.5-0.3-1.2-0.5-1.3-1.2l0,0l0,0c-0.4-0.4-0.4-1.1-0.8-1.4c-0.1-0.1-0.2,0-0.3,0c0,0.3-0.1,0.5-0.1,0.8l0,0
					c0.1,0.4,0.1,0.8,0.1,1.2l0,0l0,0c0.1,0.2,0.1,0.4,0.1,0.6l0,0l0,0c0.2,0.8,0.4,1.5,0.5,2.3c0,0.3,0,0.6-0.1,0.9l0,0
					c0,0.1-0.1,0.2-0.2,0.3c-0.5,0.5-1.1,0.6-1.7,0.9c-0.4,0.2-0.7,0.4-1.1,0.5c-1,0.6-2.1,1.1-3.1,1.7c-0.3,0.2-0.7,0.4-1,0.6
					c-0.2,0.2-0.5,0.3-0.7,0.5c-0.4,0.4-1,0.6-1.5,1l0,0l0,0c-0.1,0.1-0.2,0.1-0.3,0.2c-0.3,0.3-0.7,0.6-1.1,0.9
					c-0.3,0.2-0.6,0.5-0.9,0.7c-0.4,0.4-0.7,0.7-1.1,1.1c-0.2,0.2-0.4,0.4-0.6,0.7c-0.2,0.4-0.5,0.7-0.7,1c-0.1,0.2-0.2,0.4-0.4,0.6
					c0,0.1-0.1,0.3-0.2,0.4c-0.1,0.1-0.1,0.3-0.2,0.4c-0.1,0.2-0.2,0.5-0.3,0.7c-0.1,0.6-0.2,1.1-0.4,1.7c-0.1,0.5-0.2,1-0.4,1.4
					c-0.1,0.4-0.3,0.7-0.5,1.1c-0.1,0.1-0.2,0.3-0.2,0.5c-0.7,1.3-1.6,2.4-2.9,3.2l0,0c-0.2,0.2-0.4,0.3-0.7,0.4
					c-0.3,0.2-0.7,0.4-0.5,0.8c0.1,0.4,0.5,0.5,0.9,0.6c0,0,0,0,0.1,0c0.3,0,0.3,0.2,0.2,0.4c-0.1,0.1-0.1,0.3-0.2,0.4
					c-0.4,0.9-0.8,1.7-1.4,2.5c-0.3,0.7-0.8,1.3-1.2,1.8c0,0.1-0.1,0.2-0.2,0.2l0,0c-0.3,0.5-0.7,0.9-1.1,1.3
					c-0.2,0.4-0.4,0.8-0.6,1.2l0,0c0,0.1-0.1,0.2-0.1,0.3c-0.2,0.6-0.5,1.2-0.7,1.8c-0.3,0.8-0.5,1.5-0.9,2.3l0,0
					c0,0.4-0.2,0.6-0.4,1c0,0.1-0.1,0.3-0.2,0.4c0,0.1-0.1,0.3-0.1,0.4c-0.1,0.2-0.1,0.4-0.3,0.6l0,0c-0.5,1.3-1.1,2.5-1.8,3.7
					c-0.1,0.3-0.2,0.5-0.4,0.8c-0.1,0.3-0.3,0.5-0.5,0.8c-0.3,0.5-0.6,1-1,1.4c-0.1,0.1-0.1,0.2-0.2,0.3c-0.1,0.2,0,0.3-0.2,0.5
					c0,0,2.5,8.3,5.5,12.8c5.7,8.6,9.8,11,9.8,11c0.1-0.1,0.3-0.2,0.4-0.3c0.1-0.1,0.3-0.3,0.5-0.3c1.2-0.8,2.5-1.7,3.7-2.5
					c0.1-0.2,0.3-0.2,0.4-0.3c0.4-0.3,0.8-0.6,1.2-0.9l0,0c0.2-0.2,0.4-0.4,0.7-0.5c0.2-0.2,0.5-0.4,0.7-0.6
					c0.3-0.2,0.6-0.5,0.9-0.7c0.1-0.1,0.3-0.2,0.4-0.3c0.2-0.3,0.5-0.5,0.8-0.6c0.1-0.1,0.3-0.2,0.4-0.3c0.2-0.2,0.5-0.4,0.7-0.5
					c0-0.1,0.1-0.2,0.2-0.2c0.4-0.4,0.9-0.8,1.4-1.2l0,0l0,0c0.4-0.5,0.9-0.9,1.4-1.3c0.1-0.1,0.2-0.3,0.3-0.3
					c0.2-0.2,0.4-0.4,0.6-0.6l0,0l0,0c0.3-0.3,0.5-0.6,0.9-0.7l0,0c0.7-0.5,1.5-0.5,2.3-0.3c0.4,0.1,0.8,0.1,1.2,0.2l0,0
					c0.3,0,0.6,0,0.8,0c0.8,0,1.5,0,2.3,0l0,0l0,0c0.9-0.1,1.9-0.2,2.8-0.4c0.2,0.1,0.3-0.2,0.4-0.1c0.6-0.2,1.3-0.3,2-0.2
					c0.5,0.1,0.9,0.2,1.1,0.7l0,0c0.3,0.6,0.4,1.2,0.2,1.8l0,0c0,0.4-0.1,0.8-0.2,1.1c-0.1,0.5-0.3,0.9-0.5,1.3
					c-0.2,0.6-0.5,1.1-0.9,1.6l0,0c-0.4,0.7-0.9,1.4-1.4,2c-0.3,0.5-0.7,0.9-1.2,1.3c-0.2,0.2-0.3,0.4-0.5,0.5
					c-0.4,0.4-0.8,0.7-1.1,1.2c-0.1,0.2-0.2,0.3-0.1,0.5c0.1,0.1,0.1,0.2,0.2,0.4c-0.2,0-0.4-0.1-0.6-0.2l0,0l0,0l0,0
					c-0.6-0.2-1.1-0.4-1.7-0.5c-0.5-0.1-1,0-1.5,0.1c-0.4,0.2-0.8,0.6-1,1.1c-0.1,0.5-0.2,0.9-0.3,1.3l0,0c0,1.3-0.2,2.6-0.1,3.9
					c0,0.4,0.1,0.8,0.5,1c0.3,0,0.7,0,1-0.2c0.3-0.2,0.7-0.4,1.1-0.5c0.3-0.3,0.6-0.5,1-0.7l0,0l0,0c1.2-0.6,2.1-1.5,3.2-2.3
					c0.8-0.6,1.6-1.1,2.5-1.3c0.1-0.1,0.2-0.1,0.4-0.2c0.1-0.1,0.3-0.3,0.5-0.4l0,0c0.2-0.3,0.4-0.5,0.5-0.8c0-0.2,0.1-0.3,0.2-0.4
					c0.1-0.3,0.2-0.6,0.4-0.9c0.3-0.7,0.5-1.4,0.8-2c0.1-0.3,0.1-0.6,0.4-0.8l0,0l0,0c0-0.3,0-0.6,0.2-0.9c0-0.3,0.2-0.6,0.3-0.9
					c0.3-0.9,0.7-1.7,1.1-2.5l0,0c0.2-0.5,0.5-1,0.9-1.4c0.2-0.3,0.5-0.5,0.8-0.7c0.1-0.3,0.3-0.6,0.4-0.9l0,0l0,0
					c0-0.4,0.1-0.9,0.1-1.3l0,0l0,0c-0.1-0.6-0.2-1.1-0.3-1.7c-0.3-0.7-0.6-1.4-1-2c-0.1-0.2-0.2-0.4-0.1-0.6c0-0.2,0.2-0.4,0.4-0.4
					c0.5-0.2,1-0.2,1.6-0.2c0,0,0.1,0,0.1,0c0.5-0.1,1-0.1,1.5,0l0,0c0.9,0,1.6,0.4,2.5,0.6c0.5,0,1-0.1,1.4-0.2l0,0
					c0.6-0.3,1.2-0.4,1.8-0.3c0.2,0,0.4,0,0.6,0.2c0.2,0,0.3,0.1,0.4,0.1c0.2,0,0.3,0.1,0.5,0.2c0.7,0.3,1.3,0.5,1.9,0.9
					c0.5,0.1,0.9,0.4,1.3,0.6c0.6,0.2,1.2,0.5,1.7,0.8c0.2,0,0.3,0.2,0.5,0.3c0.4,0.2,0.8,0.4,1.1,0.7c0.4,0.2,0.8,0.5,1.3,0.6
					c0.5,0.1,0.9,0.2,1.4,0.3c0.4,0,0.6,0.2,0.8,0.5c0.2,0.3,0.3,0.6,0.4,0.9l0,0c0.2,0.7,0.5,1.3,0.9,1.8l0,0
					c0.1,0.1,0.1,0.1,0.2,0.2c0.5,0.4,1,0.7,1.5,1l0,0c0.5,0.1,1,0,1.5-0.1l0,0l0,0c0.6-0.1,1.2-0.5,1.8-0.5
					c0.1-0.2,0.4-0.2,0.6-0.3c0.6-0.2,1.2-0.6,1.8-0.7c0-0.1,0.1-0.2,0.2-0.2c0.2-0.1,0.3-0.2,0.5-0.3l0,0l0,0
					C297.3,295,297.7,294.8,297.6,294.3z"/>
			</g>
		</g>
		<g>
			<path class="st2" d="M170.8,259.8c0,2.3,0,4.7,0,7c0,0.7-0.1,1-0.8,0.9c-3.9,0-7.7,0-11.6,0c-0.6,0-0.8-0.2-0.8-0.9
				c0-4.7,0-9.4,0-14.1c0-1.1-0.3-1.3-1.2-1.5c-6.9-1.1-13.4-3.6-19.5-7.5c-1.3-0.8-2.8-1.4-3.5-2.7c-0.6-1.2-0.2-2.9-0.2-4.4
				c0-3.1,0-6.2,0-9.3c0-0.6,0.1-0.8,0.7-0.8c4.3,0,8.6,0,12.9,0c0.6,0,0.7,0.2,0.7,0.8c0,2.6,0,5.3,0,7.9c0,0.6,0.2,0.9,0.6,1.2
				c3.3,2,6.8,3.1,10.4,3.8c4.6,0.9,9.2,1.1,13.8-0.1c5.5-1.4,9-5.6,9.6-11.2c0.8-6.7-1.4-11.7-6.5-15.3c-3.6-2.5-7.5-4.2-11.3-6
				c-6-2.7-12.1-5.4-17.7-9.1c-4.3-2.8-8-6.3-10.3-11.4c-3.2-7.2-3-19.3,3.3-26.3c3.4-3.8,7.5-6.2,12.1-7.7c1.8-0.6,3.5-1,5.4-1.2
				c0.6-0.1,0.8-0.3,0.8-1.1c0-4.8,0-9.7,0-14.5c0-0.7,0.1-1,0.8-0.9c3.9,0,7.7,0,11.6,0c0.7,0,0.8,0.2,0.8,0.9c0,4.8,0,9.5,0,14.3
				c0,0.7,0.1,0.9,0.8,1c8.1,1,15.5,3.9,22.1,9.2c0.5,0.4,0.7,0.8,0.7,1.4c0,4,0,8,0,12c0,0.6-0.1,0.8-0.7,0.8c-4.3,0-8.6,0-12.9,0
				c-0.6,0-0.7-0.2-0.7-0.8c0-2.4,0-4.9,0-7.3c0-0.8-0.3-1.1-0.8-1.5c-3.3-1.9-6.9-2.8-10.5-3.1c-4.2-0.4-8.4-0.3-12.5,1.1
				c-10.1,3.3-10.3,17.3-4.3,22.8c2.7,2.4,5.6,4.2,8.7,5.7c6.1,3,12.4,5.5,18.5,8.7c3,1.6,5.9,3.2,8.5,5.4
				c5.2,4.5,7.9,10.3,8.3,17.6c0.7,11.9-5.1,21.6-15.7,25.7c-2.7,1.1-5.5,1.7-8.4,2c-0.9,0.1-1.2,0.3-1.1,1.4
				C170.8,255.2,170.8,257.5,170.8,259.8z"/>
		</g>
		<g>
			<path class="st3" d="M181,259.8c0,2.3,0,4.7,0,7c0,0.7-0.1,1-0.8,0.9c-3.9,0-7.7,0-11.6,0c-0.6,0-0.8-0.2-0.8-0.9
				c0-4.7,0-9.4,0-14.1c0-1.1-0.3-1.3-1.2-1.5c-6.9-1.1-13.4-3.6-19.5-7.5c-1.3-0.8-2.8-1.4-3.5-2.7c-0.6-1.2-0.2-2.9-0.2-4.4
				c0-3.1,0-6.2,0-9.3c0-0.6,0.1-0.8,0.7-0.8c4.3,0,8.6,0,12.9,0c0.6,0,0.7,0.2,0.7,0.8c0,2.6,0,5.3,0,7.9c0,0.6,0.2,0.9,0.6,1.2
				c3.3,2,6.8,3.1,10.4,3.8c4.6,0.9,9.2,1.1,13.8-0.1c5.5-1.4,9-5.6,9.6-11.2c0.8-6.7-1.4-11.7-6.5-15.3c-3.6-2.5-7.5-4.2-11.3-6
				c-6-2.7-12.1-5.4-17.7-9.1c-4.3-2.8-8-6.3-10.3-11.4c-3.2-7.2-3-19.3,3.3-26.3c3.4-3.8,7.5-6.2,12.1-7.7c1.8-0.6,3.5-1,5.4-1.2
				c0.6-0.1,0.8-0.3,0.8-1.1c0-4.8,0-9.7,0-14.5c0-0.7,0.1-1,0.8-0.9c3.9,0,7.7,0,11.6,0c0.7,0,0.8,0.2,0.8,0.9c0,4.8,0,9.5,0,14.3
				c0,0.7,0.1,0.9,0.8,1c8.1,1,15.5,3.9,22.1,9.2c0.5,0.4,0.7,0.8,0.7,1.4c0,4,0,8,0,12c0,0.6-0.1,0.8-0.7,0.8c-4.3,0-8.6,0-12.9,0
				c-0.6,0-0.7-0.2-0.7-0.8c0-2.4,0-4.9,0-7.3c0-0.8-0.3-1.1-0.8-1.5c-3.3-1.9-6.9-2.8-10.5-3.1c-4.2-0.4-8.4-0.3-12.5,1.1
				c-10.1,3.3-10.3,17.3-4.3,22.8c2.7,2.4,5.6,4.2,8.7,5.7c6.1,3,12.4,5.5,18.5,8.7c3,1.6,5.9,3.2,8.5,5.4
				c5.2,4.5,7.9,10.3,8.3,17.6c0.7,11.9-5.1,21.6-15.7,25.7c-2.7,1.1-5.5,1.7-8.4,2c-0.9,0.1-1.2,0.3-1.1,1.4
				C181,255.2,181,257.5,181,259.8z"/>
		</g>
	</g>
</g>
</svg>
