<?xml version="1.0" encoding="utf-8"?>
<!-- Generator: Adobe Illustrator 24.1.2, SVG Export Plug-In . SVG Version: 6.00 Build 0)  -->
<svg version="1.1" xmlns="http://www.w3.org/2000/svg" xmlns:xlink="http://www.w3.org/1999/xlink" x="0px" y="0px"
	 viewBox="0 0 333.8 333.8" style="enable-background:new 0 0 333.8 333.8;" xml:space="preserve">
<style type="text/css">
	.st0{fill:#2E2E2F;}
	.st1{fill:#B2A571;stroke:#606060;stroke-width:3;stroke-miterlimit:10;}
	.st2{fill:#F3F3F3;}
	.st3{fill:#B2A571;stroke:#2E2E2F;stroke-width:3;stroke-miterlimit:10;}
	.st4{fill:#B2A571;}
	.st5{fill:none;stroke:#2E2E2F;stroke-width:3;stroke-miterlimit:10;}
</style>
<g id="Camada_1">
</g>
<g id="Camada_2">
	<g>
		<g>
			<path class="st0" d="M303.2,245.6c0,22.7,0,45.4,0,68.2c0,3.5-0.8,6.7-3.3,9.3c-3.3,3.4-8.4,4.4-13.2,2.5
				c-12.8-5-26-8.9-39.6-11.1c-13.7-2.3-27.4-2.9-41.1-1c-2.3,0.3-4.1,1.4-5.6,3c-16.9,18.3-47.1,18.2-64.2-0.1
				c-1.5-1.6-3.1-2.6-5.4-2.9c-12.4-1.7-24.8-1.3-37.2,0.4c-15.1,2.1-29.7,6.3-43.9,11.8c-7.9,3.1-15.6-1.7-16.3-10
				c-0.1-0.9,0-1.9,0-2.8c0-44.6,0-89.2,0-133.8c0-9.6,3.3-14.1,12.7-17.2c4.5-1.5,9.2-2.4,14-2.9c1.7-0.2,2.5-0.5,2.7-2.4
				c0.9-5.5,4.3-8.7,9.9-9.8c10.3-2,20.7-3.2,31.3-3.6c21.2-0.9,42,1.4,62.4,7.1c1.3,0.4,2.6,0.3,3.9,0c16.8-4.8,34-7.1,51.5-7.3
				c14.3-0.2,28.5,1,42.4,4c5.4,1.1,8.6,4.4,9.5,9.6c0.3,1.9,1.1,2.3,2.9,2.5c5.1,0.5,10,1.6,14.8,3.2c8.3,2.9,11.7,7.6,11.7,16.2
				C303.3,200.8,303.2,223.2,303.2,245.6z"/>
			<path class="st1" d="M273.5,285.2c0.7-1.2,0.4-2.5,0.4-3.8c0-36.6,0-73.1,0-109.7c0-2.6,0.6-3.4,3.3-2.9c4.1,0.7,8.1,1.5,11.9,3
				c1.9,0.7,3.3,1.8,3.9,3.8c0.2,0.3,0.3,0.7,0.3,1c-0.1,44.7,0,89.5,0,134.2c0,1.5,0.1,3-0.1,4.5c0,0.2-0.1,0.4-0.1,0.5
				c-0.9,1.5-2.1,0.9-3.2,0.4c-15.4-6.1-31.3-10.3-47.8-12.4c-12.4-1.6-24.8-1.8-37.2-0.2c-4.5,0.6-8.5,2.3-11.4,5.8
				c-12.5,14.5-37.8,14.5-50.2-0.1c-2.7-3.2-6.4-5-10.6-5.6c-9.5-1.2-19-1.8-28.6-0.8c-1.6,0.5-3.2-0.1-4.8,0.4
				c-14.8,1.1-29,4.7-42.9,9.4c-3.3,1.1-6.5,2.3-9.7,3.5c-1.2,0.4-2.2,0.7-3-0.5c0-0.2-0.1-0.4-0.1-0.5c-0.2-1.5-0.1-3-0.1-4.5
				c0-44.7,0-89.5,0-134.2c0-0.4,0.1-0.7,0.3-1c0.5-1.6,1.5-2.8,3.1-3.4c4.5-1.8,9.2-2.9,14.1-3.4c1.5-0.1,1.9,0.3,1.8,1.6
				c-0.1,0.6,0,1.3,0,2c0,36.4,0,72.7,0,109.1c0,1.3-0.3,2.6,0.4,3.8c0.2,0,0.3,0.1,0.3,0.2c-0.1,0.1-0.1,0.2-0.2,0.2
				c1,3.7,3.5,6,7.5,6.7c0.2-0.2,0.4-0.2,0.6-0.1c0.2,0.1,0.4,0.2,0.6,0.3c0.7,0.2,1.4,0.2,2,0c0.2-0.1,0.4-0.2,0.6-0.3
				c0.2-0.1,0.5-0.1,0.7,0.1c9.2-2.3,18.4-4.2,27.8-5.1c21-1.9,41.6,0,61.7,6.6c2.3,0.7,4.3,1,6.7,0.2c29-9.5,58.3-9.8,87.8-2.2
				c0.9,0.2,1.9,0.4,2.8,0.5c0.1,0,0.2,0.1,0.3,0.1c0.2,0.1,0.5,0.1,0.7,0.2c0.6,0,1.2,0.1,1.7-0.1c0.2-0.1,0.4-0.2,0.6-0.3
				c0.2-0.1,0.4,0,0.6,0.2c3.9-0.7,6.4-2.9,7.5-6.7c-0.2-0.1-0.2-0.2-0.1-0.3C273.4,285.2,273.4,285.2,273.5,285.2z"/>
			<path class="st2" d="M263.7,281.1c0.2,2.3-1.5,1.1-2.3,1c-5.1-1.2-10.2-2.6-15.5-3.1c-0.4,0.2-0.7,0.3-1-0.1
				c-1.4-0.3-2.8-0.7-4.3-1c-0.3-0.7-0.7-0.2-1.1-0.1c-0.4,0-0.8,0-1.2,0c-1.2-0.5-2.3-0.2-3.3,0.2c-0.3,0.1-0.5,0-0.7-0.2
				c-3.5-1.3-7.3-0.7-10.9-1.2c-0.2-0.1-0.4-0.3-0.6-0.4c-3,0.2-6.1,0.2-9.1,0c-0.2,0.1-0.5,0.2-0.7,0.4c-4.3,0.3-8.6,0.3-12.8,1.1
				c-0.5,0.6-1,0.4-1.5,0.2c-0.4,0-0.8-0.1-1.2-0.1c-0.4-0.3-0.9-0.2-1.3-0.2c-0.3,0-0.6-0.1-0.2,0.4c-7.5,1.5-15,2.7-22.3,4.9
				c-0.6-1.1-0.4-2.2-0.4-3.2c0-39.1,0-78.2-0.1-117.2c0-2.4,0.7-3.3,3.1-3.9c6.6-1.7,13.4-2.7,20.1-4.2c0.3-0.4,0.7-0.4,1-0.1
				c1,0,2.1,0.1,3-0.4c0.3-0.4,0.7-0.4,1-0.1c10-0.8,20-1.5,30.1-1c5.5,0.3,11.1,0.4,16.5,1.5c0.3,0.7,0.7,0.2,1.1,0.1
				c0.6,0,1.2-0.1,1.7-0.1c0.4-0.3,0.7-0.3,1,0.1c3,0.6,6,1.1,9,1.7c1,0.2,2.4,0,2.7,1.6c-0.5,1-0.3,2-0.3,3c0,21.3,0,42.7,0,64
				c0,17.8,0,35.6,0,53.5C263.4,279.1,263.2,280.2,263.7,281.1z"/>
			<path class="st2" d="M112.6,276.6c-4.3,0.3-8.5,0.3-12.8,1.1c-0.3,0.4-0.6,0.4-1,0.1c-1.2-0.1-2.4-0.1-3.6,0.5
				c-0.3,0.4-0.7,0.4-1,0.1c-6.8,0.9-13.5,2.2-20.1,4c-0.1-0.1-0.3-0.2-0.4-0.4c-0.2-0.3-0.3-0.7-0.4-1c-0.2-7.6-0.1-15.3-0.1-22.9
				c0-31.3,0-62.6,0-93.8c0-1.7,0.1-3.4-0.2-5c-0.1-0.3-0.1-0.7-0.2-1c0-0.2,0-0.3-0.1-0.5c0.5-1.4,1.9-1.3,3-1.6
				c2.9-0.6,5.9-1.1,8.8-1.7c0.4-0.6,1-0.4,1.5-0.2c0.4,0,0.8,0.1,1.2,0.1c0.4,0.1,0.8,0.6,1-0.1c8.4-1.4,16.9-1.7,25.4-1.6
				c5.8,0,11.6,0.1,17.4,1c-0.1,0.2-0.2,0.3-0.4,0.3c-0.2,0-0.5,0-0.5,0c-0.1,0.3,0.1,0.5-0.1,0.2c0-0.1,0-0.2,0.1-0.2
				c0.6-0.1,1.2,0.2,1.8-0.3c1,0,1.9,0,2.9,0c0.4-0.3,0.7-0.3,1,0.1c0.9,0.6,2,0.5,3,0.4c0.4-0.3,0.7-0.3,1,0.1c0.9,0.5,2,0.5,3,0.5
				c0.4-0.3,0.7-0.4,0.9,0.1c5.7,1.3,11.3,2.6,17,3.8c1.4,0.3,2.3,0.8,2.3,2.5c-0.1,40.2-0.1,80.4-0.1,120.6c0,0.2-0.1,0.4-0.2,0.9
				c-7.4-2.1-14.9-3.5-22.4-4.9c-0.1,0.4-0.1-0.5,0.1-0.2c0.2,0.3,0.5,0,0.2-0.1c-0.6-0.1-1.2-0.2-1.8,0.2c-0.4,0-0.8,0.1-1.2,0.1
				c-0.5,0.2-1.1,0.4-1.5-0.2c-4-0.8-8.1-0.8-12.2-1.1c-0.2-0.2-0.4-0.3-0.6-0.4c-3.4,0.1-6.8,0.3-10.2,0
				C113,276.3,112.8,276.4,112.6,276.6z"/>
			<path class="st0" d="M236.7,207.4c2.8-0.1,5.5,0.8,8.3,1.2c0.8,0.5,1.6,0.5,2.4,0c1.6-0.5,3-1.3,3.4-2.9
				c-0.1-1.1,0.7-2.2,0.1-3.3c-0.5-2.1-2.1-2.9-4.1-3.4c-5.6-1.4-11.4-1.9-17.1-2.3c-0.6-0.2-1.2-0.5-1.8-0.4
				c-2.2,0.3-4.3,0.3-6.5,0c-0.6,0-1.2,0.2-1.8,0.4c-8.1,0.5-16.1,1.6-24,3.8c-2.1,0.6-3.8,1.5-4.5,3.6c0,0.1,0,0.2-0.1,0.3
				c-0.2,0.7-0.2,1.4,0,2.1c0,0.1,0,0.2,0.1,0.3c1.7,3.2,3.6,4,7.1,3.2c4.7-1.2,9.4-2.4,14.3-2.6c0.4,0.3,0.7,0.4,1-0.1
				c7.4-1.1,14.8-1,22.2,0C235.9,207.8,236.3,207.7,236.7,207.4z"/>
			<path class="st0" d="M191,261.6c0.6,1.7,1.6,3.1,3.7,3.3c1,0.6,1.9-0.1,2.9,0c5.1-1.1,10.2-2.4,15.4-2.6c0.1-0.1,0.2-0.1,0.3-0.2
				c1.1-0.4,2.2-0.1,3.3,0c0.4-0.1,0.8-0.2,1.1-0.4c0.2,0,0.4,0,0.6,0c4.1,0.3,8.3,0.4,12.4,0c0.6,0,1.2-0.1,1.8-0.1
				c1.1-0.5,2.2-0.1,3-0.2c-0.2-0.1-0.6-0.1-0.9,0.4c3.2,0.6,6.4,1.1,9.6,1.7c0.1,0,0.3,0,0.4,0.1c0.9,0.2,1.9,0.2,2.8,0
				c0.1,0,0.3-0.1,0.4-0.1c1.5-0.5,2.5-1.4,3-2.8c0-0.1,0.1-0.2,0.1-0.4c0.2-0.9,0.2-1.8,0-2.6c0-0.1,0-0.2-0.1-0.4
				c-1.3-3.3-4.5-3.5-7.4-3.9c-1.3-0.2-2.6-0.4-3.9-0.6c-0.4,0.3-0.9,0.2-1.3,0.3c0.1-0.2,0.1-0.3,0.3-0.4
				c-9.2-1.6-18.4-1.3-27.6-0.2c-5.3,0.6-10.5,1.7-15.6,3c-2,0.5-3.6,1.5-4.3,3.4c0,0.1,0,0.2-0.1,0.3c-0.2,0.7-0.2,1.4,0,2.1
				C191,261.4,191,261.5,191,261.6z"/>
			<path class="st0" d="M250.9,229.8c-0.6-1.8-2.1-2.9-4-3.3c-2.2-0.5-4.5-0.8-6.8-1.1c-0.5,0.1-1.1,0.7-1.5-0.2
				c-9.4-1.5-18.8-1.5-28.2,0c-0.4,0.5-0.4,0.5-1.5,0.2c-5,0.4-9.7,1.6-14.5,2.9c-1.7,0.5-2.8,1.6-3.3,3.2c0,0.1,0,0.2-0.1,0.3
				c-0.2,0.7-0.2,1.4,0,2.1c0,0.1,0,0.2,0.1,0.3c1.7,3.3,3.6,4.1,7.3,3.2c4.6-1.1,9.2-2.4,14.1-2.5c0.2,0.1,0.4,0.2,0.7,0.1
				c0.8-0.2,1.3-1.1,2.3-0.8c1,0,2,0.1,3,0.1c4.1,0.4,8.3,0.4,12.4,0c1,0,2-0.1,3-0.1c1.1-0.6,1.9,0.5,2.9,0.5
				c2.6,0.4,5.1,0.9,7.7,1.3c0.1,0,0.2,0,0.4,0.1c0.7,0.2,1.5,0.2,2.2,0.1c0.1,0,0.2,0,0.4,0c1.7-0.4,2.9-1.4,3.6-2.9
				c0-0.1,0.1-0.2,0.1-0.4c0.2-0.9,0.2-1.7,0-2.6C251,230,251,229.9,250.9,229.8z"/>
			<path class="st0" d="M191.1,179.5c1.1,2.8,3.3,3.9,6.3,3.3c3.9-0.8,7.8-1.8,11.7-2.7c0.3-0.7,0.7-0.2,1.1-0.1
				c9.4-1,18.8-1.4,28.1,0c2.2,0.3,4.4,0.8,6.6,1.2c2.7,0.4,4.8-0.3,5.9-2.9c0-1.1,0.7-2.2,0.1-3.3c-0.3-1.9-1.8-2.8-3.5-3.3
				c-2.1-0.5-4.3-1.2-6.6-1.1c-0.3,0.3-0.8,0.1-1.2,0.4c0-0.2,0.1-0.3,0.2-0.5c-1.9-0.3-3.7-0.6-5.6-1c-0.1-0.3-0.3-0.3-0.5-0.1
				c-1.2,0-2.3-0.1-3.5-0.1c-0.4-0.3-0.8-0.4-1.3-0.4c-2.9,0.3-5.7,0.3-8.6,0c-0.5,0-0.9,0.1-1.3,0.4c-1,0-2,0-2.9,0
				c-0.4-0.3-0.7-0.3-1,0.1c-1.9,0.3-3.8,0.6-5.6,1c0.1,0.1,0.2,0.3,0.2,0.5c-0.4-0.2-0.9-0.1-1.2-0.3c-4.8,0.3-9.4,1.6-14,2.8
				c-1.7,0.5-2.8,1.6-3.3,3.3c0,0.1,0,0.2-0.1,0.3c-0.2,0.7-0.2,1.4,0,2.1C191,179.2,191,179.4,191.1,179.5z"/>
			<path class="st0" d="M102.3,207.4c-2.8-0.1-5.4,0.8-8,1.2c-0.8,0.5-1.5,0.5-2.3,0c-1.6-0.5-2.9-1.3-3.4-2.9
				c0.1-1.1-0.7-2.2-0.1-3.3c0.4-2.1,2.1-2.9,4-3.4c5.5-1.4,11.1-1.9,16.7-2.3c0.6-0.2,1.1-0.5,1.8-0.4c2.1,0.3,4.2,0.3,6.3,0
				c0.6,0,1.2,0.2,1.8,0.4c7.9,0.5,15.7,1.6,23.3,3.8c2.1,0.6,3.7,1.5,4.3,3.6c0,0.1,0,0.2,0.1,0.3c0.2,0.7,0.2,1.4,0,2.1
				c0,0.1,0,0.2-0.1,0.3c-1.6,3.2-3.5,4-6.9,3.2c-4.6-1.2-9.2-2.4-13.9-2.6c-0.4,0.3-0.7,0.4-1-0.1c-7.2-1.1-14.4-1-21.6,0
				C103,207.8,102.6,207.7,102.3,207.4z"/>
			<path class="st0" d="M146.7,261.6c-0.6,1.7-1.6,3.1-3.6,3.3c-0.9,0.6-1.9-0.1-2.8,0c-5-1.1-9.9-2.4-15-2.6
				c-0.1-0.1-0.2-0.1-0.3-0.2c-1.1-0.4-2.2-0.1-3.2,0c-0.4-0.1-0.8-0.2-1.1-0.4c-0.2,0-0.4,0-0.6,0c-4,0.3-8,0.4-12.1,0
				c-0.6,0-1.2-0.1-1.8-0.1c-1.1-0.5-2.1-0.1-3-0.2c0.2-0.1,0.6-0.1,0.9,0.4c-3.1,0.6-6.3,1.1-9.4,1.7c-0.1,0-0.3,0-0.4,0.1
				c-0.9,0.2-1.8,0.2-2.7,0c-0.1,0-0.3-0.1-0.4-0.1c-1.4-0.5-2.4-1.4-2.9-2.8c0-0.1-0.1-0.2-0.1-0.4c-0.2-0.9-0.2-1.8,0-2.6
				c0-0.1,0-0.2,0.1-0.4c1.2-3.3,4.4-3.5,7.2-3.9c1.3-0.2,2.5-0.4,3.8-0.6c0.4,0.3,0.9,0.2,1.3,0.3c0-0.2-0.1-0.3-0.3-0.4
				c8.9-1.6,17.9-1.3,26.9-0.2c5.1,0.6,10.2,1.7,15.2,3c2,0.5,3.5,1.5,4.2,3.4c0,0.1,0,0.2,0.1,0.3c0.2,0.7,0.2,1.4,0,2.1
				C146.7,261.4,146.7,261.5,146.7,261.6z"/>
			<path class="st0" d="M88.3,229.8c0.6-1.8,2-2.9,3.9-3.3c2.2-0.5,4.4-0.8,6.6-1.1c0.5,0.1,1.1,0.7,1.5-0.2
				c9.2-1.5,18.3-1.5,27.5,0c0.4,0.5,0.4,0.5,1.5,0.2c4.8,0.4,9.5,1.6,14.1,2.9c1.6,0.5,2.7,1.6,3.3,3.2c0,0.1,0,0.2,0.1,0.3
				c0.2,0.7,0.2,1.4,0,2.1c0,0.1,0,0.2-0.1,0.3c-1.7,3.3-3.5,4.1-7.1,3.2c-4.5-1.1-9-2.4-13.7-2.5c-0.2,0.1-0.4,0.2-0.6,0.1
				c-0.7-0.2-1.3-1.1-2.2-0.8c-1,0-1.9,0.1-2.9,0.1c-4,0.4-8,0.4-12.1,0c-1,0-1.9-0.1-2.9-0.1c-1.1-0.6-1.9,0.5-2.8,0.5
				c-2.5,0.4-5,0.9-7.5,1.3c-0.1,0-0.2,0-0.4,0.1c-0.7,0.2-1.4,0.2-2.2,0.1c-0.1,0-0.2,0-0.4,0c-1.7-0.4-2.8-1.4-3.5-2.9
				c0-0.1-0.1-0.2-0.1-0.4c-0.2-0.9-0.2-1.7,0-2.6C88.3,230,88.3,229.9,88.3,229.8z"/>
			<path class="st0" d="M146.6,179.5c-1.1,2.8-3.2,3.9-6.1,3.3c-3.8-0.8-7.6-1.8-11.3-2.7c-0.3-0.7-0.7-0.2-1-0.1
				c-9.1-1-18.3-1.4-27.4,0c-2.2,0.3-4.3,0.8-6.5,1.2c-2.6,0.4-4.7-0.3-5.8-2.9c0-1.1-0.7-2.2-0.1-3.3c0.3-1.9,1.7-2.8,3.4-3.3
				c2.1-0.5,4.2-1.2,6.4-1.1c0.3,0.3,0.8,0.1,1.2,0.4c0-0.2-0.1-0.3-0.2-0.5c1.8-0.3,3.6-0.6,5.5-1c0.1-0.3,0.3-0.3,0.5-0.1
				c1.1,0,2.3-0.1,3.4-0.1c0.4-0.3,0.8-0.4,1.3-0.4c2.8,0.3,5.6,0.3,8.4,0c0.5,0,0.9,0.1,1.3,0.4c1,0,1.9,0,2.9,0
				c0.4-0.3,0.7-0.3,1,0.1c1.8,0.3,3.7,0.6,5.5,1c-0.1,0.1-0.2,0.3-0.2,0.5c0.4-0.2,0.8-0.1,1.2-0.3c4.7,0.3,9.1,1.6,13.6,2.8
				c1.6,0.5,2.7,1.6,3.2,3.3c0,0.1,0,0.2,0.1,0.3c0.2,0.7,0.2,1.4,0,2.1C146.7,179.2,146.6,179.4,146.6,179.5z"/>
		</g>
	</g>
	<g>
		<g>
			<path class="st3" d="M168.1,218.7c4.9-9,9.5-17.3,14-25.7c21.3-39.1,42.5-78.1,63.8-117.2c1.7-3.2,3.5-6.3,5.1-9.5
				c0.6-1.2,1.2-1.5,2.6-0.8c2,1,4.1,1.9,6.2,2.6c2.3,0.8,2.4,1.8,1.4,3.7c-10,18.3-20,36.5-29.9,54.8
				c-15.2,27.8-30.3,55.7-45.5,83.5c-5.8,10.6-11.6,21.2-17.7,32.4c-1-1.7-1.7-2.9-2.4-4.2c-19.8-36.3-39.5-72.6-59.3-109
				C96.2,110.7,86,92,75.8,73.3c-2.2-4-2.2-4,2.5-6c0.9-0.4,2-0.7,2.8-1.2c2.6-1.8,3.6-0.7,4.8,1.6c23.3,42.9,46.6,85.8,70,128.7
				C159.9,203.6,163.8,210.8,168.1,218.7z"/>
			<g>
				<g>
					<path class="st4" d="M203.6,48.8c-0.8-1.8-0.6-3.6-0.6-5.5c0-3,0.2-5.9,0.1-8.9c-0.3-7.4-5.9-12.6-14.2-12.4
						c-4.6,0.1-8.2-0.7-11.9-3.3c-2.5-1.8-3.9-3.1-3.7-6c0.2-2.7-1.1-5.3-3.9-6.9c-2.4-1.4-5.1-1.6-7.7-0.4c-3.2,1.4-4.9,3.9-4.6,7
						c0.2,2.6-0.8,3.7-3.6,3.9c-0.4,0-0.8,0.2-1.2,0.3c-19.4,4.1-23.5,21.3-17.8,32.8c4.1,8.1,10.7,13.3,20.3,15.3
						c3.2,0.7,4.2,1.9,4.2,4.8c0.1,10.7,0.6,21.4,1.1,32.1c0.1,1.8-0.4,2.9-2.2,3.8c-2.1,1.1-3.6,2.7-4.7,4.7
						c-6.5,10.7-5.2,22.1,3.6,31.4c1,1.1,1.9,2.2,3,3.2c1.3,1.2,1.8,2.5,1.8,4.2c0.3,12.1,0.8,24.2,1.1,36.3c0,1.7,0.5,2.4,2.6,2.4
						c2.1,0.1,2.3-0.8,2.4-2.3c0.1-0.9-0.7-2.1,1-2.8c10.5-4.3,17-14.9,15.4-25.1c-1.2-7.7-5.7-14.2-10.6-20.5
						c-3-3.8-4.3-7.6-4-12.3c0.2-3.1,1.3-4.9,4.3-6.4c7.8-3.8,13.3-9.6,17.7-16.3c7.6-11.8,6.6-25.5-2.7-35.5
						c-4-4.3-9.1-7.5-14.5-10.4c-1.4-0.8-2.3-1.5-2.2-3.2c0.1-7.5,0.1-15,0.1-23c4.8,1.7,7.1,3.7,7.9,7.5
						c1.5,7.2,7.7,12.1,12.3,17.7c0.1,0.1,0.2,0.1,0.2,0.2c0.6,0.4,1.4,0.7,2,0.3c0.6-0.4,0.1-1-0.1-1.5c-0.5-1.7-1.2-3.3-1.7-5
						c-0.3-1.1-0.3-2.2,1.1-2.9c1.5-0.7,2.6-0.3,3.6,0.7c1.2,1.2,2.2,2.4,3.4,3.6c0.6,0.7,1.2,1.8,2.5,1.2
						C204.4,50.7,204,49.7,203.6,48.8z M156.1,48.8c-8.9-3-10.5-8-4.1-18c1.1-1.7,2.9-3.7,4.9-3.3c1.6,0.4,0.6,2.9,0.8,4.5
						c0.2,2.1,0,4.2,0,6.3c0.2,0,0.3,0,0.5,0c0,3-0.1,6.1,0,9.1C158.3,49.2,157.8,49.4,156.1,48.8z M168.1,173.6
						c-0.1-0.3-0.2-0.6-0.2-0.8c0-5.5,0-11,0-17.1C171.6,159.1,171.4,168.5,168.1,173.6z M171.3,97.3c0-8.5,0-16.9,0-25.6
						C183.9,81,182.4,90.1,171.3,97.3z M199.9,40.5c-1.5,0.1-2-1.4-2.1-2.6c0-1.2,0.2-2.7,1.7-2.8c1.7-0.2,1.8,1.4,1.9,2
						C201.5,38.8,201.4,40.4,199.9,40.5z"/>
				</g>
				<g>
					<path class="st5" d="M203.6,48.8c-0.8-1.8-0.6-3.6-0.6-5.5c0-3,0.2-5.9,0.1-8.9c-0.3-7.4-5.9-12.6-14.2-12.4
						c-4.6,0.1-8.2-0.7-11.9-3.3c-2.5-1.8-3.9-3.1-3.7-6c0.2-2.7-1.1-5.3-3.9-6.9c-2.4-1.4-5.1-1.6-7.7-0.4c-3.2,1.4-4.9,3.9-4.6,7
						c0.2,2.6-0.8,3.7-3.6,3.9c-0.4,0-0.8,0.2-1.2,0.3c-19.4,4.1-23.5,21.3-17.8,32.8c4.1,8.1,10.7,13.3,20.3,15.3
						c3.2,0.7,4.2,1.9,4.2,4.8c0.1,10.7,0.6,21.4,1.1,32.1c0.1,1.8-0.4,2.9-2.2,3.8c-2.1,1.1-3.6,2.7-4.7,4.7
						c-6.5,10.7-5.2,22.1,3.6,31.4c1,1.1,1.9,2.2,3,3.2c1.3,1.2,1.8,2.5,1.8,4.2c0.3,12.1,0.8,24.2,1.1,36.3c0,1.7,0.5,2.4,2.6,2.4
						c2.1,0.1,2.3-0.8,2.4-2.3c0.1-0.9-0.7-2.1,1-2.8c10.5-4.3,17-14.9,15.4-25.1c-1.2-7.7-5.7-14.2-10.6-20.5
						c-3-3.8-4.3-7.6-4-12.3c0.2-3.1,1.3-4.9,4.3-6.4c7.8-3.8,13.3-9.6,17.7-16.3c7.6-11.8,6.6-25.5-2.7-35.5
						c-4-4.3-9.1-7.5-14.5-10.4c-1.4-0.8-2.3-1.5-2.2-3.2c0.1-7.5,0.1-15,0.1-23c4.8,1.7,7.1,3.7,7.9,7.5
						c1.5,7.2,7.7,12.1,12.3,17.7c0.1,0.1,0.2,0.1,0.2,0.2c0.6,0.4,1.4,0.7,2,0.3c0.6-0.4,0.1-1-0.1-1.5c-0.5-1.7-1.2-3.3-1.7-5
						c-0.3-1.1-0.3-2.2,1.1-2.9c1.5-0.7,2.6-0.3,3.6,0.7c1.2,1.2,2.2,2.4,3.4,3.6c0.6,0.7,1.2,1.8,2.5,1.2
						C204.4,50.7,204,49.7,203.6,48.8z M156.1,48.8c-8.9-3-10.5-8-4.1-18c1.1-1.7,2.9-3.7,4.9-3.3c1.6,0.4,0.6,2.9,0.8,4.5
						c0.2,2.1,0,4.2,0,6.3c0.2,0,0.3,0,0.5,0c0,3-0.1,6.1,0,9.1C158.3,49.2,157.8,49.4,156.1,48.8z M168.1,173.6
						c-0.1-0.3-0.2-0.6-0.2-0.8c0-5.5,0-11,0-17.1C171.6,159.1,171.4,168.5,168.1,173.6z M171.3,97.3c0-8.5,0-16.9,0-25.6
						C183.9,81,182.4,90.1,171.3,97.3z M199.9,40.5c-1.5,0.1-2-1.4-2.1-2.6c0-1.2,0.2-2.7,1.7-2.8c1.7-0.2,1.8,1.4,1.9,2
						C201.5,38.8,201.4,40.4,199.9,40.5z"/>
				</g>
			</g>
		</g>
	</g>
</g>
</svg>
