<?xml version="1.0" encoding="utf-8"?>
<!-- Generator: Adobe Illustrator 24.1.2, SVG Export Plug-In . SVG Version: 6.00 Build 0)  -->
<svg version="1.1" id="Camada_1" xmlns="http://www.w3.org/2000/svg" xmlns:xlink="http://www.w3.org/1999/xlink" x="0px" y="0px"
	 viewBox="0 0 126 127" style="enable-background:new 0 0 126 127;" xml:space="preserve">
<style type="text/css">
	.st0{fill:#E4B017;stroke:#000000;stroke-miterlimit:10;}
</style>
<path class="st0" d="M62.25,46c2.61,0.11,3.82-5.58,5.01-8.08c1.37-2.88,3.14-6.27,8.04-10.27c3.6-2.93,8.47-4.32,14.02-2.8
	c3.59,0.98,6.29,2.06,9.72,5.93c3.72,4.21,3.78,7.75,3.46,11.35c-0.26,2.87-1.68,5.23-3.2,7.97c-0.88,1.58-3.41,4.63-4.51,6.07
	c-1.62,2.12-5.34,5.9-7.19,7.83c-2.21,2.31-6.91,6.69-9.13,9c-3.11,3.24-5.31,6.18-6.88,9.04c-1.35,2.46-2.85,6.62-3.25,8.96
	c-0.98,5.65-0.56,9.48,2.03,15c1.59,3.39,5.08,7.36,8.64,9.24c3.46,1.83,7.96,2.8,11.51,2.93c3.32,0.12,8.19,0.16,11.6-0.98
	c5.48-1.83,7.3-3.2,10.84-7.2c3.56-4.03,4.88-9.77,4.59-13.09c-0.29-3.29-0.92-5.09-2.21-7.34c-1.76-3.07-3.32-3.95-4.71-4.92
	c-1.38-0.97-4.25-2.06-5.82-2.38c-3.21-0.65-6.2-0.09-8.07,0.73c-1.98,0.87-4.46,2.7-5.83,4.85c-1.37,2.16-2.02,5.76-0.16,6.96
	c2.35,1.52,4.99-2.05,5.87-4.4c0.98-2.61,1.94-4.19,5.18-5.04c1.5-0.39,3.94,0.1,5.22,0.72c0.82,0.4,3.37,1.78,4.76,4.15
	c0.92,1.56,1.89,3.42,1.89,6.48c0,2.22-0.29,3.88-1.27,6.29c-0.68,1.67-2.12,3.68-4.21,5.38c-2.4,1.95-4.71,2.68-6.2,3.33
	c-1.64,0.71-4.24,1.28-7.28,1.28c-3.04,0-5.03-0.2-8.11-1c-2.43-0.63-4.73-1.99-6.08-3c-1.29-0.97-2.58-2.6-4.06-5
	c-1.95-3.17-1.86-5.95-2.03-8c-0.14-1.76,0.46-5.32,1.01-7c1.09-3.3,3.04-7,7.1-12c1.57-1.93,5.35-5.22,7.1-7
	c4.38-4.46,10.83-11.44,15.36-18.15c2.03-3,3.17-7.54,3.17-11.54c0-2.55,0.26-4.39-1.88-8.67c-2.28-4.57-4.84-6.47-7.88-8.58
	c-3.45-2.39-8.3-3.74-11.01-4.11c-4.79-0.65-8.31-0.21-11.84,1.81c-2.4,1.37-4.89,3.77-7.09,6.16c-2.45,2.67-4.05,5.25-6.22,5.08
	c-2.26-0.17-4.06-5-6.08-8c-2.81-4.16-7.28-8.59-12.17-11c-4.06-2-9.85-3.15-13.18-3c-5.14,0.24-9.32,2.77-11.6,4.64
	c-6.08,5-7.5,9.5-8.68,13.36c-1.61,5.27-2.03,12,0,22c0.89,4.39,5.37,12.44,8.11,16c2.71,3.52,6.08,7,13.18,12
	c2.97,2.1,10.35,7.37,12.17,2c1.01-3-3.09-5.35-5.07-6c-6.08-2-11.12-5.29-16.22-12c-3.04-4-5.3-9.41-6.08-12
	C13.58,40,13.05,30.49,20,22.27c3.25-3.84,7.44-5.27,10.76-5.77c4.66-0.7,7.79,0.66,10.2,1.5c2.06,0.72,5.49,3.55,7.1,5
	c1.46,1.32,4.03,4.34,5.07,6c1.71,2.74,3.2,5.63,4.06,8C58.02,39.32,59.76,45.89,62.25,46z"/>
</svg>
