<?xml version="1.0" encoding="utf-8"?>
<!-- Generator: Adobe Illustrator 24.1.2, SVG Export Plug-In . SVG Version: 6.00 Build 0)  -->
<svg version="1.1" id="Camada_1" xmlns="http://www.w3.org/2000/svg" xmlns:xlink="http://www.w3.org/1999/xlink" x="0px" y="0px"
	 viewBox="0 0 333.83 333.83" style="enable-background:new 0 0 333.83 333.83;" xml:space="preserve">
<style type="text/css">
	.st0{fill:#2E2E2F;}
	.st1{fill:#B2A571;}
	.st2{fill:none;stroke:#2E2E2F;stroke-width:9;stroke-miterlimit:10;}
</style>
<g>
	<g>
		<path class="st0" d="M181.07,216.41c-0.35-0.4-0.71-0.79-1.06-1.19l0,0c0,0,0,0,0,0c-1.37-0.7-2.74-1.39-4.1-2.1
			c-1.37-0.71-2.5-1.66-3.04-3.18c-0.33-0.93-1.06-1.39-2.01-1.51c-1.22-0.16-2.45-0.31-3.67-0.47c-0.51-0.04-1.02-0.09-1.45-0.41
			c-0.71-0.23-1.48-0.36-1.84-1.14c-0.54,0.04-0.76-0.37-1.04-0.72c0,0,0,0,0,0l-0.1-0.03l-0.03-0.1c-0.96-0.99-1.95-1.93-3.23-2.51
			c-0.13,0.03-0.23,0-0.26-0.14c-1.52-0.5-3.05-1.02-4.64-1.26c-0.5-0.13-1.06-0.05-1.51-0.38c0,0,0,0,0,0
			c-1.71-0.12-3.38-0.46-5.02-0.96c-0.83-0.06-1.61-0.31-2.35-0.68c-0.46-0.02-0.86-0.21-1.24-0.45c-1.08-0.31-2.09-0.79-3.03-1.41
			v0c-2.35-1.24-4.57-2.73-7.11-3.58c-0.89-0.28-1.78-0.56-2.67-0.83l0,0c-1.38-0.24-2.76-0.47-4.09-0.91
			c-0.03-0.01-0.07-0.02-0.1-0.03c-1.08-0.04-2.13-0.19-3.17-0.5c-1.19,0-2.35-0.17-3.49-0.47c-1.63-0.18-3.26-0.35-4.89-0.53
			c0,0,0,0,0,0c-0.61-0.06-1.23-0.06-1.81-0.2c-1.42-0.35-2.96-0.12-4.28-0.9c-0.3-0.06-0.62,0.14-0.9-0.06
			c-0.32,0.01-0.65,0.03-0.92-0.19c-0.58-0.01-1.14-0.14-1.65-0.44c-1.06-0.25-2.08-0.62-3.04-1.13c0,0,0,0,0,0l0,0
			c-1.39-0.49-2.78-0.98-4.17-1.47c-0.82-0.23-1.7-0.27-2.38-0.89h0c-0.7-0.32-0.92-0.92-0.92-1.63c-0.49-0.24-0.36-0.73-0.36-1.1
			c0.03-1.55-0.3-3.02-0.81-4.47c-0.29-0.56-0.58-1.12-0.87-1.68c-0.34-0.51-0.67-1.02-1.01-1.52c0,0,0,0,0,0c0,0,0,0,0,0
			c-0.07-0.09-0.15-0.18-0.22-0.28v0c-0.14-0.18-0.28-0.35-0.42-0.53v0c-0.17-0.22-0.34-0.43-0.5-0.65
			c-0.6-0.66-1.25-1.29-1.58-2.15c-0.37-0.42-0.81-0.78-0.99-1.34c-0.49-0.49-0.83-1.07-1.11-1.69v0c-0.74-1.22-1.52-2.41-2.21-3.66
			c-0.76-1.37-1.61-2.71-2-4.25c-0.83-1.11-1.31-2.38-1.68-3.7c-0.27-0.43-0.41-0.91-0.44-1.41c-0.2-0.37-0.23-0.77-0.21-1.19v0
			c-0.31-1.35-0.5-2.72-0.52-4.11c-0.29-1.02-0.32-2.07-0.38-3.12c-0.06-0.69-0.17-1.38-0.19-2.07c-0.05-3.12-0.44-6.25,0.43-9.32
			c0.08-0.47,0.22-0.9,0.66-1.16c0.54-0.53,1.05-0.23,1.54,0.08c0.81,0.51,1.6,1.05,2.4,1.57c0.31,0.02,0.58,0.15,0.8,0.38
			c1.65,0.58,3.32,1.1,5.03,1.49c0.46,0.16,0.99,0.08,1.42,0.39v0c2.61,0.41,5.05,1.25,7.26,2.72c0,0,0,0,0,0
			c1.02,0.52,1.99,1.11,2.76,1.96c0.53,0.35,0.9,0.83,1.16,1.4c0.28,0.25,0.38,0.59,0.42,0.95c0.04,0.46,0.14,0.92-0.1,1.36
			c-0.97,1.78,0,2.49,1.56,2.84c2.81,0.63,5.59,0.37,8.35-0.37c1.05-0.44,2.13-0.77,3.28-0.84l0,0h0c1.94-0.46,3.22-1.59,3.83-3.54
			c0.25-0.79,0.74-1.51,1.13-2.26c0.61-1.35,0.83-2.71,0.16-4.1c-0.53-1.11-1.08-2.21-1.63-3.31c-0.03-0.03-0.04-0.06-0.06-0.09
			c-0.44-0.76-0.89-1.51-1.33-2.27c-0.75-1.14-1.54-2.25-2.11-3.49c0,0,0,0,0,0s0,0,0,0c-0.35-0.3-0.55-0.7-0.71-1.11
			c0.12-0.04,0.21-0.08,0.28-0.13c-0.07-0.04-0.15-0.02-0.28,0.13c-0.44-0.72-0.88-1.44-1.33-2.17l0,0h0
			c-0.68-0.76-1.22-1.61-1.7-2.51c-0.31-0.27-0.51-0.61-0.64-0.99l0,0h0c-1.65-2.39-3.3-4.79-4.95-7.18
			c-0.55-0.57-1.02-1.19-1.4-1.89v0c-0.46-0.48-0.86-1.01-1.16-1.6c-0.81-0.94-1.77-1.78-2.07-3.07v0c-0.2-0.19-0.22-0.45-0.24-0.71
			c-0.22-0.86-0.44-1.71-0.66-2.57c-0.46-1.51-1.56-2.63-2.39-3.92c-0.15-0.17-0.29-0.34-0.44-0.5c-0.7-0.72-1.36-1.48-2.1-2.16
			c-1.48-1.36-2.11-3.05-2.14-5.02v0c-0.37-0.57-0.82-0.7-1.42-0.3c-0.33,0.22-0.68,0.48-1.12,0.47c-1.24,0.4-2.48,0.42-3.72-0.03
			c-1.33-0.31-2.34-1.15-3.34-2.02c-0.49-0.39-0.98-0.78-1.47-1.17c0,0,0,0,0,0c-0.59-0.39-1.18-0.78-1.77-1.17
			c-1.16-0.6-2.5-1.01-2.8-2.55c0,0,0,0,0,0l0,0c-0.78-0.93-0.76-2.33-1.81-3.1c-0.25-0.15-0.47-0.07-0.68,0.09
			c-0.08,0.57-0.15,1.13-0.23,1.7c0,0,0,0,0,0c0.29,0.87,0.13,1.78,0.2,2.67l0.06,0.06l-0.03,0.08c0.23,0.4,0.15,0.84,0.17,1.27h0
			c0,0,0,0,0,0c0.39,1.63,0.77,3.26,1.16,4.89c0.08,0.64,0.1,1.27-0.24,1.85v0c-0.03,0.25-0.18,0.42-0.39,0.54
			c-1.04,0.98-2.43,1.26-3.67,1.85c-0.77,0.45-1.54,0.9-2.42,1.12c-2.22,1.18-4.44,2.36-6.66,3.54c-0.73,0.44-1.47,0.87-2.2,1.31
			c-0.53,0.33-1.07,0.65-1.6,0.98c-0.94,0.89-2.15,1.38-3.18,2.13c0,0,0,0,0,0c0,0,0,0,0,0c-0.19,0.14-0.37,0.28-0.56,0.43
			c-0.74,0.68-1.47,1.36-2.33,1.87c-0.63,0.53-1.26,1.07-1.9,1.6c-0.77,0.78-1.54,1.56-2.31,2.34c-0.4,0.46-0.8,0.93-1.2,1.39
			c-0.41,0.8-0.99,1.49-1.56,2.18c-0.13,0.51-0.46,0.91-0.75,1.33c-0.08,0.29-0.16,0.57-0.42,0.76c-0.11,0.29-0.22,0.57-0.33,0.86
			c-0.2,0.5-0.39,1-0.59,1.51c-0.18,1.23-0.39,2.45-0.78,3.63c-0.13,1.06-0.45,2.06-0.91,3.02c-0.17,0.84-0.58,1.58-0.97,2.33
			c-0.18,0.32-0.35,0.64-0.53,0.97c-1.47,2.78-3.42,5.11-6.14,6.76c0,0,0,0,0,0c-0.4,0.43-0.92,0.67-1.45,0.87
			c-0.56,0.5-1.42,0.89-1.16,1.81c0.24,0.86,1.1,1.09,1.87,1.34c0.04,0.01,0.07,0.03,0.11,0.03c0.64-0.02,0.68,0.35,0.51,0.82
			c-0.12,0.32-0.28,0.63-0.42,0.94c-0.81,1.89-1.76,3.7-2.98,5.37c-0.71,1.42-1.63,2.7-2.61,3.95c-0.05,0.24-0.19,0.42-0.41,0.54v0
			c-0.61,1.07-1.51,1.88-2.37,2.73c-0.46,0.86-0.93,1.72-1.39,2.58c0,0,0,0,0,0c0.07,0.29-0.14,0.47-0.27,0.68
			c-0.52,1.27-1.03,2.55-1.55,3.82c-0.56,1.65-1.14,3.28-1.9,4.85l0,0c-0.08,0.75-0.5,1.36-0.77,2.04c-0.1,0.27-0.11,0.59-0.38,0.77
			c-0.1,0.29-0.21,0.57-0.31,0.86c-0.18,0.44-0.27,0.91-0.6,1.28v0c-1.01,2.73-2.34,5.31-3.81,7.82c-0.2,0.6-0.52,1.14-0.91,1.64
			c-0.32,0.54-0.64,1.08-0.96,1.62c-0.59,1.09-1.27,2.12-2.04,3.09c-0.16,0.22-0.31,0.44-0.47,0.65c-0.17,0.33-0.1,0.57-0.52,1.07
			c0,0,0.75,12.1,6.42,22.36c1.73,3.13,8.59,11.71,12,14.18c11.11,8.05,14.43,14.42,14.43,14.42c0.31-0.19,0.62-0.38,0.93-0.57
			c0.27-0.31,0.59-0.55,1.01-0.62c2.63-1.8,5.27-3.61,7.9-5.41c0.23-0.34,0.59-0.52,0.94-0.7c0.85-0.62,1.69-1.25,2.54-1.87
			c0,0,0,0,0,0c0.48-0.37,0.96-0.75,1.44-1.12c0.52-0.41,1.04-0.81,1.57-1.22c0.64-0.52,1.29-1.04,1.93-1.56
			c0.3-0.25,0.61-0.49,0.91-0.74c0.47-0.55,1.05-0.98,1.65-1.38c0.3-0.24,0.59-0.48,0.89-0.73c0.48-0.38,0.96-0.77,1.44-1.15
			c0-0.29,0.25-0.36,0.44-0.47c0.93-0.93,1.91-1.81,2.98-2.58l0,0c0,0,0,0,0,0c0.95-1.01,2-1.91,3.08-2.78
			c0.17-0.3,0.39-0.55,0.73-0.69c0.45-0.43,0.91-0.85,1.36-1.28c0,0,0,0,0,0l0,0c0.57-0.59,1.07-1.26,1.9-1.52v0
			c1.53-0.97,3.18-1.01,4.89-0.65c0.89,0.13,1.77,0.25,2.66,0.38c0,0,0,0,0,0c0.59,0.03,1.19,0.05,1.78,0.08c1.63,0,3.26,0,4.89,0
			c0,0,0,0,0,0c0,0,0,0,0,0c2.03-0.21,4.06-0.47,6.05-0.91c0.39,0.19,0.57-0.39,0.94-0.26c1.36-0.48,2.76-0.64,4.19-0.46
			c0.97,0.24,1.9,0.53,2.36,1.54v0c0.73,1.23,0.88,2.52,0.48,3.89c0,0,0,0,0,0c0.04,0.87-0.22,1.66-0.53,2.45
			c-0.19,1.03-0.57,1.98-1.11,2.86c-0.44,1.25-1.12,2.37-1.89,3.44v0c-0.83,1.53-1.87,2.91-3.02,4.21
			c-0.71,1.04-1.54,1.97-2.47,2.82c-0.34,0.38-0.67,0.75-1.01,1.13c-0.81,0.83-1.7,1.58-2.34,2.56c-0.13,0.37-0.34,0.72-0.21,1.14
			c0.25,0.24,0.32,0.54,0.35,0.9c-0.51-0.06-0.95-0.15-1.34-0.4c0,0,0,0,0,0v0c0,0,0,0,0,0c-1.23-0.36-2.43-0.82-3.71-1
			c-1.1-0.11-2.19-0.05-3.24,0.32c-0.95,0.54-1.61,1.34-2.09,2.3c-0.23,0.96-0.46,1.92-0.69,2.88c0,0,0,0,0,0
			c0.05,2.78-0.38,5.55-0.24,8.33c0.04,0.9,0.25,1.67,1.14,2.1c0.71,0,1.44,0.1,2.09-0.35c0.73-0.49,1.53-0.85,2.37-1.1
			c0.62-0.66,1.36-1.12,2.21-1.43c0,0,0,0,0,0c0,0,0,0,0,0c2.52-1.27,4.56-3.18,6.75-4.9c1.62-1.27,3.32-2.41,5.42-2.77
			c0.25-0.14,0.5-0.28,0.75-0.42c0.32-0.32,0.64-0.63,0.96-0.95v0c0.37-0.55,0.74-1.11,1.12-1.66c0.04-0.36,0.27-0.63,0.48-0.91
			c0.21-0.68,0.48-1.34,0.9-1.92c0.57-1.45,1.14-2.91,1.71-4.36c0.27-0.56,0.15-1.32,0.84-1.66l0,0c0,0,0,0,0,0
			c0.01-0.66,0.09-1.3,0.49-1.85c0.09-0.68,0.36-1.29,0.7-1.88c0.61-1.88,1.41-3.68,2.31-5.44c0,0,0,0,0,0
			c0.44-1.12,1.03-2.15,1.85-3.03c0.38-0.7,1.06-1.1,1.64-1.59c0.3-0.61,0.6-1.23,0.9-1.84c0,0,0,0,0,0v0
			c0.1-0.92,0.21-1.85,0.31-2.77l0,0h0c-0.24-1.23-0.49-2.45-0.73-3.68c-0.62-1.47-1.22-2.94-2.05-4.31
			c-0.24-0.4-0.34-0.85-0.22-1.32c0.08-0.52,0.39-0.81,0.9-0.92c1.09-0.41,2.23-0.51,3.39-0.52c0.08-0.02,0.16-0.04,0.24-0.05
			c1.07-0.23,2.14-0.24,3.21,0.05l0,0c1.87-0.07,3.52,0.79,5.28,1.22c1.04,0.07,2.05-0.12,3.04-0.44l0,0
			c1.24-0.65,2.55-0.91,3.95-0.68c0.44,0.04,0.88,0.08,1.24,0.38c0.33-0.04,0.6,0.12,0.87,0.28c0.36,0.07,0.7,0.19,0.98,0.43
			c1.42,0.55,2.84,1.09,4.17,1.84c0.97,0.3,1.88,0.77,2.77,1.24c1.25,0.49,2.49,1.01,3.6,1.78c0.43,0.06,0.73,0.34,1.05,0.57
			c0.85,0.44,1.69,0.88,2.37,1.56c0.88,0.53,1.78,1.05,2.79,1.29c0.99,0.24,2.01,0.4,3.01,0.6c0.75,0.07,1.37,0.33,1.66,1.1
			c0.48,0.56,0.67,1.25,0.85,1.94v0c0.43,1.41,1.01,2.76,1.93,3.93h0c0.15,0.16,0.3,0.32,0.45,0.48c0.96,0.9,2.06,1.57,3.27,2.08
			c0,0,0,0,0,0c1.1,0.13,2.19,0.03,3.27-0.19l0,0v0c1.33-0.29,2.55-0.97,3.95-0.98c0.24-0.5,0.76-0.47,1.18-0.63
			c1.33-0.42,2.49-1.32,3.92-1.49c0.02-0.27,0.14-0.45,0.45-0.45c0.33-0.22,0.66-0.44,1-0.66l0,0v0
			C180.49,217.72,181.29,217.35,181.07,216.41z"/>
	</g>
</g>
<g>
	<g>
		<path class="st0" d="M302.63,216.41c-0.35-0.4-0.71-0.79-1.06-1.19l0,0c0,0,0,0,0,0c-1.37-0.7-2.74-1.39-4.1-2.1
			c-1.37-0.71-2.5-1.66-3.04-3.18c-0.33-0.93-1.06-1.39-2.01-1.51c-1.22-0.16-2.45-0.31-3.67-0.47c-0.51-0.04-1.02-0.09-1.45-0.41
			c-0.71-0.23-1.48-0.36-1.84-1.14c-0.54,0.04-0.76-0.37-1.04-0.72c0,0,0,0,0,0l-0.1-0.03l-0.03-0.1c-0.96-0.99-1.95-1.93-3.23-2.51
			c-0.13,0.03-0.23,0-0.26-0.14c-1.52-0.5-3.05-1.02-4.64-1.26c-0.5-0.13-1.06-0.05-1.51-0.38c0,0,0,0,0,0
			c-1.71-0.12-3.38-0.46-5.02-0.96c-0.83-0.06-1.61-0.31-2.35-0.68c-0.46-0.02-0.86-0.21-1.24-0.45c-1.08-0.31-2.09-0.79-3.03-1.41
			v0c-2.35-1.24-4.57-2.73-7.11-3.58c-0.89-0.28-1.78-0.56-2.67-0.83l0,0c-1.38-0.24-2.76-0.47-4.09-0.91
			c-0.03-0.01-0.07-0.02-0.1-0.03c-1.08-0.04-2.13-0.19-3.17-0.5c-1.19,0-2.35-0.17-3.49-0.47c-1.63-0.18-3.26-0.35-4.89-0.53
			c0,0,0,0,0,0c-0.61-0.06-1.23-0.06-1.81-0.2c-1.42-0.35-2.96-0.12-4.28-0.9c-0.3-0.06-0.62,0.14-0.9-0.06
			c-0.32,0.01-0.65,0.03-0.92-0.19c-0.58-0.01-1.14-0.14-1.65-0.44c-1.06-0.25-2.08-0.62-3.04-1.13c0,0,0,0,0,0l0,0
			c-1.39-0.49-2.78-0.98-4.17-1.47c-0.82-0.23-1.7-0.27-2.38-0.89h0c-0.7-0.32-0.92-0.92-0.92-1.63c-0.49-0.24-0.36-0.73-0.36-1.1
			c0.03-1.55-0.3-3.02-0.81-4.47c-0.29-0.56-0.58-1.12-0.87-1.68c-0.34-0.51-0.67-1.02-1.01-1.52c0,0,0,0,0,0c0,0,0,0,0,0
			c-0.07-0.09-0.15-0.18-0.22-0.28v0c-0.14-0.18-0.28-0.35-0.42-0.53v0c-0.17-0.22-0.34-0.43-0.5-0.65
			c-0.6-0.66-1.25-1.29-1.58-2.15c-0.37-0.42-0.81-0.78-0.99-1.34c-0.49-0.49-0.83-1.07-1.11-1.69v0c-0.74-1.22-1.52-2.41-2.21-3.66
			c-0.76-1.37-1.61-2.71-2-4.25c-0.83-1.11-1.31-2.38-1.68-3.7c-0.27-0.43-0.41-0.91-0.44-1.41c-0.2-0.37-0.23-0.77-0.21-1.19v0
			c-0.31-1.35-0.5-2.72-0.52-4.11c-0.29-1.02-0.32-2.07-0.38-3.12c-0.06-0.69-0.17-1.38-0.19-2.07c-0.05-3.12-0.44-6.25,0.43-9.32
			c0.08-0.47,0.22-0.9,0.66-1.16c0.54-0.53,1.05-0.23,1.54,0.08c0.81,0.51,1.6,1.05,2.4,1.57c0.31,0.02,0.58,0.15,0.8,0.38
			c1.65,0.58,3.32,1.1,5.03,1.49c0.46,0.16,0.99,0.08,1.42,0.39v0c2.61,0.41,5.05,1.25,7.26,2.72c0,0,0,0,0,0
			c1.02,0.52,1.99,1.11,2.76,1.96c0.53,0.35,0.9,0.83,1.16,1.4c0.28,0.25,0.38,0.59,0.42,0.95c0.04,0.46,0.14,0.92-0.1,1.36
			c-0.97,1.78,0,2.49,1.56,2.84c2.81,0.63,5.59,0.37,8.35-0.37c1.05-0.44,2.13-0.77,3.28-0.84l0,0h0c1.94-0.46,3.22-1.59,3.83-3.54
			c0.25-0.79,0.74-1.51,1.13-2.26c0.61-1.35,0.83-2.71,0.16-4.1c-0.53-1.11-1.08-2.21-1.63-3.31c-0.03-0.03-0.04-0.06-0.06-0.09
			c-0.44-0.76-0.89-1.51-1.33-2.27c-0.75-1.14-1.54-2.25-2.11-3.49c0,0,0,0,0,0s0,0,0,0c-0.35-0.3-0.55-0.7-0.71-1.11
			c0.12-0.04,0.21-0.08,0.28-0.13c-0.07-0.04-0.15-0.02-0.28,0.13c-0.44-0.72-0.88-1.44-1.33-2.17l0,0h0
			c-0.68-0.76-1.22-1.61-1.7-2.51c-0.31-0.27-0.51-0.61-0.64-0.99l0,0h0c-1.65-2.39-3.3-4.79-4.95-7.18
			c-0.55-0.57-1.02-1.19-1.4-1.89v0c-0.46-0.48-0.86-1.01-1.16-1.6c-0.81-0.94-1.77-1.78-2.07-3.07v0c-0.2-0.19-0.22-0.45-0.24-0.71
			c-0.22-0.86-0.44-1.71-0.66-2.57c-0.46-1.51-1.56-2.63-2.39-3.92c-0.15-0.17-0.29-0.34-0.44-0.5c-0.7-0.72-1.36-1.48-2.1-2.16
			c-1.48-1.36-2.11-3.05-2.14-5.02v0c-0.37-0.57-0.82-0.7-1.42-0.3c-0.33,0.22-0.68,0.48-1.12,0.47c-1.24,0.4-2.48,0.42-3.72-0.03
			c-1.33-0.31-2.34-1.15-3.34-2.02c-0.49-0.39-0.98-0.78-1.47-1.17c0,0,0,0,0,0c-0.59-0.39-1.18-0.78-1.77-1.17
			c-1.16-0.6-2.5-1.01-2.8-2.55c0,0,0,0,0,0l0,0c-0.78-0.93-0.76-2.33-1.81-3.1c-0.25-0.15-0.47-0.07-0.68,0.09
			c-0.07,0.57-0.15,1.13-0.23,1.7c0,0,0,0,0,0c0.29,0.87,0.13,1.78,0.2,2.67l0.06,0.06l-0.03,0.08c0.23,0.4,0.15,0.84,0.17,1.27h0
			c0,0,0,0,0,0c0.39,1.63,0.77,3.26,1.16,4.89c0.08,0.64,0.1,1.27-0.24,1.85v0c-0.03,0.25-0.18,0.42-0.39,0.54
			c-1.04,0.98-2.43,1.26-3.67,1.85c-0.77,0.45-1.54,0.9-2.42,1.12c-2.22,1.18-4.44,2.36-6.66,3.54c-0.73,0.44-1.47,0.87-2.2,1.31
			c-0.53,0.33-1.07,0.65-1.6,0.98c-0.94,0.89-2.15,1.38-3.18,2.13c0,0,0,0,0,0c0,0,0,0,0,0c-0.19,0.14-0.37,0.28-0.56,0.43
			c-0.74,0.68-1.47,1.36-2.33,1.87c-0.63,0.53-1.26,1.07-1.9,1.6c-0.77,0.78-1.54,1.56-2.31,2.34c-0.4,0.46-0.8,0.93-1.2,1.39
			c-0.41,0.8-0.99,1.49-1.56,2.18c-0.13,0.51-0.46,0.91-0.75,1.33c-0.08,0.29-0.16,0.57-0.42,0.76c-0.11,0.29-0.22,0.57-0.33,0.86
			c-0.2,0.5-0.39,1-0.59,1.51c-0.18,1.23-0.39,2.45-0.78,3.63c-0.13,1.06-0.45,2.06-0.91,3.02c-0.17,0.84-0.58,1.58-0.97,2.33
			c-0.18,0.32-0.35,0.64-0.53,0.97c-1.47,2.78-3.42,5.11-6.14,6.76c0,0,0,0,0,0c-0.4,0.43-0.92,0.67-1.45,0.87
			c-0.56,0.5-1.42,0.89-1.16,1.81c0.24,0.86,1.1,1.09,1.87,1.34c0.04,0.01,0.07,0.03,0.11,0.03c0.64-0.02,0.68,0.35,0.51,0.82
			c-0.12,0.32-0.28,0.63-0.42,0.94c-0.81,1.89-1.76,3.7-2.98,5.37c-0.71,1.42-1.63,2.7-2.61,3.95c-0.05,0.24-0.19,0.42-0.41,0.54v0
			c-0.61,1.07-1.51,1.88-2.37,2.73c-0.46,0.86-0.93,1.72-1.39,2.58c0,0,0,0,0,0c0.07,0.29-0.14,0.47-0.27,0.68
			c-0.51,1.27-1.03,2.55-1.55,3.82c-0.56,1.65-1.14,3.28-1.9,4.85l0,0c-0.08,0.75-0.5,1.36-0.77,2.04c-0.1,0.27-0.11,0.59-0.38,0.77
			c-0.1,0.29-0.21,0.57-0.31,0.86c-0.18,0.44-0.27,0.91-0.6,1.28v0c-1.01,2.73-2.34,5.31-3.81,7.82c-0.2,0.6-0.52,1.14-0.91,1.64
			c-0.32,0.54-0.64,1.08-0.96,1.62c-0.59,1.09-1.27,2.12-2.04,3.09c-0.16,0.22-0.31,0.44-0.47,0.65c-0.17,0.33-0.1,0.57-0.52,1.07
			c0,0,0.75,12.1,6.42,22.36c1.73,3.13,8.59,11.71,12,14.18c11.11,8.05,14.43,14.42,14.43,14.42c0.31-0.19,0.62-0.38,0.93-0.57
			c0.27-0.31,0.59-0.55,1.01-0.62c2.63-1.8,5.27-3.61,7.9-5.41c0.23-0.34,0.59-0.52,0.94-0.7c0.85-0.62,1.69-1.25,2.54-1.87
			c0,0,0,0,0,0c0.48-0.37,0.96-0.75,1.44-1.12c0.52-0.41,1.04-0.81,1.57-1.22c0.64-0.52,1.29-1.04,1.93-1.56
			c0.3-0.25,0.61-0.49,0.91-0.74c0.47-0.55,1.05-0.98,1.65-1.38c0.3-0.24,0.59-0.48,0.89-0.73c0.48-0.38,0.96-0.77,1.44-1.15
			c0-0.29,0.25-0.36,0.44-0.47c0.93-0.93,1.91-1.81,2.98-2.58l0,0c0,0,0,0,0,0c0.95-1.01,2-1.91,3.08-2.78
			c0.17-0.3,0.39-0.55,0.73-0.69c0.45-0.43,0.91-0.85,1.36-1.28c0,0,0,0,0,0l0,0c0.57-0.59,1.07-1.26,1.9-1.52v0
			c1.53-0.97,3.18-1.01,4.89-0.65c0.89,0.13,1.77,0.25,2.66,0.38c0,0,0,0,0,0c0.59,0.03,1.19,0.05,1.78,0.08c1.63,0,3.26,0,4.89,0
			c0,0,0,0,0,0c0,0,0,0,0,0c2.03-0.21,4.06-0.47,6.05-0.91c0.39,0.19,0.57-0.39,0.94-0.26c1.36-0.48,2.76-0.64,4.19-0.46
			c0.97,0.24,1.9,0.53,2.36,1.54v0c0.73,1.23,0.88,2.52,0.48,3.89c0,0,0,0,0,0c0.04,0.87-0.22,1.66-0.53,2.45
			c-0.19,1.03-0.57,1.98-1.11,2.86c-0.44,1.25-1.12,2.37-1.89,3.44v0c-0.83,1.53-1.87,2.91-3.02,4.21
			c-0.71,1.04-1.54,1.97-2.47,2.82c-0.34,0.38-0.67,0.75-1.01,1.13c-0.81,0.83-1.7,1.58-2.34,2.56c-0.13,0.37-0.34,0.72-0.21,1.14
			c0.25,0.24,0.32,0.54,0.35,0.9c-0.51-0.06-0.95-0.15-1.34-0.4c0,0,0,0,0,0v0c0,0,0,0,0,0c-1.23-0.36-2.43-0.82-3.71-1
			c-1.1-0.11-2.19-0.05-3.24,0.32c-0.95,0.54-1.61,1.34-2.09,2.3c-0.23,0.96-0.46,1.92-0.69,2.88c0,0,0,0,0,0
			c0.05,2.78-0.38,5.55-0.24,8.33c0.04,0.9,0.25,1.67,1.14,2.1c0.71,0,1.44,0.1,2.09-0.35c0.73-0.49,1.53-0.85,2.37-1.1
			c0.62-0.66,1.36-1.12,2.21-1.43c0,0,0,0,0,0c0,0,0,0,0,0c2.52-1.27,4.56-3.18,6.75-4.9c1.62-1.27,3.32-2.41,5.42-2.77
			c0.25-0.14,0.5-0.28,0.75-0.42c0.32-0.32,0.64-0.63,0.96-0.95v0c0.37-0.55,0.74-1.11,1.12-1.66c0.04-0.36,0.27-0.63,0.48-0.91
			c0.21-0.68,0.48-1.34,0.9-1.92c0.57-1.45,1.14-2.91,1.71-4.36c0.27-0.56,0.15-1.32,0.84-1.66l0,0c0,0,0,0,0,0
			c0.01-0.66,0.09-1.3,0.49-1.85c0.09-0.68,0.36-1.29,0.7-1.88c0.61-1.88,1.41-3.68,2.31-5.44c0,0,0,0,0,0
			c0.44-1.12,1.03-2.15,1.85-3.03c0.38-0.7,1.06-1.1,1.64-1.59c0.3-0.61,0.6-1.23,0.9-1.84c0,0,0,0,0,0v0
			c0.1-0.92,0.21-1.85,0.31-2.77l0,0h0c-0.24-1.23-0.49-2.45-0.73-3.68c-0.62-1.47-1.22-2.94-2.05-4.31
			c-0.24-0.4-0.34-0.85-0.22-1.32c0.08-0.52,0.39-0.81,0.9-0.92c1.09-0.41,2.23-0.51,3.39-0.52c0.08-0.02,0.16-0.04,0.24-0.05
			c1.07-0.23,2.14-0.24,3.21,0.05l0,0c1.87-0.07,3.52,0.79,5.28,1.22c1.04,0.07,2.05-0.12,3.04-0.44l0,0
			c1.24-0.65,2.55-0.91,3.95-0.68c0.44,0.04,0.88,0.08,1.24,0.38c0.33-0.04,0.6,0.12,0.87,0.28c0.36,0.07,0.7,0.19,0.98,0.43
			c1.42,0.55,2.84,1.09,4.17,1.84c0.97,0.3,1.88,0.77,2.77,1.24c1.25,0.49,2.49,1.01,3.6,1.78c0.43,0.06,0.73,0.34,1.05,0.57
			c0.85,0.44,1.69,0.88,2.37,1.56c0.88,0.53,1.78,1.05,2.79,1.29c0.99,0.24,2.01,0.4,3.01,0.6c0.75,0.07,1.37,0.33,1.66,1.1
			c0.48,0.56,0.67,1.25,0.85,1.94v0c0.43,1.41,1.01,2.76,1.93,3.93l0,0c0.15,0.16,0.3,0.32,0.45,0.48c0.96,0.9,2.06,1.57,3.27,2.08
			c0,0,0,0,0,0c1.1,0.13,2.19,0.03,3.27-0.19l0,0v0c1.33-0.29,2.55-0.97,3.95-0.98c0.24-0.5,0.76-0.47,1.18-0.63
			c1.33-0.42,2.49-1.32,3.92-1.49c0.02-0.27,0.14-0.45,0.45-0.45c0.33-0.22,0.66-0.44,1-0.66l0,0v0
			C302.05,217.72,302.85,217.35,302.63,216.41z"/>
	</g>
</g>
<g>
	<g>
		<path class="st1" d="M262.53,230.98c-0.24-0.27-0.48-0.54-0.72-0.81l0,0c0,0,0,0,0,0c-0.93-0.48-1.86-0.95-2.79-1.43
			c-0.93-0.48-1.7-1.13-2.07-2.16c-0.23-0.63-0.72-0.94-1.37-1.03c-0.83-0.11-1.66-0.21-2.49-0.32c-0.35-0.03-0.69-0.06-0.99-0.28
			c-0.48-0.16-1.01-0.25-1.25-0.78c-0.37,0.03-0.52-0.25-0.71-0.49c0,0,0,0,0,0l-0.07-0.02l-0.02-0.07
			c-0.65-0.67-1.33-1.31-2.19-1.71c-0.09,0.02-0.15,0-0.18-0.1c-1.04-0.34-2.07-0.69-3.16-0.85c-0.34-0.09-0.72-0.03-1.03-0.26
			c0,0,0,0,0,0c-1.16-0.08-2.3-0.31-3.41-0.65c-0.56-0.04-1.09-0.21-1.6-0.46c-0.31-0.01-0.58-0.15-0.84-0.31
			c-0.74-0.21-1.42-0.54-2.06-0.96v0c-1.6-0.84-3.11-1.85-4.83-2.43c-0.61-0.19-1.21-0.38-1.82-0.57h0
			c-0.94-0.17-1.88-0.32-2.78-0.62c-0.02,0-0.04-0.01-0.07-0.02c-0.73-0.03-1.45-0.13-2.15-0.34c-0.81,0-1.6-0.12-2.37-0.32
			c-1.11-0.12-2.22-0.24-3.33-0.36v0c-0.41-0.04-0.83-0.04-1.23-0.14c-0.96-0.24-2.01-0.08-2.91-0.61c-0.2-0.04-0.42,0.1-0.61-0.04
			c-0.22,0.01-0.44,0.02-0.62-0.13c-0.4-0.01-0.77-0.1-1.12-0.3c-0.72-0.17-1.41-0.42-2.06-0.77v0l0,0c-0.95-0.33-1.89-0.67-2.84-1
			c-0.55-0.16-1.16-0.19-1.62-0.6h0c-0.47-0.22-0.63-0.62-0.62-1.11c-0.33-0.17-0.25-0.5-0.24-0.75c0.02-1.05-0.21-2.05-0.55-3.04
			c-0.2-0.38-0.4-0.76-0.59-1.14c-0.23-0.35-0.46-0.69-0.69-1.04c0,0,0,0,0,0c0,0,0,0,0,0c-0.05-0.06-0.1-0.13-0.15-0.19l0,0
			c-0.09-0.12-0.19-0.24-0.28-0.36l0,0c-0.11-0.15-0.23-0.3-0.34-0.44c-0.41-0.45-0.85-0.87-1.07-1.46
			c-0.25-0.28-0.55-0.53-0.67-0.91c-0.33-0.33-0.57-0.73-0.76-1.15v0c-0.5-0.83-1.03-1.64-1.5-2.49c-0.51-0.93-1.09-1.84-1.36-2.89
			c-0.57-0.75-0.89-1.62-1.14-2.51c-0.18-0.29-0.28-0.62-0.3-0.96c-0.14-0.25-0.16-0.53-0.14-0.81v0c-0.21-0.92-0.34-1.85-0.35-2.79
			c-0.2-0.69-0.22-1.41-0.26-2.12c-0.04-0.47-0.12-0.94-0.13-1.41c-0.04-2.12-0.3-4.25,0.29-6.34c0.05-0.32,0.15-0.61,0.45-0.79
			c0.37-0.36,0.72-0.15,1.05,0.06c0.55,0.35,1.09,0.71,1.63,1.07c0.21,0.02,0.39,0.1,0.54,0.26c1.12,0.39,2.26,0.74,3.42,1.02
			c0.31,0.11,0.68,0.05,0.96,0.27l0,0c1.77,0.28,3.43,0.85,4.94,1.85c0,0,0,0,0,0c0.69,0.35,1.35,0.75,1.88,1.33
			c0.36,0.24,0.61,0.56,0.79,0.95c0.19,0.17,0.26,0.4,0.29,0.64c0.03,0.31,0.09,0.62-0.07,0.92c-0.66,1.21,0,1.69,1.06,1.93
			c1.91,0.43,3.8,0.25,5.67-0.25c0.71-0.3,1.45-0.52,2.23-0.57c0,0,0,0,0,0s0,0,0,0c1.32-0.31,2.19-1.08,2.6-2.41
			c0.17-0.54,0.5-1.02,0.76-1.53c0.42-0.91,0.57-1.84,0.11-2.79c-0.36-0.75-0.74-1.5-1.11-2.25c-0.02-0.02-0.03-0.04-0.04-0.06
			c-0.3-0.51-0.6-1.03-0.9-1.54c-0.51-0.77-1.04-1.53-1.44-2.37c0,0,0,0,0,0s0,0,0,0c-0.24-0.2-0.37-0.47-0.48-0.76
			c0.08-0.02,0.14-0.06,0.19-0.09c-0.05-0.02-0.1-0.01-0.19,0.09c-0.3-0.49-0.6-0.98-0.9-1.47l0,0h0c-0.46-0.52-0.83-1.1-1.15-1.7
			c-0.21-0.18-0.34-0.41-0.44-0.67l0,0h0c-1.12-1.63-2.24-3.25-3.36-4.88c-0.38-0.38-0.7-0.81-0.95-1.28v0
			c-0.31-0.33-0.59-0.68-0.79-1.09c-0.55-0.64-1.2-1.21-1.41-2.09v0c-0.14-0.13-0.15-0.3-0.16-0.48c-0.15-0.58-0.3-1.16-0.45-1.74
			c-0.31-1.03-1.06-1.79-1.62-2.66c-0.1-0.11-0.2-0.23-0.3-0.34c-0.47-0.49-0.92-1.01-1.42-1.47c-1.01-0.92-1.43-2.08-1.45-3.41v0
			c-0.25-0.39-0.55-0.47-0.97-0.21c-0.23,0.15-0.46,0.33-0.76,0.32c-0.84,0.27-1.69,0.28-2.52-0.02c-0.91-0.21-1.59-0.78-2.27-1.37
			c-0.33-0.26-0.67-0.53-1-0.79c0,0,0,0,0,0c-0.4-0.26-0.8-0.53-1.21-0.79c-0.79-0.41-1.7-0.68-1.9-1.73c0,0,0,0,0,0l0,0
			c-0.53-0.63-0.52-1.58-1.23-2.11c-0.17-0.1-0.32-0.05-0.46,0.06c-0.05,0.39-0.1,0.77-0.15,1.16c0,0,0,0,0,0
			c0.2,0.59,0.09,1.21,0.14,1.81l0.04,0.04l-0.02,0.05c0.16,0.27,0.1,0.57,0.11,0.86h0c0,0,0,0,0,0c0.26,1.11,0.52,2.22,0.79,3.32
			c0.06,0.43,0.07,0.86-0.16,1.26v0c-0.02,0.17-0.12,0.29-0.27,0.37c-0.7,0.67-1.65,0.85-2.49,1.26c-0.52,0.31-1.05,0.61-1.65,0.76
			c-1.51,0.8-3.02,1.61-4.53,2.41c-0.5,0.3-1,0.59-1.5,0.89c-0.36,0.22-0.73,0.44-1.09,0.67c-0.64,0.6-1.46,0.94-2.16,1.45
			c0,0,0,0,0,0c0,0,0,0,0,0c-0.13,0.1-0.25,0.19-0.38,0.29c-0.5,0.46-1,0.93-1.59,1.27c-0.43,0.36-0.86,0.73-1.29,1.09
			c-0.52,0.53-1.05,1.06-1.57,1.59c-0.27,0.32-0.54,0.63-0.82,0.95c-0.28,0.55-0.67,1.01-1.06,1.48c-0.09,0.35-0.31,0.62-0.51,0.9
			c-0.05,0.2-0.11,0.39-0.28,0.52c-0.07,0.19-0.15,0.39-0.22,0.58c-0.13,0.34-0.27,0.68-0.4,1.02c-0.13,0.83-0.27,1.66-0.53,2.47
			c-0.09,0.72-0.31,1.4-0.62,2.06c-0.12,0.57-0.39,1.08-0.66,1.58c-0.12,0.22-0.24,0.44-0.36,0.66c-1,1.89-2.33,3.48-4.17,4.59
			c0,0,0,0,0,0c-0.27,0.29-0.62,0.45-0.99,0.59c-0.38,0.34-0.96,0.6-0.79,1.23c0.16,0.58,0.75,0.74,1.27,0.91
			c0.02,0.01,0.05,0.02,0.08,0.02c0.44-0.01,0.46,0.24,0.34,0.56c-0.08,0.22-0.19,0.43-0.29,0.64c-0.55,1.29-1.2,2.52-2.03,3.65
			c-0.48,0.97-1.11,1.84-1.78,2.68c-0.04,0.16-0.13,0.29-0.28,0.36v0c-0.41,0.72-1.03,1.28-1.61,1.86
			c-0.31,0.58-0.63,1.17-0.94,1.75c0,0,0,0,0,0c0.05,0.2-0.1,0.32-0.18,0.46c-0.35,0.87-0.7,1.73-1.05,2.6
			c-0.38,1.12-0.77,2.23-1.29,3.3l0,0c-0.05,0.51-0.34,0.93-0.52,1.39c-0.07,0.18-0.07,0.4-0.26,0.52
			c-0.07,0.19-0.14,0.39-0.21,0.58c-0.12,0.3-0.18,0.62-0.41,0.87l0,0c-0.69,1.86-1.59,3.61-2.59,5.31
			c-0.14,0.41-0.35,0.78-0.62,1.11c-0.22,0.37-0.44,0.74-0.65,1.1c-0.4,0.74-0.87,1.44-1.39,2.1c-0.11,0.15-0.21,0.3-0.32,0.44
			c-0.12,0.22-6.53,6.42-6.82,6.76c0,0,11.99,8.9,16.75,16.7c5.05,8.29,7.16,10.53,10.74,13.45c0.23-0.85,2.33-2.31,2.61-2.36
			c1.79-1.23,3.58-2.45,5.37-3.68c0.16-0.23,0.4-0.35,0.64-0.48c0.57-0.42,1.15-0.85,1.72-1.27l0,0c0.33-0.25,0.65-0.51,0.98-0.76
			c0.35-0.28,0.71-0.55,1.06-0.83c0.44-0.35,0.88-0.71,1.31-1.06c0.21-0.17,0.41-0.34,0.62-0.5c0.32-0.38,0.71-0.66,1.12-0.94
			c0.2-0.16,0.4-0.33,0.6-0.49c0.33-0.26,0.65-0.52,0.98-0.78c0-0.2,0.17-0.25,0.3-0.32c0.63-0.64,1.3-1.23,2.02-1.75l0,0v0
			c0.65-0.69,1.36-1.3,2.09-1.89c0.12-0.2,0.27-0.38,0.49-0.47c0.31-0.29,0.62-0.58,0.93-0.87c0,0,0,0,0,0h0
			c0.39-0.4,0.73-0.85,1.29-1.04l0,0c1.04-0.66,2.16-0.68,3.32-0.44c0.6,0.09,1.2,0.17,1.81,0.26c0,0,0,0,0,0
			c0.4,0.02,0.81,0.04,1.21,0.05c1.11,0,2.22,0,3.33,0c0,0,0,0,0,0c0,0,0,0,0,0c1.38-0.14,2.76-0.32,4.11-0.62
			c0.27,0.13,0.39-0.27,0.64-0.17c0.92-0.33,1.87-0.44,2.85-0.31c0.66,0.16,1.29,0.36,1.6,1.04v0c0.49,0.83,0.6,1.71,0.33,2.64
			c0,0,0,0,0,0c0.03,0.59-0.15,1.13-0.36,1.67c-0.13,0.7-0.39,1.34-0.76,1.94c-0.3,0.85-0.76,1.61-1.29,2.34l0,0
			c-0.57,1.04-1.27,1.98-2.05,2.86c-0.49,0.7-1.05,1.34-1.68,1.92c-0.23,0.26-0.46,0.51-0.68,0.77c-0.55,0.56-1.15,1.08-1.59,1.74
			c-0.09,0.25-0.23,0.49-0.15,0.77c0.17,0.16,0.22,0.36,0.24,0.61c-0.35-0.04-0.65-0.1-0.91-0.27c0,0,0,0,0,0l0,0l0,0
			c-0.84-0.24-1.65-0.56-2.52-0.68c-0.75-0.08-1.49-0.03-2.2,0.22c-0.65,0.36-1.09,0.91-1.42,1.56c-0.16,0.65-0.31,1.31-0.47,1.96
			c0,0,0,0,0,0c0.03,1.89-0.26,3.77-0.17,5.66c0.03,0.61,0.17,1.14,0.77,1.43c0.49,0,0.98,0.07,1.42-0.23
			c0.49-0.34,1.04-0.58,1.61-0.75c0.42-0.45,0.93-0.76,1.5-0.97c0,0,0,0,0,0c0,0,0,0,0,0c1.71-0.86,3.1-2.16,4.59-3.33
			c1.1-0.86,2.26-1.64,3.68-1.88c0.17-0.09,0.34-0.19,0.51-0.28c0.22-0.21,0.44-0.43,0.65-0.64v0c0.25-0.38,0.51-0.75,0.76-1.13
			c0.03-0.25,0.18-0.43,0.33-0.62c0.14-0.46,0.32-0.91,0.61-1.3c0.39-0.99,0.78-1.97,1.16-2.96c0.18-0.38,0.1-0.9,0.57-1.13h0
			c0,0,0,0,0,0c0.01-0.45,0.06-0.88,0.33-1.26c0.06-0.46,0.25-0.88,0.48-1.28c0.41-1.28,0.96-2.5,1.57-3.7c0,0,0,0,0,0
			c0.3-0.76,0.7-1.46,1.26-2.06c0.26-0.48,0.72-0.75,1.12-1.08c0.2-0.42,0.41-0.83,0.61-1.25c0,0,0,0,0,0l0,0
			c0.07-0.63,0.14-1.26,0.21-1.88l0,0h0c-0.17-0.83-0.33-1.67-0.5-2.5c-0.42-1-0.83-2-1.39-2.93c-0.17-0.27-0.23-0.58-0.15-0.9
			c0.06-0.35,0.27-0.55,0.61-0.63c0.74-0.28,1.52-0.34,2.3-0.36c0.05-0.02,0.11-0.03,0.16-0.03c0.73-0.15,1.45-0.16,2.18,0.03v0
			c1.27-0.05,2.39,0.54,3.59,0.83c0.71,0.05,1.39-0.08,2.06-0.3h0c0.84-0.44,1.73-0.62,2.68-0.46c0.3,0.02,0.6,0.06,0.84,0.26
			c0.23-0.03,0.41,0.08,0.59,0.19c0.25,0.04,0.47,0.13,0.67,0.29c0.96,0.38,1.93,0.74,2.83,1.25c0.66,0.21,1.27,0.52,1.89,0.84
			c0.85,0.33,1.69,0.68,2.44,1.21c0.29,0.04,0.49,0.23,0.72,0.39c0.57,0.3,1.15,0.6,1.61,1.06c0.6,0.36,1.21,0.71,1.89,0.88
			c0.68,0.16,1.36,0.27,2.05,0.4c0.51,0.05,0.93,0.23,1.13,0.75c0.33,0.38,0.45,0.85,0.58,1.32l0,0c0.29,0.96,0.68,1.87,1.31,2.67h0
			c0.1,0.11,0.21,0.22,0.31,0.33c0.65,0.61,1.4,1.07,2.22,1.42c0,0,0,0,0,0c0.75,0.09,1.49,0.02,2.22-0.13l0,0v0
			c0.9-0.2,1.73-0.66,2.68-0.67c0.16-0.34,0.52-0.32,0.8-0.43c0.91-0.29,1.69-0.89,2.66-1.01c0.01-0.19,0.09-0.31,0.3-0.31
			c0.23-0.15,0.45-0.3,0.68-0.45v0v0C262.14,231.87,262.68,231.62,262.53,230.98z"/>
	</g>
</g>
<circle class="st2" cx="228.27" cy="170.35" r="94.6"/>
<path class="st2" d="M163.55,245.13c-36.99,28.75-90.47,26.24-124.6-7.64c-37.08-36.81-37.3-96.7-0.49-133.78
	c34.37-34.63,88.89-37.11,126.14-7.3"/>
<path class="st1" d="M44.17,168.44c0,0,2.26-0.68,3.05-0.76c0.71-0.07,2.13,0.46,2.77,0.14c2.14-1.05,5.12-3.08,5.23-2.39
	c0.41,2.4,5.35-2.23,5.41-1c0.06,1.34,0.97,0.96,2.12,1.1c1.93,0.29,4.86-1.08,4.81-0.42c-0.12,1.5,4.37,2.19,4.21,2.89
	c-0.13,0.59,1.2,1.08,1.62,1.27c1.3,0.59,2.55,1.11,2.93,1.93c0.66,1.41,2.05,1.46,4.51,7.49c1.38,3.37,1.96,6.98,1.6,11.18
	c-0.36,4.19-1.54,7.24-3.35,10.62c-1.67,3.13-4.72,5.88-7.46,7.44c-2.63,1.5-7.05,3.36-11.57,3.54c-4.37,0.18-8.45-1.24-11.49-3.36
	c-2.72-1.9-5.02-4.68-6.36-6.52c-0.47-0.64-1.26-2.19-1.83-3.35c2.22,3.92,7.48,8.54,13.34,9.49c6.8,1.1,12.11-1.56,15.06-4.12
	c3.31-2.87,5.81-7.44,6.49-10.64c0.71-3.38,0.26-9.71-2.95-13.52c-3.62-4.3-10.37-7.24-16.14-4.43l0,0c0.18,0.9,0.19,1.84-0.01,2.78
	c-0.33,1.59-1.55,2.85-2.42,3.43c-0.85,0.56-2.4,1.3-3.9,1.32c-0.75,0.01-1.62-0.34-2.38-0.79l-0.02,0.02
	c-0.72,0.28-1.97,1.25-2.52,1.79c-0.56,0.56-2.23,2.33-2.09,3.29c0.03,0.24,0.66,0.45,0.7,0.69c0.05,0.32-1.01,1.55-1.55,1.79
	c-0.3,0.13-0.98,0.04-1.29,0.13c-0.42,0.12-1.21,0.56-1.47,0.9c-0.22,0.29-0.2,1.23-0.55,1.34c-0.36,0.12-1.02-0.59-1.22-0.92
	c-0.15-0.24-0.28-0.83-0.47-1.05c-0.16-0.18-0.73-0.26-0.83-0.48c-0.65-1.45,1.98-7.14,2.8-8.5c0.89-1.47,2.4-2.34,2.86-3.33
	c0.14-0.3-0.14-1.06-0.06-1.37c0.24-0.88,1.42-2.35,2-3.05c0.52-0.63,1.67-2.06,2.11-2.48c0.36-0.34-1.9-0.51-1.9-0.51
	s1.35-0.6,1.83-0.69c0.56-0.11,2.29-0.11,2.29-0.11s-1.51-0.42-2.01-0.52C45.61,168.61,44.17,168.44,44.17,168.44z"/>
<polygon class="st1" points="217.8,60.04 217.8,60.04 172.64,26.88 172.64,48.47 117.23,48.47 117.23,71.95 172.64,71.95 
	172.64,93.54 217.8,60.37 218.02,60.21 "/>
</svg>
